<svg id="Layer_1" data-name="Layer 1" xmlns="http://www.w3.org/2000/svg" xmlns:xlink="http://www.w3.org/1999/xlink" viewBox="0 0 163.65 165.62"><defs><style>.cls-1,.cls-11,.cls-15,.cls-20,.cls-21,.cls-23,.cls-6,.cls-8{fill:none;}.cls-2{clip-path:url(#clip-path);}.cls-3{fill:#193030;}.cls-10,.cls-11,.cls-12,.cls-13,.cls-14,.cls-15,.cls-16,.cls-17,.cls-18,.cls-19,.cls-20,.cls-23,.cls-24,.cls-25,.cls-26,.cls-27,.cls-3,.cls-4,.cls-5,.cls-6,.cls-7{fill-rule:evenodd;}.cls-4{fill:#3c7575;}.cls-5{fill:#306161;}.cls-6,.cls-8{stroke:#b3b3b3;stroke-linecap:round;stroke-linejoin:round;}.cls-11,.cls-15,.cls-20,.cls-21,.cls-23,.cls-6,.cls-8{stroke-width:4px;}.cls-7,.cls-9{fill:#ccc;}.cls-10{fill:#284c4c;}.cls-11{stroke:#000;}.cls-11,.cls-15,.cls-20,.cls-21,.cls-23{stroke-miterlimit:22.93;}.cls-12{fill:#333;}.cls-13{fill:#1a1a1a;}.cls-14{opacity:0.2;}.cls-15{stroke:#4d4d4d;}.cls-16{fill:#b3b3b3;}.cls-17{fill:#4d4d4d;}.cls-18{fill:#3c7676;}.cls-19,.cls-22{fill:#458989;}.cls-20,.cls-21{stroke:#284c4c;}.cls-23{stroke:gray;}.cls-24{fill:#fff;}.cls-25{fill:#326060;}.cls-26{fill:#e6e6e6;}.cls-27{fill:#509c9c;}</style><clipPath id="clip-path"><circle class="cls-1" cx="81.94" cy="81.86" r="81.94"/></clipPath></defs><g class="cls-2"><path class="cls-3" d="M116.53,149.76a13.18,13.18,0,0,0-4.23-2.86,16.85,16.85,0,0,0-.09-1.73,17.85,17.85,0,0,0-.6-3.18,17.37,17.37,0,0,0-7.46-10,14.46,14.46,0,0,0-20.92,6,17.72,17.72,0,0,0,4,20.65h0a16,16,0,0,0,7.08,3.75l.09.34a13.22,13.22,0,1,0,22.09-12.94Zm-1.22,13.83a9.34,9.34,0,0,1-17.15-2L98,161c-.06-.25-.09-.46-.12-.64L97.67,159l-1.44-.19a11.81,11.81,0,0,1-6.37-3h0a13.79,13.79,0,0,1-3.94-6.41,13.47,13.47,0,0,1,.78-9.66,10.6,10.6,0,0,1,15.42-4.42,13.5,13.5,0,0,1,5.77,7.8,16,16,0,0,1,.49,2.5,14.14,14.14,0,0,1,0,2.52l-.13,1.57,1.51.44a9.46,9.46,0,0,1,4,2.39,9.37,9.37,0,0,1,1.53,11.11Z"/><path class="cls-4" d="M110.32,148.24c.15-1.86.82-.86-.57-5.72S99.81,130,92.56,131.4c-4,.75-9,5.09-10.67,9.11-1.4,3.44-.45,8.69,1.33,11.57C87,158.17,90.62,160,96,160.69a11.54,11.54,0,0,0,.32,1.48c2.66,9.27,14.63,12.19,21.12,5.2C122.66,161.73,117.27,150.28,110.32,148.24Z"/><path class="cls-5" d="M94.22,131.24a10.26,10.26,0,0,0-1.66.16A13.68,13.68,0,0,0,87,134.21c7.81-.7,13.32,3.52,17.44,10.7C103.35,138.4,100,133.8,94.22,131.24Z"/><path class="cls-5" d="M99.14,157.88l-.32-1.48a18.64,18.64,0,0,1-5.13-1.3c-.34-.15-.68-.31-1-.49a8.31,8.31,0,0,1-.76-.44l-.07,0a18.53,18.53,0,0,1-5.56-6c-.08-.12-.16-.24-.23-.37a10.38,10.38,0,0,1-.64-1.2c-1.33-3-1.9-7.26-.73-10.27A16.51,16.51,0,0,0,83,138.46c-.14.21-.28.43-.41.65a10.75,10.75,0,0,0-.7,1.4,13.51,13.51,0,0,0-.11,8.1c.16.57.34,1.13.54,1.65a2.33,2.33,0,0,1,.11.28c.18.4.36.78.56,1.14.07.14.15.27.23.4a22.46,22.46,0,0,0,4,4.94,13.43,13.43,0,0,0,2.09,1.55,12.38,12.38,0,0,0,1.66.85,14.16,14.16,0,0,0,1.73.61,21.92,21.92,0,0,0,3.32.66l.32,1.48c2.66,9.27,14.63,12.19,21.12,5.2a13.45,13.45,0,0,0,1.28-1.9l0-.07a8.51,8.51,0,0,0,.47-1.31,12.06,12.06,0,0,1-7,2.84A12.63,12.63,0,0,1,99.14,157.88Z"/><path class="cls-3" d="M105.05,157.23A19.62,19.62,0,0,0,99.68,169l.95.12a18.73,18.73,0,0,1,5.11-11.19,25,25,0,0,1,11.11-6.13l-.27-.93A25.91,25.91,0,0,0,105.05,157.23Z"/><path class="cls-5" d="M101.74,166.9c4.58-8.8,5.32-9.77,12.75-13.62C106.69,155.53,104.29,159.89,101.74,166.9Z"/><path class="cls-6" d="M114.45,152.78l-4.1-1.74a.56.56,0,0,0-.73.3l-.36.84a.55.55,0,0,0,.3.73l4.09,1.74a.55.55,0,0,0,.73-.3l.36-.84A.56.56,0,0,0,114.45,152.78Z"/><path class="cls-7" d="M114.45,152.78l-4.1-1.74a.56.56,0,0,0-.73.3l-.36.84a.55.55,0,0,0,.3.73l4.09,1.74a.55.55,0,0,0,.73-.3l.36-.84A.56.56,0,0,0,114.45,152.78Z"/><path class="cls-6" d="M104.54,155.16a.54.54,0,0,0-.78,0l-.67.62a.56.56,0,0,0,0,.79l3,3.25a.56.56,0,0,0,.79,0l.67-.62a.56.56,0,0,0,0-.79Z"/><path class="cls-7" d="M104.54,155.16a.54.54,0,0,0-.78,0l-.67.62a.56.56,0,0,0,0,.79l3,3.25a.56.56,0,0,0,.79,0l.67-.62a.56.56,0,0,0,0-.79Z"/><rect class="cls-8" x="100.39" y="160.37" width="2.03" height="5.56" rx="0.56" transform="translate(-89.72 182.45) rotate(-63.9)"/><rect class="cls-9" x="100.39" y="160.37" width="2.03" height="5.56" rx="0.56" transform="translate(-89.72 182.45) rotate(-63.9)"/><path class="cls-10" d="M91.86,140.29A1.16,1.16,0,1,0,93,141.45,1.16,1.16,0,0,0,91.86,140.29Z"/><path class="cls-10" d="M100.16,147.6a1,1,0,1,0,1,1A1,1,0,0,0,100.16,147.6Z"/><path class="cls-10" d="M94.76,151.42a.82.82,0,1,0,0,1.64.82.82,0,0,0,0-1.64Z"/><path class="cls-10" d="M108,145.56a.41.41,0,1,0,.41.41A.4.4,0,0,0,108,145.56Z"/><path class="cls-10" d="M113.35,158.73a1,1,0,1,0,1,1A1,1,0,0,0,113.35,158.73Z"/><path class="cls-3" d="M128.17,168.12a8.43,8.43,0,0,0,0-2,8.2,8.2,0,0,0-.71-2.58c-3.38-4.89-6.27-3.62-10.2-2.7-3.42-.2-5.31-1.81-12.17.63-10.16,3.6-11.61,6.63-11.19,18.07.16,4.17,1.77,8,3.31,11.64s3.11,7.38,2.42,10.45a42.84,42.84,0,0,0-.82,4.75c-.48,4.38.07,7.49,1.22,9.65a7.89,7.89,0,0,0,5.38,4.12h0c.38.08.74.14,1.05.18,5.69.62,10.27-4.36,13.81-11.33,5.24-10.31,8.39-25.29,9.09-31.26a20.94,20.94,0,0,0-.07-5.3A18.47,18.47,0,0,0,128.17,168.12Zm-2.6,9.17c-.67,5.72-3.69,20.09-8.69,29.94-2.85,5.61-6.25,9.65-9.95,9.24a4.31,4.31,0,0,1-.63-.09h0a4.14,4.14,0,0,1-2.83-2.16c-.81-1.52-1.18-3.89-.79-7.42a39.45,39.45,0,0,1,.74-4.31c1-4.29-.77-8.44-2.63-12.82-1.4-3.32-2.87-6.79-3-10.28-.14-3.92.17-8.45,2.1-11.9a10.41,10.41,0,0,1,1.76-2.34c2.19-1.91,5.32-3.19,9.69-3.4h0a16.2,16.2,0,0,1,3.78.91c.62.2,1.2.38,1.71.51l.66.16.61-.28h0a4.35,4.35,0,0,1,5.79,2.13,4.44,4.44,0,0,1,.39,1.36h0a4.18,4.18,0,0,1-.08,1.41l-.15.65.28.58a13.85,13.85,0,0,1,1.1,3.81A16.85,16.85,0,0,1,125.57,177.29Z"/><path class="cls-4" d="M125.73,164.34a6.3,6.3,0,0,0-8.36-3.07h0c-1.48-.36-4.19-1.49-6.06-1.47-14,.14-15.72,11.26-15.42,19.64s7.23,15.78,5.68,22.6c-2.76,12.18,1,15.89,5.18,16.35,12.23,1.34,19.66-31.4,20.77-40.89a17.31,17.31,0,0,0-1.33-9.15A6.2,6.2,0,0,0,125.73,164.34Z"/><path class="cls-5" d="M125.73,164.34a6.3,6.3,0,0,0-6.41-3.61,6.07,6.07,0,0,1,1.45,1,6.15,6.15,0,0,1,1.48,2,6.26,6.26,0,0,1,.44,4,17.36,17.36,0,0,1,1.32,9.14c-1,8.65-7.26,36.57-17.6,40.48a6.84,6.84,0,0,1-1.88.43,7,7,0,0,0,2.19.6c12.23,1.34,19.66-31.4,20.77-40.89a17.31,17.31,0,0,0-1.33-9.15A6.2,6.2,0,0,0,125.73,164.34Z"/><path class="cls-5" d="M114.33,160.37a46.83,46.83,0,0,1,2.22,19.83c2.87-6.5,2.23-12.74.79-18.92Z"/><path class="cls-10" d="M106.21,164.81a2,2,0,1,0,2,2A2,2,0,0,0,106.21,164.81Z"/><path class="cls-11" d="M26.23,126.51C17,143.26,35,155.19,32.5,166.77c-1.76,8-2.11,6.15-2.11,10.48A10.5,10.5,0,0,0,40.76,187.8H67.62A10.49,10.49,0,0,0,78,177.25c0-4.1-1-2.06.92-9.24,1.34-4.85,22.13-12.38,19-32.94C94.25,111.58,37.62,105.75,26.23,126.51Z"/><path class="cls-12" d="M26.23,126.51C17,143.26,35,155.19,32.5,166.77c-1.76,8-2.11,6.15-2.11,10.48A10.5,10.5,0,0,0,40.76,187.8H67.62A10.49,10.49,0,0,0,78,177.25c0-4.1-1-2.06.92-9.24,1.34-4.85,22.13-12.38,19-32.94C94.25,111.58,37.62,105.75,26.23,126.51Z"/><path class="cls-13" d="M32.74,164.4a11.21,11.21,0,0,1-.24,2.37c-1.76,8-2.11,6.15-2.11,10.48a11,11,0,0,0,.08,1.29c9.17,1.9,18.42,4,27.66,4a105.21,105.21,0,0,0,19.41-2.18,10.77,10.77,0,0,0,.45-3.08c0-4.1-1-2.06.92-9.24a6.91,6.91,0,0,1,2.17-2.77,99.35,99.35,0,0,1-22.95,3.11A96.27,96.27,0,0,1,32.74,164.4Z"/><path class="cls-14" d="M48.66,182.14a10.49,10.49,0,0,1-10.37-10.55c0-4.33.35-2.45,2.1-10.48,2.55-11.58-15.45-23.51-6.26-40.26a17,17,0,0,1,2.16-3.06c-4.45,2.07-8,5-10.06,8.72C17,143.26,35,155.19,32.5,166.77c-1.76,8-2.11,6.15-2.11,10.48A10.5,10.5,0,0,0,40.76,187.8H67.62a10.39,10.39,0,0,0,9.23-5.74,11.73,11.73,0,0,1-1.33.08Z"/><path class="cls-13" d="M82.38,118.68c-2.79,4-11.35,6.9-21.49,6.9-11.64,0-21.21-3.83-22.34-8.74,0-.16-.06-.31-.08-.47A32.78,32.78,0,0,0,29,121a7,7,0,0,0,.31,1.5,9.85,9.85,0,0,0,2.67,4c5.09,4.87,16.13,8.25,28.93,8.25,14.58,0,26.88-4.38,30.7-10.35a8.17,8.17,0,0,0,.67-1.27,42.07,42.07,0,0,0-9.55-5A5.69,5.69,0,0,1,82.38,118.68Z"/><path class="cls-13" d="M60.76,145.27c-11.67,0-26-3.4-37.14-8-.91-.38-1.76-.77-2.56-1.18-.09,6.75,3.65,12.71,6.53,18.28,11,2.09,22.08,5.08,33.17,5.08,11.44,0,23.36-3,34.64-5.31A22.82,22.82,0,0,0,100.78,136C89.73,141.7,72.66,145.27,60.76,145.27Z"/><path class="cls-15" d="M41.39,116.13c-1.47-.16-2.84.83-5,1.59,34.06,7.94,19.89,44.86,4.18,56.77l6.8.25C63.58,162.48,76.08,119.82,41.39,116.13Z"/><path class="cls-16" d="M41.39,116.13c-1.47-.16-2.84.83-5,1.59,34.06,7.94,19.89,44.86,4.18,56.77l6.8.25C63.58,162.48,76.08,119.82,41.39,116.13Z"/><polygon class="cls-11" points="43.78 122.16 40.15 126.92 35.08 112.63 33.23 121.12 25 109.93 25.86 121.32 17.04 115.85 21.84 126.65 16.71 123.75 21.05 134.36 18.35 134.36 22.26 137.97 39.03 142.65 44.62 134.16 41.46 135.54 43.78 122.16"/><polygon class="cls-17" points="43.78 122.16 40.15 126.92 35.08 112.63 33.23 121.12 25 109.93 25.86 121.32 17.04 115.85 21.84 126.65 16.71 123.75 21.05 134.36 18.35 134.36 22.26 137.97 39.03 142.65 44.62 134.16 41.46 135.54 43.78 122.16"/><path class="cls-11" d="M30.56,122.8c-4.61,0-8.37,6-8.37,13.4s3.76,13.4,8.37,13.4,8.38-6,8.38-13.4S35.18,122.8,30.56,122.8Z"/><path class="cls-18" d="M30.56,122.8c-4.61,0-8.37,6-8.37,13.4s3.76,13.4,8.37,13.4,8.38-6,8.38-13.4S35.18,122.8,30.56,122.8Z"/><path class="cls-19" d="M30.88,124.77c-4.39,0-8,6-8,13.41s3.58,13.4,8,13.4,8-6,8-13.4S35.26,124.77,30.88,124.77Z"/><path class="cls-15" d="M65.75,114.63c18,4.21,24.42,8,26.55,20.89,2.37,14.34-15.35,33.92-22.18,39.1l5.07-.72c6.82-5.18,25.54-24,23.17-38.38S86,116.43,65.75,114.63Z"/><path class="cls-16" d="M65.75,114.63c18,4.21,24.42,8,26.55,20.89,2.37,14.34-15.35,33.92-22.18,39.1l5.07-.72c6.82-5.18,25.54-24,23.17-38.38S86,116.43,65.75,114.63Z"/><path class="cls-20" d="M127.62,86.63a13.53,13.53,0,1,0,13.53,13.53A13.52,13.52,0,0,0,127.62,86.63Z"/><path class="cls-19" d="M127.62,86.63a13.53,13.53,0,1,0,13.53,13.53A13.52,13.52,0,0,0,127.62,86.63Z"/><path class="cls-18" d="M123.69,91.43a14.18,14.18,0,0,0-8,2.32,13.55,13.55,0,0,0,.07,12.94,14.23,14.23,0,0,0,7.91,2.28c6.5,0,11.78-3.93,11.78-8.77S130.19,91.43,123.69,91.43Z"/><path class="cls-20" d="M33,87.45A13.53,13.53,0,1,0,46.55,101,13.52,13.52,0,0,0,33,87.45Z"/><path class="cls-19" d="M33,87.45A13.53,13.53,0,1,0,46.55,101,13.52,13.52,0,0,0,33,87.45Z"/><path class="cls-18" d="M37,92.25c-6.5,0-11.77,3.92-11.77,8.77s5.27,8.77,11.77,8.77a14.21,14.21,0,0,0,7.91-2.28,13.55,13.55,0,0,0,.07-12.94A14.18,14.18,0,0,0,37,92.25Z"/><rect class="cls-21" x="35.02" y="6.05" width="98.21" height="123.95" rx="31.85"/><rect class="cls-22" x="35.02" y="6.05" width="98.21" height="123.95" rx="31.85"/><path class="cls-18" d="M75.09,120.46A32,32,0,0,1,43.67,93.81c-.08-.47-.15-1-.2-1.43a31.41,31.41,0,0,1-.23-3.77V28.35a31.53,31.53,0,0,1,4.1-15.57A31.84,31.84,0,0,0,35,37.9V98.15a31.69,31.69,0,0,0,3.8,15,31.93,31.93,0,0,0,28,16.8h34.51a31.91,31.91,0,0,0,27.76-16.28,31.62,31.62,0,0,1-19.53,6.74Z"/><path class="cls-10" d="M35,74.4v1.94c17.92,0,32-9.19,37.28-26C63.83,66,51.82,74.8,35,74.4Z"/><path class="cls-18" d="M38.42,76.82c7.52,2.77,25.34-2.25,33.08-21.32C64,69.36,53.33,77.17,38.42,76.82Z"/><path class="cls-6" d="M41.52,69.56a1.26,1.26,0,0,0-1.6-.79l-2,.65a1.26,1.26,0,0,0-.79,1.6l3.2,9.54a1.27,1.27,0,0,0,1.6.8l2-.66a1.27,1.27,0,0,0,.8-1.6Z"/><path class="cls-7" d="M41.52,69.56a1.26,1.26,0,0,0-1.6-.79l-2,.65a1.26,1.26,0,0,0-.79,1.6l3.2,9.54a1.27,1.27,0,0,0,1.6.8l2-.66a1.27,1.27,0,0,0,.8-1.6Z"/><path class="cls-18" d="M108.69,15.58l-4.11,6.25L88,11.3,80.55,22.49,70.18,12.62l-.49,13L61.63,19,51.75,33,47,27.59l-3.74,1.68v7.28l3.75-2,3.95,7.32L62.38,24.09,72.5,34.21l2-11.6,9.63,10,6-14.49,13.57,11.93L109,21.87l8.12,10.76.78-.3c-.33-2.74-.76-5.5-1.32-8.26Z"/><path class="cls-18" d="M122.94,21,122.38,22a1.26,1.26,0,0,1-1.7.54l-.83-.43-.09.16a57.79,57.79,0,0,1,2,8.56l1.37-.53,2-2.86,7.73,5.81a31.9,31.9,0,0,0-.9-4.15Z"/><path class="cls-18" d="M118.57,24.33c.49,2.43.89,4.87,1.17,7.3l1.35-.52a69.92,69.92,0,0,0-1.57-8.42Z"/><rect class="cls-8" x="50.66" y="65.39" width="4.59" height="12.59" rx="1.26" transform="translate(-2.37 1.81) rotate(-1.92)"/><rect class="cls-9" x="50.66" y="65.39" width="4.59" height="12.59" rx="1.26" transform="translate(-2.37 1.81) rotate(-1.92)"/><path class="cls-6" d="M68.94,63.33l-9-4.46a1.27,1.27,0,0,0-1.7.57l-.91,1.86A1.27,1.27,0,0,0,57.88,63l9,4.46a1.26,1.26,0,0,0,1.69-.57L69.51,65A1.27,1.27,0,0,0,68.94,63.33Z"/><path class="cls-7" d="M68.94,63.33l-9-4.46a1.27,1.27,0,0,0-1.7.57l-.91,1.86A1.27,1.27,0,0,0,57.88,63l9,4.46a1.26,1.26,0,0,0,1.69-.57L69.51,65A1.27,1.27,0,0,0,68.94,63.33Z"/><path class="cls-10" d="M112.2,8c7.74,22.35,8.84,44.22,1.08,65.41,9.56-21.57,8.91-43.14.67-64.72C113.38,8.4,112.79,8.17,112.2,8Z"/><path class="cls-18" d="M117.78,65.23c3.66-8.27,8.42-28.36.19-47.77C123.09,32.27,122.92,51.19,117.78,65.23Z"/><path class="cls-6" d="M122.71,62.4l-9-4.46a1.26,1.26,0,0,0-1.69.58l-.92,1.85a1.26,1.26,0,0,0,.58,1.69l9,4.46a1.27,1.27,0,0,0,1.69-.57l.91-1.85A1.27,1.27,0,0,0,122.71,62.4Z"/><path class="cls-7" d="M122.71,62.4l-9-4.46a1.26,1.26,0,0,0-1.69.58l-.92,1.85a1.26,1.26,0,0,0,.58,1.69l9,4.46a1.27,1.27,0,0,0,1.69-.57l.91-1.85A1.27,1.27,0,0,0,122.71,62.4Z"/><path class="cls-6" d="M125.16,46.83l-10-1a1.25,1.25,0,0,0-1.38,1.12L113.56,49a1.27,1.27,0,0,0,1.12,1.39l10,1a1.27,1.27,0,0,0,1.39-1.13l.21-2.06A1.27,1.27,0,0,0,125.16,46.83Z"/><path class="cls-7" d="M125.16,46.83l-10-1a1.25,1.25,0,0,0-1.38,1.12L113.56,49a1.27,1.27,0,0,0,1.12,1.39l10,1a1.27,1.27,0,0,0,1.39-1.13l.21-2.06A1.27,1.27,0,0,0,125.16,46.83Z"/><path class="cls-6" d="M124.76,31.05a1.26,1.26,0,0,0-1.63-.73L113.74,34a1.27,1.27,0,0,0-.72,1.63l.74,1.93a1.27,1.27,0,0,0,1.64.72l9.39-3.62a1.26,1.26,0,0,0,.72-1.63Z"/><path class="cls-7" d="M124.76,31.05a1.26,1.26,0,0,0-1.63-.73L113.74,34a1.27,1.27,0,0,0-.72,1.63l.74,1.93a1.27,1.27,0,0,0,1.64.72l9.39-3.62a1.26,1.26,0,0,0,.72-1.63Z"/><path class="cls-6" d="M122.79,18.48l-8.94-4.61a1.27,1.27,0,0,0-1.71.54l-1,1.84a1.28,1.28,0,0,0,.55,1.7l8.94,4.61a1.26,1.26,0,0,0,1.7-.54l1-1.84A1.27,1.27,0,0,0,122.79,18.48Z"/><path class="cls-7" d="M122.79,18.48l-8.94-4.61a1.27,1.27,0,0,0-1.71.54l-1,1.84a1.28,1.28,0,0,0,.55,1.7l8.94,4.61a1.26,1.26,0,0,0,1.7-.54l1-1.84A1.27,1.27,0,0,0,122.79,18.48Z"/><polygon class="cls-11" points="133.21 9.16 141.94 -8.12 124 -2.69 125.31 -14.86 106.39 -6.31 98.16 -14.21 97.17 -6.31 84.17 -15.69 84.83 -9.1 78.74 -10.91 54.06 -14.37 63.27 -5.98 44.35 -5.98 50.6 -0.38 28.71 -0.38 36.12 8.34 23.29 16.08 31.84 24.47 26.41 36.81 46.98 27.59 51.75 33.02 61.63 19.04 69.69 25.62 70.19 12.62 80.55 22.49 87.96 11.3 104.58 21.84 108.69 15.58 117.91 25.45 121.37 19.53 136.67 33.35 133.05 17.72 145.72 15.25 133.21 9.16"/><polygon class="cls-12" points="133.21 9.16 141.94 -8.12 124 -2.69 125.31 -14.86 106.39 -6.31 98.16 -14.21 97.17 -6.31 84.17 -15.69 84.83 -9.1 78.74 -10.91 54.06 -14.37 63.27 -5.98 44.35 -5.98 50.6 -0.38 28.71 -0.38 36.12 8.34 23.29 16.08 31.84 24.47 26.41 36.81 46.98 27.59 51.75 33.02 61.63 19.04 69.69 25.62 70.19 12.62 80.55 22.49 87.96 11.3 104.58 21.84 108.69 15.58 117.91 25.45 121.37 19.53 136.67 33.35 133.05 17.72 145.72 15.25 133.21 9.16"/><polygon class="cls-13" points="133.06 25.86 122.28 11.79 121.44 13.21 119.35 16.71 118.35 18.39 118.31 18.46 117.52 19.79 114.78 16.31 112.82 13.81 107.14 6.58 105.74 4.79 105.55 6.33 104.42 15.49 87.72 6.05 86.08 5.12 85.47 6.05 80.07 14.42 73.33 6.05 69.86 1.75 68.53 6.05 65.5 15.82 59.74 9.16 51.68 29.73 49.62 15.98 44.28 20.32 37.37 25.92 30.95 31.13 36.29 20.92 23.29 16.08 31.84 24.47 26.41 36.81 35.43 32.77 43.24 29.27 46.98 27.59 51.75 33.02 61.63 19.04 69.69 25.62 70.19 12.62 80.55 22.49 87.96 11.3 104.58 21.84 108.69 15.58 116.61 24.07 117.91 25.45 118.57 24.33 119.52 22.69 119.76 22.29 119.85 22.13 121.37 19.53 122.94 20.95 131.99 29.13 136.67 33.35 133.05 17.72 133.06 25.86"/><polygon class="cls-13" points="36.12 8.34 50.78 6.52 28.71 -0.38 36.12 8.34"/><polygon class="cls-13" points="133.21 9.16 141.94 -8.12 125.9 6.69 133.21 9.16"/><polygon class="cls-13" points="133.05 17.72 145.72 15.25 130.43 13.35 133.05 17.72"/><path class="cls-23" d="M40.16,49l-14-4c1,.27.94,3.34-.05,6.86s-4.51,5.6-3.55,5.87l14,4c1,.27,2.56-2.36,3.55-5.88S41.12,49.23,40.16,49Z"/><path class="cls-16" d="M40.16,49l-14-4c1,.27.94,3.34-.05,6.86s-4.51,5.6-3.55,5.87l14,4c1,.27,2.56-2.36,3.55-5.88S41.12,49.23,40.16,49Z"/><path class="cls-16" d="M26.18,45c-1-.27-2.55,2.36-3.54,5.87s-1,6.59-.06,6.86,2.55-2.35,3.55-5.87S27.15,45.27,26.18,45Z"/><path class="cls-24" d="M26.78,45.93a10.44,10.44,0,0,1-.15,3.78l14,3.95a10.66,10.66,0,0,0,.16-3.77Z"/><path class="cls-24" d="M26.23,51.48l14,4c.13-.45.23-.9.32-1.33l-14-4C26.46,50.58,26.35,51,26.23,51.48Z"/><path class="cls-23" d="M22.67,37.65c-1.79-.51-4.75,4.38-6.59,10.91S14.18,60.81,16,61.32s4.75-4.38,6.6-10.92S24.46,38.15,22.67,37.65Z"/><path class="cls-16" d="M22.67,37.65c-1.79-.51-4.75,4.38-6.59,10.91S14.18,60.81,16,61.32s4.75-4.38,6.6-10.92S24.46,38.15,22.67,37.65Z"/><path class="cls-23" d="M30,39.71l-7.28-2.06c1.79.5,1.75,6.21-.1,12.75S17.77,61.83,16,61.32l7.29,2.06c1.79.51,4.74-4.38,6.59-10.92S31.75,40.21,30,39.71Z"/><path class="cls-7" d="M30,39.71l-7.28-2.06c1.79.5,1.75,6.21-.1,12.75S17.77,61.83,16,61.32l7.29,2.06c1.79.51,4.74-4.38,6.59-10.92S31.75,40.21,30,39.71Z"/><path class="cls-24" d="M23.79,39.38a19.94,19.94,0,0,1-.29,7l7.28,2.06a19.94,19.94,0,0,0,.29-7Z"/><path class="cls-24" d="M22.76,49.69,30,51.76c.23-.85.43-1.69.59-2.49l-7.29-2.06C23.18,48,23,48.85,22.76,49.69Z"/><path class="cls-18" d="M130.52,84.36c-2.13.38-4.65-3.77-5.63-9.28a21.34,21.34,0,0,1-.21-6.78c-.88,1.91-1.1,5.32-.43,9.07,1,5.5,3.51,9.66,5.63,9.28,1.15-.21,1.94-1.69,2.28-3.87A2.44,2.44,0,0,1,130.52,84.36Z"/><path class="cls-25" d="M76,70.78a2.1,2.1,0,1,0,2.1,2.09A2.09,2.09,0,0,0,76,70.78Z"/><path class="cls-25" d="M58.78,80.25a.91.91,0,0,0,0,1.81.91.91,0,1,0,0-1.81Z"/><path class="cls-25" d="M89.61,73.46a1.73,1.73,0,1,0,1.72,1.73A1.73,1.73,0,0,0,89.61,73.46Z"/><path class="cls-25" d="M100.76,59.65A2.22,2.22,0,1,0,103,61.87,2.21,2.21,0,0,0,100.76,59.65Z"/><path class="cls-25" d="M102.24,53.89A1.07,1.07,0,1,0,103.31,55,1.07,1.07,0,0,0,102.24,53.89Z"/><path class="cls-25" d="M112.88,81.81a2.77,2.77,0,1,0,2.76,2.76A2.77,2.77,0,0,0,112.88,81.81Z"/><path class="cls-25" d="M92.77,92.57a1.65,1.65,0,1,0,1.64,1.65A1.65,1.65,0,0,0,92.77,92.57Z"/><path class="cls-25" d="M56.16,42.37a1.56,1.56,0,1,0,1.57,1.56A1.56,1.56,0,0,0,56.16,42.37Z"/><path class="cls-25" d="M63.32,32.49A1.65,1.65,0,1,0,65,34.14,1.64,1.64,0,0,0,63.32,32.49Z"/><path class="cls-25" d="M67.25,92.15a15.19,15.19,0,1,0,15.18,15.19A15.22,15.22,0,0,0,67.25,92.15Z"/><path class="cls-20" d="M68.53,95A11.07,11.07,0,1,0,79.6,106.05,11.09,11.09,0,0,0,68.53,95Z"/><path class="cls-24" d="M68.53,95A11.07,11.07,0,1,0,79.6,106.05,11.09,11.09,0,0,0,68.53,95Z"/><path class="cls-26" d="M70.32,99a7.06,7.06,0,1,0,7.05,7.06A7.07,7.07,0,0,0,70.32,99Z"/><path class="cls-24" d="M65.81,96.9A5.17,5.17,0,1,0,71,102.07,5.18,5.18,0,0,0,65.81,96.9Z"/><path class="cls-24" d="M73.91,109.6a1.92,1.92,0,1,0,1.92,1.92A1.92,1.92,0,0,0,73.91,109.6Z"/><path class="cls-25" d="M117.65,98.82a10.93,10.93,0,1,0,10.93,10.93A11,11,0,0,0,117.65,98.82Z"/><path class="cls-20" d="M116.83,100.85a8,8,0,1,0,8,8A8,8,0,0,0,116.83,100.85Z"/><path class="cls-24" d="M116.83,100.85a8,8,0,1,0,8,8A8,8,0,0,0,116.83,100.85Z"/><path class="cls-26" d="M118.12,103.75a5.08,5.08,0,1,0,5.08,5.07A5.09,5.09,0,0,0,118.12,103.75Z"/><path class="cls-24" d="M114.87,102.24a3.72,3.72,0,1,0,3.72,3.72A3.73,3.73,0,0,0,114.87,102.24Z"/><path class="cls-24" d="M120.7,111.38a1.38,1.38,0,1,0,1.38,1.38A1.38,1.38,0,0,0,120.7,111.38Z"/><polygon class="cls-19" points="50.58 108.13 84.02 104.59 84.02 88.53 50.58 92.06 50.58 108.13"/><polygon class="cls-19" points="104.78 107.51 129.4 107.63 129.4 91.57 104.78 91.44 104.78 107.51"/><polygon class="cls-18" points="85.17 101.4 53.07 101.88 54.75 96.33 51.13 84.81 51.99 95.8 47.64 108.05 51.58 108.03 89.69 103.94 84.72 97.13 85.17 101.4"/><polygon class="cls-18" points="127.4 103.64 106.82 104.99 106.73 100.84 103.86 107.52 128.84 107.74 131.42 107.76 125.84 94.06 127.4 103.64"/><path class="cls-25" d="M89.47,112a2,2,0,1,0,2,2A2,2,0,0,0,89.47,112Z"/><path class="cls-27" d="M78.57,94.25c-5.38-2.85-18.42-4.14-22.11,1.64-1.21,1.89,1,2.37,2.36,1.8,4.26-1.78,14.8-2.3,19.48-1.33C79.34,96.57,79.25,94.61,78.57,94.25Z"/><path class="cls-27" d="M108.28,98.68c-.43.32-.12,1.66.6,1.41,3.24-1.13,11.08-1.82,14.55-1,1.11.26,2.64-.29,1.38-1.46C121,94,111.68,96.2,108.28,98.68Z"/><path class="cls-23" d="M141.41,64.49l-14,4c-1,.27-.94,3.34,0,6.86s2.58,6.15,3.55,5.87l14-4c1-.28-2.55-2.36-3.54-5.87S140.45,64.76,141.41,64.49Z"/><path class="cls-16" d="M141.41,64.49l-14,4c-1,.27-.94,3.34,0,6.86s2.58,6.15,3.55,5.87l14-4c1-.28-2.55-2.36-3.54-5.87S140.45,64.76,141.41,64.49Z"/><path class="cls-16" d="M141.41,64.49c-1,.27-.94,3.34.06,6.86s2.58,6.14,3.54,5.87.94-3.35,0-6.86S142.37,64.21,141.41,64.49Z"/><path class="cls-24" d="M140.81,65.42l-14,4a10.61,10.61,0,0,0,.15,3.77l14-4A10.66,10.66,0,0,1,140.81,65.42Z"/><path class="cls-24" d="M127.07,73.58c.09.43.2.88.32,1.34l14-4c-.12-.46-.22-.91-.31-1.34Z"/><path class="cls-23" d="M144.92,57.13c-1.79.51-1.74,6.22.11,12.76s4.8,11.42,6.59,10.92,1.75-6.22-.1-12.76S146.72,56.62,144.92,57.13Z"/><path class="cls-16" d="M144.92,57.13c-1.79.51-1.74,6.22.11,12.76s4.8,11.42,6.59,10.92,1.75-6.22-.1-12.76S146.72,56.62,144.92,57.13Z"/><path class="cls-23" d="M145,69.89c-1.85-6.54-1.9-12.25-.11-12.76l-7.28,2.06c-1.79.51-1.75,6.22.1,12.76s4.8,11.42,6.6,10.92l7.28-2.06C149.83,81.31,146.87,76.42,145,69.89Z"/><path class="cls-7" d="M145,69.89c-1.85-6.54-1.9-12.25-.11-12.76l-7.28,2.06c-1.79.51-1.75,6.22.1,12.76s4.8,11.42,6.6,10.92l7.28-2.06C149.83,81.31,146.87,76.42,145,69.89Z"/><path class="cls-24" d="M143.81,58.87l-7.29,2.06a19.89,19.89,0,0,0,.29,7l7.28-2.06A19.84,19.84,0,0,1,143.81,58.87Z"/><path class="cls-24" d="M137,68.75c.16.81.35,1.64.58,2.49l7.28-2.06c-.22-.85-.42-1.68-.58-2.49Z"/><path class="cls-10" d="M20.7,124a15.33,15.33,0,0,0-11.36,5.15,18.15,18.15,0,0,0-4.62,12.21A19.21,19.21,0,0,0,5,144.69c.11.6.25,1.19.41,1.76a13.81,13.81,0,1,0,22.49,10.73v-.37a16.5,16.5,0,0,0,6-5.8h0a18.54,18.54,0,0,0-1.89-21.9A15.35,15.35,0,0,0,20.7,124Zm9.83,24.92h0A12.3,12.3,0,0,1,25,153.75l-1.39.6.19,1.51c0,.18.05.41.06.67l0,.65a9.76,9.76,0,1,1-18.32-4.7,9.8,9.8,0,0,1,3.34-3.55l1.39-.88-.59-1.54a14.43,14.43,0,0,1-.93-5.19,14.11,14.11,0,0,1,3.55-9.49A11.36,11.36,0,0,1,20.7,128a11.34,11.34,0,0,1,8.38,3.83,14.07,14.07,0,0,1,3.56,9.49A14.29,14.29,0,0,1,30.53,148.88Z"/><path class="cls-19" d="M20.81,125.2c-7.67.72-14.06,10.84-14.06,16.12s.38,4.09,1.07,5.9c-6.39,4.06-8.51,17.1-1.64,21.26,8.53,5.16,19.72-1.21,19.72-11.3a11.61,11.61,0,0,0-.1-1.57c5.19-2.24,8.31-5.12,10.34-12.32,1-3.4.41-8.95-2-12C31.34,127.72,25,124.81,20.81,125.2Z"/><path class="cls-18" d="M20.81,125.2a11,11,0,0,0-1.71.32c-5.07,4.24-7.11,9.82-6.31,16.67,2.07-8.4,6.39-14.22,14.43-15.77A14.36,14.36,0,0,0,20.81,125.2Z"/><path class="cls-18" d="M33,130.08l-.6-.54a16.77,16.77,0,0,0-2.31-1.65c2.05,2.68,2.71,7.17,2.22,10.52a11,11,0,0,1-.29,1.39c0,.15-.09.3-.13.44a19.39,19.39,0,0,1-3.87,7.59l-.06.06q-.3.35-.63.66c-.28.28-.58.54-.88.79a20.08,20.08,0,0,1-4.78,2.78l.11,1.57a13.18,13.18,0,0,1-10.51,12.84,12.5,12.5,0,0,1-7.86-.83,8.3,8.3,0,0,0,.85,1.19l.06.06a14,14,0,0,0,1.82,1.53c8.53,5.16,19.72-1.21,19.72-11.3l-.1-1.57A23.66,23.66,0,0,0,28.94,154a15.18,15.18,0,0,0,1.57-1.11,13.72,13.72,0,0,0,1.42-1.33,14,14,0,0,0,1.65-2.16,23.31,23.31,0,0,0,2.56-6.1l.12-.47a10.22,10.22,0,0,0,.22-1.31,2.91,2.91,0,0,0,0-.31c0-.58.07-1.19.07-1.81a14.17,14.17,0,0,0-2.45-8.11A11.07,11.07,0,0,0,33,130.08Z"/><path class="cls-10" d="M15.69,154.74a26.88,26.88,0,0,0-13.41-3.1v1a26.05,26.05,0,0,1,12.92,3,19.57,19.57,0,0,1,8.34,9.77l.93-.39A20.46,20.46,0,0,0,15.69,154.74Z"/><path class="cls-18" d="M5.08,153.49c8.57,1.72,9.59,2.49,16.72,10C17.22,157.19,13.56,153.51,5.08,153.49Z"/><path class="cls-8" d="M5.13,151.28H9.78a.58.58,0,0,1,.58.58v1a.59.59,0,0,1-.59.59H5.13a.58.58,0,0,1-.58-.58v-1a.58.58,0,0,1,.58-.58Z" transform="translate(-94.18 38.61) rotate(-38.99)"/><path class="cls-9" d="M5.13,151.28H9.78a.58.58,0,0,1,.58.58v1a.59.59,0,0,1-.59.59H5.13a.58.58,0,0,1-.58-.58v-1a.58.58,0,0,1,.58-.58Z" transform="translate(-94.18 38.61) rotate(-38.99)"/><path class="cls-6" d="M17.24,152.7l-.85-.44a.59.59,0,0,0-.78.26l-2.12,4.13a.59.59,0,0,0,.25.79l.85.44a.59.59,0,0,0,.79-.26l2.12-4.14A.59.59,0,0,0,17.24,152.7Z"/><path class="cls-7" d="M17.24,152.7l-.85-.44a.59.59,0,0,0-.78.26l-2.12,4.13a.59.59,0,0,0,.25.79l.85.44a.59.59,0,0,0,.79-.26l2.12-4.14A.59.59,0,0,0,17.24,152.7Z"/><rect class="cls-8" x="18.15" y="158.58" width="5.81" height="2.12" rx="0.58" transform="translate(-101.59 55.3) rotate(-42.1)"/><rect class="cls-9" x="18.15" y="158.58" width="5.81" height="2.12" rx="0.58" transform="translate(-101.59 55.3) rotate(-42.1)"/><path class="cls-25" d="M20.94,133.68a1,1,0,1,0,1,1A1,1,0,0,0,20.94,133.68Z"/><path class="cls-25" d="M25,141.64a.89.89,0,1,0,.89.89A.89.89,0,0,0,25,141.64Z"/><path class="cls-25" d="M9.89,142.22a1.09,1.09,0,1,0,0,2.18,1.09,1.09,0,0,0,0-2.18Z"/><path class="cls-25" d="M19.94,147.74a.68.68,0,1,0,.68.68A.68.68,0,0,0,19.94,147.74Z"/><path class="cls-25" d="M9.54,157.24a.66.66,0,0,0,0,1.32.66.66,0,1,0,0-1.32Z"/><path class="cls-25" d="M4.94,159.7a.25.25,0,0,0-.25.25.25.25,0,1,0,.5,0A.25.25,0,0,0,4.94,159.7Z"/><path class="cls-10" d="M39.73,196.5c-2-2.62-2.15-6.68-2.3-11-.13-4.13-.28-8.46-2-12.48-4.63-11-7.32-13.27-18.54-12.23-7.58.7-8.67,3.05-11.82,4.75-4.12.85-7.42.9-8.48,7a8.82,8.82,0,0,0,.45,2.76h0a8.42,8.42,0,0,0,.9,1.89,18.71,18.71,0,0,0,.79,4.59A21,21,0,0,0,1,186.89c3.28,5.36,12.84,18.18,22.33,25.66,6.41,5,13,7.77,18.06,4.68a8.44,8.44,0,0,0,.92-.63h0a8.21,8.21,0,0,0,3.29-6.27c.14-2.54-.69-5.74-3.07-9.68A44.14,44.14,0,0,0,39.73,196.5Zm1.9,13.6a4.32,4.32,0,0,1-1.72,3.3h0a5.44,5.44,0,0,1-.56.37c-3.33,2-8.33-.33-13.49-4.4-9.07-7.15-18.23-19.45-21.38-24.58a17.33,17.33,0,0,1-1.83-4.11A14.13,14.13,0,0,1,2,176.59v-.68l-.42-.55a4.31,4.31,0,0,1-.7-1.3h0a4.56,4.56,0,0,1-.24-1.46A4.58,4.58,0,0,1,5.23,168H6l.55-.44c.43-.35.9-.78,1.41-1.24a16.84,16.84,0,0,1,3.17-2.52l.05,0h0c4.23-1.72,7.76-1.88,10.68-1a11.23,11.23,0,0,1,2.69,1.45c3.34,2.43,5.63,6.59,7.21,10.37,1.41,3.36,1.54,7.3,1.67,11.06.16,5,.32,9.67,3.12,13.31a41.75,41.75,0,0,1,2.6,3.76C41.05,205.9,41.74,208.31,41.63,210.1Z"/><path class="cls-19" d="M33.6,173.81c-3.39-8.08-9.89-17.87-23.23-11.86-1.78.8-3.86,3.06-5.11,4.06h0A6.59,6.59,0,0,0,0,176.59a18.12,18.12,0,0,0,2.76,9.25c5.21,8.52,26.63,36.3,37.63,29.66,3.77-2.27,5.7-7.43-2.26-17.77C33.67,191.94,37,181.85,33.6,173.81Z"/><path class="cls-18" d="M5.26,166c1.35,6.49,3.48,12.68,9.05,17.59a49,49,0,0,1-6.59-19.79Z"/></g></svg>