<svg width="95" height="41" viewBox="0 0 95 41" fill="none" xmlns="http://www.w3.org/2000/svg">
<g clip-path="url(#clip0)">
<path fill-rule="evenodd" clip-rule="evenodd" d="M6.23001 0.130005H89L95 6.06V34.92L89 40.85H5.69001L-0.23999 34.92V6.06L5.69001 0.130005H6.23001ZM88 2.72001H6.76001L2.35001 7.13V33.85L6.76001 38.26H88L92.42 33.85V7.13L88 2.72001Z" fill="#242127"/>
<path fill-rule="evenodd" clip-rule="evenodd" d="M6.22999 1.42001H88.51L93.68 6.59001V34.39L88.51 39.56H6.22999L1.04999 34.39V6.59001L6.22999 1.42001Z" fill="#72667C"/>
<path fill-rule="evenodd" clip-rule="evenodd" d="M8.42001 4.44H86.31L90.67 8.79V32.19L86.31 36.54H8.42001L4.07001 32.19V8.79L8.42001 4.44Z" fill="#84758F"/>
<path fill-rule="evenodd" clip-rule="evenodd" d="M1.04999 25.51V22.86H4.06999L7.04999 20.92L4.06999 24.41L1.04999 25.51Z" fill="#242127"/>
<path fill-rule="evenodd" clip-rule="evenodd" d="M5.12001 9.64L9.46001 5.35H85.58L89.66 9.1L90.67 17.51V8.79L86.31 4.44H8.42001L4.07001 8.79V17.51L5.12001 9.64Z" fill="#A398AC"/>
<path fill-rule="evenodd" clip-rule="evenodd" d="M1.04999 6.59001V15.2L1.71999 7.16001L6.89999 1.99001H88.11L93.03 6.91001L93.68 15.71V6.59001L88.51 1.42001H6.22999L1.04999 6.59001Z" fill="#84758F"/>
<path fill-rule="evenodd" clip-rule="evenodd" d="M84.65 1.42001H81.36L79.85 3.75001L84.65 1.42001Z" fill="#242127"/>
<path fill-rule="evenodd" clip-rule="evenodd" d="M83.53 39.56H80.58L80.29 36.54L82.98 31.69L81.38 26.69L84.79 31.15L90.67 32.19L93.68 34.39L91.61 36.45L89.64 33.22L84.28 32.24L81.8 36.54L83.53 39.56Z" fill="#242127"/>
<path fill-rule="evenodd" clip-rule="evenodd" d="M84.28 32.24L82 36.2L84.72 32.75L89.17 33.13L84.28 32.24Z" fill="#A398AC"/>
<path fill-rule="evenodd" clip-rule="evenodd" d="M22.59 1.42001H20.88L21.98 3.42001L26.01 4.23001L27.02 5.35001L26.36 7.59001L27.92 5.35001L27.37 4.20001L30.44 2.98001L30.89 1.42001H29.4L29.08 2.61001L26.85 3.50001L22.97 2.75001L22.59 1.42001Z" fill="#242127"/>
<path fill-rule="evenodd" clip-rule="evenodd" d="M8.86068 12C9.22683 12.0001 9.58481 12.1083 9.88976 12.3109C10.1947 12.5136 10.4331 12.8018 10.5749 13.1393C10.7168 13.4769 10.7559 13.8488 10.6873 14.2084C10.6187 14.5681 10.4455 14.8995 10.1894 15.1612C9.93324 15.4228 9.60557 15.6031 9.24744 15.6793C8.88931 15.7555 8.51665 15.7243 8.17617 15.5897C7.83568 15.455 7.54251 15.2228 7.3334 14.9223C7.1243 14.6217 7.00855 14.2661 7.00068 13.9C6.99397 13.6521 7.0372 13.4053 7.12779 13.1744C7.21838 12.9434 7.35449 12.7331 7.52801 12.5558C7.70154 12.3786 7.90894 12.238 8.13788 12.1425C8.36682 12.0471 8.61263 11.9986 8.86068 12V12Z" fill="#514257"/>
<path fill-rule="evenodd" clip-rule="evenodd" d="M84.6501 21.53C84.8913 21.53 85.1272 21.6015 85.3279 21.7356C85.5285 21.8697 85.6848 22.0602 85.7772 22.2831C85.8695 22.5061 85.8937 22.7514 85.8466 22.988C85.7995 23.2247 85.6833 23.442 85.5127 23.6127C85.3421 23.7833 85.1247 23.8995 84.8881 23.9466C84.6514 23.9936 84.4061 23.9695 84.1832 23.8771C83.9603 23.7848 83.7697 23.6284 83.6357 23.4278C83.5016 23.2272 83.4301 22.9913 83.4301 22.75C83.4301 22.4264 83.5586 22.1161 83.7874 21.8873C84.0162 21.6585 84.3265 21.53 84.6501 21.53V21.53Z" fill="#514257"/>
<path d="M60.22 10.44C60.8938 10.44 61.44 9.89379 61.44 9.22C61.44 8.54621 60.8938 8 60.22 8C59.5462 8 59 8.54621 59 9.22C59 9.89379 59.5462 10.44 60.22 10.44Z" fill="#514257"/>
<path fill-rule="evenodd" clip-rule="evenodd" d="M36.33 31C36.5931 31 36.8502 31.078 37.0689 31.2242C37.2877 31.3703 37.4581 31.578 37.5588 31.8211C37.6595 32.0641 37.6858 32.3315 37.6345 32.5895C37.5832 32.8475 37.4565 33.0845 37.2705 33.2705C37.0845 33.4565 36.8475 33.5832 36.5895 33.6345C36.3315 33.6858 36.0641 33.6595 35.8211 33.5588C35.578 33.4581 35.3703 33.2877 35.2242 33.0689C35.078 32.8502 35 32.5931 35 32.33C34.9987 32.155 35.0322 31.9815 35.0986 31.8195C35.1649 31.6575 35.2629 31.5104 35.3866 31.3866C35.5104 31.2628 35.6575 31.1649 35.8195 31.0986C35.9815 31.0322 36.155 30.9987 36.33 31Z" fill="#514257"/>
</g>
<defs>
<clipPath id="clip0">
<rect width="94.97" height="40.85" fill="white"/>
</clipPath>
</defs>
</svg>
