<svg id="Layer_1" data-name="Layer 1" xmlns="http://www.w3.org/2000/svg" xmlns:xlink="http://www.w3.org/1999/xlink" viewBox="0 0 162.7 163.88"><defs><style>.cls-1,.cls-44{fill:none;}.cls-2{clip-path:url(#clip-path);}.cls-14,.cls-3{fill:#010101;}.cls-4{fill:url(#radial-gradient);}.cls-5{fill:#2f5b5b;}.cls-6{fill:#284b4b;}.cls-7{fill:url(#radial-gradient-2);}.cls-8{fill:#4f4f4f;}.cls-9{fill:#151515;}.cls-10{fill:#366b6b;}.cls-11{fill:url(#radial-gradient-3);}.cls-12{fill:#c5c5c5;}.cls-13{fill:#282828;}.cls-14,.cls-31{fill-opacity:0.2;}.cls-15{fill:url(#radial-gradient-4);}.cls-16{fill:#469898;}.cls-17{fill:#306161;}.cls-18{fill:url(#radial-gradient-5);}.cls-19{fill:#3c7676;}.cls-20{fill:#326060;}.cls-21{fill:url(#linear-gradient);}.cls-22,.cls-32{fill:#1a1a1a;}.cls-23{fill:#666;}.cls-24{fill:#fff;}.cls-25{fill:url(#radial-gradient-6);}.cls-26{fill:#8a7b72;}.cls-27{fill:#473f3b;}.cls-28{fill:#6a5e56;}.cls-29{fill:#e6e6e6;}.cls-30{fill:#333;}.cls-32{fill-opacity:0.5;}.cls-33{fill:url(#linear-gradient-2);}.cls-34{fill:#458989;}.cls-35{fill:url(#radial-gradient-7);}.cls-36{fill:url(#radial-gradient-8);}.cls-37{fill:url(#radial-gradient-9);}.cls-38{fill:#5caeae;}.cls-39{fill:#7c0000;}.cls-40{fill:url(#radial-gradient-10);}.cls-41{fill:#e87683;}.cls-42{fill:#dc0058;}.cls-43{fill:url(#radial-gradient-11);}.cls-44{stroke:#284c4c;stroke-width:2px;}.cls-45{fill:#de4256;}.cls-46{fill:#e35b6a;}.cls-47{fill:url(#linear-gradient-3);}.cls-48{fill:#d82637;}.cls-49{fill:#fff6df;}.cls-50{fill:#284c4c;}.cls-51{fill:url(#radial-gradient-12);}.cls-52{fill:url(#linear-gradient-4);}.cls-53{fill:#ba004a;}.cls-54{fill:#ff81ab;}.cls-55{fill:#fc0;}.cls-56{fill:#ff0;}.cls-57{fill:#ffd26b;}.cls-58{fill:url(#radial-gradient-13);}.cls-59{fill:#f06;}</style><clipPath id="clip-path"><circle class="cls-1" cx="81.94" cy="81.94" r="81.94"/></clipPath><radialGradient id="radial-gradient" cx="73.84" cy="163.57" r="7.11" gradientUnits="userSpaceOnUse"><stop offset="0" stop-color="#488787"/><stop offset="1" stop-color="#366b6b"/></radialGradient><radialGradient id="radial-gradient-2" cx="77" cy="139.61" r="10.59" gradientUnits="userSpaceOnUse"><stop offset="0" stop-color="#3c3c3c"/><stop offset="1" stop-color="#282828"/></radialGradient><radialGradient id="radial-gradient-3" cx="89.31" cy="149.54" r="10.22" xlink:href="#radial-gradient-2"/><radialGradient id="radial-gradient-4" cx="103.69" cy="160.59" r="11.15" gradientUnits="userSpaceOnUse"><stop offset="0" stop-color="#469898"/><stop offset="1" stop-color="#2f7373"/></radialGradient><radialGradient id="radial-gradient-5" cx="53.99" cy="163.56" r="7.12" gradientUnits="userSpaceOnUse"><stop offset="0" stop-color="#5caeae"/><stop offset="1" stop-color="#458989"/></radialGradient><linearGradient id="linear-gradient" x1="54.25" y1="145.46" x2="81.31" y2="146.09" gradientUnits="userSpaceOnUse"><stop offset="0" stop-color="#333"/><stop offset="1" stop-color="#4d4d4d"/></linearGradient><radialGradient id="radial-gradient-6" cx="70.11" cy="140.14" r="8.94" gradientUnits="userSpaceOnUse"><stop offset="0" stop-color="#8a7b72"/><stop offset="1" stop-color="#6a5e56"/></radialGradient><linearGradient id="linear-gradient-2" x1="53.75" y1="154.15" x2="80.47" y2="167.74" xlink:href="#linear-gradient"/><radialGradient id="radial-gradient-7" cx="49.8" cy="137.26" r="10.59" gradientUnits="userSpaceOnUse"><stop offset="0" stop-color="#4d4d4d"/><stop offset="1" stop-color="#333"/></radialGradient><radialGradient id="radial-gradient-8" cx="62.11" cy="147.21" r="10.22" xlink:href="#radial-gradient-7"/><radialGradient id="radial-gradient-9" cx="77.88" cy="162.12" r="9.24" xlink:href="#radial-gradient-5"/><radialGradient id="radial-gradient-10" cx="123.54" cy="120.44" r="2.26" gradientUnits="userSpaceOnUse"><stop offset="0" stop-color="#e35b6a"/><stop offset="1" stop-color="#900"/></radialGradient><radialGradient id="radial-gradient-11" cx="76.41" cy="89.33" r="41.14" xlink:href="#radial-gradient-5"/><linearGradient id="linear-gradient-3" x1="91.57" y1="146.13" x2="91.57" y2="128.1" gradientUnits="userSpaceOnUse"><stop offset="0" stop-color="#d82637"/><stop offset="1" stop-color="#e35b6a"/></linearGradient><radialGradient id="radial-gradient-12" cx="41.82" cy="120.83" r="2.26" xlink:href="#radial-gradient-10"/><linearGradient id="linear-gradient-4" x1="57.35" y1="28.19" x2="28.17" y2="63.91" gradientUnits="userSpaceOnUse"><stop offset="0" stop-color="#f06"/><stop offset="1" stop-color="#ff81ab"/></linearGradient><radialGradient id="radial-gradient-13" cx="83.98" cy="128.42" r="13.31" gradientUnits="userSpaceOnUse"><stop offset="0" stop-color="#ff81ab"/><stop offset="0.75" stop-color="#ff4088"/><stop offset="1" stop-color="#f06"/></radialGradient></defs><g class="cls-2"><g id="_1101959568" data-name=" 1101959568"><path class="cls-3" d="M79.54,163.21a5.35,5.35,0,0,0-5.87-4.69H73.6a5.37,5.37,0,0,0-3.56,2,5.28,5.28,0,0,0-1.12,3.93l.8,6.85a5.38,5.38,0,0,0,5.87,4.7h.06a5.39,5.39,0,0,0,4.7-5.93ZM78,173a3.78,3.78,0,0,1-2.48,1.4h0a3.75,3.75,0,0,1-4.16-3.27l-.8-6.86a3.69,3.69,0,0,1,.78-2.77,3.76,3.76,0,0,1,2.48-1.4h0a3.73,3.73,0,0,1,2.76.79,3.64,3.64,0,0,1,1.4,2.49l.81,6.86A3.76,3.76,0,0,1,78,173Z"/><path class="cls-4" d="M78.74,163.31a4.55,4.55,0,1,0-9,1.06l.8,6.85a4.55,4.55,0,1,0,9-1.07Z"/><path class="cls-5" d="M73.72,170.84l-.8-6.85a4.57,4.57,0,0,1,2.41-4.57,4.65,4.65,0,0,0-1.63-.11,4.57,4.57,0,0,0-4,5.06l.8,6.85a4.57,4.57,0,0,0,5.06,4,4.52,4.52,0,0,0,1.56-.49A4.57,4.57,0,0,1,73.72,170.84Z"/><path class="cls-6" d="M77,161.82a.17.17,0,0,0-.15.19.17.17,0,1,0,.15-.19Z"/></g><g id="_1101970064" data-name=" 1101970064"><path class="cls-3" d="M79,129.47c-2.38.09-4.56.13-5.69,2.31A7.38,7.38,0,0,0,72.5,135a13.5,13.5,0,0,0,.22,2.3,36.26,36.26,0,0,0,2.36,8.19c1.31,2.93,3.13,5.3,5.51,5.39a3.49,3.49,0,0,0,.72-.05c5.27-.84,5.33-5.65,5.39-10.28l0-1a17.41,17.41,0,0,0-.7-6.09C85,130.61,82.51,130,79,129.47Zm6.12,9.85v1h0c-.06,4-.11,8.1-4.15,8.76a2,2,0,0,1-.42,0h0c-1.57,0-2.92-1.94-4-4.29a33.72,33.72,0,0,1-2.22-7.73,11.68,11.68,0,0,1-.2-1.94,5.88,5.88,0,0,1,.59-2.48c.89-1.7,2.62-1.45,4.44-1.51,2.55-.11,4.46.22,5.34,2.7a15.82,15.82,0,0,1,.59,5.43Z"/><path class="cls-7" d="M82.2,130.07a7.47,7.47,0,0,0-6.41.25,5.42,5.42,0,0,0-2.48,4.75c-.08,2.34,2.6,15.72,7.81,14.89,5-.82,4.69-6,4.78-10.56S85.32,131.73,82.2,130.07Z"/><path class="cls-8" d="M83.1,130.64c1.5,2,1.86,4.89,1.79,8.72-.07,3.55.08,7.39-1.49,9.73,2.64-1.84,2.43-6,2.5-9.69C86,135.29,85.45,132.4,83.1,130.64Z"/><path class="cls-9" d="M77.86,130a4.83,4.83,0,0,1,1.24-.53,6.6,6.6,0,0,0-3.31.85,5.42,5.42,0,0,0-2.48,4.75c-.08,2.34,2.6,15.72,7.81,14.89.95-5-5.07-7.94-4.82-15.15C76.39,132.47,76.44,130.88,77.86,130Z"/></g><g id="_1101979440" data-name=" 1101979440"><path class="cls-3" d="M97.78,147.07l-2.56-1.46-1,1.16c1,.66,1.9,1.28,2.71,1.74a4.12,4.12,0,0,1,1.54,5.61,4.14,4.14,0,0,1-5.62,1.54c-.64-.37-1.27-.69-1.88-1l-.28,1.7c.44.21.88.44,1.34.7h0A5.81,5.81,0,0,0,99.9,155h0l0-.06a5.78,5.78,0,0,0-2.15-7.87Z"/><path class="cls-10" d="M97.37,147.79l-2.69-1.54-2.83,3.37-1,5.92c.52.25,1.06.53,1.61.84a4.94,4.94,0,0,0,4.9-8.59Z"/><path class="cls-5" d="M94.68,146.25l-2.83,3.37-1,5.92c.52.25,1.06.53,1.61.84a4.85,4.85,0,0,0,2.16.63A8.92,8.92,0,0,1,98,148.2a3.92,3.92,0,0,0-.62-.41Z"/><path class="cls-5" d="M93,154c-.59-.33-1.15-.63-1.71-.9l-.41,2.46c.52.25,1.06.53,1.61.84a4.94,4.94,0,0,0,6.74-1.85,4.53,4.53,0,0,0,.49-1.19A5.58,5.58,0,0,1,93,154Z"/><g id="g276"><path class="cls-3" d="M80,144.59c-1.33,3.69-.56,7.13,1.73,8.57a15.07,15.07,0,0,0,3.36,1.2A35.19,35.19,0,0,1,89.85,156l.22-1.71a38.06,38.06,0,0,0-4.54-1.51,14.87,14.87,0,0,1-3-1.05c-3.19-1.83-2.54-3.81-1.12-6.31,2.93-5.12,8.36-1.62,12.65,1.24l1.36-.93-6.73-3.84C86.8,140.59,82.27,140.59,80,144.59Z"/><path class="cls-11" d="M87.31,142.18a5.75,5.75,0,0,0-5.18,10.26c1.62.93,4.4,1.23,7.83,2.69l.78-6.18,3.93-2.7-6.39-3.65A4.9,4.9,0,0,0,87.31,142.18Z"/><path class="cls-9" d="M79.23,147.59a5.76,5.76,0,0,0,2.9,4.85c1.62.93,4.4,1.23,7.83,2.69l.32-2.52c-4-1.79-7.14-2.26-9-3.33A7.45,7.45,0,0,1,79.23,147.59Z"/><path class="cls-8" d="M87.31,142.19a5.74,5.74,0,0,0-6.71,1.52c1.53-.83,4-2,5.63-1.2A28.51,28.51,0,0,1,93.65,147l1-.7-6.39-3.65A4.87,4.87,0,0,0,87.31,142.19Z"/></g><path class="cls-3" d="M95.11,144.53a10,10,0,0,0-2.66-.59l-.26,0-.23.14a10.44,10.44,0,0,0-4.38,5.57,10.65,10.65,0,0,0,.12,7.13l.1.26.57.32.32.17a12.82,12.82,0,0,0,2.33.87,7.7,7.7,0,0,0,2.09.23l1.18-.05-.47-1.07a8.11,8.11,0,0,1-.29-5.88,8,8,0,0,1,3.72-4.5l1-.58-.93-.74A8.14,8.14,0,0,0,95.11,144.53ZM92,151.11a9.81,9.81,0,0,0-.11,5.83l-.5-.11a10.28,10.28,0,0,1-2-.76l-.29-.14a9.1,9.1,0,0,1,0-5.79,8.88,8.88,0,0,1,3.5-4.58,8.49,8.49,0,0,1,2,.46,8.36,8.36,0,0,1,.85.38A9.63,9.63,0,0,0,92,151.11Z"/><path class="cls-12" d="M88.45,156.47l.59.32a8.48,8.48,0,0,0,4,1,8.92,8.92,0,0,1,3.79-11.4,8.3,8.3,0,0,0-4.49-1.67A9.79,9.79,0,0,0,88.45,156.47Z"/><path class="cls-13" d="M89.74,157.1a10.69,10.69,0,0,0,1.26.45,11.79,11.79,0,0,1,4.22-12.12A4.81,4.81,0,0,0,94,145,11.71,11.71,0,0,0,89.74,157.1Z"/><path class="cls-14" d="M92.34,153.59a8.65,8.65,0,0,1-3.75-1,5.71,5.71,0,0,1-.6-.31l-.11-.32a9.74,9.74,0,0,0,.57,4.54l.59.32a8.48,8.48,0,0,0,4,1A8.92,8.92,0,0,1,92.34,153.59Z"/><path class="cls-14" d="M91.33,145.5a8.72,8.72,0,0,1,4.39,1.67,8.17,8.17,0,0,1,1.15-.76,8.33,8.33,0,0,0-4.49-1.67A10,10,0,0,0,91.33,145.5Z"/><path class="cls-14" d="M94.3,148.56a8,8,0,0,1,.85-.9A4.24,4.24,0,0,0,94.3,148.56Z"/></g><g id="_1101947280" data-name=" 1101947280"><path d="M114.83,149.11c-1.71-1.07-3.8-1.18-6.4-.06a11.06,11.06,0,0,0-2.14-1.37h0c-.32-.17-.65-.31-1-.45,1.16-.65,1.82-1.7.76-4.12l-.44-1-1.06.36a19.39,19.39,0,0,1-2.19.54c-2.32.49-3.44.86-5.59,4.11a6.88,6.88,0,0,0-.18,1.36h0l-2.4,6.35h0a2.11,2.11,0,0,0-.16.61h0c-.16,1.3-.45,2.23.94,3.4a16.38,16.38,0,0,0,4.5,2.57,14.08,14.08,0,0,0,2.73.75,17,17,0,0,0,1.57,1.22c.44.31.56.4-.06,1.4v0a4.09,4.09,0,0,0-.46.94,3.55,3.55,0,0,0-.07,2h0a2.66,2.66,0,0,0,1.13,1.56h0a2.41,2.41,0,0,0,.61.27l.72.24.52-.54a9.75,9.75,0,0,0,3-5h0a5,5,0,0,0-1.19-4.15l.6,0c1.08.07,1.47.09,1.52,1.77h0a5,5,0,0,0,.17,1.19,3.65,3.65,0,0,0,1.14,1.87,3,3,0,0,0,2,.75h0a2.91,2.91,0,0,0,.69-.11l.73-.19.15-.74c.59-2.93.52-5.4-.51-7.23a6.06,6.06,0,0,0-4.36-2.92l.64-.27c1.1-.47,1.48-.63,2.36.91a4.72,4.72,0,0,0,.69,1h0a3.67,3.67,0,0,0,1.87,1.11,2.85,2.85,0,0,0,2.68-.69l.55-.52-.21-.71C117.85,152.4,116.62,150.24,114.83,149.11Zm-9.65,12.25c-.21-.14-.45-.32-.7-.51l.38-.45.59.52a4,4,0,0,1,1.25,1.74A6,6,0,0,0,105.18,161.36Zm10.41-6.94h0a2.39,2.39,0,0,1-.33-.48v0c-2-3.46-2.86-3.06-5.46-1.94-.4.18-.88.38-1.5.61l-.52.18-.21.54-.67,1.76-.61,1.62,1.73,0c2.32.07,3.69.74,4.34,1.9a6.94,6.94,0,0,1,.46,4.22,1.75,1.75,0,0,1-.16-.42,2.39,2.39,0,0,1-.08-.58v0c-.11-3.93-1.07-4-3.82-4.16-.51,0-1.12-.07-1.76-.16l-1-.14-.34.91-.31.81,0,.1v0l-.07.09-.5.71-1.86-.23a11.93,11.93,0,0,1-2.57-.67,7,7,0,0,1-2.64-1.72c-.78-.66-1.28-1.27-1.24-1.68h0v0l2.17-5.57h0v0l0,0,.14-.12.08-.13c1.63-2.49,2.17-4,4-4.39l1.06-.23a.52.52,0,0,1-.17.12l-.48.18h0a5.18,5.18,0,0,0-2.35,2.31l-.69,1.4,1.51.34c1.12.25,2.49-.14,3.46.34h0a7.48,7.48,0,0,1,2.11,1.48l.62.68.83-.42c2.1-1.06,3.65-1.13,4.78-.42a7,7,0,0,1,2.41,3.52A1.79,1.79,0,0,1,115.59,154.42Z"/><path class="cls-15" d="M108.2,150.51c-1.29-1.32-4-1.61-6.2-2.2-.72-2.24,4.41-1.32,2.94-4.72-3.28,1.09-5.4.36-8,4.29a1.41,1.41,0,0,0-.4.57l-2.4,6.35c-.87,2.26,4.59,5.7,8.57,6.18,2.43,2.3,3.7,1.68,2,4.44-.84,1.31-.43,2.64.55,3,3-3,3.87-5.82,1-8.38a2.19,2.19,0,0,0,.26-.48l.31-.82c3.36.48,4.42-.43,4.52,3.16,0,1.81,1.27,2.85,2.44,2.53,1.07-5.29-.15-8.75-5.75-8.89l.67-1.76c3.16-1.15,3.71-2.32,5.47.79.87,1.59,2.47,1.92,3.35,1.09C116,150.42,113.26,147.94,108.2,150.51Z"/><path class="cls-16" d="M106.24,160.19a2.87,2.87,0,0,1-.26.49c1.72,1.51,2.12,3.1,1.54,4.78.93-1.91.69-3.72-1.22-5.42Z"/><path class="cls-16" d="M104.91,145.57a1.84,1.84,0,0,0,0-2c-3.28,1.09-5.4.36-8,4.29a1.41,1.41,0,0,0-.4.57l-.17.44a1.81,1.81,0,0,1,.29-.33c2.56-3.93,4.68-3.2,8-4.3A2.41,2.41,0,0,1,104.91,145.57Z"/><path class="cls-16" d="M108.2,150.51c-1.29-1.32-4-1.61-6.2-2.2a1.21,1.21,0,0,1-.07-.4,1,1,0,0,0-.2,1.08c2.24.58,4.91.87,6.19,2.19,4.93-2.51,7.64-.22,9.21,4.72a1.6,1.6,0,0,0,.4-.28C116,150.42,113.26,147.94,108.2,150.51Z"/><path class="cls-16" d="M108,155.5l.42-1.11,0,0-.67,1.77c5.38.13,6.72,3.31,5.88,8.25l.15,0C114.86,159.1,113.64,155.64,108,155.5Z"/><path class="cls-16" d="M106.55,159.38l-.17.42a1.47,1.47,0,0,0,.14-.28l0-.14Z"/><path class="cls-17" d="M100.15,147.87c1.88,2.13,3.31,4.92,0,7.19,3.31-.84,3.52-4.16,1.86-6.75,0-2.31,4.41-1.32,2.94-4.72C105.15,146.29,101.94,145.17,100.15,147.87Z"/><path class="cls-17" d="M113.07,151.34c-1.55-1.16-3.16.31-4.73.47l.37,1.93c3.16-1.15,3.71-2.32,5.47.79.87,1.59,2.47,1.92,3.35,1.09C114.93,155.46,114.72,152.58,113.07,151.34Z"/><path class="cls-17" d="M106.58,162.49a5,5,0,0,0-1.13-1.57,7.54,7.54,0,0,1-.59-.52c-.19-.15-.36-.29-.53-.45a3.41,3.41,0,0,1-.83-1.14,10.52,10.52,0,0,1-7-3l0,0c-.33-.31-.67-.64-1-1s-.55-.6-.8-.91l-.08-.09-.07.19-.32.87-.09.33a1.55,1.55,0,0,0,0,.22,2.5,2.5,0,0,0,.46,1.23c1.33,2,5.19,4,8.21,4.39,2.43,2.3,3.7,1.68,2,4.44-.84,1.31-.43,2.64.55,3C104.86,166.05,107.36,164.35,106.58,162.49Z"/><path class="cls-17" d="M112.84,162.66c-.38-1.7-.11-3.89-1.36-4.46a7.34,7.34,0,0,0-2.73-.54c-.58,0-1.18-.07-1.76-.16l-.16,1.2c3.36.48,4.42-.43,4.52,3.16,0,1.81,1.27,2.85,2.44,2.53A2.73,2.73,0,0,1,112.84,162.66Z"/><polygon class="cls-17" points="103.56 160.45 105.92 152.43 102.61 159.73 103.56 160.45"/></g><g id="g1468"><path d="M59.7,163.21a5.35,5.35,0,0,0-5.88-4.69h0a5.38,5.38,0,0,0-4.7,5.94l.81,6.85a5.37,5.37,0,0,0,5.88,4.7h.06a5.37,5.37,0,0,0,3.57-2,5.3,5.3,0,0,0,1.11-3.92ZM58.13,173a3.74,3.74,0,0,1-2.48,1.4h0a3.75,3.75,0,0,1-4.16-3.27l-.81-6.86a3.75,3.75,0,0,1,3.27-4.17h0a3.77,3.77,0,0,1,4.16,3.28l.81,6.86A3.77,3.77,0,0,1,58.13,173Z"/><path class="cls-18" d="M58.9,163.31a4.55,4.55,0,1,0-9,1.06l.81,6.85a4.55,4.55,0,1,0,9-1.07Z"/><path class="cls-19" d="M53.88,170.84l-.8-6.85a4.57,4.57,0,0,1,2.42-4.57,4.78,4.78,0,0,0-1.65-.11,4.57,4.57,0,0,0-4,5.06l.81,6.85a4.56,4.56,0,0,0,5,4,4.63,4.63,0,0,0,1.58-.49A4.54,4.54,0,0,1,53.88,170.84Z"/><path class="cls-20" d="M57.11,161.82a.17.17,0,1,0,0,.34.17.17,0,1,0,0-.34Z"/></g><g id="g1552"><path d="M77.4,125.29a2.77,2.77,0,0,0-1.28-.44L59.7,124c-2-.11-4.09,1.79-5.86,4.32-2.21,3.13-4,7.32-4.27,9.58-.65,5.32-2.38,14.74-2.38,19.62A7.44,7.44,0,0,0,48.92,163,7.84,7.84,0,0,0,54,165.75c5.07,0,12.81,1.22,18.14,1.72a8.25,8.25,0,0,0,2.32-.12,8.82,8.82,0,0,0,4.08-1.92,5.72,5.72,0,0,0,2.11-3.78,5,5,0,0,0-.07-1.39,21.16,21.16,0,0,0-1-3.47,9.7,9.7,0,0,1-.86-5.12,4.93,4.93,0,0,1,1.65-3.15,12.44,12.44,0,0,0,1.85-2.29,8.15,8.15,0,0,0,1-3.82,29.62,29.62,0,0,0-1.55-9.93C80.53,129.14,79,126.29,77.4,125.29Zm4.16,17a6.7,6.7,0,0,1-.74,3.06,11.55,11.55,0,0,1-1.64,2,6.28,6.28,0,0,0-2.09,4c-.4,2.27.25,4,.94,5.94a19.77,19.77,0,0,1,1,3.21,3.48,3.48,0,0,1,0,1,4.18,4.18,0,0,1-1.56,2.71,7.24,7.24,0,0,1-3.34,1.57,6.93,6.93,0,0,1-1.87.09l-18.11-1.71a6.26,6.26,0,0,1-4-2.2,5.91,5.91,0,0,1-1.36-4.31l2.38-19.59c.25-2,1.92-5.92,4-8.86,1.49-2.11,3.14-3.71,4.47-3.64l16.44.88a1,1,0,0,1,.5.19c1.26.79,2.57,3.32,3.54,6.33A27.86,27.86,0,0,1,81.56,142.33Z"/><path class="cls-21" d="M76.08,125.65l-16.43-.88c-3.82-.21-8.82,9.4-9.29,13.21-.82,6.78-1.53,12.64-2.36,19.42A6.92,6.92,0,0,0,54.27,165l17.93,1.7c3.81.36,8.3-2.51,7.59-6.28-.64-3.34-2.48-5.62-1.91-8.87s1.91-3,3.61-5.72C84.3,141.33,79.9,125.86,76.08,125.65Z"/><path class="cls-22" d="M55.83,129.44l.36,2.34Q58.74,143.72,68,148.47l-7.55-20.36Z"/><path class="cls-23" d="M78.69,164.15a5,5,0,0,0,.79-1.23l-2,1.3Z"/><path class="cls-23" d="M78.16,130.52c6.32,14.32-1.88,14.21-1.47,23.47.12,2.71,1.72,4.83,3.17,7.1a4.25,4.25,0,0,0-.07-.69c-.64-3.34-2.48-5.62-1.91-8.87s1.91-3,3.61-5.72c2.16-3.45.05-13.44-2.78-17.93Z"/><path class="cls-22" d="M61.57,124.88l-1.92-.11c-3.82-.21-8.82,9.4-9.29,13.21-.82,6.78-1.53,12.64-2.36,19.42A6.92,6.92,0,0,0,54.27,165l3.28.31L61,164.06a41.46,41.46,0,0,1-9.63-3l1.51-2.42,4.46.7-2.23-2.11,5.13-.85-3.61-1.88C53,146.22,54,138.17,58.22,130.29Z"/><polygon class="cls-24" points="65.94 141.92 70.04 149.13 76.08 125.65 62.75 124.39 65.94 141.92"/><path d="M68.19,131.43l-.46,0-2.87,6.78,5.31,13c1.12-4.33,2.23-8.67,3.36-13L72,131.79Zm1.7,15.69-3.65-8.93,2.29-5.43L71,133l1.24,5.16Z"/><polygon class="cls-25" points="68.13 132.08 65.55 138.19 70.04 149.13 72.87 138.14 71.49 132.39 68.13 132.08"/><polygon class="cls-26" points="70.04 149.13 70.5 147.32 69.72 148.36 70.04 149.13"/><polygon class="cls-26" points="70.4 132.29 70.59 132.39 72.34 140.21 72.87 138.14 71.49 132.39 70.4 132.29"/><polygon class="cls-27" points="65.55 138.19 66.19 140.68 68.87 132.15 68.13 132.08 65.55 138.19"/><path d="M66.42,128.84l-.55.32,2,3.79.58-.26a3.06,3.06,0,0,1,1.47-.34,2,2,0,0,1,1.16.54l.64.59,1.92-3.67-3.06-3.39Zm4.84,2.56A3.23,3.23,0,0,0,70,131a3.93,3.93,0,0,0-1.53.21l-.8-1.55,2.62-1.54L72,130Z"/><path class="cls-28" d="M66.76,129.42l1.37,2.66a2.82,2.82,0,0,1,3.36.31l1.29-2.47-2.38-2.65Z"/><path class="cls-27" d="M68.13,132.08a4.29,4.29,0,0,1,.77-.29l.37-3.85-2.51,1.48Z"/><path d="M63.75,120.35l-1.12,3.78,2.51,6,.31.75L70.34,128l3.61,3.4,1.77-5.84-.86-4.19Zm9.51,8.46-2.72-2.56-4.4,2.59-2-4.8.65-2.17,8.89.85.58,2.8Z"/><polygon class="cls-24" points="64.27 121.11 63.39 124.08 65.79 129.87 70.44 127.14 73.6 130.11 75 125.55 74.27 122.06 64.27 121.11"/><path d="M63.81,120.35l6.73,8,4.13-7-9.13-.86Zm8.49,2.23-2,3.34-3.22-3.82Z"/><polygon class="cls-19" points="70.44 127.14 73.49 121.98 65.47 121.22 70.44 127.14"/><polygon class="cls-29" points="63.63 123.27 63.39 124.08 65.79 129.87 69.99 127.41 66.83 128.35 63.63 123.27"/><polygon class="cls-29" points="70.99 127.66 73.76 130.1 74.97 125.54 73.38 128.26 70.99 127.66"/><g id="g1592"><path d="M58.42,123.13l-.76,0-1,7.3,8.91,4.28L63.06,123Zm-.05,6.29.65-4.71,2.71-.1,1.52,7.15Z"/><polygon class="cls-30" points="58.34 123.94 57.51 129.95 64.41 133.25 62.4 123.78 58.34 123.94"/><polygon class="cls-24" points="58.66 129.22 59.39 123.9 58.34 123.94 57.51 129.95 64.41 133.25 64.1 131.83 58.66 129.22"/><polygon class="cls-31" points="63.4 130.76 59.84 128.19 59.64 125.31 59.53 123.89 58.34 123.94 58.14 125.38 57.51 129.95 64.14 133.15 64.41 133.25 63.61 130.87 63.4 130.76"/></g><g id="g1602"><path d="M66.44,138.43a107.51,107.51,0,0,1-2.16-10.56l-.23-1.44-6.65,6,.18.51a49.1,49.1,0,0,0,4.51,9.65,16.32,16.32,0,0,0,6.47,6.19l2,.93-.89-2A59.16,59.16,0,0,1,66.44,138.43Zm-3,3.26a45.3,45.3,0,0,1-4.17-8.83l3.67-3.3c.54,3.22,1.18,6.33,2,9.28A69.39,69.39,0,0,0,67.2,146,17.29,17.29,0,0,1,63.44,141.69Z"/><path class="cls-30" d="M58.33,132.62c2.58,7.12,5.72,13.09,10.57,15.4a80,80,0,0,1-5.41-20Z"/><path class="cls-24" d="M59.65,133.06l4.07-3.64L63.49,128l-5.16,4.62c2.58,7.12,5.72,13.09,10.57,15.4l-.19-.43C64.7,144.85,62,139.42,59.65,133.06Z"/><path class="cls-31" d="M67.22,143.76c-.18-.17-.37-.35-.55-.54-2.76-2.86-4.86-7.13-6.67-12l-.06,0-1.61,1.44c2.58,7.12,5.72,13.09,10.57,15.4-.45-1-.87-2-1.26-3.1C67.5,144.54,67.36,144.16,67.22,143.76Z"/></g><g id="g1612"><path d="M49.07,155l-.51,0-7.25,13,.88.33c1,.35,1.94.69,3,1s2,.63,3,.92l.67.18.32,1.31L50.34,169l.32,2,.52.13q3.54.85,7.2,1.4t7.36.74l.8,0,0-.73.92,1,.86-3.5,1.91,3,1.1-1.06,1.25,1.38H73c1.15,0,2.33-.1,3.54-.18s2.36-.19,3.58-.32l.86-.1-.28-1.44,1.19,1.15.48-1.31.69,1.34,2.11-.32-5.72-14.28Zm32.16,14.59-3.06-2.94.9,4.68c-.87.09-1.76.17-2.64.23-1,.07-2.07.13-3.12.16l-1.87-2.07-.87.85L67.7,166l-1.06,4.32-1.45-1.52-.15,2.8c-2.16-.14-4.31-.37-6.43-.69s-4.37-.74-6.54-1.25l-1-6.39-1.56,3.56-.4-1.61-1.28,3.32c-.73-.22-1.47-.45-2.21-.7l-2-.69,5.83-10.51,28.88,2.73,3.48,8.68Z"/><path class="cls-28" d="M49,155.83l-6.54,11.79c1.94.72,3.89,1.36,5.87,1.93l.63-1.64.35,1.43,1.4-3.2.66,4.21a78.37,78.37,0,0,0,14.42,2.13l.09-1.76L67.07,172l1-3.91,2.4,3.75,1-1L73,172.57q3.5-.1,7.06-.49L79.43,169l2.12,2,.69-1.85,1.25,2.43.55-.08-5.16-12.89Z"/><path class="cls-30" d="M78.68,158.64a81.11,81.11,0,0,1-28.88-2.73l-.8-.08-1.09,2a81.19,81.19,0,0,0,31.88,3.11l-.91-2.25Z"/><path class="cls-30" d="M46,161.19l-1.22,2.2A81.46,81.46,0,0,0,82.21,167l-.95-2.39A81.55,81.55,0,0,1,46,161.19Z"/><path class="cls-32" d="M50.34,156,49,155.83l-1.61,2.91-4.93,8.88c1.17.44,2.36.84,3.55,1.23h.06l0,0h0l.07,0,.05,0h0l.06,0h.06l.06,0,.05,0h0l0,0h.06l0,0h0l0,0h.12l.05,0H47l.06,0h.17l0,0h.06l0,0h.12l.06,0h0l.06,0h0l.06,0h0l.05,0h.06l0,0h0l.43.12.63-1.63.35,1.43.81-1.86L51.33,161l-.37.53,1.83-4.7.25-.65-.23,0Z"/><path class="cls-32" d="M57.53,171.59c1.34.22,2.68.4,4,.55l-1.66-10Z"/><polygon class="cls-32" points="79.61 172.12 80.02 172.08 79.43 169.01 81.55 171.05 81.66 170.79 76.4 163.43 79.61 172.12"/><path class="cls-32" d="M69.75,170.76l.67,1,1-1L73,172.57l.89,0-4.39-9.74Z"/></g><g id="g1626"><path d="M76.13,124.67l-1-.54-1.71,12,7.59-1-1-8.29Zm-.74,9.55,1.09-7.64,2.06,1.15.75,6Z"/><polygon class="cls-30" points="75.83 125.35 74.42 135.18 80.17 134.43 79.28 127.29 75.83 125.35"/><polygon class="cls-24" points="78.38 126.79 79.17 133.11 74.63 133.7 74.42 135.18 80.17 134.43 79.28 127.29 78.38 126.79"/><polygon class="cls-31" points="79.28 127.29 78.26 126.72 78.22 128.28 78.13 131.43 75.19 132.8 75.02 132.83 74.42 135.18 74.64 135.18 80.17 134.43 79.49 128.99 79.28 127.29"/></g><g id="g1636"><path d="M74.59,128.63c-.55,3.88-1.19,7.55-2,10.89a54.55,54.55,0,0,1-2.8,8.89l-.5,1.19,1.28-.08c2.31-.14,4.19-1.62,5.8-4a37,37,0,0,0,3.93-8.76l.11-.33-5.51-10.2Zm4.12,7.94a34.78,34.78,0,0,1-3.64,8.05,7.8,7.8,0,0,1-3.2,3,64,64,0,0,0,2.31-7.73c.62-2.69,1.17-5.6,1.64-8.65Z"/><path class="cls-30" d="M70.55,148.72c4.06-.23,6.76-5.44,9-12.22l-4.19-7.77C74.28,136.57,72.79,143.48,70.55,148.72Z"/><path class="cls-24" d="M75.16,130.23l3.31,6.12c-2,6.06-4.38,10.84-7.75,12l-.17.39c4.06-.23,6.76-5.44,9-12.22l-4.19-7.77Z"/><path class="cls-31" d="M78.22,134.09c-1.59,4.61-3.4,8.42-5.74,10.3a3.1,3.1,0,0,1-.46.35l-.36,1.11c-.35,1-.72,2-1.11,2.87,4.06-.23,6.76-5.44,9-12.22l-1.3-2.43Z"/></g><path d="M78.77,157c-.1,0,.48,1.1.26,1.07-9.62-1.06-21-2.52-30.54-3.67-.22,0,.22-1.08,0-1.1l-1-.12-2,5.75-.19.55.46.35a21.81,21.81,0,0,0,7.91,3.74,69.62,69.62,0,0,0,12.07,1.73l.46,0,3.47-5.09,3.8,5.09.45,0a30.1,30.1,0,0,0,4.43-.68,15.93,15.93,0,0,0,4-1.52l.7-.39-3.38-5.6A5.16,5.16,0,0,1,78.77,157ZM78,163.09a27.1,27.1,0,0,1-3.76.6l-4.62-6.17-4.2,6.18a69.18,69.18,0,0,1-11.32-1.65,20.41,20.41,0,0,1-6.89-3.13l1.36-4,30.42,3.73,1.9,3.43A14.31,14.31,0,0,1,78,163.09Z"/><path class="cls-33" d="M48.4,154.1l-2.19,5.11c4.4,3.34,9.45,4.51,19.56,5.32l3.84-5.63,4.21,5.63a20.16,20.16,0,0,0,8.12-2.11L79,157.74Z"/><path class="cls-22" d="M66.88,154.16a6.57,6.57,0,0,1-4.41,2.14c4.47.81,8.72.33,12.5-2.77A33.4,33.4,0,0,1,62.27,150C63.46,151.9,65.07,153.91,66.88,154.16Z"/><path class="cls-22" d="M69.78,155a2,2,0,1,0,1.4,2.1A1.8,1.8,0,0,0,69.78,155Z"/><path class="cls-23" d="M77.72,157.59c.79,1.57,1.9,3,2.83,4.64L78,163.9a15.57,15.57,0,0,0,4-1.48L79,157.74Z"/><path class="cls-22" d="M52.84,158.62l4.46.7-2.23-2.11,5.13-.85-2.12-1.11L48.4,154.1l-2.19,5.11c3.64,2.77,7.72,4,14.75,4.85a41.46,41.46,0,0,1-9.63-3Z"/><path d="M70,155.24a1.25,1.25,0,0,0-1,.4,1.91,1.91,0,0,0-.51,1.15,1.93,1.93,0,0,0,.29,1.23,1.22,1.22,0,0,0,1.93.18,1.94,1.94,0,0,0,.51-1.15,2,2,0,0,0-.28-1.23A1.27,1.27,0,0,0,70,155.24Zm.23,2.24a.54.54,0,0,1-.45.18.55.55,0,0,1-.42-.25.9.9,0,0,1-.12-.55.83.83,0,0,1,.22-.51.54.54,0,0,1,.87.08,1,1,0,0,1,.13.55A.87.87,0,0,1,70.24,157.48Z"/><path class="cls-24" d="M70,155.71a1.24,1.24,0,1,0,.87,1.3A1.11,1.11,0,0,0,70,155.71Z"/><path class="cls-29" d="M69.31,156.47a1.35,1.35,0,0,1,.26-.7,1.25,1.25,0,0,0-.7,1.06,1.12,1.12,0,0,0,.87,1.3,1,1,0,0,0,.84-.42.68.68,0,0,1-.4.06A1.11,1.11,0,0,1,69.31,156.47Z"/><path d="M57.34,148.52l-.94,1.7-3-6.09-.59,4.3-1.5-2.32-.55,5.8,1.67,4.53.67,1.83.2-3.22,4.25,4.23-1.15-2.93L59,157.8l2.27-6.06-2.18,1.81Zm1.26,8.1-3.77-2.1.56,1.41-2.76-2.73-.07,1.13-.92-2.51.3-3.28,1.43,2.19.51-3.8L56.37,152l.81-1.48,1.56,4.39.72-.59Z"/><polygon class="cls-34" points="57.26 149.53 56.39 151.12 53.67 145.53 53.11 149.58 51.65 147.32 51.22 151.87 52.85 156.29 52.99 154.12 56.49 157.6 55.64 155.43 58.82 157.2 60.38 153.04 58.93 154.24 57.26 149.53"/><polygon class="cls-19" points="57.26 149.53 56.39 151.12 53.67 145.53 53.11 149.58 51.65 147.32 51.22 151.87 51.68 153.11 51.77 151.47 52.47 150.18 53.45 152.69 54.17 150.42 56.01 154.17 57.38 151.76 58.33 155.19 59.82 154.55 60.38 153.04 58.93 154.24 57.26 149.53"/><path class="cls-22" d="M69.77,149.38a2,2,0,1,0,1.4,2.1A1.8,1.8,0,0,0,69.77,149.38Z"/><path d="M70,149.46a1.25,1.25,0,0,0-1,.4,1.91,1.91,0,0,0-.51,1.15,1.93,1.93,0,0,0,.29,1.23,1.23,1.23,0,0,0,.92.58,1.25,1.25,0,0,0,1-.4,1.91,1.91,0,0,0,.51-1.15,2,2,0,0,0-.28-1.23A1.24,1.24,0,0,0,70,149.46Zm.23,2.25a.6.6,0,0,1-.45.18.59.59,0,0,1-.42-.26.9.9,0,0,1-.12-.55.88.88,0,0,1,.22-.51.62.62,0,0,1,.46-.18.59.59,0,0,1,.41.26,1,1,0,0,1,.13.55A.93.93,0,0,1,70.24,151.71Z"/><path class="cls-24" d="M70,149.92a1.25,1.25,0,0,0-.23,2.44,1.13,1.13,0,0,0,1.1-1.13A1.14,1.14,0,0,0,70,149.92Z"/><path class="cls-29" d="M69.31,150.69a1.31,1.31,0,0,1,.26-.69,1.22,1.22,0,0,0-.7,1.05,1.14,1.14,0,0,0,.87,1.31,1,1,0,0,0,.84-.42.89.89,0,0,1-.4.06A1.13,1.13,0,0,1,69.31,150.69Z"/><polygon class="cls-23" points="61.57 164.13 65.77 164.53 69.38 159.24 65.37 163.7 61.57 164.13"/></g><g id="g1680"><path d="M51.76,127.13c-2.37.09-4.55.12-5.68,2.3a7.42,7.42,0,0,0-.78,3.19,14.64,14.64,0,0,0,.22,2.3,36.33,36.33,0,0,0,2.36,8.18c1.31,2.94,3.13,5.31,5.51,5.39h0a3.49,3.49,0,0,0,.72-.05c5.27-.85,5.33-5.65,5.39-10.28l0-1a17.38,17.38,0,0,0-.7-6.09C57.81,128.27,55.31,127.7,51.76,127.13ZM57.88,138c-.06,4-.11,8.11-4.15,8.76a2,2,0,0,1-.42,0h0c-1.57,0-2.92-1.94-4-4.3a33.51,33.51,0,0,1-2.22-7.72,11.78,11.78,0,0,1-.2-1.94,5.93,5.93,0,0,1,.59-2.49c.89-1.69,2.62-1.44,4.44-1.51,2.55-.1,4.46.23,5.34,2.7a15.64,15.64,0,0,1,.59,5.44Z"/><path class="cls-35" d="M55,127.73a7.5,7.5,0,0,0-6.41.24,5.43,5.43,0,0,0-2.48,4.76c-.08,2.34,2.6,15.72,7.81,14.88,5-.82,4.69-6,4.79-10.55S58.12,129.38,55,127.73Z"/><path class="cls-23" d="M55.9,128.3c1.5,2,1.86,4.88,1.79,8.72-.06,3.55.08,7.39-1.49,9.72,2.64-1.83,2.43-5.94,2.51-9.68C58.79,133,58.25,130.05,55.9,128.3Z"/><path class="cls-22" d="M50.65,127.65a6,6,0,0,1,1.25-.53,6.82,6.82,0,0,0-3.31.85,5.43,5.43,0,0,0-2.48,4.76c-.08,2.34,2.6,15.72,7.81,14.88.95-5-5.07-7.94-4.82-15.13C49.19,130.12,49.24,128.53,50.65,127.65Z"/><path d="M50.38,132.16a9.94,9.94,0,0,0-4.48,1.61l-.33.23,1,4.74.23,1,.78-.72a29.44,29.44,0,0,1,3.74-2.95,46.11,46.11,0,0,1,4.26-2.55l1.52-.8-1.69-.32A16.3,16.3,0,0,0,50.38,132.16Zm.25,2.94a34.64,34.64,0,0,0-3.1,2.36l-.61-2.9a8.76,8.76,0,0,1,3.6-1.19,13.38,13.38,0,0,1,2.9,0C52.45,133.92,51.52,134.49,50.63,135.1Z"/><path class="cls-34" d="M46.24,134.27l.92,4.34A37.71,37.71,0,0,1,55.29,133C51.9,132.38,48.79,132.55,46.24,134.27Z"/><path class="cls-19" d="M46.24,134.27l.25,1.18A15.12,15.12,0,0,1,54,132.83,10.94,10.94,0,0,0,46.24,134.27Z"/><path d="M52.44,130.62,49.3,129l.51,1.85-3.15-.89.49,1.57-3.26-.24.81,1.7-4.07,1.23,5.56.47.18-.12A11.08,11.08,0,0,1,51,132.63a7.17,7.17,0,0,1,4.16.71l1.07-.61L53,129.61Zm-6.27,2.61-.28-.59,1.16.09C46.76,132.88,46.46,133.05,46.17,133.23Zm2.4-1.21-.09-.3.53.14Zm2.65-.62,0-.06.09,0Z"/><path class="cls-23" d="M52.7,131.44l-2.45-1.28.42,1.54-3.1-.88.41,1.37L44.89,132l.66,1.39-1.7.52L46,134c3-2,6.24-2.82,9.4-1.24l-2.32-2.19Z"/><path d="M51.26,135.46c-1.33.9-2.76,1.91-4.26,3.06l-.06.06c-.94,1.36-1.87,2.74-2.8,4.1l3.21-2.17.78,1.65L50,139.49l.9,1.35,1.29-3,1.09,1.51.67-3.35.83.18,1.71-3.28-1.48.21C53.82,133.81,52.57,134.58,51.26,135.46Zm-.58,3.24-.68-1-1.69,2.44-.46-.94c1.34-1,2.61-1.93,3.8-2.74Zm2-1.85-.55-.76.81-.52ZM54.13,135l-.2,0,.28-.18Z"/><path class="cls-23" d="M46.08,140.75l1.47-1,.67,1.4L50,138.59l.79,1.18,1.27-3,.94,1.3.54-2.71.92.2.8-2a76.79,76.79,0,0,0-7.93,5.38Z"/></g><g id="g1704"><path d="M70.58,144.72,68,143.27l-1,1.16c1,.65,1.9,1.27,2.71,1.73a4.1,4.1,0,0,1-1,7.54,4,4,0,0,1-3.12-.39c-.64-.36-1.27-.69-1.88-1l-.28,1.7c.44.22.88.45,1.34.71h0a5.78,5.78,0,0,0,7.84-2.09h0l0-.06a5.81,5.81,0,0,0-2.16-7.88Z"/><path class="cls-34" d="M70.17,145.44l-2.69-1.53-2.83,3.37-1,5.92c.52.24,1.06.52,1.61.83a4.94,4.94,0,1,0,4.9-8.59Z"/><path class="cls-19" d="M67.48,143.91l-2.83,3.37-1,5.92c.52.24,1.06.52,1.61.83a4.86,4.86,0,0,0,2.16.64,8.92,8.92,0,0,1,3.36-8.81,4.8,4.8,0,0,0-.62-.42Z"/><path class="cls-19" d="M65.77,151.63c-.58-.33-1.14-.63-1.7-.9l-.41,2.47c.52.24,1.06.52,1.61.83A5,5,0,0,0,72,152.19,5.21,5.21,0,0,0,72.5,151,5.59,5.59,0,0,1,65.77,151.63Z"/><g id="g1714"><path d="M52.79,142.24c-1.33,3.69-.56,7.13,1.73,8.58A15.1,15.1,0,0,0,57.88,152a38.21,38.21,0,0,1,4.77,1.63l.22-1.71a36.13,36.13,0,0,0-4.54-1.5,15.52,15.52,0,0,1-3-1.05c-3.19-1.83-2.55-3.81-1.12-6.32,2.93-5.12,8.36-1.62,12.65,1.25l1.36-.93-6.73-3.84C59.6,138.25,55.07,138.25,52.79,142.24Z"/><path class="cls-36" d="M60.11,139.84a5.75,5.75,0,0,0-5.18,10.26c1.62.92,4.4,1.22,7.83,2.69l.78-6.19,3.93-2.7-6.39-3.64A4.38,4.38,0,0,0,60.11,139.84Z"/><path class="cls-22" d="M52,145.25a5.76,5.76,0,0,0,2.9,4.85c1.62.92,4.4,1.22,7.83,2.69l.32-2.53c-4-1.78-7.14-2.26-9-3.33A7.42,7.42,0,0,1,52,145.25Z"/><path class="cls-23" d="M60.11,139.84a5.74,5.74,0,0,0-6.71,1.53c1.53-.83,4-2,5.63-1.21a28.89,28.89,0,0,1,7.41,4.44l1-.7-6.39-3.64A4.38,4.38,0,0,0,60.11,139.84Z"/></g><path d="M67.91,142.19a9.59,9.59,0,0,0-2.66-.59l-.26,0-.23.14a10.4,10.4,0,0,0-4.38,5.57,10.63,10.63,0,0,0,.12,7.12l.1.26.57.33.32.16a12.39,12.39,0,0,0,2.32.88,7.4,7.4,0,0,0,2.1.22l1.18,0-.47-1.08a8.11,8.11,0,0,1-.29-5.88,8,8,0,0,1,3.72-4.49l1-.58-.93-.74A7.89,7.89,0,0,0,67.91,142.19Zm-3.09,6.57a9.81,9.81,0,0,0-.11,5.83,4.91,4.91,0,0,1-.5-.1,11.73,11.73,0,0,1-2-.76l-.29-.15a9.1,9.1,0,0,1,0-5.79,9,9,0,0,1,3.5-4.57,8,8,0,0,1,2,.46,6.62,6.62,0,0,1,.85.38A9.54,9.54,0,0,0,64.82,148.76Z"/><path class="cls-24" d="M61.25,154.13l.59.32a8.6,8.6,0,0,0,4,1,8.93,8.93,0,0,1,3.79-11.41,8.29,8.29,0,0,0-4.49-1.66A9.77,9.77,0,0,0,61.25,154.13Z"/><path class="cls-30" d="M62.54,154.76a12.86,12.86,0,0,0,1.26.45A11.78,11.78,0,0,1,68,143.09a4.48,4.48,0,0,0-1.18-.41A11.7,11.7,0,0,0,62.54,154.76Z"/><path class="cls-31" d="M65.14,151.25a8.79,8.79,0,0,1-3.75-1c-.2-.1-.4-.2-.6-.32l-.11-.31a9.77,9.77,0,0,0,.57,4.54l.59.32a8.57,8.57,0,0,0,4,1A8.92,8.92,0,0,1,65.14,151.25Z"/><path class="cls-31" d="M64.13,143.16a8.8,8.8,0,0,1,4.39,1.66,10.4,10.4,0,0,1,1.15-.76,8.32,8.32,0,0,0-4.49-1.66A7.79,7.79,0,0,0,64.13,143.16Z"/><path class="cls-31" d="M67.1,146.22a8,8,0,0,1,.85-.9A4,4,0,0,0,67.1,146.22Z"/></g><g id="g1734"><path d="M81.49,153.67a11.74,11.74,0,0,0-1.13-2.39h0c-.2-.31-.4-.63-.62-.93,1.36,0,2.53-.5,2.94-3.21l.17-1.14-1.12-.28A18.81,18.81,0,0,1,79.5,145c-2.3-.86-3.5-1.15-7.19.52a8.82,8.82,0,0,0-.91,1.1h0l-5.62,4.26a2.87,2.87,0,0,0-.47.45h0c-.86,1.06-1.62,1.71-1,3.51a16.57,16.57,0,0,0,2.53,4.74,16,16,0,0,0,2,2.17,15.8,15.8,0,0,0,.7,1.93c.22.52.28.67-.82,1.2v0a3.89,3.89,0,0,0-.92.58,3.54,3.54,0,0,0-1.16,1.7,2.87,2.87,0,0,0,.15,2h0a2.54,2.54,0,0,0,.36.58l.5.6.76-.18a10.15,10.15,0,0,0,5.44-2.75,5.19,5.19,0,0,0,1.25-4.3l.5.36c.92.66,1.24.89.36,2.39a5,5,0,0,0-.51,1.14,3.91,3.91,0,0,0,0,2.27A3.05,3.05,0,0,0,76.69,171h0a3.41,3.41,0,0,0,.67.3l.75.23.54-.57c2.14-2.25,3.44-4.46,3.54-6.63a6.27,6.27,0,0,0-2.22-5l.72.11c1.22.19,1.65.25,1.56,2.1a5.46,5.46,0,0,0,.08,1.23h0a3.79,3.79,0,0,0,1,2,3,3,0,0,0,2,.91h0a2.73,2.73,0,0,0,.75,0l.77-.15.21-.75c.84-3,1-5.58,0-7.55S84.39,154.11,81.49,153.67Zm-9,11a6,6,0,0,0-.61-2c-.11-.24-.22-.52-.34-.83l.58-.19.23.79A4.1,4.1,0,0,1,72.45,164.67ZM85,162.77a1.36,1.36,0,0,1-.15-.43h0a2.45,2.45,0,0,1,0-.61h0c.18-4.13-.82-4.28-3.72-4.73-.46-.06-1-.15-1.65-.29l-.57-.12-.47.35-1.57,1.18-1.42,1.09,1.49,1c2,1.33,2.84,2.69,2.77,4.06a7.17,7.17,0,0,1-1.91,4,1.9,1.9,0,0,1,.07-.45,3.27,3.27,0,0,1,.25-.55l0,0c2.07-3.52,1.26-4.11-1.06-5.77-.43-.31-.94-.68-1.46-1.11l-.77-.66-.81.61-.72.55-.09.06h0l-.1.06-.84.33L70.71,160a12.26,12.26,0,0,1-1.89-2,7.25,7.25,0,0,1-1.37-3c-.33-1-.43-1.84-.16-2.16h0v0l5.63-4.25,0,0,0,0,.19,0,.15-.07c2.8-1.3,3.48-1.78,5.25-1.12l1.07.38a.55.55,0,0,1-.22,0l-.53-.1h0a3.38,3.38,0,0,0-2.69.18l-1.39.84L76,149.82a15.1,15.1,0,0,1,2.21,2.77h0a7.58,7.58,0,0,1,1,2.46l.18.95,1,.08c2.44.22,3.83,1,4.43,2.28A7.16,7.16,0,0,1,85,162.77Z"/><path class="cls-37" d="M80.47,154.82a12.72,12.72,0,0,0-3.59-5.9c1.4-.85,4,1.83,4.54-2-3.47-.84-4.94-2.66-9.36-.61a1.43,1.43,0,0,0-.66.27l-5.62,4.26c-2,1.51.9,7.54,4.13,10.17.86,3.36,2.33,3.5-.7,5-1.45.69-1.83,2.09-1.15,2.92,4.29-1,6.62-3,5.47-6.84a2,2,0,0,0,.5-.29l.72-.54c2.7,2.27,4.13,2.06,2.23,5.27-1,1.6-.46,3.21.76,3.57,3.85-4.07,4.68-7.77-.16-11L79.14,158c3.41.73,4.54,0,4.38,3.7-.11,1.88,1.1,3.06,2.34,2.81C87.37,159,86.34,155.36,80.47,154.82Z"/><path class="cls-19" d="M75.51,147.51l1.37,1.41c1.4-.85,4,1.83,4.54-2C80.12,149.44,77.48,147.32,75.51,147.51Z"/><path class="cls-19" d="M84.29,158.24c-.72-1.88-2.94-1.47-4.41-2.2L79.14,158c3.41.73,4.54,0,4.38,3.7-.11,1.88,1.1,3.06,2.34,2.81C83.65,162.89,85.06,160.23,84.29,158.24Z"/><path class="cls-19" d="M72.08,161.67q-.12-.34-.21-.69a3.61,3.61,0,0,1-.11-1.46A10.87,10.87,0,0,1,67.28,153s0,0,0-.06c-.13-.46-.24-.94-.34-1.42s-.14-.82-.2-1.24c0,0,0-.08,0-.12l-.17.13-.76.58-.26.25a.57.57,0,0,0-.12.18,2.56,2.56,0,0,0-.28,1.34c.08,2.46,2.34,6.4,4.79,8.4.86,3.36,2.33,3.5-.7,5-1.45.69-1.83,2.09-1.15,2.92.9-2.3,4-2.42,4.38-4.48a5.07,5.07,0,0,0-.13-2C72.23,162.19,72.15,161.94,72.08,161.67Z"/><path class="cls-19" d="M77,161.41c-.5-.36-1-.71-1.46-1.11l-.81,1c2.7,2.27,4.13,2.06,2.23,5.27-1,1.6-.46,3.21.76,3.57a2.87,2.87,0,0,1,.1-2.05c.62-1.7,2.06-3.48,1.28-4.67A7.94,7.94,0,0,0,77,161.41Z"/><path class="cls-20" d="M70.83,155.29a1,1,0,1,0-.91,1.75,1,1,0,0,0,.91-1.75Z"/><path class="cls-20" d="M76.17,151.27a.63.63,0,0,0-.84.27.64.64,0,0,0,.27.84.62.62,0,1,0,.57-1.11Z"/><path class="cls-20" d="M77.44,155.81a.68.68,0,1,0-.62,1.2.67.67,0,0,0,.9-.29A.68.68,0,0,0,77.44,155.81Z"/><path class="cls-20" d="M71.55,148.3a.29.29,0,0,0,.12.37.28.28,0,0,0,.37-.12.28.28,0,0,0-.49-.25Z"/><path class="cls-20" d="M69.24,150.89a.42.42,0,1,0,.18.57A.43.43,0,0,0,69.24,150.89Z"/><path class="cls-38" d="M81.08,148.19a4.34,4.34,0,0,0,.34-1.25c-3.47-.84-4.94-2.66-9.36-.61a1.43,1.43,0,0,0-.66.27l-1.25,1c7-1.85,4.3-1.37,11,.26C81.12,148,81.1,148.07,81.08,148.19Z"/><path class="cls-38" d="M73.24,163a5.51,5.51,0,0,1,.22,2.67,5.21,5.21,0,0,0,.07-3.54C73.38,162.2,73.4,162.91,73.24,163Z"/><path class="cls-38" d="M80.47,154.82c-.3-1.63-2-4.72-5-7.31-.32,0,4.37,6.44,4.69,8.18,5.56.51,6.77,3.83,5.61,8.79l.06,0C87.37,159,86.34,155.36,80.47,154.82Z"/><path class="cls-38" d="M77.58,159.13l-.28.87c2.85,1.88,3.73,3.95,3.2,6.15C81.46,163.74,81,161.37,77.58,159.13Z"/></g><g id="g1760"><g id="g1762"><path d="M129.15,100.17a13.2,13.2,0,0,0-17.38-1.12,23.06,23.06,0,0,1,1.5,3.6,9.49,9.49,0,0,1,13.25.15h0a9.49,9.49,0,0,1,0,13.4h0a9.52,9.52,0,0,1-11.75,1.33,39.2,39.2,0,0,1-.54,3.93,13.2,13.2,0,0,0,14.92-2.63h0a13.18,13.18,0,0,0,0-18.66Z"/><path class="cls-34" d="M119.82,98.17a11.27,11.27,0,0,0-7.24,2.61A35,35,0,0,1,114.93,114a42.14,42.14,0,0,1-.38,5.61,11.34,11.34,0,1,0,5.27-21.39Z"/><path class="cls-19" d="M113.81,104.5a55.46,55.46,0,0,1,.77,14.85,8.7,8.7,0,0,0,1.26.08,9.92,9.92,0,0,0,9.93-9.91C125.77,102.52,119.26,101.23,113.81,104.5Z"/><path class="cls-38" d="M119.82,98.17a11.27,11.27,0,0,0-7.24,2.61c.08.18.16.37.23.57a11.34,11.34,0,0,1,17.67,9.41,11.36,11.36,0,0,1-1.07,4.8,11.34,11.34,0,0,0-9.59-17.39Z"/></g><g id="g1772"><path d="M125.24,114.24a6.4,6.4,0,1,0,4.52,10.93h0a6.4,6.4,0,0,0-4.53-10.92Zm2.94,9.34a4.15,4.15,0,1,1-5.87-5.88,4.15,4.15,0,1,1,5.87,5.88Z"/><path class="cls-29" d="M125.25,115.36a5.28,5.28,0,1,0,5.27,5.28A5.28,5.28,0,0,0,125.25,115.36Z"/><path class="cls-39" d="M125.25,116.34a4.36,4.36,0,0,0-3,1.26,4.3,4.3,0,0,0,6.08,6.07,4.29,4.29,0,0,0,0-6.07A4.31,4.31,0,0,0,125.25,116.34Zm2.38,6.67a3.33,3.33,0,0,1-2.38,1,3.36,3.36,0,1,1,2.38-1Z"/><path class="cls-40" d="M125.25,116.81a3.83,3.83,0,1,0,3.83,3.83A3.83,3.83,0,0,0,125.25,116.81Z"/><circle class="cls-41" cx="125.05" cy="118.91" r="1.94"/><circle class="cls-41" cx="122.71" cy="121.11" r="0.97"/></g><path d="M120.87,85l-12.16,5.73.45,1.56c2.18,7.53,4,14.5,5.31,21.46a111,111,0,0,1,1.87,21.5l-.09,7.62,3.65-6.69a52.12,52.12,0,0,0,6.5-23.58,65.17,65.17,0,0,0-4.8-25.7Zm1.74,27.48a47.66,47.66,0,0,1-2.69,14.4,121.82,121.82,0,0,0-1.72-13.8c-1.22-6.65-2.93-13.25-5-20.29l5.53-2.61A60.4,60.4,0,0,1,122.61,112.5Z"/><path class="cls-42" d="M111,91.78c4.4,15.17,7.45,28.07,7.26,43.51,7.86-14.4,8.32-30.32,1.59-47.69Z"/><path d="M124.23,82c-.73-16.06-10.69-27.1-23.45-32.42A47.61,47.61,0,0,0,83,46a45,45,0,0,0-17.79,3.36C52.86,54.51,43.26,65.62,42.27,83.3c-.34,6.13.93,11.36,2.22,16.65,1.09,4.52,2.2,9.07,2.2,14.16a10.48,10.48,0,0,0,3.21,7.67h0a19.93,19.93,0,0,0,8.64,4.62h0a135.7,135.7,0,0,0,24.74,4.39c7.41.6,14.41.44,19.32-.91l1.23-.34h0c8.29-2.25,22.33-6.07,20.09-15.77-1.77-7.69-1.16-12.37-.48-17.65A75.06,75.06,0,0,0,124.23,82Zm-4,32.59c1.43,6.17-10.42,9.39-17.41,11.29h0l-1.22.32c-4.45,1.23-11,1.36-18,.79a132.31,132.31,0,0,1-24-4.25,16.21,16.21,0,0,1-7-3.67h0a6.91,6.91,0,0,1-2.1-5c0-5.49-1.17-10.28-2.32-15-1.21-5-2.42-10-2.11-15.55.89-16,9.52-26,20.59-30.67A41.36,41.36,0,0,1,83,49.76a44.09,44.09,0,0,1,16.39,3.33c11.5,4.8,20.48,14.72,21.13,29.11a71.34,71.34,0,0,1-.75,13.46C119,101.31,118.35,106.32,120.26,114.63Z"/><path class="cls-43" d="M122.35,82.11c-2-43.44-75.44-48.25-78.2,1.29-.62,11.15,4.42,19.56,4.42,30.71,0,5.77,5,8.91,10.49,10.49,13,3.7,33,6.26,43.06,3.47,7.37-2,21.91-5.48,20-13.87C119,100.58,123,96.09,122.35,82.11Z"/><path class="cls-38" d="M122.35,82.11C121.3,59,100,46.81,79.86,48,98.37,49,117,61,119.31,82.11c1.51,14-2.23,18.47,1.77,32.09,2.46,8.39-11.86,11.84-19.1,13.87a41.47,41.47,0,0,1-10.42,1.17,41.84,41.84,0,0,0,10.56-1.17c7.37-2,21.91-5.48,20-13.87C119,100.58,123,96.09,122.35,82.11Z"/><path class="cls-19" d="M56.64,112.26c-6-19.89,26.56-41.7-.31-55.29-6.8,5.85-11.51,14.58-12.18,26.43-.62,11.15,4.42,19.56,4.42,30.71,0,5.77,5,8.91,10.49,10.49,13,3.7,33,6.26,43.06,3.47,5.26-1.45,14.16-3.62,18.13-7.79C101.84,129,61.54,128.45,56.64,112.26Z"/><g id="g1798"><path d="M36.51,100.17h0a13.16,13.16,0,0,0,0,18.66h0a13.18,13.18,0,0,0,14.91,2.63,39.2,39.2,0,0,1-.54-3.93,9.52,9.52,0,0,1-11.75-1.33h0a9.49,9.49,0,0,1,0-13.4h0a9.49,9.49,0,0,1,13.25-.15,22.13,22.13,0,0,1,1.5-3.6,13.19,13.19,0,0,0-17.37,1.12Z"/><path class="cls-34" d="M45.83,98.17a11.35,11.35,0,1,0,5.27,21.39,42.14,42.14,0,0,1-.38-5.61,35,35,0,0,1,2.35-13.17A11.27,11.27,0,0,0,45.83,98.17Z"/><path class="cls-19" d="M39.89,109.52a9.91,9.91,0,0,0,9.91,9.91,8.93,8.93,0,0,0,1.27-.08,55.05,55.05,0,0,1,.77-14.85C46.39,101.23,39.89,102.52,39.89,109.52Z"/><path class="cls-38" d="M34.49,109.52a11.31,11.31,0,0,0,1.74,6,11.5,11.5,0,0,1-1-4.8,11.33,11.33,0,0,1,17.66-9.41c.07-.2.15-.39.23-.57a11.34,11.34,0,0,0-18.58,8.74Z"/></g><circle class="cls-38" cx="72.34" cy="106.07" r="14.16"/><circle class="cls-20" cx="72.8" cy="105.62" r="13.7" transform="translate(-22.44 19.68) rotate(-13.36)"/><g id="g1812"><path class="cls-44" d="M74,94.47a10,10,0,1,0,10,10A10,10,0,0,0,74,94.47Z"/><path class="cls-24" d="M74,94.47a10,10,0,1,0,10,10A10,10,0,0,0,74,94.47Z"/></g><path class="cls-29" d="M75.57,98.09a6.37,6.37,0,1,0,6.37,6.37A6.37,6.37,0,0,0,75.57,98.09Z"/><circle class="cls-24" cx="71.5" cy="100.87" r="4.66"/><path class="cls-24" d="M78.81,107.66a1.73,1.73,0,1,0,1.73,1.73A1.73,1.73,0,0,0,78.81,107.66Z"/><ellipse class="cls-38" cx="112.49" cy="108.55" rx="7.6" ry="10.38"/><ellipse class="cls-20" cx="112.29" cy="108.23" rx="7.36" ry="10.05"/><g id="g1828"><g id="g1830"><path class="cls-44" d="M111.23,100.06c-3,0-5.36,3.27-5.36,7.31s2.4,7.33,5.36,7.33,5.36-3.28,5.36-7.33S114.2,100.06,111.23,100.06Z"/><path class="cls-24" d="M111.23,100.06c-3,0-5.36,3.27-5.36,7.31s2.4,7.33,5.36,7.33,5.36-3.28,5.36-7.33S114.2,100.06,111.23,100.06Z"/></g><path class="cls-29" d="M112.09,102.71c-1.88,0-3.41,2.09-3.41,4.66s1.53,4.67,3.41,4.67,3.42-2.09,3.42-4.67S114,102.71,112.09,102.71Z"/><ellipse class="cls-24" cx="109.91" cy="104.74" rx="2.5" ry="3.41"/><path class="cls-24" d="M113.84,109.72c-.51,0-.93.57-.93,1.27s.42,1.27.93,1.27.93-.57.93-1.27S114.35,109.72,113.84,109.72Z"/></g><path class="cls-38" d="M105.74,89.25c-2.6,1.12-1.68,8.21-.83,8.71.52.31,1.76-1.73,3.59-2.59,1.18-.55,3.13.16,3.53-.29C113.07,93.93,108.35,88.13,105.74,89.25Z"/><path class="cls-38" d="M87.88,82.67c-3.62-2.36-12.37,4.75-11.25,6.19.51.64,3.59.82,5.53,2.25,2.38,1.78,3.74,4.78,5,4.62C89.34,95.43,91.49,85,87.88,82.67Z"/><path class="cls-38" d="M70.8,127.26,76,125.68c10.93-4.92,21.07-5.67,30,0h4.28C99.61,115.3,84.38,116.25,70.8,127.26Z"/><path class="cls-20" d="M70.8,127.26q2.74.48,5.5.87c10.26-4.62,21.06-6.39,29.46-1,1.53-.42,3-.89,4.54-1.4C99.11,116.14,85.32,116.87,70.8,127.26Z"/><path class="cls-45" d="M74.3,127.83c11.55,2,22.5,2.16,32.4-1C99.74,119.4,83.3,118.66,74.3,127.83Z"/><path class="cls-46" d="M78.17,125.68H104A22.41,22.41,0,0,0,78.17,125.68Z"/><g id="g1854"><path d="M82.11,132A9.46,9.46,0,0,0,101,132v-5.67H82.11Zm1.49-4.18H99.54V132a8,8,0,0,1-15.94,0Z"/><path class="cls-47" d="M82.86,132a8.71,8.71,0,0,0,17.42,0v-4.92H82.86Z"/><path class="cls-48" d="M91.57,127.06a23.84,23.84,0,0,1,.55,8.8,18,18,0,0,0,1.24-8.8Z"/><path class="cls-41" d="M91.57,139.16A8.19,8.19,0,0,1,83.41,131v1.11a8.16,8.16,0,0,0,16.32,0V131A8.19,8.19,0,0,1,91.57,139.16Z"/><circle class="cls-48" cx="85.65" cy="129" r="0.31"/><path class="cls-48" d="M90.48,130.28a.27.27,0,1,0,.27.27A.27.27,0,0,0,90.48,130.28Z"/><path class="cls-48" d="M87.81,133.61a.49.49,0,1,0,.48.48A.49.49,0,0,0,87.81,133.61Z"/><path class="cls-48" d="M91.9,136.18a.2.2,0,1,0,.2.2A.2.2,0,0,0,91.9,136.18Z"/><circle class="cls-48" cx="95.57" cy="135.13" r="0.16"/><path class="cls-48" d="M97.15,130.53a.26.26,0,1,0,.26.25A.26.26,0,0,0,97.15,130.53Z"/><path class="cls-45" d="M99,128.62a0,0,0,0,0,.08,0,0,0,0,0,0-.08,0A0,0,0,0,0,99,128.62Z"/><path class="cls-48" d="M96.07,128.12a.26.26,0,1,0,.26.25A.26.26,0,0,0,96.07,128.12Z"/><path class="cls-48" d="M97.88,133.18a.15.15,0,0,0,0,.3.15.15,0,0,0,0-.3Z"/><path class="cls-48" d="M85.75,130.88a.22.22,0,1,0,.22.22A.22.22,0,0,0,85.75,130.88Z"/><path class="cls-48" d="M85.65,134.31a.18.18,0,0,0-.17.18.18.18,0,0,0,.17.17.18.18,0,0,0,.18-.17A.18.18,0,0,0,85.65,134.31Z"/><path class="cls-48" d="M89.8,137a.32.32,0,1,0,.32.32A.32.32,0,0,0,89.8,137Z"/></g><path d="M95.51,122.42a22.61,22.61,0,0,0-2.34-.26v-.27l-.72-.1a15,15,0,0,0-3.73,0,24.47,24.47,0,0,0-4.27.92l-.65.2,0,.52-3.24,1-.64.21.33,3.91,4.1.73.12,1.28,8.78,1.63,0-2.72,3.59-.33-.13.67,6.82-1,.33-3.91c-1.64-.59-3.33-1.27-5-1.81A29,29,0,0,0,95.51,122.42Zm6.48,5-3.17.47.09-.54-7.34.66,0,2.24-5.51-1L86,127.9l-4.08-.72-.1-1.29,3.23-1,.65-.21-.05-.5a22.82,22.82,0,0,1,3.33-.66,15.16,15.16,0,0,1,2.59-.1v.43h.82a19,19,0,0,1,2.91.27,26.89,26.89,0,0,1,3.17.69l3.67,1.34Z"/><g id="g1890"><polygon class="cls-49" points="80.86 125.29 81.08 127.89 85.2 128.63 84.75 124.05 80.86 125.29"/><polygon class="cls-24" points="83.03 125.23 82.63 127.91 84.7 128.33 84.5 124.63 83.03 125.23"/></g><g id="g1896"><polygon class="cls-49" points="97.78 128.87 102.77 128.14 102.98 125.54 98.67 123.97 97.78 128.87"/><polygon class="cls-24" points="99.38 124.59 99.18 128.3 101.25 127.88 100.86 125.21 99.38 124.59"/></g><g id="g1902"><path class="cls-49" d="M84.7,123.53l.6,6.39,7.15,1.32-.11-8.62A19.37,19.37,0,0,0,84.7,123.53Z"/><path class="cls-24" d="M88.47,123.13l-1.13,6.55,4,1,.1-7.66A11,11,0,0,0,88.47,123.13Z"/></g><g id="g1908"><path class="cls-49" d="M92.33,128.77l5.55-.5.8-4.3a25.37,25.37,0,0,0-6.49-1Z"/><path class="cls-24" d="M93.19,128.44l2-.21.36-4.79a13.89,13.89,0,0,0-2.68-.32Z"/></g><ellipse class="cls-50" cx="117.74" cy="93.05" rx="2.07" ry="3"/><path class="cls-50" d="M114.35,86.91c-.76,0-1.37,1-1.37,2.23s.61,2.23,1.37,2.23,1.37-1,1.37-2.23S115.1,86.91,114.35,86.91Z"/><path class="cls-50" d="M65.91,84.15a3.59,3.59,0,1,0,3.59,3.59A3.59,3.59,0,0,0,65.91,84.15Z"/><path class="cls-50" d="M72.28,87.18a1.18,1.18,0,1,0,1.18,1.18A1.17,1.17,0,0,0,72.28,87.18Z"/><ellipse class="cls-50" cx="117.31" cy="120.06" rx="0.94" ry="1.46"/><path class="cls-50" d="M115,121.32c-.4,0-.73.49-.73,1.08s.33,1.08.73,1.08.73-.48.73-1.08S115.43,121.32,115,121.32Z"/><path class="cls-50" d="M67.69,121.22a2.17,2.17,0,1,0,2.17,2.16A2.17,2.17,0,0,0,67.69,121.22Z"/><path class="cls-50" d="M63.33,121.33a1.06,1.06,0,1,0,1.06,1.06A1.07,1.07,0,0,0,63.33,121.33Z"/><path class="cls-50" d="M58.68,116.37a1.37,1.37,0,1,0,1.37,1.37A1.37,1.37,0,0,0,58.68,116.37Z"/><circle class="cls-50" cx="97.7" cy="99.15" r="1.84"/><path class="cls-50" d="M101.61,102.23a.82.82,0,1,0,.82.82A.82.82,0,0,0,101.61,102.23Z"/><path class="cls-50" d="M96.84,93.17a.43.43,0,0,0,0,.86.43.43,0,0,0,0-.86Z"/><g id="g1938"><path d="M43.66,114.15a6.9,6.9,0,1,0,4.86,2A6.85,6.85,0,0,0,43.66,114.15Zm3.15,10A4.45,4.45,0,1,1,48.12,121,4.46,4.46,0,0,1,46.81,124.19Z"/><circle class="cls-29" cx="43.66" cy="121.04" r="5.67"/><path class="cls-39" d="M43.66,116.42a4.58,4.58,0,0,0-3.27,1.35,4.62,4.62,0,0,0,3.27,7.88A4.61,4.61,0,0,0,48.27,121a4.64,4.64,0,0,0-1.35-3.27A4.59,4.59,0,0,0,43.66,116.42Zm2.56,7.17A3.63,3.63,0,0,1,40,121a3.65,3.65,0,0,1,3.63-3.63,3.63,3.63,0,0,1,2.56,6.18Z"/><path class="cls-51" d="M43.66,116.92A4.12,4.12,0,1,0,47.77,121,4.11,4.11,0,0,0,43.66,116.92Z"/><path class="cls-41" d="M43.44,117.09a2.09,2.09,0,1,0,2.09,2.09A2.09,2.09,0,0,0,43.44,117.09Z"/><circle class="cls-41" cx="40.93" cy="121.54" r="1.04"/></g><path d="M72.53,94.1c-4.61.65-9,4-10.11,8.17a12.57,12.57,0,0,1-3.64-2.44c.83,3.09,2.16,4.73,5.22,5.45-.15-3.06,3.12-9.06,8.82-9.69a11,11,0,0,1,10.62,4.48A9.92,9.92,0,0,0,72.53,94.1Z"/><path d="M111.81,99.56c-2.23-.31-4.55,1.6-5.69,4.29,1.44-1.95,3.31-3.76,5.58-3.51,3.06.34,4.93,4.69,4.85,6.35a3.51,3.51,0,0,0,2.8-3,6.71,6.71,0,0,1-2,1.34C116.78,102.76,115.15,100,111.81,99.56Z"/><g id="g1956"><g id="g1958"><path d="M69.92,14.64,63.84,25.43l-18-19.2.62,20.33-30.1-9.93L31.87,37.07,3.33,39.77l24,14.56-14,8L34,66l-8.5,9.81L42.26,73,37.92,83.31l32.45-17L87.13,31.52,75.54,36.23ZM67.2,63.25l-20.91,11,2.77-6.62L36.28,69.71,42,63.1,25.49,60.19l10.07-5.73L16.29,42.75l23.46-2.22L27.87,24.84l23,7.58-.47-15.24L64.7,32.46l3.78-6.72L72.7,41.92l5.93-2.41Z"/><polygon class="cls-52" points="69.2 20.19 64.27 28.94 48.13 11.7 48.67 29.49 22.12 20.73 35.81 38.79 9.81 41.26 31.43 54.4 19.38 61.24 38 64.52 30.88 72.73 45.66 70.27 42.1 78.76 68.78 64.77 82.88 35.52 74.12 39.07 69.2 20.19"/><polygon class="cls-53" points="47.32 59.27 34.46 56.95 41.59 51.53 9.81 41.26 31.43 54.4 19.38 61.24 38 64.52 30.88 72.74 45.66 70.27 42.11 78.76 68.78 64.77 43.29 65.47 47.32 59.27"/><polygon class="cls-54" points="22.12 20.73 50.59 37.76 48.67 29.49 22.12 20.73"/><polygon class="cls-54" points="48.13 11.7 48.4 20.6 49.97 17.16 66 40.01 64.27 28.94 48.13 11.7"/><polygon class="cls-54" points="65.1 27.47 68.48 25.37 74.12 39.07 69.2 20.19 65.1 27.47"/></g><g id="g1972"><path d="M60,39.66a15.65,15.65,0,1,0,11.07,4.58A15.66,15.66,0,0,0,60,39.66Zm9.43,25.09a13.34,13.34,0,1,1,3.91-9.44A13.3,13.3,0,0,1,69.43,64.75Z"/><circle class="cls-55" cx="60" cy="55.31" r="14.5"/><path class="cls-56" d="M45.5,55.31a14.5,14.5,0,0,0,8.22,13.08,14.51,14.51,0,0,1,7.83-26.72,14.22,14.22,0,0,1,6.27,1.44A14.32,14.32,0,0,0,60,40.81,14.5,14.5,0,0,0,45.5,55.31Z"/></g><polygon class="cls-57" points="59.74 80.67 102.64 85.97 124.32 83.37 124.32 73.08 60.72 70.73 59.74 80.67"/><path d="M121.27,46.07c-6.8-5.42-18.06-7.61-37.58-7S50.37,43.81,42.41,53.37s-10,24.25-6.1,45.81l.61,3.36,2.53-2.29a11.59,11.59,0,0,1,9.82-2.91,184.81,184.81,0,0,0,.83,22.39c.65,6.38,1.73,12.71,3.49,17.22l3,7.67.67-8.19a213.11,213.11,0,0,1,5.25-32.77,145.6,145.6,0,0,1,8.87-26l31.1,5L131.81,74l-.17-1.57C130.34,60.2,128.23,51.62,121.27,46.07ZM102.21,78.79,69.14,73.44l-.61,1.29a148.17,148.17,0,0,0-9.72,28,211.87,211.87,0,0,0-4.19,22.51c-.3-1.92-.54-3.92-.74-5.93A167.32,167.32,0,0,1,53.15,96l.12-1.54L51.77,94a15.89,15.89,0,0,0-7.92-.24,15.48,15.48,0,0,0-4.32,1.72c-3-18.72-1-31.49,5.79-39.69,7.19-8.63,20-12.42,38.48-13s29.05,1.39,35.1,6.22c5.64,4.49,7.59,11.79,8.79,22.17Z"/><path class="cls-58" d="M83.74,40.94c-38.06,1.13-53.1,16-45.56,57.9a13.58,13.58,0,0,1,13.07-3c-.35,4.57-.37,28.94,4.11,40.43,1.44-17.48,5.51-41,14.89-60.73l32.09,5.19,27.41-8.14C127.27,49.18,121.81,39.8,83.74,40.94Z"/><path class="cls-54" d="M55.36,136.27a216.88,216.88,0,0,1,4.8-31,208.21,208.21,0,0,0-5.44,29.18C54.93,135.1,55.14,135.71,55.36,136.27Z"/><path class="cls-54" d="M83.74,40.94c-27.5.81-43,8.79-46.61,29,5.31-16.23,20.36-22.85,45.28-23.59,35.33-1,42.56,7,45.41,26.84l1.93-.57C127.27,49.18,121.81,39.8,83.74,40.94Z"/><path class="cls-53" d="M62.62,77.29c-16.61,1.88-21,9.35-25.21,16.85.22,1.53.48,3.1.77,4.7a13.58,13.58,0,0,1,13.07-3c-.35,4.57-.37,28.94,4.11,40.43C56.62,120.94,59.91,101,67,83a86.16,86.16,0,0,0-12.74,30.36C53,103.19,51.29,91.23,62.62,77.29Z"/><path d="M128.76,65.24,106.28,68l-.52-.42-.64.13L68.54,74.78l-.83.17-.26.79c-.25,12.57-7.27,16.08-24.73,22.43L38,99.84l4.85,1.06c10.37,2.25,23.37,2.43,36,.38,10.51-1.69,20.81-4.92,29.16-9.75a13,13,0,0,1-1.48,3.36,27.2,27.2,0,0,1-4.49,5.25l-3.52,3.37,4.78-.94a53.63,53.63,0,0,0,16-5.58c6.77-3.87,18.75-14.46,18.54-22.81C137.28,68.55,133.49,65.89,128.76,65.24ZM117.91,94.52a45.45,45.45,0,0,1-10.56,4.19A21.93,21.93,0,0,0,109,96.39h0a14.83,14.83,0,0,0,2.31-7.62l0-2.69-2.26,1.47c-8.43,5.5-19.4,9.11-30.66,10.94A102.75,102.75,0,0,1,48.54,99c5.09-2,9-4.11,12.23-6.86h0c4-3.48,6.82-8,9.11-14.72L105,70.64l20.71,16.85A22.16,22.16,0,0,1,117.91,94.52Z"/><path class="cls-59" d="M128.76,65.24l-22.83-1.09-39.2,9C62.21,87,58,94.21,43.2,99.51c19.57,4.26,48.74.95,66.7-10.77-.11,5.28-3.22,9-6.81,12.43C113.57,99.1,151.92,78,128.76,65.24Z"/><path class="cls-53" d="M43.2,99.51c19.57,4.26,48.74.95,66.7-10.77l6.16-9.1C94.86,92.42,69.59,98.7,43.69,99.33Z"/><path class="cls-54" d="M128.76,65.24l-2.56-.12-2.21.52-1.62.39-11.58,2.75,13.53,1a22.58,22.58,0,0,1,1,4.16,17.26,17.26,0,0,1-1,8.78c-.1.25-.19.48-.3.71a18.18,18.18,0,0,1-1,1.92,23.57,23.57,0,0,1-2.68,3.7,40.85,40.85,0,0,1-8.19,7c-1.31.87-2.68,1.72-4.13,2.54s-3.24,1.8-5,2.66a44.4,44.4,0,0,0,9.53-3.6l.83-.41c1.09-.55,2.21-1.14,3.34-1.78.5-.28,1-.56,1.49-.86,1-.57,2-1.16,2.91-1.79l.36-.22c.94-.62,1.87-1.26,2.77-1.92C134.89,82.91,142.24,72.65,128.76,65.24Z"/><path class="cls-54" d="M38.31,65.06c3.46,2,8.57,3.73,14.51,5.09l4.61-9.53a96.63,96.63,0,0,1-15.28-3.73A31.06,31.06,0,0,0,38.31,65.06Z"/><path class="cls-54" d="M92.25,63.61c-6.43,0-13.65-.39-20.77-1.11L70.25,73.06a232.89,232.89,0,0,0,26.14,1.6c18.22,0,26.71-2.88,32.37-9.42a31.81,31.81,0,0,0-1.2-5.4C117.11,62.21,108.89,63.61,92.25,63.61Z"/><path class="cls-54" d="M57.71,71.17c1.28.24,2.58.47,3.9.68l3.6-10.07c-1.32-.17-2.62-.35-3.91-.54Z"/></g></g></g></svg>