<svg width="463" height="580" viewBox="0 0 463 580" fill="none" xmlns="http://www.w3.org/2000/svg">
<path d="M297.706 333.643C300.671 333.643 303.075 331.239 303.075 328.274C303.075 325.309 300.671 322.905 297.706 322.905C294.74 322.905 292.336 325.309 292.336 328.274C292.336 331.239 294.74 333.643 297.706 333.643Z" fill="#2D2530"/>
<path fill-rule="evenodd" clip-rule="evenodd" d="M36.4977 0H429.553V3.05021C429.548 7.03992 430.331 10.9913 431.859 14.677C433.386 18.3628 435.627 21.7103 438.452 24.5271C441.27 27.3517 444.617 29.5919 448.303 31.1193C451.988 32.6466 455.939 33.4308 459.929 33.427H463V580H0C0 397.809 0 215.618 0 33.427H3.05018C7.03984 33.432 10.9911 32.6482 14.6769 31.1209C18.3626 29.5935 21.71 27.3526 24.5268 24.5271C27.356 21.7131 29.5993 18.3661 31.1269 14.6797C32.6545 10.9933 33.4362 7.0406 33.4266 3.05021V0H36.4977ZM423.578 6.12132H39.4225C38.7125 14.7138 34.9647 22.7722 28.8513 28.8517C22.772 34.9652 14.7136 38.7129 6.12124 39.423V573.879H456.879V39.423C448.281 38.7088 440.218 34.962 434.128 28.8517C428.028 22.7649 424.289 14.7091 423.578 6.12132V6.12132Z" fill="#242127"/>
<path fill-rule="evenodd" clip-rule="evenodd" d="M36.4976 3.05023H426.502C426.502 11.9156 430.024 20.4179 436.293 26.6867C442.561 32.9555 451.064 36.4772 459.929 36.4772V576.95H3.05017V36.4981C7.44333 36.5009 11.7939 35.6376 15.8532 33.9576C19.9125 32.2777 23.6008 29.814 26.7072 26.7076C29.8137 23.6011 32.2773 19.9128 33.9572 15.8534C35.6371 11.7941 36.5004 7.44344 36.4976 3.05023Z" fill="#84758F"/>
<path fill-rule="evenodd" clip-rule="evenodd" d="M49.6803 22.9811H413.32C413.32 39.9453 426.356 53.6921 442.422 53.6921V503.034H20.5782V53.6712C36.6439 53.6712 49.6803 39.9244 49.6803 22.9811Z" fill="#504757"/>
<path fill-rule="evenodd" clip-rule="evenodd" d="M56.5536 37.6053H406.446C406.446 53.4623 418.459 66.3108 433.292 66.3108V502.951H29.7079V66.3108C44.5409 66.3943 56.5536 53.5458 56.5536 37.6053Z" fill="#615669"/>
<path d="M442.422 503.034H20.5782V509.991H442.422V503.034Z" fill="#A398AC"/>
<path fill-rule="evenodd" clip-rule="evenodd" d="M457.108 574.15H5.89141V38.9216C14.6146 38.8718 22.961 35.3602 29.0959 29.1586C35.2308 22.957 38.6521 14.573 38.6077 5.84974H424.371C424.332 14.575 427.758 22.9589 433.897 29.1599C440.035 35.3609 448.383 38.8718 457.108 38.9216V574.15ZM426.502 3.05023H36.4976C36.4976 11.9156 32.9759 20.4179 26.7072 26.6867C20.4385 32.9555 11.9363 36.4772 3.07104 36.4772V576.95H459.929V36.4981C455.537 36.4981 451.189 35.6328 447.132 33.9516C443.075 32.2705 439.39 29.8064 436.285 26.7002C433.181 23.594 430.719 19.9066 429.041 15.8486C427.362 11.7906 426.5 7.44168 426.502 3.05023V3.05023Z" fill="#A398AC"/>
<path fill-rule="evenodd" clip-rule="evenodd" d="M402.164 3.05023H397.505L395.708 5.84974L374.42 14.3945L348.744 12.5142L341.181 5.84974V3.05023H337.295L338.59 5.84974L347.657 13.6006L345.568 20.683L349.35 14.102L374.817 16.5046L399.093 5.84974L402.164 3.05023Z" fill="#242127"/>
<path fill-rule="evenodd" clip-rule="evenodd" d="M55.9269 99.0693L29.7079 97.774L20.5782 86.6386L9.56836 83.86L20.5782 89.3337L29.7079 101.66L55.9269 99.0693Z" fill="#242127"/>
<path fill-rule="evenodd" clip-rule="evenodd" d="M3.05017 414.286V408.311L5.87054 411.486L20.5782 412.489L29.7079 421.848L55.0285 432.587L68.5663 421.452L56.8252 434.175L70.154 467.602L95.8298 465.032L101.993 457.072L97.4176 466.62L113.546 468.897L147.787 466.411L113.149 470.589L94.9315 467.811L70.8644 470.088L68.5663 486.718L62.4033 503.034L67.271 510.012L76.1499 518.808L69.4646 565.125L78.2182 568.3L81.8116 574.15L82.7935 576.95H79.409V574.15L77.0274 569.7L68.2738 566.504L72.6401 519.017L65.0983 510.012L60.2096 503.034L66.2682 486.112L68.2738 470.401L55.5299 436.18L44.9796 442.134L36.8319 456.278L42.786 440.944L53.1483 435.177L29.7079 424.23L20.5782 416.082L5.87054 414.286H3.05017Z" fill="#242127"/>
<path fill-rule="evenodd" clip-rule="evenodd" d="M459.929 155.749V152.97H457.109L450.214 157.378L444.197 166.78L442.422 167.636L433.292 165.986L425.437 165.108L409.225 172.567L425.834 166.592L433.292 167.595L442.422 169.872L445.451 168.681L451.322 178.333L457.109 183.911L459.929 186.397V182.804L457.109 181.822L452.408 176.745L446.934 167.595L451.802 158.632L457.109 154.746L459.929 155.749Z" fill="#242127"/>
<path fill-rule="evenodd" clip-rule="evenodd" d="M3.05017 238.334V231.858H5.87054L11.95 222.812L19.0114 218.424L13.1408 224.295L5.87054 236.35L3.05017 238.334Z" fill="#242127"/>
<path fill-rule="evenodd" clip-rule="evenodd" d="M442.422 420.303L433.292 405.386L420.256 402.607L403.751 383.888L359.963 381.109L405.339 380.901L421.655 399.014L433.292 401.207L442.422 387.273L457.109 381.506H459.929V385.392L457.109 384.494L442.422 390.051L434.692 403.401L442.422 418.213L449.713 422.998L442.422 420.303Z" fill="#242127"/>
<path fill-rule="evenodd" clip-rule="evenodd" d="M429.908 576.95H425.938L426.628 574.15L416.579 560.8L429.908 574.15V576.95Z" fill="#242127"/>
<path fill-rule="evenodd" clip-rule="evenodd" d="M80.7879 57.6407L87.5568 37.689L79.4091 22.9602L83.9843 11.6786L82.1877 22.9602L91.944 37.689L80.7879 57.6407Z" fill="#242127"/>
<path fill-rule="evenodd" clip-rule="evenodd" d="M425.625 243.85L433.292 243.516L442.422 236.747L452.701 235.347L442.422 239.17L433.292 245.897L423.891 245.793L416.286 250.41L404.796 252.457L415.493 248.968L423.285 244.101L421.509 240.674L412.756 238.23L423.097 239.128L425.625 243.85Z" fill="#242127"/>
<path fill-rule="evenodd" clip-rule="evenodd" d="M75.7949 571.393L75.7322 574.15H79.4091L77.0275 569.7L68.2739 566.504L72.6402 519.017L65.0984 510.012H60.9409L70.4048 519.205L67.0413 567.214L75.7949 571.393Z" fill="#A398AC"/>
<path fill-rule="evenodd" clip-rule="evenodd" d="M422.533 572.395L421.864 574.15H426.628L416.579 560.8L422.533 572.395Z" fill="#A398AC"/>
<path fill-rule="evenodd" clip-rule="evenodd" d="M442.422 422.057L449.713 422.998L442.422 420.302V422.057Z" fill="#A398AC"/>
<path fill-rule="evenodd" clip-rule="evenodd" d="M442.422 392.099L457.109 387.335V384.494L442.422 390.051V392.099Z" fill="#A398AC"/>
<path fill-rule="evenodd" clip-rule="evenodd" d="M453.473 160.178L457.109 158.381V154.746L451.802 158.632L446.934 167.595L453.473 160.178Z" fill="#A398AC"/>
<path fill-rule="evenodd" clip-rule="evenodd" d="M451.322 178.333L445.451 168.681L442.422 169.872V171.627L444.615 170.728L450.089 180.38L457.109 187.651V183.911L451.322 178.333Z" fill="#A398AC"/>
<path fill-rule="evenodd" clip-rule="evenodd" d="M375.193 18.0088L405.318 5.84973H399.093L374.816 16.5046L349.35 14.102L345.568 20.683L350.415 15.7107L375.193 18.0088Z" fill="#A398AC"/>
<path fill-rule="evenodd" clip-rule="evenodd" d="M347.657 13.6006L338.59 5.84973H333.096L345.526 13.517L346.613 17.1522L347.657 13.6006Z" fill="#A398AC"/>
<path fill-rule="evenodd" clip-rule="evenodd" d="M20.5782 89.3337L9.56836 83.86L20.5782 92.1749V89.3337Z" fill="#A398AC"/>
<path fill-rule="evenodd" clip-rule="evenodd" d="M13.1408 224.295L5.87048 236.35V240.131L8.23124 238.084L14.3943 225.361L19.0113 218.424L13.1408 224.295Z" fill="#A398AC"/>
<path fill-rule="evenodd" clip-rule="evenodd" d="M20.5782 416.082L5.87048 414.286V417.127L20.5782 418.777V416.082Z" fill="#A398AC"/>
<path fill-rule="evenodd" clip-rule="evenodd" d="M29.7079 424.23V427.03L53.1483 435.178L29.7079 424.23Z" fill="#84758F"/>
<path fill-rule="evenodd" clip-rule="evenodd" d="M55.5299 436.18L44.9796 442.135L36.8319 456.278L45.4393 444.349L54.6942 439.168L68.2738 470.401L55.5299 436.18Z" fill="#84758F"/>
<path fill-rule="evenodd" clip-rule="evenodd" d="M94.9315 467.811L70.8644 470.088L68.5663 486.718L72.5984 471.697L94.6808 469.127L113.003 471.801L147.787 466.411L113.149 470.589L94.9315 467.811Z" fill="#84758F"/>
<path fill-rule="evenodd" clip-rule="evenodd" d="M419.733 404.341L433.292 408.436V405.386L420.256 402.607L403.751 383.888L367.316 381.569L402.331 385.434L419.733 404.341Z" fill="#84758F"/>
<path fill-rule="evenodd" clip-rule="evenodd" d="M425.604 168.451L433.292 169.433V167.595L425.834 166.592L409.225 172.567L425.604 168.451Z" fill="#84758F"/>
<path fill-rule="evenodd" clip-rule="evenodd" d="M29.7079 104.668L55.9269 99.0692L29.7079 101.66V104.668Z" fill="#84758F"/>
<path fill-rule="evenodd" clip-rule="evenodd" d="M423.891 245.793L416.286 250.41L404.796 252.457L417.143 252.478L424.894 247.297L433.292 248.091V245.897L423.891 245.793Z" fill="#84758F"/>
<path fill-rule="evenodd" clip-rule="evenodd" d="M442.422 239.17V241.74L452.7 235.347L442.422 239.17Z" fill="#A398AC"/>
<path fill-rule="evenodd" clip-rule="evenodd" d="M86.5749 63.2188C87.2442 63.2188 87.8986 63.4173 88.4552 63.7892C89.0117 64.1611 89.4455 64.6897 89.7017 65.3081C89.9578 65.9265 90.0249 66.607 89.8943 67.2636C89.7637 67.9201 89.4414 68.5232 88.968 68.9965C88.4947 69.4698 87.8917 69.7921 87.2351 69.9227C86.5786 70.0533 85.8981 69.9863 85.2797 69.7301C84.6613 69.474 84.1327 69.0402 83.7608 68.4836C83.3889 67.927 83.1904 67.2727 83.1904 66.6033C83.1904 65.7057 83.547 64.8448 84.1817 64.2101C84.8164 63.5754 85.6773 63.2188 86.5749 63.2188V63.2188Z" fill="#2D2530"/>
<path fill-rule="evenodd" clip-rule="evenodd" d="M192.454 440.923C193.28 440.923 194.088 441.168 194.775 441.627C195.462 442.086 195.998 442.739 196.314 443.502C196.63 444.266 196.713 445.106 196.552 445.916C196.39 446.727 195.992 447.471 195.408 448.056C194.824 448.64 194.079 449.038 193.269 449.199C192.458 449.361 191.618 449.278 190.855 448.962C190.091 448.645 189.439 448.11 188.979 447.423C188.52 446.735 188.275 445.928 188.275 445.101C188.275 443.993 188.715 442.93 189.499 442.147C190.283 441.363 191.345 440.923 192.454 440.923Z" fill="#2D2530"/>
<path fill-rule="evenodd" clip-rule="evenodd" d="M385.074 490.959C385.822 490.959 386.553 491.181 387.175 491.596C387.797 492.012 388.282 492.602 388.568 493.293C388.854 493.984 388.929 494.744 388.783 495.478C388.637 496.212 388.277 496.885 387.748 497.414C387.219 497.943 386.546 498.303 385.812 498.449C385.079 498.595 384.318 498.52 383.627 498.234C382.936 497.948 382.346 497.463 381.93 496.841C381.515 496.219 381.293 495.488 381.293 494.74C381.293 493.737 381.691 492.776 382.401 492.066C383.11 491.357 384.072 490.959 385.074 490.959V490.959Z" fill="#2D2530"/>
<path fill-rule="evenodd" clip-rule="evenodd" d="M130.176 185.812C130.766 185.812 131.344 185.987 131.835 186.316C132.327 186.644 132.71 187.111 132.936 187.657C133.162 188.202 133.221 188.803 133.106 189.383C132.99 189.962 132.706 190.494 132.288 190.912C131.87 191.33 131.338 191.615 130.758 191.73C130.179 191.845 129.578 191.786 129.032 191.56C128.486 191.334 128.02 190.951 127.692 190.46C127.363 189.968 127.188 189.391 127.188 188.8C127.188 188.407 127.265 188.019 127.416 187.657C127.566 187.294 127.786 186.965 128.063 186.687C128.341 186.41 128.67 186.19 129.032 186.04C129.395 185.89 129.783 185.812 130.176 185.812V185.812Z" fill="#2D2530"/>
<path fill-rule="evenodd" clip-rule="evenodd" d="M312.016 80.7262C312.487 80.7262 312.948 80.8659 313.34 81.1276C313.731 81.3893 314.036 81.7613 314.217 82.1964C314.397 82.6316 314.444 83.1105 314.352 83.5725C314.26 84.0345 314.034 84.4589 313.7 84.792C313.367 85.125 312.943 85.3519 312.481 85.4438C312.019 85.5357 311.54 85.4885 311.105 85.3082C310.67 85.128 310.298 84.8227 310.036 84.4311C309.774 84.0394 309.635 83.5789 309.635 83.1079C309.64 82.4779 309.893 81.8753 310.338 81.4298C310.784 80.9843 311.386 80.7317 312.016 80.7262Z" fill="#2D2530"/>
<path fill-rule="evenodd" clip-rule="evenodd" d="M362.971 71.9725C363.441 71.9766 363.899 72.1198 364.288 72.384C364.677 72.6482 364.979 73.0216 365.156 73.4571C365.333 73.8927 365.378 74.3709 365.283 74.8315C365.189 75.2921 364.961 75.7145 364.627 76.0455C364.293 76.3765 363.868 76.6013 363.407 76.6915C362.946 76.7817 362.468 76.7333 362.034 76.5525C361.6 76.3716 361.229 76.0664 360.968 75.6752C360.708 75.284 360.568 74.8243 360.568 74.3542C360.568 74.0396 360.631 73.7282 360.752 73.4379C360.873 73.1476 361.05 72.8841 361.273 72.6626C361.497 72.4412 361.762 72.2662 362.053 72.1478C362.344 72.0293 362.656 71.9697 362.971 71.9725Z" fill="#2D2530"/>
<path fill-rule="evenodd" clip-rule="evenodd" d="M107.466 485.966C108.413 485.966 109.338 486.246 110.124 486.772C110.911 487.298 111.524 488.045 111.886 488.919C112.249 489.793 112.343 490.755 112.159 491.683C111.974 492.611 111.518 493.464 110.849 494.133C110.18 494.802 109.328 495.258 108.4 495.442C107.472 495.627 106.51 495.532 105.636 495.17C104.761 494.808 104.014 494.195 103.489 493.408C102.963 492.621 102.682 491.696 102.682 490.75C102.682 489.481 103.186 488.264 104.083 487.367C104.981 486.47 106.198 485.966 107.466 485.966V485.966Z" fill="#2D2530"/>
<path fill-rule="evenodd" clip-rule="evenodd" d="M292.483 208.083C292.896 208.083 293.3 208.206 293.643 208.435C293.987 208.665 294.255 208.991 294.413 209.373C294.571 209.754 294.612 210.175 294.532 210.58C294.451 210.985 294.252 211.357 293.96 211.649C293.668 211.942 293.295 212.141 292.89 212.221C292.485 212.302 292.065 212.26 291.683 212.102C291.301 211.944 290.975 211.676 290.746 211.333C290.516 210.989 290.393 210.585 290.393 210.172C290.375 209.893 290.416 209.613 290.515 209.351C290.613 209.09 290.767 208.852 290.964 208.654C291.162 208.456 291.4 208.303 291.662 208.204C291.924 208.106 292.203 208.065 292.483 208.083Z" fill="#2D2530"/>
<path fill-rule="evenodd" clip-rule="evenodd" d="M219.362 139.62C219.775 139.62 220.179 139.743 220.523 139.972C220.866 140.202 221.134 140.528 221.292 140.91C221.45 141.292 221.492 141.712 221.411 142.117C221.33 142.522 221.131 142.895 220.839 143.187C220.547 143.479 220.175 143.678 219.77 143.759C219.364 143.839 218.944 143.798 218.563 143.64C218.181 143.482 217.854 143.214 217.625 142.87C217.395 142.527 217.273 142.123 217.273 141.71C217.273 141.155 217.493 140.624 217.885 140.232C218.277 139.84 218.808 139.62 219.362 139.62Z" fill="#2D2530"/>
<path fill-rule="evenodd" clip-rule="evenodd" d="M102.515 343.232C102.986 343.232 103.447 343.372 103.838 343.634C104.23 343.896 104.535 344.267 104.716 344.703C104.896 345.138 104.943 345.617 104.851 346.079C104.759 346.541 104.532 346.965 104.199 347.298C103.866 347.631 103.442 347.858 102.98 347.95C102.518 348.042 102.039 347.995 101.604 347.814C101.169 347.634 100.797 347.329 100.535 346.937C100.273 346.546 100.134 346.085 100.134 345.614C100.139 344.984 100.392 344.382 100.837 343.936C101.283 343.491 101.885 343.238 102.515 343.232V343.232Z" fill="#2D2530"/>
<path fill-rule="evenodd" clip-rule="evenodd" d="M80.7879 240.716C81.3374 240.716 81.8746 240.879 82.3316 241.184C82.7885 241.49 83.1446 241.924 83.3549 242.431C83.5653 242.939 83.6203 243.498 83.5131 244.037C83.4059 244.576 83.1412 245.071 82.7526 245.459C82.364 245.848 81.8689 246.113 81.3299 246.22C80.7909 246.327 80.2323 246.272 79.7245 246.062C79.2168 245.851 78.7829 245.495 78.4776 245.038C78.1722 244.581 78.0093 244.044 78.0093 243.495C78.0093 242.758 78.302 242.051 78.8231 241.53C79.3442 241.009 80.0509 240.716 80.7879 240.716V240.716Z" fill="#2D2530"/>
<path fill-rule="evenodd" clip-rule="evenodd" d="M260.518 410.483C261.074 410.479 261.618 410.641 262.082 410.947C262.545 411.253 262.907 411.69 263.122 412.202C263.336 412.714 263.393 413.279 263.286 413.824C263.179 414.369 262.912 414.87 262.519 415.262C262.126 415.655 261.625 415.922 261.08 416.03C260.535 416.137 259.971 416.08 259.458 415.865C258.946 415.651 258.509 415.289 258.203 414.825C257.897 414.362 257.736 413.818 257.74 413.262C257.74 412.525 258.033 411.818 258.554 411.297C259.075 410.776 259.781 410.483 260.518 410.483Z" fill="#2D2530"/>
<path fill-rule="evenodd" clip-rule="evenodd" d="M273.826 241.51C274.14 241.514 274.444 241.611 274.703 241.788C274.961 241.965 275.161 242.214 275.278 242.504C275.395 242.795 275.424 243.113 275.36 243.42C275.297 243.727 275.144 244.008 274.921 244.228C274.698 244.448 274.415 244.597 274.108 244.656C273.8 244.716 273.482 244.683 273.193 244.563C272.904 244.442 272.658 244.238 272.484 243.978C272.31 243.717 272.218 243.411 272.218 243.098C272.218 242.887 272.26 242.679 272.341 242.485C272.422 242.291 272.541 242.115 272.69 241.968C272.84 241.82 273.017 241.703 273.212 241.625C273.407 241.546 273.616 241.507 273.826 241.51V241.51Z" fill="#2D2530"/>
<path fill-rule="evenodd" clip-rule="evenodd" d="M383.257 424.982C383.674 424.961 384.087 425.066 384.444 425.283C384.801 425.499 385.085 425.818 385.26 426.197C385.434 426.576 385.49 426.999 385.422 427.411C385.354 427.823 385.163 428.205 384.876 428.508C384.588 428.811 384.217 429.02 383.809 429.11C383.401 429.199 382.976 429.164 382.588 429.01C382.2 428.855 381.867 428.588 381.633 428.242C381.398 427.897 381.272 427.489 381.272 427.072C381.255 426.802 381.293 426.531 381.386 426.276C381.478 426.022 381.622 425.79 381.808 425.593C381.994 425.397 382.219 425.242 382.469 425.137C382.718 425.031 382.986 424.979 383.257 424.982V424.982Z" fill="#2D2530"/>
<path fill-rule="evenodd" clip-rule="evenodd" d="M370.534 243.098C370.216 243.098 369.911 243.223 369.684 243.445C369.458 243.668 369.327 243.971 369.322 244.289C369.318 244.529 369.385 244.765 369.516 244.967C369.647 245.169 369.834 245.328 370.055 245.423C370.276 245.518 370.521 245.545 370.757 245.5C370.993 245.456 371.211 245.342 371.383 245.174C371.554 245.005 371.672 244.789 371.72 244.554C371.769 244.318 371.746 244.073 371.655 243.851C371.564 243.628 371.409 243.438 371.209 243.304C371.009 243.169 370.774 243.098 370.534 243.098Z" fill="#2D2530"/>
<path fill-rule="evenodd" clip-rule="evenodd" d="M231.5 205.618C232.132 205.618 232.75 205.805 233.276 206.156C233.801 206.508 234.211 207.007 234.453 207.591C234.695 208.175 234.758 208.818 234.635 209.438C234.512 210.058 234.207 210.627 233.76 211.074C233.313 211.521 232.744 211.826 232.124 211.949C231.504 212.073 230.861 212.009 230.277 211.767C229.693 211.525 229.194 211.116 228.842 210.59C228.491 210.064 228.304 209.446 228.304 208.814C228.304 207.966 228.64 207.153 229.24 206.554C229.839 205.955 230.652 205.618 231.5 205.618V205.618Z" fill="#2D2530"/>
<path fill-rule="evenodd" clip-rule="evenodd" d="M340.533 457.051C341.638 457.051 342.717 457.379 343.635 457.993C344.552 458.607 345.267 459.479 345.689 460.5C346.11 461.52 346.22 462.643 346.003 463.725C345.786 464.808 345.252 465.802 344.47 466.581C343.688 467.361 342.692 467.89 341.609 468.103C340.525 468.316 339.403 468.202 338.384 467.777C337.365 467.352 336.496 466.633 335.885 465.713C335.275 464.793 334.951 463.713 334.955 462.609C334.961 461.133 335.551 459.719 336.597 458.678C337.642 457.636 339.058 457.051 340.533 457.051V457.051Z" fill="#2D2530"/>
<path fill-rule="evenodd" clip-rule="evenodd" d="M177.579 325.913C177.898 325.913 178.21 326.008 178.475 326.186C178.74 326.363 178.946 326.616 179.067 326.911C179.188 327.206 179.219 327.531 179.155 327.843C179.091 328.156 178.936 328.443 178.709 328.667C178.482 328.891 178.193 329.042 177.88 329.102C177.566 329.162 177.242 329.127 176.949 329.002C176.655 328.877 176.405 328.668 176.231 328.4C176.057 328.133 175.966 327.82 175.97 327.501C175.97 327.291 176.012 327.082 176.093 326.888C176.174 326.694 176.293 326.518 176.443 326.371C176.592 326.223 176.77 326.106 176.965 326.028C177.16 325.949 177.369 325.91 177.579 325.913V325.913Z" fill="#2D2530"/>
<path fill-rule="evenodd" clip-rule="evenodd" d="M177.704 541.475C178.415 541.475 179.11 541.686 179.701 542.081C180.291 542.476 180.752 543.037 181.024 543.694C181.296 544.35 181.367 545.073 181.228 545.77C181.09 546.467 180.748 547.107 180.245 547.61C179.742 548.112 179.102 548.455 178.405 548.593C177.708 548.732 176.986 548.661 176.329 548.389C175.672 548.117 175.111 547.656 174.716 547.065C174.322 546.474 174.111 545.78 174.111 545.069C174.108 544.596 174.199 544.128 174.379 543.69C174.558 543.253 174.823 542.856 175.157 542.522C175.491 542.187 175.889 541.923 176.326 541.743C176.763 541.564 177.231 541.473 177.704 541.475V541.475Z" fill="#514257"/>
<path fill-rule="evenodd" clip-rule="evenodd" d="M267.642 549.038C268.056 549.038 268.46 549.161 268.803 549.39C269.147 549.62 269.414 549.946 269.573 550.328C269.731 550.71 269.772 551.13 269.691 551.535C269.611 551.94 269.412 552.313 269.12 552.605C268.828 552.897 268.455 553.096 268.05 553.177C267.645 553.257 267.225 553.216 266.843 553.058C266.461 552.9 266.135 552.632 265.905 552.288C265.676 551.945 265.553 551.541 265.553 551.127C265.553 550.573 265.773 550.042 266.165 549.65C266.557 549.258 267.088 549.038 267.642 549.038Z" fill="#514257"/>
<path fill-rule="evenodd" clip-rule="evenodd" d="M159.988 555.912C160.076 555.895 160.166 555.898 160.252 555.92C160.338 555.943 160.418 555.984 160.487 556.041C160.555 556.098 160.61 556.169 160.648 556.249C160.686 556.33 160.706 556.418 160.706 556.507C160.706 556.596 160.686 556.684 160.648 556.765C160.61 556.845 160.555 556.916 160.487 556.973C160.418 557.03 160.338 557.071 160.252 557.094C160.166 557.116 160.076 557.119 159.988 557.102C159.849 557.076 159.724 557.003 159.634 556.894C159.543 556.785 159.494 556.648 159.494 556.507C159.494 556.366 159.543 556.229 159.634 556.12C159.724 556.011 159.849 555.938 159.988 555.912V555.912Z" fill="#514257"/>
<path fill-rule="evenodd" clip-rule="evenodd" d="M116.805 552.318C117.228 552.324 117.632 552.496 117.929 552.797C118.226 553.098 118.393 553.504 118.393 553.927C118.393 554.348 118.226 554.752 117.928 555.05C117.63 555.347 117.226 555.515 116.805 555.515C116.384 555.515 115.98 555.347 115.682 555.05C115.385 554.752 115.217 554.348 115.217 553.927C115.217 553.504 115.384 553.098 115.681 552.797C115.978 552.496 116.382 552.324 116.805 552.318Z" fill="#514257"/>
<path fill-rule="evenodd" clip-rule="evenodd" d="M18.907 543.189C19.4615 543.184 20.0048 543.345 20.4679 543.65C20.931 543.955 21.2931 544.391 21.5082 544.902C21.7233 545.413 21.7817 545.977 21.6761 546.521C21.5704 547.066 21.3054 547.567 20.9148 547.96C20.5241 548.354 20.0253 548.622 19.4817 548.732C18.9381 548.842 18.3742 548.788 17.8614 548.576C17.3487 548.365 16.9102 548.006 16.6017 547.546C16.2931 547.085 16.1284 546.543 16.1284 545.988C16.1256 545.621 16.1955 545.258 16.3339 544.918C16.4723 544.579 16.6765 544.27 16.9348 544.01C17.1931 543.75 17.5003 543.543 17.8388 543.402C18.1773 543.261 18.5403 543.189 18.907 543.189Z" fill="#514257"/>
<path fill-rule="evenodd" clip-rule="evenodd" d="M38.6078 551.545C39.1201 551.545 39.621 551.697 40.047 551.982C40.473 552.267 40.8051 552.671 41.0011 553.145C41.1972 553.618 41.2485 554.139 41.1486 554.641C41.0486 555.144 40.8019 555.605 40.4396 555.968C40.0773 556.33 39.6157 556.577 39.1132 556.677C38.6106 556.777 38.0898 556.725 37.6164 556.529C37.143 556.333 36.7385 556.001 36.4538 555.575C36.1691 555.149 36.0172 554.648 36.0172 554.136C36.0227 553.45 36.2974 552.795 36.782 552.31C37.2667 551.825 37.9224 551.551 38.6078 551.545Z" fill="#514257"/>
<path d="M354.405 545.967C354.844 545.967 355.199 545.612 355.199 545.173C355.199 544.735 354.844 544.38 354.405 544.38C353.967 544.38 353.612 544.735 353.612 545.173C353.612 545.612 353.967 545.967 354.405 545.967Z" fill="#514257"/>
<path fill-rule="evenodd" clip-rule="evenodd" d="M414.49 539.888C415.123 539.884 415.743 540.067 416.271 540.416C416.8 540.765 417.213 541.263 417.458 541.846C417.703 542.43 417.769 543.073 417.648 543.695C417.527 544.316 417.224 544.888 416.778 545.337C416.332 545.786 415.763 546.092 415.142 546.217C414.521 546.342 413.878 546.28 413.292 546.039C412.707 545.798 412.207 545.388 411.854 544.862C411.502 544.336 411.314 543.717 411.314 543.084C411.314 542.24 411.648 541.43 412.243 540.831C412.838 540.232 413.646 539.893 414.49 539.888Z" fill="#514257"/>
<path fill-rule="evenodd" clip-rule="evenodd" d="M434.002 547.952C434.557 547.952 435.099 548.117 435.56 548.425C436.021 548.734 436.379 549.172 436.591 549.685C436.802 550.198 436.856 550.762 436.746 551.305C436.637 551.849 436.368 552.348 435.974 552.738C435.581 553.129 435.08 553.394 434.536 553.5C433.991 553.605 433.428 553.547 432.917 553.332C432.405 553.117 431.97 552.755 431.665 552.292C431.36 551.828 431.199 551.285 431.203 550.73C431.208 549.992 431.506 549.285 432.03 548.764C432.555 548.244 433.264 547.952 434.002 547.952V547.952Z" fill="#514257"/>
<path fill-rule="evenodd" clip-rule="evenodd" d="M386.244 561.093C386.401 561.093 386.555 561.14 386.685 561.227C386.816 561.314 386.918 561.438 386.978 561.583C387.038 561.728 387.053 561.888 387.023 562.042C386.992 562.196 386.917 562.337 386.806 562.448C386.694 562.559 386.553 562.635 386.399 562.666C386.245 562.696 386.085 562.68 385.94 562.62C385.795 562.56 385.671 562.458 385.584 562.328C385.497 562.197 385.45 562.044 385.45 561.887C385.45 561.676 385.534 561.474 385.683 561.326C385.832 561.177 386.034 561.093 386.244 561.093V561.093Z" fill="#514257"/>
<path fill-rule="evenodd" clip-rule="evenodd" d="M225.253 558.293C225.667 558.293 226.071 558.416 226.414 558.645C226.758 558.875 227.025 559.201 227.184 559.583C227.342 559.965 227.383 560.385 227.302 560.79C227.222 561.195 227.023 561.568 226.731 561.86C226.439 562.152 226.066 562.351 225.661 562.432C225.256 562.512 224.836 562.471 224.454 562.313C224.072 562.154 223.746 561.887 223.516 561.543C223.287 561.2 223.164 560.796 223.164 560.382C223.164 559.828 223.384 559.297 223.776 558.905C224.168 558.513 224.699 558.293 225.253 558.293Z" fill="#514257"/>
<path fill-rule="evenodd" clip-rule="evenodd" d="M340.868 517.324C341.187 517.32 341.5 517.411 341.767 517.585C342.034 517.759 342.244 518.009 342.369 518.303C342.494 518.596 342.528 518.92 342.469 519.234C342.409 519.547 342.258 519.836 342.033 520.063C341.809 520.29 341.523 520.445 341.21 520.509C340.898 520.573 340.573 520.542 340.278 520.421C339.983 520.3 339.73 520.094 339.553 519.829C339.375 519.564 339.28 519.252 339.28 518.933C339.277 518.723 339.316 518.514 339.395 518.319C339.473 518.124 339.59 517.946 339.738 517.797C339.885 517.647 340.061 517.528 340.255 517.447C340.449 517.366 340.657 517.324 340.868 517.324Z" fill="#514257"/>
<path fill-rule="evenodd" clip-rule="evenodd" d="M122.383 14.2692C122.66 14.2692 122.926 14.3792 123.122 14.5751C123.318 14.771 123.428 15.0367 123.428 15.3138C123.428 15.5908 123.318 15.8565 123.122 16.0524C122.926 16.2483 122.66 16.3584 122.383 16.3584C122.106 16.3584 121.84 16.2483 121.644 16.0524C121.449 15.8565 121.339 15.5908 121.339 15.3138C121.339 15.0367 121.449 14.771 121.644 14.5751C121.84 14.3792 122.106 14.2692 122.383 14.2692Z" fill="#514257"/>
<path fill-rule="evenodd" clip-rule="evenodd" d="M163.665 11.8666C164.591 11.8666 165.495 12.141 166.265 12.6553C167.034 13.1695 167.634 13.9004 167.988 14.7555C168.343 15.6106 168.435 16.5515 168.255 17.4593C168.074 18.3671 167.628 19.201 166.974 19.8555C166.32 20.5099 165.486 20.9556 164.578 21.1362C163.67 21.3168 162.729 21.2241 161.874 20.8699C161.019 20.5157 160.288 19.9159 159.774 19.1463C159.26 18.3767 158.985 17.4719 158.985 16.5464C158.985 15.9318 159.106 15.3233 159.341 14.7555C159.577 14.1877 159.921 13.6718 160.356 13.2373C160.79 12.8027 161.306 12.458 161.874 12.2228C162.442 11.9876 163.05 11.8666 163.665 11.8666V11.8666Z" fill="#514257"/>
<path fill-rule="evenodd" clip-rule="evenodd" d="M218.798 16.4419C219.095 16.4419 219.386 16.5301 219.634 16.6954C219.881 16.8607 220.074 17.0956 220.188 17.3705C220.301 17.6454 220.331 17.9478 220.273 18.2396C220.215 18.5314 220.072 18.7994 219.862 19.0098C219.651 19.2201 219.383 19.3634 219.091 19.4214C218.8 19.4795 218.497 19.4497 218.222 19.3359C217.947 19.222 217.713 19.0292 217.547 18.7818C217.382 18.5345 217.294 18.2436 217.294 17.9461C217.291 17.7478 217.328 17.551 217.402 17.3672C217.477 17.1834 217.588 17.0165 217.728 16.8762C217.868 16.736 218.035 16.6253 218.219 16.5507C218.403 16.4761 218.6 16.4391 218.798 16.4419V16.4419Z" fill="#514257"/>
<path fill-rule="evenodd" clip-rule="evenodd" d="M63.6777 10.6758C63.942 10.6811 64.1939 10.7885 64.3808 10.9754C64.5678 11.1623 64.6751 11.4143 64.6805 11.6786C64.6805 11.9556 64.5704 12.2213 64.3745 12.4172C64.1786 12.6131 63.9129 12.7232 63.6359 12.7232C63.3588 12.7232 63.0932 12.6131 62.8973 12.4172C62.7014 12.2213 62.5913 11.9556 62.5913 11.6786C62.5939 11.5405 62.6244 11.4043 62.6809 11.2783C62.7375 11.1523 62.819 11.039 62.9205 10.9453C63.022 10.8516 63.1414 10.7794 63.2715 10.7331C63.4016 10.6868 63.5398 10.6673 63.6777 10.6758V10.6758Z" fill="#514257"/>
<path fill-rule="evenodd" clip-rule="evenodd" d="M329.816 16.0449C329.918 16.0272 330.023 16.0321 330.123 16.0591C330.223 16.0861 330.315 16.1346 330.395 16.2013C330.474 16.268 330.538 16.3512 330.581 16.4451C330.625 16.539 330.648 16.6413 330.648 16.7448C330.648 16.8484 330.625 16.9507 330.581 17.0445C330.538 17.1384 330.474 17.2216 330.395 17.2883C330.315 17.355 330.223 17.4035 330.123 17.4305C330.023 17.4575 329.918 17.4624 329.816 17.4447C329.651 17.4161 329.502 17.3302 329.394 17.2022C329.286 17.0741 329.227 16.9122 329.227 16.7448C329.227 16.5775 329.286 16.4155 329.394 16.2875C329.502 16.1594 329.651 16.0735 329.816 16.0449V16.0449Z" fill="#514257"/>
<path fill-rule="evenodd" clip-rule="evenodd" d="M291.125 12.6605C291.401 12.6605 291.672 12.7426 291.902 12.8964C292.132 13.0502 292.312 13.2688 292.418 13.5246C292.524 13.7803 292.551 14.0618 292.497 14.3333C292.443 14.6048 292.31 14.8542 292.114 15.05C291.919 15.2458 291.669 15.3791 291.398 15.4331C291.126 15.4871 290.845 15.4594 290.589 15.3534C290.333 15.2475 290.115 15.0681 289.961 14.8379C289.807 14.6077 289.725 14.3371 289.725 14.0602C289.725 13.689 289.872 13.3329 290.135 13.0704C290.397 12.8079 290.753 12.6605 291.125 12.6605Z" fill="#514257"/>
<path fill-rule="evenodd" clip-rule="evenodd" d="M252.517 10.446C252.674 10.4432 252.83 10.472 252.976 10.5309C253.122 10.5897 253.254 10.6773 253.365 10.7885C253.476 10.8996 253.564 11.032 253.623 11.1778C253.682 11.3235 253.711 11.4797 253.708 11.6368C253.708 11.9527 253.582 12.2556 253.359 12.4789C253.136 12.7022 252.833 12.8277 252.517 12.8277C252.201 12.8277 251.898 12.7022 251.675 12.4789C251.452 12.2556 251.326 11.9527 251.326 11.6368C251.323 11.4797 251.352 11.3235 251.411 11.1778C251.47 11.032 251.557 10.8996 251.669 10.7885C251.78 10.6773 251.912 10.5897 252.058 10.5309C252.204 10.472 252.36 10.4432 252.517 10.446V10.446Z" fill="#514257"/>
<path fill-rule="evenodd" clip-rule="evenodd" d="M319.642 13.6633C320.059 13.6424 320.472 13.747 320.83 13.9635C321.187 14.18 321.47 14.4985 321.645 14.878C321.819 15.2574 321.876 15.6804 321.807 16.0923C321.739 16.5042 321.548 16.8861 321.261 17.1888C320.973 17.4915 320.602 17.7011 320.194 17.7906C319.786 17.88 319.361 17.8452 318.973 17.6906C318.585 17.536 318.252 17.2688 318.018 16.9233C317.783 16.5779 317.658 16.17 317.657 15.7525C317.643 15.4832 317.684 15.2139 317.777 14.9609C317.87 14.7079 318.014 14.4766 318.2 14.2811C318.386 14.0856 318.609 13.9299 318.857 13.8237C319.105 13.7175 319.372 13.6629 319.642 13.6633Z" fill="#514257"/>
<path fill-rule="evenodd" clip-rule="evenodd" d="M420.36 29.5829C420.738 29.5788 421.108 29.6873 421.424 29.8946C421.74 30.1019 421.987 30.3986 422.133 30.7469C422.28 31.0951 422.319 31.4791 422.247 31.8498C422.174 32.2205 421.992 32.5612 421.725 32.8283C421.458 33.0954 421.117 33.2769 420.747 33.3496C420.376 33.4223 419.992 33.3829 419.644 33.2364C419.296 33.0899 418.999 32.843 418.792 32.5272C418.584 32.2114 418.476 31.841 418.48 31.4632C418.485 30.9662 418.685 30.4911 419.037 30.1397C419.388 29.7882 419.863 29.5884 420.36 29.5829V29.5829Z" fill="#514257"/>
<path fill-rule="evenodd" clip-rule="evenodd" d="M439.769 41.1152C440.456 41.1152 441.114 41.3881 441.6 41.8739C442.086 42.3598 442.359 43.0187 442.359 43.7058C442.359 44.3928 442.086 45.0518 441.6 45.5376C441.114 46.0234 440.456 46.2964 439.769 46.2964C439.081 46.2964 438.423 46.0234 437.937 45.5376C437.451 45.0518 437.178 44.3928 437.178 43.7058C437.178 43.0187 437.451 42.3598 437.937 41.8739C438.423 41.3881 439.081 41.1152 439.769 41.1152V41.1152Z" fill="#514257"/>
<path fill-rule="evenodd" clip-rule="evenodd" d="M448.522 53.4623C448.878 53.4623 449.225 53.5677 449.52 53.7651C449.816 53.9625 450.046 54.2431 450.182 54.5714C450.318 54.8997 450.354 55.261 450.284 55.6095C450.215 55.958 450.044 56.2782 449.793 56.5294C449.541 56.7807 449.221 56.9518 448.873 57.0212C448.524 57.0905 448.163 57.0549 447.835 56.9189C447.506 56.7829 447.226 56.5526 447.028 56.2572C446.831 55.9617 446.725 55.6143 446.725 55.259C446.725 54.7825 446.915 54.3255 447.252 53.9885C447.589 53.6516 448.046 53.4623 448.522 53.4623V53.4623Z" fill="#514257"/>
<path fill-rule="evenodd" clip-rule="evenodd" d="M446.433 69.3819C446.611 69.3819 446.784 69.4346 446.932 69.5333C447.08 69.632 447.195 69.7723 447.263 69.9365C447.331 70.1006 447.349 70.2812 447.314 70.4555C447.279 70.6298 447.194 70.7898 447.068 70.9155C446.943 71.0411 446.783 71.1267 446.608 71.1613C446.434 71.196 446.253 71.1782 446.089 71.1102C445.925 71.0422 445.785 70.9271 445.686 70.7793C445.587 70.6316 445.535 70.4579 445.535 70.2802C445.535 70.042 445.629 69.8135 445.798 69.645C445.966 69.4765 446.195 69.3819 446.433 69.3819Z" fill="#514257"/>
<path fill-rule="evenodd" clip-rule="evenodd" d="M449.859 135.651C450.136 135.651 450.402 135.761 450.598 135.957C450.794 136.153 450.904 136.418 450.904 136.695C450.904 136.973 450.794 137.238 450.598 137.434C450.402 137.63 450.136 137.74 449.859 137.74C449.584 137.735 449.321 137.623 449.127 137.428C448.932 137.233 448.82 136.971 448.815 136.695C448.815 136.418 448.925 136.153 449.121 135.957C449.317 135.761 449.582 135.651 449.859 135.651Z" fill="#514257"/>
<path fill-rule="evenodd" clip-rule="evenodd" d="M444.991 147.893C445.298 147.894 445.598 147.985 445.853 148.156C446.107 148.326 446.305 148.569 446.422 148.853C446.538 149.137 446.567 149.448 446.506 149.749C446.445 150.049 446.295 150.325 446.077 150.54C445.859 150.755 445.581 150.901 445.28 150.958C444.979 151.016 444.667 150.982 444.385 150.862C444.103 150.742 443.863 150.54 443.696 150.283C443.528 150.026 443.441 149.725 443.445 149.419C443.451 149.012 443.616 148.624 443.906 148.339C444.195 148.053 444.585 147.893 444.991 147.893Z" fill="#514257"/>
<path fill-rule="evenodd" clip-rule="evenodd" d="M446.245 200.416C446.402 200.416 446.555 200.462 446.686 200.549C446.817 200.637 446.918 200.761 446.978 200.906C447.039 201.051 447.054 201.21 447.024 201.364C446.993 201.518 446.917 201.66 446.806 201.771C446.695 201.882 446.554 201.958 446.4 201.988C446.246 202.019 446.086 202.003 445.941 201.943C445.796 201.883 445.672 201.781 445.585 201.651C445.498 201.52 445.451 201.367 445.451 201.21C445.451 200.999 445.535 200.797 445.684 200.648C445.832 200.499 446.034 200.416 446.245 200.416V200.416Z" fill="#514257"/>
<path fill-rule="evenodd" clip-rule="evenodd" d="M450.423 214.142C451.014 214.142 451.592 214.317 452.083 214.645C452.574 214.973 452.957 215.44 453.183 215.986C453.41 216.532 453.469 217.132 453.353 217.712C453.238 218.292 452.954 218.824 452.536 219.242C452.118 219.659 451.586 219.944 451.006 220.059C450.427 220.175 449.826 220.115 449.28 219.889C448.734 219.663 448.268 219.28 447.939 218.789C447.611 218.298 447.436 217.72 447.436 217.129C447.433 216.736 447.508 216.346 447.658 215.983C447.807 215.619 448.027 215.288 448.305 215.01C448.583 214.732 448.913 214.513 449.277 214.363C449.641 214.214 450.03 214.139 450.423 214.142V214.142Z" fill="#514257"/>
<path fill-rule="evenodd" clip-rule="evenodd" d="M449.17 246.378C449.761 246.378 450.338 246.553 450.829 246.881C451.321 247.21 451.704 247.676 451.93 248.222C452.156 248.768 452.215 249.369 452.1 249.948C451.985 250.528 451.7 251.06 451.282 251.478C450.864 251.896 450.332 252.18 449.753 252.295C449.173 252.411 448.572 252.352 448.026 252.125C447.481 251.899 447.014 251.516 446.686 251.025C446.357 250.534 446.182 249.956 446.182 249.365C446.182 248.573 446.497 247.813 447.057 247.253C447.618 246.693 448.377 246.378 449.17 246.378V246.378Z" fill="#514257"/>
<path fill-rule="evenodd" clip-rule="evenodd" d="M447.081 262.109C447.258 262.109 447.432 262.162 447.58 262.261C447.727 262.36 447.843 262.5 447.91 262.664C447.978 262.828 447.996 263.009 447.962 263.183C447.927 263.357 447.841 263.517 447.716 263.643C447.59 263.769 447.43 263.854 447.256 263.889C447.082 263.923 446.901 263.906 446.737 263.838C446.573 263.77 446.432 263.655 446.334 263.507C446.235 263.359 446.182 263.185 446.182 263.008C446.179 262.889 446.201 262.771 446.245 262.661C446.289 262.55 446.355 262.45 446.439 262.366C446.523 262.282 446.623 262.216 446.733 262.172C446.844 262.128 446.962 262.107 447.081 262.109V262.109Z" fill="#514257"/>
<path fill-rule="evenodd" clip-rule="evenodd" d="M452.596 439.21C452.91 439.21 453.217 439.303 453.478 439.477C453.739 439.652 453.943 439.9 454.063 440.19C454.183 440.48 454.214 440.799 454.153 441.107C454.092 441.415 453.941 441.698 453.719 441.92C453.497 442.142 453.214 442.293 452.906 442.355C452.598 442.416 452.278 442.385 451.988 442.264C451.698 442.144 451.45 441.941 451.276 441.68C451.101 441.418 451.008 441.112 451.008 440.797C451.008 440.376 451.175 439.973 451.473 439.675C451.771 439.377 452.175 439.21 452.596 439.21V439.21Z" fill="#514257"/>
<path fill-rule="evenodd" clip-rule="evenodd" d="M450.11 454.523C450.375 454.495 450.643 454.524 450.896 454.606C451.15 454.688 451.383 454.823 451.581 455.001C451.779 455.179 451.937 455.397 452.046 455.641C452.154 455.884 452.21 456.148 452.21 456.414C452.21 456.681 452.154 456.944 452.046 457.187C451.937 457.431 451.779 457.649 451.581 457.827C451.383 458.005 451.15 458.14 450.896 458.222C450.643 458.305 450.375 458.333 450.11 458.305C449.643 458.256 449.21 458.035 448.896 457.686C448.582 457.337 448.408 456.884 448.408 456.414C448.408 455.944 448.582 455.491 448.896 455.142C449.21 454.793 449.643 454.573 450.11 454.523V454.523Z" fill="#514257"/>
<path fill-rule="evenodd" clip-rule="evenodd" d="M12.138 424.293C12.3205 424.27 12.5059 424.285 12.6818 424.339C12.8576 424.393 13.02 424.484 13.1581 424.606C13.2962 424.727 13.4068 424.877 13.4825 425.044C13.5583 425.212 13.5975 425.394 13.5975 425.578C13.5975 425.762 13.5583 425.944 13.4825 426.111C13.4068 426.279 13.2962 426.428 13.1581 426.55C13.02 426.672 12.8576 426.762 12.6818 426.816C12.5059 426.87 12.3205 426.886 12.138 426.863C11.9556 426.886 11.7702 426.87 11.5943 426.816C11.4184 426.762 11.2561 426.672 11.118 426.55C10.9799 426.428 10.8693 426.279 10.7935 426.111C10.7178 425.944 10.6786 425.762 10.6786 425.578C10.6786 425.394 10.7178 425.212 10.7935 425.044C10.8693 424.877 10.9799 424.727 11.118 424.606C11.2561 424.484 11.4184 424.393 11.5943 424.339C11.7702 424.285 11.9556 424.27 12.138 424.293V424.293Z" fill="#514257"/>
<path fill-rule="evenodd" clip-rule="evenodd" d="M16.7132 260.522C17.0291 260.522 17.3319 260.647 17.5553 260.87C17.7786 261.094 17.9041 261.397 17.9041 261.712C17.8987 262.027 17.7715 262.326 17.5493 262.549C17.3272 262.771 17.0274 262.898 16.7132 262.903C16.3974 262.903 16.0945 262.778 15.8712 262.554C15.6479 262.331 15.5224 262.028 15.5224 261.712C15.5196 261.555 15.5484 261.399 15.6073 261.253C15.6661 261.108 15.7537 260.975 15.8649 260.864C15.976 260.753 16.1084 260.665 16.2542 260.606C16.3999 260.548 16.5561 260.519 16.7132 260.522V260.522Z" fill="#514257"/>
<path fill-rule="evenodd" clip-rule="evenodd" d="M9.65193 240.821C9.06106 240.821 8.48346 240.996 7.99216 241.324C7.50087 241.652 7.11796 242.119 6.89184 242.665C6.66572 243.211 6.60656 243.811 6.72183 244.391C6.83711 244.97 7.12164 245.503 7.53945 245.921C7.95726 246.338 8.48958 246.623 9.0691 246.738C9.64862 246.853 10.2493 246.794 10.7952 246.568C11.3411 246.342 11.8077 245.959 12.1359 245.468C12.4642 244.977 12.6394 244.399 12.6394 243.808C12.6422 243.415 12.5668 243.025 12.4177 242.661C12.2685 242.298 12.0486 241.967 11.7706 241.689C11.4926 241.411 11.1622 241.191 10.7985 241.042C10.4348 240.893 10.045 240.818 9.65193 240.821V240.821Z" fill="#514257"/>
<path fill-rule="evenodd" clip-rule="evenodd" d="M11.4486 103.916C11.6057 103.913 11.7619 103.942 11.9076 104.001C12.0534 104.06 12.1858 104.147 12.2969 104.259C12.4081 104.37 12.4957 104.502 12.5545 104.648C12.6134 104.794 12.6422 104.95 12.6394 105.107C12.6394 105.423 12.5139 105.726 12.2906 105.949C12.0673 106.172 11.7644 106.298 11.4486 106.298C11.1328 106.298 10.8299 106.172 10.6065 105.949C10.3832 105.726 10.2578 105.423 10.2578 105.107C10.2549 104.95 10.2838 104.794 10.3426 104.648C10.4015 104.502 10.4891 104.37 10.6002 104.259C10.7114 104.147 10.8438 104.06 10.9895 104.001C11.1353 103.942 11.2914 103.913 11.4486 103.916V103.916Z" fill="#514257"/>
<path fill-rule="evenodd" clip-rule="evenodd" d="M13.5378 116.994C14.1121 116.99 14.6747 117.157 15.1546 117.472C15.6344 117.788 16.0098 118.239 16.2334 118.768C16.457 119.297 16.5187 119.88 16.4107 120.444C16.3027 121.009 16.0299 121.528 15.6267 121.937C15.2235 122.346 14.7081 122.626 14.1456 122.742C13.5831 122.858 12.9988 122.805 12.4667 122.589C11.9345 122.373 11.4783 122.004 11.1557 121.529C10.8332 121.054 10.6589 120.494 10.6547 119.919C10.6492 119.537 10.7197 119.158 10.8621 118.803C11.0045 118.449 11.216 118.126 11.4842 117.854C11.7525 117.581 12.0722 117.365 12.4247 117.218C12.7773 117.07 13.1556 116.994 13.5378 116.994V116.994Z" fill="#514257"/>
<path fill-rule="evenodd" clip-rule="evenodd" d="M10.9472 138.137C11.2464 138.133 11.5401 138.218 11.7906 138.382C12.0412 138.546 12.2372 138.78 12.3536 139.056C12.4701 139.332 12.5016 139.636 12.4442 139.929C12.3869 140.223 12.2432 140.493 12.0316 140.705C11.82 140.916 11.55 141.06 11.2563 141.117C10.9626 141.175 10.6584 141.143 10.3827 141.027C10.107 140.91 9.87235 140.714 9.70867 140.464C9.54499 140.213 9.45976 139.92 9.46389 139.62C9.46389 139.227 9.62016 138.85 9.89834 138.571C10.1765 138.293 10.5538 138.137 10.9472 138.137V138.137Z" fill="#514257"/>
<path fill-rule="evenodd" clip-rule="evenodd" d="M10.8427 160.429C11.3137 160.429 11.7742 160.568 12.1659 160.83C12.5575 161.092 12.8628 161.464 13.0431 161.899C13.2233 162.334 13.2705 162.813 13.1786 163.275C13.0867 163.737 12.8599 164.161 12.5268 164.494C12.1937 164.828 11.7693 165.054 11.3073 165.146C10.8453 165.238 10.3665 165.191 9.93129 165.011C9.4961 164.83 9.12414 164.525 8.86244 164.134C8.60074 163.742 8.46106 163.281 8.46106 162.81C8.46106 162.179 8.71198 161.573 9.15863 161.126C9.60527 160.68 10.2111 160.429 10.8427 160.429V160.429Z" fill="#514257"/>
<path fill-rule="evenodd" clip-rule="evenodd" d="M49.1333 117H408.888L416 126.672V469.305L408.888 479H49.1333L42 469.305V126.672L49.1333 117Z" fill="#504757"/>
<path fill-rule="evenodd" clip-rule="evenodd" d="M49.1333 137.172H408.888L416 147V126.805L408.888 117H49.1333L42 126.805V147L49.1333 137.172Z" fill="#413646"/>
<path fill-rule="evenodd" clip-rule="evenodd" d="M404.945 479.318H55.7452L47.6733 469L44.6698 469.773L42 469.795V476.5L49.1333 486H408.888L416 476.5V469H410.327L404.945 479.318Z" fill="#84758F"/>
<path fill-rule="evenodd" clip-rule="evenodd" d="M42 137H47V468.376L42 476V137Z" fill="#413646"/>
<path fill-rule="evenodd" clip-rule="evenodd" d="M411 137H416V476L411 468.263V137Z" fill="#413646"/>
</svg>
