<svg width="71" height="30" viewBox="0 0 71 30" fill="none" xmlns="http://www.w3.org/2000/svg">
<path fill-rule="evenodd" clip-rule="evenodd" d="M3.59853 0H67.7001L71 4.35897V25.641L67.7001 30H3.2999L0 25.641V4.35897L3.2999 0H3.59853ZM67.1028 1.90335H3.89716L1.4409 5.14793V24.8718L3.89716 28.1164H67.1028L69.5591 24.8718V5.14793L67.1028 1.90335Z" fill="#242127"/>
<path fill-rule="evenodd" clip-rule="evenodd" d="M3.85834 1H67.1417L70 4.79761V25.2024L67.1417 29H3.85834L1 25.2024V4.79761L3.85834 1Z" fill="#72667C"/>
<path fill-rule="evenodd" clip-rule="evenodd" d="M4.45546 3H66.5445L69 6.25407V23.7459L66.5445 27H4.45546L2 23.7459V6.25407L4.45546 3Z" fill="#84758F"/>
<path fill-rule="evenodd" clip-rule="evenodd" d="M0.959999 18.94V16.96H3.21L5.44 15.52L3.21 18.12L0.959999 18.94Z" fill="#242127"/>
<path fill-rule="evenodd" clip-rule="evenodd" d="M2.59687 6.98566L5.04477 3.70697H66.129L68.4334 6.56557L69 13V6.32992L66.5445 3H4.45546L2 6.32992V13L2.59687 6.98566Z" fill="#A398AC"/>
<path fill-rule="evenodd" clip-rule="evenodd" d="M1 4.98311V11.6182L1.37025 5.42683L4.23599 1.44371H66.9195L69.6372 5.23077L70 12V4.98311L67.1417 1H3.85834L1 4.98311Z" fill="#84758F"/>
<path fill-rule="evenodd" clip-rule="evenodd" d="M65 1H63.6369L63 3L65 1Z" fill="#242127"/>
<path fill-rule="evenodd" clip-rule="evenodd" d="M64.694 29H63.154L63 26.8928L64.407 23.5026L63.574 20L65.352 23.1186L68.425 23.8491L70 25.385L68.915 26.8273L67.886 24.5609L65.086 23.8772L63.791 26.8928L64.694 29Z" fill="#242127"/>
<path fill-rule="evenodd" clip-rule="evenodd" d="M65.271 24L64 27L65.5178 24.3953L68 24.6791L65.271 24Z" fill="#A398AC"/>
<path fill-rule="evenodd" clip-rule="evenodd" d="M17.04 0.959961H15.76L16.58 2.45996L19.59 3.05996L20.35 3.89996L19.85 5.56996L21.02 3.89996L20.61 3.03996L22.9 2.12996L23.23 0.959961H22.12L21.88 1.84996L20.22 2.51996L17.32 1.95996L17.04 0.959961Z" fill="#242127"/>
<path fill-rule="evenodd" clip-rule="evenodd" d="M10.35 8.19003C10.6269 8.18206 10.8999 8.25702 11.1339 8.40528C11.3679 8.55354 11.5523 8.76833 11.6633 9.02211C11.7744 9.27589 11.8071 9.55706 11.7573 9.82956C11.7074 10.1021 11.5773 10.3534 11.3836 10.5515C11.1899 10.7495 10.9414 10.8851 10.6701 10.9409C10.3987 10.9968 10.1169 10.9702 9.86074 10.8648C9.60459 10.7593 9.38579 10.5797 9.23242 10.349C9.07906 10.1183 8.99812 9.84704 9 9.57003C8.99992 9.20917 9.14118 8.86263 9.39353 8.60468C9.64588 8.34672 9.98923 8.19787 10.35 8.19003Z" fill="#514257"/>
<path fill-rule="evenodd" clip-rule="evenodd" d="M24.63 15.6301C24.8317 15.6202 25.0317 15.6717 25.2036 15.7777C25.3755 15.8836 25.5113 16.0392 25.5931 16.2238C25.6749 16.4084 25.6989 16.6135 25.6619 16.812C25.6249 17.0105 25.5287 17.1932 25.3859 17.336C25.2431 17.4788 25.0604 17.575 24.8619 17.612C24.6634 17.649 24.4583 17.625 24.2737 17.5432C24.0891 17.4614 23.9335 17.3256 23.8276 17.1537C23.7216 16.9818 23.6701 16.7818 23.68 16.5801C23.6787 16.455 23.7023 16.3308 23.7496 16.215C23.7969 16.0991 23.8668 15.9938 23.9553 15.9054C24.0438 15.8169 24.149 15.747 24.2649 15.6997C24.3807 15.6524 24.5049 15.6288 24.63 15.6301Z" fill="#514257"/>
<path fill-rule="evenodd" clip-rule="evenodd" d="M54.5 12C54.5989 12 54.6956 12.0586 54.7778 12.1685C54.86 12.2784 54.9241 12.4346 54.9619 12.6173C54.9998 12.8 55.0097 13.0011 54.9904 13.1951C54.9711 13.3891 54.9235 13.5673 54.8536 13.7071C54.7836 13.847 54.6945 13.9422 54.5975 13.9808C54.5006 14.0194 54.4 13.9996 54.3087 13.9239C54.2173 13.8482 54.1392 13.72 54.0843 13.5556C54.0293 13.3911 54 13.1978 54 13C54 12.7348 54.0527 12.4804 54.1464 12.2929C54.2402 12.1054 54.3674 12 54.5 12Z" fill="#514257"/>
<path fill-rule="evenodd" clip-rule="evenodd" d="M40.68 7.58008C40.86 7.58008 41.0359 7.63345 41.1856 7.73344C41.3352 7.83343 41.4519 7.97556 41.5207 8.14184C41.5896 8.30812 41.6076 8.49109 41.5725 8.66761C41.5374 8.84413 41.4507 9.00628 41.3235 9.13354C41.1962 9.26081 41.0341 9.34748 40.8575 9.38259C40.681 9.41771 40.498 9.39968 40.3318 9.33081C40.1655 9.26193 40.0234 9.1453 39.9234 8.99565C39.8234 8.846 39.77 8.67006 39.77 8.49008C39.77 8.24873 39.8659 8.01727 40.0365 7.84661C40.2072 7.67595 40.4387 7.58008 40.68 7.58008Z" fill="#514257"/>
<path fill-rule="evenodd" clip-rule="evenodd" d="M14.26 5.90995H27C27.4525 5.90796 27.9009 5.99527 28.3196 6.16686C28.7383 6.33846 29.119 6.59097 29.44 6.90995C30.0811 7.56428 30.4401 8.44388 30.44 9.35995V18.6399C30.4318 19.5201 30.0885 20.364 29.48 20.9999C29.1275 21.3748 28.6975 21.6683 28.22 21.8599V22.5099C28.2174 23.2527 27.9219 23.9644 27.3976 24.4905C26.8734 25.0166 26.1627 25.3147 25.42 25.3199H15.82C15.4481 25.3224 15.0794 25.2502 14.7359 25.1077C14.3923 24.9651 14.0809 24.7551 13.82 24.4899C13.5572 24.2279 13.3492 23.916 13.2084 23.5726C13.0676 23.2292 12.9968 22.8611 13 22.4899V21.8399C12.5281 21.6526 12.1018 21.3661 11.75 20.9999C11.1404 20.3574 10.8004 19.5056 10.8 18.6199V9.37995C10.7999 8.46388 11.1589 7.58428 11.8 6.92995C12.121 6.61097 12.5017 6.35846 12.9204 6.18686C13.3391 6.01527 13.7875 5.92796 14.24 5.92995L14.26 5.90995ZM27 8.15995H14.26C13.9419 8.16132 13.6369 8.28692 13.41 8.50995C13.2975 8.62286 13.2085 8.75706 13.1485 8.90472C13.0884 9.05238 13.0583 9.21054 13.06 9.36995V18.6499C13.0625 18.9611 13.1801 19.2603 13.39 19.4899C13.6055 19.7099 13.8931 19.8448 14.2 19.8699L15.27 19.9199V21.8699H26V19.9299L27 19.8799C27.3092 19.8635 27.5997 19.7272 27.81 19.4999C28.0242 19.273 28.1424 18.972 28.14 18.6599V9.37995C28.1417 9.22054 28.1116 9.06238 28.0515 8.91472C27.9915 8.76706 27.9025 8.63286 27.79 8.51995C27.5776 8.31015 27.2977 8.18257 27 8.15995Z" fill="#242127"/>
<path fill-rule="evenodd" clip-rule="evenodd" d="M14.26 8H27C27.6215 8.00264 28.2167 8.2514 28.6552 8.69182C29.0938 9.13225 29.34 9.72847 29.34 10.35V18.62C29.3484 19.2315 29.118 19.8221 28.6979 20.2665C28.2778 20.7109 27.701 20.974 27.09 21V22.54C27.0874 22.9848 26.9095 23.4105 26.595 23.725C26.2805 24.0395 25.8548 24.2174 25.41 24.22H25V23H23.13V24.22H21.72V23H19.87V24.22H18.24V23H16.38V24.22H15.82C15.3735 24.22 14.9452 24.0433 14.6285 23.7286C14.3119 23.4138 14.1326 22.9865 14.13 22.54V21C13.5339 20.962 12.9743 20.6995 12.5642 20.2652C12.1541 19.8309 11.9239 19.2573 11.92 18.66V10.39C11.916 10.0792 11.9735 9.77076 12.0891 9.48227C12.2046 9.19377 12.3761 8.93095 12.5935 8.70888C12.8109 8.48681 13.0701 8.30987 13.356 8.18822C13.642 8.06657 13.9492 8.00261 14.26 8Z" fill="#D39700"/>
<path fill-rule="evenodd" clip-rule="evenodd" d="M14.26 7H27C27.6198 7.01314 28.2093 7.27064 28.6401 7.71641C29.0709 8.16219 29.3081 8.76013 29.3 9.38V17.65C29.3011 18.2497 29.0728 18.8272 28.6619 19.2641C28.251 19.701 27.6887 19.9643 27.09 20V21.54C27.0874 21.9848 26.9095 22.4105 26.595 22.725C26.2805 23.0395 25.8548 23.2174 25.41 23.22H25V22H23.13V23.22H21.72V22H19.87V23.22H18.24V22H16.38V23.22H15.82C15.3735 23.22 14.9452 23.0433 14.6285 22.7286C14.3119 22.4138 14.1326 21.9865 14.13 21.54V20C13.5339 19.962 12.9743 19.6995 12.5642 19.2652C12.1541 18.8309 11.9239 18.2573 11.92 17.66V9.38C11.9174 9.07008 11.9758 8.76267 12.092 8.47533C12.2081 8.18799 12.3798 7.92635 12.5971 7.70535C12.8144 7.48434 13.073 7.3083 13.3584 7.18728C13.6437 7.06625 13.9501 7.00262 14.26 7Z" fill="#FFF1CA"/>
<path fill-rule="evenodd" clip-rule="evenodd" d="M22.21 17.7399C20.5719 18.5237 18.8416 19.0983 17.06 19.4499C16.7747 19.5538 16.4736 19.608 16.17 19.6099H16.12C15.2123 19.7406 14.297 19.8108 13.38 19.8199C13.6207 19.9117 13.8732 19.9689 14.13 19.9899V21.5299C14.1326 21.9764 14.3119 22.4037 14.6285 22.7185C14.9452 23.0332 15.3735 23.2099 15.82 23.2099H16.38V21.9999H18.24V23.2199H19.87V21.9999H21.72V23.2199H23.13V21.9999H25V23.2199H25.43C25.8748 23.2173 26.3005 23.0394 26.615 22.725C26.9295 22.4105 27.1074 21.9847 27.11 21.5399V19.9999C27.707 19.9643 28.2679 19.7024 28.6785 19.2677C29.0891 18.8329 29.3185 18.2579 29.32 17.6599V12.9099C28.38 13.7399 27.43 14.5099 26.46 15.2199C26.7411 15.4924 26.9557 15.826 27.0872 16.1949C27.2186 16.5637 27.2633 16.9578 27.2179 17.3467C27.1725 17.7356 27.0381 18.1088 26.8252 18.4374C26.6123 18.766 26.3266 19.0412 25.9902 19.2416C25.6539 19.442 25.2759 19.5622 24.8855 19.593C24.4952 19.6237 24.103 19.5642 23.7394 19.419C23.3758 19.2738 23.0505 19.0468 22.7887 18.7556C22.527 18.4644 22.3358 18.1169 22.23 17.7399H22.21ZM20.76 20.8999C20.6136 20.8999 20.4706 20.8565 20.3489 20.7752C20.2272 20.6939 20.1323 20.5783 20.0763 20.4431C20.0203 20.3079 20.0057 20.1591 20.0342 20.0155C20.0628 19.872 20.1333 19.7401 20.2367 19.6367C20.3402 19.5332 20.4721 19.4627 20.6156 19.4341C20.7592 19.4056 20.908 19.4202 21.0432 19.4762C21.1784 19.5323 21.294 19.6271 21.3753 19.7488C21.4566 19.8705 21.5 20.0136 21.5 20.1599C21.5 20.3562 21.422 20.5444 21.2833 20.6832C21.1445 20.8219 20.9563 20.8999 20.76 20.8999Z" fill="#FFE596"/>
<path fill-rule="evenodd" clip-rule="evenodd" d="M16.17 14.1599C16.647 14.1597 17.1167 14.2772 17.5374 14.5019C17.9582 14.7266 18.317 15.0516 18.5821 15.4482C18.8472 15.8447 19.0104 16.3005 19.0572 16.7752C19.104 17.2499 19.033 17.7288 18.8505 18.1695C18.668 18.6102 18.3796 18.9991 18.0109 19.3017C17.6422 19.6043 17.2045 19.8113 16.7366 19.9043C16.2688 19.9973 15.7852 19.9734 15.3288 19.8349C14.8724 19.6963 14.4572 19.4473 14.12 19.1099C13.5797 18.5639 13.2746 17.828 13.27 17.0599C13.27 16.2908 13.5755 15.5532 14.1194 15.0093C14.6632 14.4654 15.4009 14.1599 16.17 14.1599ZM17.73 15.4899C17.4185 15.1947 17.0278 14.9966 16.6056 14.9197C16.1834 14.8428 15.7479 14.8905 15.3524 15.057C14.9568 15.2235 14.6183 15.5016 14.3782 15.8572C14.138 16.2129 14.0066 16.6308 14 17.0599C14 17.646 14.2328 18.2082 14.6473 18.6226C15.0617 19.0371 15.6239 19.2699 16.21 19.2699C16.7961 19.2699 17.3582 19.0371 17.7727 18.6226C18.1872 18.2082 18.42 17.646 18.42 17.0599C18.4148 16.7655 18.3512 16.4751 18.2327 16.2056C18.1143 15.9361 17.9434 15.6928 17.73 15.4899Z" fill="#FFD73F"/>
<path fill-rule="evenodd" clip-rule="evenodd" d="M16.17 14.5C16.6767 14.498 17.1727 14.6465 17.595 14.9266C18.0173 15.2067 18.347 15.6058 18.5422 16.0734C18.7375 16.541 18.7897 17.056 18.692 17.5533C18.5944 18.0505 18.3514 18.5076 17.9937 18.8666C17.6361 19.2257 17.18 19.4705 16.6831 19.5701C16.1863 19.6697 15.671 19.6196 15.2027 19.4261C14.7343 19.2326 14.3339 18.9045 14.0521 18.4833C13.7704 18.0621 13.62 17.5668 13.62 17.06C13.62 16.3828 13.8883 15.7332 14.3663 15.2534C14.8442 14.7735 15.4928 14.5027 16.17 14.5Z" fill="black"/>
<path fill-rule="evenodd" clip-rule="evenodd" d="M24.67 14.1599C25.4391 14.1599 26.1768 14.4654 26.7206 15.0093C27.2645 15.5532 27.57 16.2908 27.57 17.0599C27.5651 17.6312 27.3921 18.1884 27.0726 18.662C26.7532 19.1356 26.3014 19.5048 25.7736 19.7234C25.2457 19.942 24.6652 20.0004 24.1044 19.8913C23.5437 19.7822 23.0274 19.5104 22.62 19.1099C22.2147 18.7043 21.9387 18.1877 21.8269 17.6253C21.7151 17.063 21.7725 16.4801 21.9919 15.9503C22.2113 15.4205 22.5828 14.9677 23.0595 14.649C23.5362 14.3304 24.0966 14.1602 24.67 14.1599ZM26.23 15.4899C25.9203 15.1813 25.5261 14.9715 25.0972 14.887C24.6683 14.8025 24.2239 14.8471 23.8204 15.0152C23.4168 15.1832 23.0722 15.4672 22.83 15.8312C22.5879 16.1951 22.4591 16.6227 22.46 17.0599C22.4608 17.4233 22.5511 17.7809 22.7231 18.1011C22.895 18.4212 23.1433 18.694 23.4458 18.8953C23.7484 19.0966 24.0959 19.2202 24.4577 19.2551C24.8194 19.29 25.1841 19.2352 25.5196 19.0955C25.8551 18.9558 26.1509 18.7355 26.381 18.4541C26.611 18.1728 26.7681 17.8391 26.8383 17.4825C26.9086 17.126 26.8898 16.7576 26.7837 16.41C26.6776 16.0625 26.4874 15.7464 26.23 15.4899Z" fill="#FFD73F"/>
<path fill-rule="evenodd" clip-rule="evenodd" d="M24.67 14.5C25.1763 14.5 25.6713 14.6501 26.0923 14.9314C26.5133 15.2127 26.8414 15.6126 27.0351 16.0803C27.2289 16.5481 27.2796 17.0628 27.1808 17.5594C27.082 18.056 26.8382 18.5122 26.4802 18.8702C26.1222 19.2282 25.666 19.472 25.1694 19.5708C24.6728 19.6696 24.1581 19.6189 23.6903 19.4251C23.2226 19.2314 22.8227 18.9032 22.5414 18.4823C22.2601 18.0613 22.11 17.5663 22.11 17.06C22.11 16.381 22.3797 15.7299 22.8598 15.2498C23.3399 14.7697 23.991 14.5 24.67 14.5Z" fill="black"/>
<path fill-rule="evenodd" clip-rule="evenodd" d="M20.76 19.1301C20.8957 19.128 21.0303 19.1535 21.1558 19.2051C21.2813 19.2566 21.395 19.3332 21.49 19.4301C21.5887 19.5242 21.6671 19.6375 21.7205 19.7631C21.7738 19.8886 21.8008 20.0237 21.8 20.1601C21.7856 20.4207 21.6757 20.6667 21.4911 20.8513C21.3066 21.0358 21.0605 21.1457 20.8 21.1601C20.6636 21.161 20.5285 21.1339 20.403 21.0806C20.2774 21.0273 20.1641 20.9488 20.07 20.8501C19.9731 20.7552 19.8965 20.6415 19.8449 20.516C19.7934 20.3905 19.7679 20.2558 19.77 20.1201C19.77 19.8549 19.8754 19.6005 20.0629 19.413C20.2504 19.2255 20.5048 19.1201 20.77 19.1201L20.76 19.1301ZM21.08 19.8501C21.0398 19.8052 20.9905 19.7694 20.9352 19.7453C20.88 19.7211 20.8203 19.7091 20.76 19.7101C20.643 19.7172 20.5326 19.7669 20.4497 19.8498C20.3668 19.9327 20.3171 20.0431 20.31 20.1601C20.309 20.2204 20.321 20.2801 20.3452 20.3354C20.3693 20.3906 20.4051 20.4399 20.45 20.4801C20.5321 20.5628 20.6435 20.6095 20.76 20.6101C20.8195 20.6115 20.8786 20.6008 20.9338 20.5786C20.989 20.5565 21.0392 20.5234 21.0812 20.4814C21.1233 20.4393 21.1564 20.3891 21.1785 20.3339C21.2007 20.2787 21.2114 20.2196 21.21 20.1601C21.2094 20.0436 21.1627 19.9322 21.08 19.8501Z" fill="#FFD73F"/>
<path fill-rule="evenodd" clip-rule="evenodd" d="M20.76 19.4199C20.9064 19.4199 21.0494 19.4633 21.1711 19.5446C21.2928 19.6259 21.3877 19.7415 21.4437 19.8767C21.4997 20.012 21.5143 20.1607 21.4858 20.3043C21.4572 20.4478 21.3867 20.5797 21.2833 20.6832C21.1798 20.7867 21.0479 20.8571 20.9044 20.8857C20.7608 20.9143 20.612 20.8996 20.4768 20.8436C20.3416 20.7876 20.226 20.6927 20.1447 20.571C20.0634 20.4494 20.02 20.3063 20.02 20.1599C20.02 19.9637 20.098 19.7754 20.2367 19.6367C20.3755 19.4979 20.5637 19.4199 20.76 19.4199Z" fill="black"/>
<path fill-rule="evenodd" clip-rule="evenodd" d="M16.17 11.51C17.0408 11.51 17.8761 11.8553 18.4929 12.4701C19.1096 13.0849 19.4574 13.9192 19.46 14.79C19.46 14.91 19.46 15.02 19.46 15.13C19.3708 14.3251 18.9879 13.5813 18.3846 13.0411C17.7812 12.5009 16.9998 12.2022 16.19 12.2022C15.3802 12.2022 14.5988 12.5009 13.9954 13.0411C13.3921 13.5813 13.0092 14.3251 12.92 15.13C12.92 15.02 12.92 14.91 12.92 14.79C12.92 13.9253 13.2614 13.0955 13.8701 12.4812C14.4787 11.867 15.3053 11.5179 16.17 11.51Z" fill="white"/>
<path fill-rule="evenodd" clip-rule="evenodd" d="M24.65 11.51C25.5208 11.51 26.3561 11.8553 26.9729 12.4701C27.5896 13.0849 27.9374 13.9192 27.94 14.79C27.94 14.91 27.94 15.02 27.94 15.13C27.8508 14.3251 27.4679 13.5813 26.8646 13.0411C26.2612 12.5009 25.4798 12.2022 24.67 12.2022C23.8602 12.2022 23.0788 12.5009 22.4754 13.0411C21.8721 13.5813 21.4892 14.3251 21.4 15.13C21.4 15.02 21.4 14.91 21.4 14.79C21.4 13.9253 21.7414 13.0955 22.3501 12.4812C22.9587 11.867 23.7853 11.5179 24.65 11.51Z" fill="white"/>
<path fill-rule="evenodd" clip-rule="evenodd" d="M13.93 7.42996C14.2548 7.42798 14.5728 7.52248 14.8438 7.70148C15.1149 7.88047 15.3266 8.13591 15.4523 8.4354C15.5779 8.73489 15.6118 9.06495 15.5497 9.38374C15.4876 9.70252 15.3322 9.99568 15.1032 10.226C14.8742 10.4564 14.582 10.6136 14.2636 10.6777C13.9452 10.7418 13.615 10.7099 13.3147 10.5861C13.0145 10.4622 12.7578 10.252 12.5771 9.98213C12.3964 9.71222 12.3 9.39475 12.3 9.06996C12.2987 8.85507 12.3399 8.64203 12.4212 8.44312C12.5025 8.2442 12.6224 8.06333 12.7739 7.91091C12.9254 7.75849 13.1055 7.63753 13.3039 7.55499C13.5023 7.47245 13.7151 7.42996 13.93 7.42996Z" fill="white"/>
<path fill-rule="evenodd" clip-rule="evenodd" d="M16.45 7.3999C16.6043 7.3999 16.7551 7.44565 16.8833 7.53136C17.0116 7.61706 17.1116 7.73888 17.1706 7.88141C17.2297 8.02394 17.2451 8.18077 17.215 8.33207C17.1849 8.48338 17.1106 8.62236 17.0015 8.73145C16.8925 8.84053 16.7535 8.91482 16.6022 8.94491C16.4509 8.97501 16.294 8.95956 16.1515 8.90053C16.009 8.84149 15.8872 8.74152 15.8015 8.61325C15.7157 8.48498 15.67 8.33417 15.67 8.1799C15.67 7.97303 15.7522 7.77464 15.8985 7.62836C16.0447 7.48208 16.2431 7.3999 16.45 7.3999Z" fill="white"/>
<path fill-rule="evenodd" clip-rule="evenodd" d="M34.0747 6H63.9196L65 7.95786V22.0421L63.9196 24H34.0747L33 22.0421V7.95786L34.0747 6Z" fill="#504757"/>
<path fill-rule="evenodd" clip-rule="evenodd" d="M34.0747 7.95174H63.9196L65 10V8.14477V8.04826L64.3304 6.78284L63.9196 6H34.0747L33 8.04826V10L34.0747 7.95174Z" fill="#413646"/>
<path fill-rule="evenodd" clip-rule="evenodd" d="M63.6464 23.3825H33.3536L32.2627 21.5681V10.2445V9L32.257 9.019L32 22.1856L33.0909 24H63.9091L65 22.1856L64.7487 9.24699L64.743 9.22799V10.2445V21.5681L63.6464 23.3825Z" fill="#84758F"/>
</svg>
