<svg width="30" height="25" viewBox="0 0 30 25" fill="none" xmlns="http://www.w3.org/2000/svg">
<g clip-path="url(#clip0)">
<path fill-rule="evenodd" clip-rule="evenodd" d="M21.14 1.53184e-05C23.0233 -0.00225698 24.8469 0.659937 26.29 1.87002C27.7345 3.07987 28.7108 4.75653 29.05 6.61002C29.1826 8.07813 29.095 9.55782 28.79 11C28.5785 12.2049 28.1553 13.3628 27.54 14.42C26.4479 16.8229 24.7949 18.9286 22.72 20.56C20.4276 22.4745 17.7806 23.9187 14.93 24.81L14.56 24.91V21.91C16.864 21.1048 19.0047 19.8922 20.88 18.33C22.6051 16.9693 23.9772 15.2131 24.88 13.21L25 13L25.08 12.87C25.5332 12.1089 25.8449 11.2721 26 10.4C26.2426 9.32469 26.3268 8.21969 26.25 7.12002C26.033 5.9268 25.401 4.84876 24.4659 4.0765C23.5308 3.30424 22.3527 2.88752 21.14 2.90002C20.0639 2.83927 19.001 3.16166 18.14 3.81002C17.1626 4.70206 16.3826 5.78865 15.85 7.00002L14.56 9.61001V3.50002C15.052 2.77029 15.6483 2.11666 16.33 1.56002C17.6963 0.48358 19.402 -0.0696323 21.14 1.53184e-05V1.53184e-05ZM14.56 24.87L14.19 24.77C11.5544 24.0857 9.10035 22.833 7 21.1C5.00954 19.4016 3.27495 17.4245 1.85 15.23V15.23C1.16164 14.0421 0.68774 12.7422 0.449996 11.39C0.0929386 9.84709 -0.0417567 8.26105 0.0499959 6.68002V6.68002C0.363967 4.80292 1.33685 3.09924 2.79394 1.87491C4.25103 0.65059 6.09687 -0.0141667 8 1.53184e-05C9.31337 -0.0742657 10.622 0.212688 11.7838 0.829719C12.9456 1.44675 13.9161 2.37028 14.59 3.50002V9.61001L13.26 7.00002C11.89 4.28002 10.55 2.90002 8 2.90002C6.78124 2.8899 5.59869 3.31404 4.66419 4.09646C3.72968 4.87888 3.10428 5.96846 2.9 7.17002V7.17002C2.87433 8.39445 3.00199 9.61728 3.28 10.81C3.4502 11.7938 3.78847 12.741 4.28 13.61V13.61C5.54671 15.5767 7.09291 17.3486 8.87 18.87C10.5564 20.2544 12.5106 21.2758 14.61 21.87V21.87L14.56 24.87Z" fill="#242127"/>
<path fill-rule="evenodd" clip-rule="evenodd" d="M14.56 6.39002C16.2 3.10002 17.85 1.45002 21.14 1.45002C22.8809 1.44999 24.551 2.1388 25.7858 3.36602C27.0205 4.59325 27.7194 6.25918 27.73 8.00002C27.73 14.58 21.26 21.54 14.56 23.33C6.70001 21.27 1.38 14.62 1.38 8.00002C1.39058 6.25398 2.09368 4.5835 3.33488 3.35542C4.57609 2.12733 6.25395 1.44204 8 1.45002C11.26 1.45002 12.91 3.10002 14.56 6.39002Z" fill="#B90000"/>
<path fill-rule="evenodd" clip-rule="evenodd" d="M14.56 20.7401C10.961 19.7876 7.72478 17.7903 5.26 15.0001C4.80402 14.4715 4.38312 13.9136 4 13.3301C2.66254 11.424 1.79866 9.22664 1.48 6.92007C1.41364 7.27624 1.38016 7.63776 1.38 8.00007C1.38 14.5801 6.70001 21.2301 14.56 23.3301C21.26 21.5801 27.73 14.6201 27.73 8.00007C27.729 7.60422 27.6922 7.20928 27.62 6.82007C27.2899 8.97579 26.4725 11.0278 25.23 12.8201C24.8011 13.4702 24.3301 14.0915 23.82 14.6801C21.3903 17.5598 18.1716 19.6662 14.56 20.7401V20.7401Z" fill="#F30000"/>
<path fill-rule="evenodd" clip-rule="evenodd" d="M1.38 8.13988C1.44 14.6899 6.74001 21.2799 14.56 23.3699C21.23 21.5899 27.66 14.6899 27.73 8.12988C27.7171 7.79436 27.6804 7.46018 27.62 7.12988C27.2899 9.2856 26.4725 11.3376 25.23 13.1299C24.8036 13.7817 24.3325 14.4032 23.82 14.9899C21.3836 17.8512 18.1655 19.9398 14.56 20.9999C10.9634 20.053 7.72746 18.0627 5.26 15.2799C4.80295 14.7416 4.38203 14.1737 4 13.5799C2.66254 11.6738 1.79866 9.47645 1.48 7.16988C1.42146 7.49012 1.38803 7.81444 1.38 8.13988V8.13988Z" fill="#7E0000"/>
<path fill-rule="evenodd" clip-rule="evenodd" d="M23.91 14.54C17.9785 17.0614 11.3086 17.2259 5.25999 15C7.72745 17.7828 10.9634 19.7731 14.56 20.72C18.1728 19.6434 21.3916 17.5334 23.82 14.65L23.95 14.5L23.91 14.54Z" fill="#9B0000"/>
<path fill-rule="evenodd" clip-rule="evenodd" d="M8 2.34993C11.29 2.34993 12.94 3.99993 14.59 7.28993C16.2 3.99993 17.85 2.34993 21.14 2.34993C22.6119 2.34888 24.0419 2.84066 25.2018 3.74685C26.3617 4.65304 27.1849 5.92148 27.54 7.34993C27.54 7.17993 27.6 7.00993 27.62 6.83993C27.3438 5.32236 26.544 3.94976 25.3599 2.96119C24.1758 1.97263 22.6825 1.43075 21.14 1.42993C17.85 1.42993 16.2 3.07993 14.56 6.36993C12.91 3.09993 11.26 1.44993 8 1.44993C6.44144 1.44181 4.93061 1.98718 3.73659 2.98892C2.54257 3.99065 1.74289 5.38369 1.48 6.91993C1.48 7.09993 1.48 7.26993 1.55 7.44993C1.88943 5.99545 2.71216 4.69911 3.88374 3.77275C5.05531 2.84639 6.50644 2.34479 8 2.34993V2.34993Z" fill="#F30000"/>
<path fill-rule="evenodd" clip-rule="evenodd" d="M5.4 2.42002C7.1 1.87002 8.72 2.19002 9.03 3.14002C9.34 4.09002 8.2 5.29002 6.5 5.84002C4.8 6.39002 3.18 6.07002 2.87 5.12002C2.56 4.17002 3.7 3.00002 5.4 2.42002Z" fill="#F30000"/>
<path fill-rule="evenodd" clip-rule="evenodd" d="M18.67 2.37998C20.37 1.82998 22 2.14998 22.3 3.09998C22.6 4.04998 21.47 5.24998 19.77 5.79998C18.07 6.34998 16.45 6.02998 16.15 5.07998C15.85 4.12998 17 2.92998 18.67 2.37998Z" fill="#F30000"/>
</g>
<defs>
<clipPath id="clip0">
<rect width="29.12" height="24.87" fill="white"/>
</clipPath>
</defs>
</svg>
