<svg id="Layer_1" data-name="Layer 1" xmlns="http://www.w3.org/2000/svg" xmlns:xlink="http://www.w3.org/1999/xlink" viewBox="0 0 163.87 163.65"><defs><style>.cls-1,.cls-33,.cls-9{fill:none;}.cls-2{clip-path:url(#clip-path);}.cls-3{fill:#185c5c;}.cls-4{fill:#0f4949;}.cls-5{fill:#053333;}.cls-6{fill:url(#linear-gradient);}.cls-7{fill:#00297c;}.cls-8{fill:#69f;}.cls-9{stroke:#000;}.cls-33,.cls-9{stroke-width:2px;}.cls-10{fill:url(#radial-gradient);}.cls-11{fill:#266060;}.cls-12{fill:#1c4a4a;}.cls-13{fill:#469898;}.cls-14{fill:url(#linear-gradient-2);}.cls-15{fill-opacity:0.2;}.cls-16{fill:#f60;}.cls-17{fill:url(#radial-gradient-2);}.cls-18{fill:url(#radial-gradient-3);}.cls-19{fill:#3c7676;}.cls-20{fill:url(#linear-gradient-3);}.cls-21{fill:url(#linear-gradient-4);}.cls-22{fill:#326060;}.cls-23{fill:url(#radial-gradient-4);}.cls-24{fill:#5caeae;}.cls-25{fill:url(#linear-gradient-5);}.cls-26{fill:url(#radial-gradient-5);}.cls-27{fill:url(#radial-gradient-6);}.cls-28{fill:url(#radial-gradient-7);}.cls-29{fill:#306161;}.cls-30{fill:#458989;}.cls-31{fill:url(#linear-gradient-6);}.cls-32{fill:url(#radial-gradient-8);}.cls-33{stroke:#284c4c;}.cls-34{fill:#fff;}.cls-35{fill:#e6e6e6;}.cls-36{fill:#de4256;}.cls-37{fill:#e35b6a;}.cls-38{fill:url(#linear-gradient-7);}.cls-39{fill:#d82637;}.cls-40{fill:#e87683;}.cls-41{fill:#fff6df;}.cls-42{fill:#284c4c;}.cls-43{fill:url(#radial-gradient-9);}.cls-44{fill:#9c5050;}.cls-45{fill:#522a2a;}</style><clipPath id="clip-path"><circle class="cls-1" cx="81.94" cy="81.73" r="81.94"/></clipPath><linearGradient id="linear-gradient" x1="55.62" y1="157.78" x2="65.64" y2="158.62" gradientUnits="userSpaceOnUse"><stop offset="0" stop-color="#039"/><stop offset="1" stop-color="#2b71ff"/></linearGradient><radialGradient id="radial-gradient" cx="71.93" cy="134.13" r="6.34" gradientUnits="userSpaceOnUse"><stop offset="0" stop-color="#469898"/><stop offset="1" stop-color="#2f7373"/></radialGradient><linearGradient id="linear-gradient-2" x1="66.83" y1="122.29" x2="78.06" y2="120.7" gradientUnits="userSpaceOnUse"><stop offset="0" stop-color="#821820"/><stop offset="1" stop-color="#d82637"/></linearGradient><radialGradient id="radial-gradient-2" cx="82.09" cy="141.74" r="3.65" xlink:href="#radial-gradient"/><radialGradient id="radial-gradient-3" cx="46.63" cy="145.14" r="24.58" gradientUnits="userSpaceOnUse"><stop offset="0" stop-color="#5caeae"/><stop offset="1" stop-color="#458989"/></radialGradient><linearGradient id="linear-gradient-3" x1="42.75" y1="126.96" x2="71.92" y2="123.2" xlink:href="#linear-gradient-2"/><linearGradient id="linear-gradient-4" x1="42.84" y1="144.35" x2="61.27" y2="148.95" xlink:href="#linear-gradient"/><radialGradient id="radial-gradient-4" cx="45.18" cy="134.12" r="6.34" xlink:href="#radial-gradient-3"/><linearGradient id="linear-gradient-5" x1="40.08" y1="122.29" x2="51.32" y2="120.71" xlink:href="#linear-gradient-2"/><radialGradient id="radial-gradient-5" cx="55.35" cy="141.74" r="3.65" xlink:href="#radial-gradient-3"/><radialGradient id="radial-gradient-6" cx="73.7" cy="152.51" r="9.42" xlink:href="#radial-gradient-3"/><radialGradient id="radial-gradient-7" cx="99.94" cy="145.52" r="10.78" xlink:href="#radial-gradient"/><linearGradient id="linear-gradient-6" x1="37.14" y1="157.71" x2="48.63" y2="159.03" xlink:href="#linear-gradient"/><radialGradient id="radial-gradient-8" cx="70.78" cy="81.68" r="41.14" xlink:href="#radial-gradient-3"/><linearGradient id="linear-gradient-7" x1="85.94" y1="138.44" x2="85.94" y2="120.41" gradientUnits="userSpaceOnUse"><stop offset="0" stop-color="#d82637"/><stop offset="1" stop-color="#e35b6a"/></linearGradient><radialGradient id="radial-gradient-9" cx="81" cy="86.4" r="9.21" gradientUnits="userSpaceOnUse"><stop offset="0" stop-color="#894545"/><stop offset="1" stop-color="#633"/></radialGradient></defs><g class="cls-2"><g id="_1101963312" data-name=" 1101963312"><g id="g314"><path d="M67.6,159.32v-.08a5.67,5.67,0,0,0-6.21-5H61.3a5.65,5.65,0,0,0-3.78,2.13,5.59,5.59,0,0,0-1.19,4.17l.79,6.85a5.71,5.71,0,0,0,6.22,5h.08a5.69,5.69,0,0,0,5-6.29Zm-2.15,9.55a3.43,3.43,0,0,1-2.23,1.28h-.06a3.43,3.43,0,0,1-3.79-3l-.81-6.89a3.44,3.44,0,0,1,2.94-3.8h0a3.45,3.45,0,0,1,2.53.71,3.52,3.52,0,0,1,1.28,2.24l.8,6.9A3.41,3.41,0,0,1,65.45,168.87Z"/><path class="cls-3" d="M61.42,155.39c-2.49.3-4.1,4.09-3.58,8.47s2.95,7.7,5.45,7.41,4.11-4.09,3.59-8.47S63.92,155.1,61.42,155.39Z"/><path class="cls-4" d="M61.45,166.91l-.8-6.85a4.56,4.56,0,0,1,2.41-4.57,4.65,4.65,0,0,0-1.63-.11,4.57,4.57,0,0,0-4,5.05l.8,6.86a4.57,4.57,0,0,0,5.06,4,4.32,4.32,0,0,0,1.56-.49A4.56,4.56,0,0,1,61.45,166.91Z"/><path class="cls-5" d="M62.36,160.08a.41.41,0,1,0,.09.81.41.41,0,0,0-.09-.81Z"/><path class="cls-5" d="M59.31,161.56A.35.35,0,0,0,59,162a.35.35,0,1,0,.31-.39Z"/><path class="cls-5" d="M64.68,157.88a.17.17,0,0,0-.15.2.17.17,0,1,0,.15-.2Z"/></g><path d="M68.41,152l0-.13,0-.11c-1.49-3.55-4.67-3.21-8.29-2.5s-6.94,1.59-6.87,5.42v.07l1,12.85.23,3,2-2.21,1.49-1.65,1,.77,1.17.9.71-1.29.87-1.57,1.29.73,1.18.67.59-1.21.06-.13,1.92,1.49,1.88,1.46.16-2.38v-.27l.13.09,2.6,1.89-.61-3.15Zm-1.9,9.1-.15,2.3,0,.18-1.26-1-1.23-1-.68,1.4-.15.32-1.23-.7L60.68,162l-.62,1.12-.78,1.4-.79-.59-.93-.71-.78.86-.3.33-.76-9.89c0-2.53,2.48-2.35,4.82-2.81s4.35-1.46,5.4.87L67.76,162Z"/><path class="cls-6" d="M54.45,154.66l1,12.84L57.73,165l2,1.48,1.48-2.69,2.4,1.37.76-1.53,3.14,2.44.17-2.57,2,1.45-2.45-12.68C64.68,146.3,54.31,147.79,54.45,154.66Z"/><path class="cls-7" d="M54.45,154.66l1,12.84L57.73,165l1.13.87-.93-11.73a5.73,5.73,0,0,1,3.78-5.56C58.16,148.29,54.37,150.49,54.45,154.66Z"/><path class="cls-8" d="M60.77,148.54a6.21,6.21,0,0,1,5.65,3.71l2.33,12.05.86.63-2.45-12.68A6.36,6.36,0,0,0,60.77,148.54Z"/></g><g id="g401"><g id="_1101935056" data-name=" 1101935056"><g id="g404"><path class="cls-9" d="M76.59,125.16a4.55,4.55,0,0,0-9,1.06l.81,6.85a4.56,4.56,0,0,0,5,4h0a4.56,4.56,0,0,0,4-5.05Z"/><path class="cls-10" d="M76.59,125.16a4.55,4.55,0,0,0-9,1.06l.81,6.85a4.56,4.56,0,0,0,5,4h0a4.56,4.56,0,0,0,4-5.05Z"/></g><path class="cls-11" d="M71.57,132.69l-.81-6.85a4.6,4.6,0,0,1,2.42-4.57,4.44,4.44,0,0,0-1.63-.1,4.57,4.57,0,0,0-4,5l.81,6.85a4.56,4.56,0,0,0,5,4,4.36,4.36,0,0,0,1.57-.48A4.55,4.55,0,0,1,71.57,132.69Z"/><path class="cls-12" d="M74.51,131.84a.62.62,0,0,0-.55.69.62.62,0,1,0,1.24-.15A.62.62,0,0,0,74.51,131.84Z"/><path class="cls-12" d="M72.48,125.86a.41.41,0,0,0-.36.46.41.41,0,0,0,.45.36.41.41,0,0,0,.36-.46A.42.42,0,0,0,72.48,125.86Z"/><path class="cls-12" d="M69.42,127.34a.35.35,0,0,0,.08.7.36.36,0,0,0,.31-.39A.36.36,0,0,0,69.42,127.34Z"/><path class="cls-12" d="M71.11,132.88a.45.45,0,0,0-.4.5.46.46,0,0,0,.51.4.45.45,0,0,0,.4-.5A.46.46,0,0,0,71.11,132.88Z"/><path class="cls-12" d="M74.8,123.67a.17.17,0,0,0-.16.19.18.18,0,0,0,.2.15.18.18,0,0,0,.15-.19A.16.16,0,0,0,74.8,123.67Z"/><path class="cls-13" d="M76.59,125.16a4.56,4.56,0,0,0-5-4,4.57,4.57,0,0,1,4.07,4L76.5,132a4.56,4.56,0,0,1-4,5.05l-.08,0a4.6,4.6,0,0,0,5-5.07Z"/></g><path d="M74,115.06a8.94,8.94,0,0,0-4-.12,8.15,8.15,0,0,0-3.63,1.66,6.74,6.74,0,0,0-2.5,5.5c0,2.77.34,6,.51,8.8l3.46-3.83L70,128.72l1.58-2.84,2.46,1.4.67-1.36,3.76,2.93.16-2.65,3.16,2.3c-.88-2.82-1.83-6.72-2.91-9.28A7.1,7.1,0,0,0,74,115.06Zm2.51,6.64-.17,2.49-2.52-2L73,123.94l-2.34-1.34-1.4,2.54-1.73-1.32L66.4,125l-.17-3a4.39,4.39,0,0,1,1.63-3.56,5.89,5.89,0,0,1,2.57-1.18,6.78,6.78,0,0,1,2.94.09,4.78,4.78,0,0,1,3.25,2.72l.69,2.21Z"/><path class="cls-14" d="M65,122.08l.33,5.88,2.29-2.52,1.94,1.49,1.49-2.69,2.4,1.36.75-1.52,3.14,2.44.18-2.57,2,1.45-1.79-5.73C75.26,113.72,64.9,115.22,65,122.08Z"/><path class="cls-15" d="M65,122.08l.33,5.88,2.29-2.52,1.13.87-.27-4.76A5.72,5.72,0,0,1,72.3,116C68.75,115.73,65,117.91,65,122.08Z"/><path class="cls-16" d="M70.61,116a6.29,6.29,0,0,1,6,3.71l1.43,4.58,1.48,1.07-1.79-5.73A6.51,6.51,0,0,0,70.61,116Z"/></g><g id="g432"><path d="M92,135.64l-11.75-5a5.77,5.77,0,0,0-4.61,0,5.61,5.61,0,0,0-3,7.08A5.82,5.82,0,0,0,75.81,141l11.75,5a5.77,5.77,0,0,0,4.61,0,5.63,5.63,0,0,0,3-7.08A5.79,5.79,0,0,0,92,135.64Zm.31,6.3a3.76,3.76,0,0,1-1.92,2,2.49,2.49,0,0,1-2,.08l-11.75-5a2.48,2.48,0,0,1-1.3-1.49,3.87,3.87,0,0,1,2-4.73,2.49,2.49,0,0,1,2-.08l11.76,5a2.51,2.51,0,0,1,1.3,1.49A3.76,3.76,0,0,1,92.34,141.94Z"/><path d="M77.52,134.44c-2.41-1-5-.36-5.8,1.5s.51,4.2,2.91,5.23,5,.36,5.79-1.5S79.92,135.47,77.52,134.44Z"/><path class="cls-17" d="M91.24,136.52l-12.52-5.37a4.57,4.57,0,0,0-6,2.39,5.31,5.31,0,0,0-.29,1,3.06,3.06,0,0,0-.37.63c-.8,1.87.44,4.19,2.78,5.19a5.24,5.24,0,0,0,3,.38l9.74,4.18a4.55,4.55,0,0,0,6-2.38h0A4.58,4.58,0,0,0,91.24,136.52Z"/><path class="cls-12" d="M90,141.17a.83.83,0,0,0-1.08.43.82.82,0,0,0,1.51.65A.83.83,0,0,0,90,141.17Z"/><path class="cls-12" d="M83.37,139.45a.29.29,0,0,0,.16.39.29.29,0,0,0,.39-.15.32.32,0,0,0-.16-.4A.3.3,0,0,0,83.37,139.45Z"/><path class="cls-12" d="M84.71,136.71a.42.42,0,0,0-.55.22.42.42,0,1,0,.78.33A.42.42,0,0,0,84.71,136.71Z"/><path class="cls-12" d="M77.17,136.5a.21.21,0,0,0,.12.29.22.22,0,0,0,.29-.11.22.22,0,1,0-.41-.18Z"/><path class="cls-12" d="M74.72,136.64a.5.5,0,0,0-.4.92.51.51,0,0,0,.66-.26A.5.5,0,0,0,74.72,136.64Z"/><path class="cls-12" d="M78.65,133.52a.55.55,0,0,0-.72.29.54.54,0,1,0,.72-.29Z"/><path class="cls-12" d="M88.28,136.48a.67.67,0,1,0,.35.88A.67.67,0,0,0,88.28,136.48Z"/><path class="cls-11" d="M91.15,143.48a4.53,4.53,0,0,1-3.09-.17L80.27,140l-2-.83a5.14,5.14,0,0,1-1,.08,5.47,5.47,0,0,1-2-.46,4.84,4.84,0,0,1-3-3.39c0-.09,0-.16,0-.24a2,2,0,0,0-.33.44A4.16,4.16,0,0,0,74.17,140a5.58,5.58,0,0,0,.69.35,5.24,5.24,0,0,0,3,.38l1.08.47,8.66,3.71a4.57,4.57,0,0,0,6-2.38,5.11,5.11,0,0,0,.35-1.45A4.54,4.54,0,0,1,91.15,143.48Z"/><path class="cls-13" d="M91.24,136.52l-12.53-5.37a4.56,4.56,0,0,0-5.82,2.07,4.57,4.57,0,0,1,5.3-1.28l12.52,5.38a4.56,4.56,0,0,1,2.39,6c0,.11-.11.22-.16.32a4.66,4.66,0,0,0,.68-1.11h0A4.57,4.57,0,0,0,91.24,136.52Z"/></g><g id="g458"><g id="g460"><path class="cls-9" d="M65.57,110.44H54.79c-10.94,0-18,25.89-18,34.25a7,7,0,0,0,7,7h18a7,7,0,0,0,7-7C68.76,136.33,76.51,110.44,65.57,110.44Z"/><path class="cls-18" d="M65.57,110.44H54.79c-10.94,0-18,25.89-18,34.25a7,7,0,0,0,7,7h18a7,7,0,0,0,7-7C68.76,136.33,76.51,110.44,65.57,110.44Z"/></g><polygon class="cls-19" points="42.18 130.27 40.76 139.97 47.49 137.05 50.36 142.5 54.74 137.61 56.01 140.72 59.21 138.65 62.55 144.58 65.37 138.27 66.97 141.61 69.04 136.44 64.24 130.79 42.18 130.27"/><path class="cls-19" d="M49.06,147.7a7,7,0,0,1-7-7c0-6.23,3.9-22.19,10.41-29.93-9.62,3.23-15.68,26.11-15.68,33.88a7,7,0,0,0,7,7h18a7,7,0,0,0,6.31-4,5.88,5.88,0,0,1-1,.08Z"/><path d="M66,108.69H54.82c-3.68,0-6.91,2.45-9.62,6.15-3.26,4.44-5.82,10.71-7.54,16.61l-.51,1.77,2.66-.78,1.1,5.11,7.32-4.35,4.29,7,3.73-4.91.73,1.62,3-2,4,7.86,2-7.24L68,138l2.11-3,1.11,2.06.46-3c.84-5.51,1.67-11.63,1.27-16.43C72.52,112.41,70.67,108.69,66,108.69Zm4,22.94-2.09,3-2.74-3.5-1.72,6.12-2.73-5.31-2.87,1.94-1.15-2.52-4,5.26-3.79-6.18-6.61,3.93-1-4.49-1.18.35A51.14,51.14,0,0,1,46.83,116c2.35-3.2,5.05-5.32,8-5.32H66c3.29,0,4.62,2.94,5,7.09C71.26,121.79,70.68,126.84,70,131.63Z"/><path class="cls-20" d="M66,109.71H54.82c-7.45,0-13.16,11.61-16.18,22l1.93-.56,1,4.79,7-4.14,4,6.58,3.85-5.07.94,2.07,2.92-2L63.72,140l1.88-6.68,2.35,3,2.27-3.27.46.85C72.33,123,74,109.71,66,109.71Z"/><path class="cls-15" d="M38.64,131.73l.57-.17,1.36-.39,1,4.79,1-.63,3-1.76-.54-2.5-1.65.49-.28.07c.43-1.51.94-3.06,1.49-4.6,2.64-7.29,6.5-14.26,11.28-16.59a7.73,7.73,0,0,1,2.24-.73H54.82C47.37,109.71,41.66,121.32,38.64,131.73Z"/><path d="M62.25,144.07c-2.44.17-5.08.26-7.84.26-2,0-3.91-.05-5.69-.14s-3.65-.22-5.34-.4c-1.33-.14-2.57-.3-3.71-.48s-2.24-.38-3.24-.6l-1.72-.39c0,.8,0,1.59,0,2.39h0a11.35,11.35,0,0,0,2.46,7.18A8.12,8.12,0,0,0,43.38,155H62.21a7.77,7.77,0,0,0,4.78-1.7A10.16,10.16,0,0,0,70.14,149a10.62,10.62,0,0,0,.58-2.08,11.28,11.28,0,0,0,.2-2.16V143l-1.67.26C67.17,143.62,64.82,143.89,62.25,144.07Zm5.19,3.86a7.28,7.28,0,0,1-2.22,3.13,4.85,4.85,0,0,1-3,1.08H43.38a5.18,5.18,0,0,1-4-2.08,8.11,8.11,0,0,1-1.73-4.16l1.58.27c1.23.19,2.52.36,3.86.5,1.72.18,3.56.32,5.5.41s3.87.15,5.82.15c2.78,0,5.48-.09,8-.27,1.91-.14,3.73-.32,5.44-.54A10.37,10.37,0,0,1,67.44,147.93Z"/><path class="cls-7" d="M43.23,145.23a64.31,64.31,0,0,1-7.1-1.11c0,.21,0,.4,0,.6,0,4.88,3.26,8.87,7.26,8.87H62.21c2.9,0,5.42-2.11,6.58-5.14a10.33,10.33,0,0,0,.68-3.72,101,101,0,0,1-15.06,1.05A109.35,109.35,0,0,1,43.23,145.23Z"/><path class="cls-21" d="M43.23,145.23c-.68-.07-1.36-.15-2-.24.77,3.9,3.65,6.81,7.07,6.81H66.56a8.76,8.76,0,0,0,2.23-3.35,10.31,10.31,0,0,0,.68-3.73,99.61,99.61,0,0,1-15.06,1.06A109.35,109.35,0,0,1,43.23,145.23Z"/><path class="cls-22" d="M40.59,141a.89.89,0,1,0,.88.89A.88.88,0,0,0,40.59,141Z"/><path class="cls-22" d="M45.72,140.28a.27.27,0,1,0,.27.27A.27.27,0,0,0,45.72,140.28Z"/><circle class="cls-22" cx="46.15" cy="136.81" r="0.25"/><path class="cls-22" d="M49.68,142.34a0,0,0,0,0,.08,0,0,0,0,0,0-.08,0A0,0,0,0,0,49.68,142.34Z"/><path class="cls-22" d="M56.87,141.62a.12.12,0,0,0-.12.12.12.12,0,0,0,.12.13.13.13,0,0,0,.13-.13A.13.13,0,0,0,56.87,141.62Z"/><path class="cls-22" d="M59.06,139.24a.23.23,0,1,0,0,.45.22.22,0,0,0,.22-.22A.22.22,0,0,0,59.06,139.24Z"/><path class="cls-22" d="M66.78,141.43a.41.41,0,0,0-.41.42.41.41,0,0,0,.82,0A.41.41,0,0,0,66.78,141.43Z"/><path class="cls-22" d="M68.45,140a.1.1,0,0,0-.11.1.11.11,0,0,0,.22,0A.1.1,0,0,0,68.45,140Z"/><path class="cls-22" d="M58.49,142.23a.47.47,0,0,0-.46.46.47.47,0,0,0,.93,0A.47.47,0,0,0,58.49,142.23Z"/><path class="cls-22" d="M51.93,143.39a.4.4,0,1,0,.4.4A.4.4,0,0,0,51.93,143.39Z"/><path class="cls-16" d="M66,109.71H64.71c9.61,0,5.46,20.94,4.24,23.36l-1.68,2.41.68.86,2.27-3.27.46.85C72.33,123,74,109.71,66,109.71Z"/><path class="cls-8" d="M43.23,145.23a64.31,64.31,0,0,1-7.1-1.11c0,.21,0,.4,0,.6s0,.31,0,.47c1.85.38,4,.69,6.31.94a106.36,106.36,0,0,0,11.17.55,99.72,99.72,0,0,0,15.06-1.05,10.5,10.5,0,0,1-.67,3.72,9.64,9.64,0,0,1-1.27,2.3,9.12,9.12,0,0,0,2.07-3.2,10.55,10.55,0,0,0,.67-3.72,101,101,0,0,1-15.06,1.05A109.35,109.35,0,0,1,43.23,145.23Z"/></g><g id="g506"><g id="g508"><g id="g510"><path class="cls-9" d="M49.85,125.16a4.57,4.57,0,0,0-5.05-4h0a4.56,4.56,0,0,0-4,5l.8,6.85a4.55,4.55,0,0,0,9-1.07Z"/><path class="cls-23" d="M49.85,125.16a4.57,4.57,0,0,0-5.05-4h0a4.56,4.56,0,0,0-4,5l.8,6.85a4.55,4.55,0,0,0,9-1.07Z"/></g><path class="cls-19" d="M44.82,132.69l-.8-6.85a4.57,4.57,0,0,1,2.42-4.57,4.5,4.5,0,0,0-1.64-.1,4.56,4.56,0,0,0-4,5l.8,6.85a4.54,4.54,0,0,0,5,4,4.3,4.3,0,0,0,1.57-.48A4.57,4.57,0,0,1,44.82,132.69Z"/><path class="cls-22" d="M47.76,131.84a.62.62,0,1,0,.69.54A.62.62,0,0,0,47.76,131.84Z"/><path class="cls-22" d="M45.73,125.86a.41.41,0,0,0-.36.46.42.42,0,0,0,.45.36.41.41,0,0,0,.36-.46A.41.41,0,0,0,45.73,125.86Z"/><path class="cls-22" d="M42.67,127.34a.36.36,0,0,0-.3.39.35.35,0,0,0,.39.31.36.36,0,0,0,.3-.39A.35.35,0,0,0,42.67,127.34Z"/><path class="cls-22" d="M44.37,132.88a.45.45,0,0,0,.1.9.45.45,0,1,0-.1-.9Z"/><path class="cls-22" d="M48.05,123.67a.16.16,0,0,0-.15.19.17.17,0,0,0,.19.15.18.18,0,0,0,.15-.19A.16.16,0,0,0,48.05,123.67Z"/><path class="cls-24" d="M49.85,125.16a4.56,4.56,0,0,0-5-4,4.56,4.56,0,0,1,4.06,4l.81,6.84a4.57,4.57,0,0,1-4,5.05l-.08,0a4.6,4.6,0,0,0,5-5.07Z"/></g><path d="M47.24,115.06a8.9,8.9,0,0,0-4-.12,8.19,8.19,0,0,0-3.64,1.66,6.74,6.74,0,0,0-2.5,5.5c0,2.77.35,6,.51,8.8l3.45-3.83,2.18,1.65,1.57-2.84,2.46,1.4.66-1.36,3.77,2.93.17-2.65L55,128.5c-.89-2.82-1.84-6.72-2.91-9.28A7.13,7.13,0,0,0,47.24,115.06Zm2.51,6.64-.16,2.49-2.53-2-.84,1.72-2.34-1.34-1.4,2.54-1.73-1.32L39.66,125l-.18-3a4.39,4.39,0,0,1,1.63-3.56,5.87,5.87,0,0,1,2.58-1.18,6.73,6.73,0,0,1,2.93.09,4.82,4.82,0,0,1,3.26,2.72l.69,2.21Z"/><path class="cls-25" d="M38.29,122.08l.34,5.88,2.27-2.52,2,1.49,1.5-2.69,2.4,1.36.74-1.52,3.15,2.44L50.8,124l2,1.45L51,119.67C48.52,113.72,38.16,115.22,38.29,122.08Z"/><path class="cls-15" d="M38.29,122.08l.34,5.88,2.27-2.52,1.15.87-.29-4.76A5.74,5.74,0,0,1,45.55,116C42,115.73,38.2,117.91,38.29,122.08Z"/><path class="cls-16" d="M43.87,116a6.3,6.3,0,0,1,6,3.71l1.43,4.58,1.47,1.07L51,119.67A6.51,6.51,0,0,0,43.87,116Z"/></g><g id="g538"><path d="M65.28,135.64l-11.75-5a5.77,5.77,0,0,0-4.61,0,5.62,5.62,0,0,0-3,7.08A5.74,5.74,0,0,0,49.06,141l11.75,5a5.77,5.77,0,0,0,4.61,0,5.61,5.61,0,0,0,3-7.08A5.76,5.76,0,0,0,65.28,135.64Zm.3,6.3a3.71,3.71,0,0,1-1.91,2,2.49,2.49,0,0,1-2,.08L50,139a2.47,2.47,0,0,1-1.31-1.49,3.89,3.89,0,0,1,2-4.73,2.49,2.49,0,0,1,2-.08l11.74,5a2.47,2.47,0,0,1,1.31,1.49A3.66,3.66,0,0,1,65.58,141.94Z"/><path d="M50.77,134.44c-2.4-1-5-.36-5.8,1.5s.51,4.2,2.91,5.23,5,.36,5.79-1.5S53.17,135.47,50.77,134.44Z"/><path class="cls-26" d="M64.49,136.52,52,131.15a4.55,4.55,0,0,0-6,2.39,3.66,3.66,0,0,0-.29,1,3.11,3.11,0,0,0-.38.63c-.8,1.87.45,4.19,2.78,5.19a5.23,5.23,0,0,0,3,.38l9.74,4.18a4.55,4.55,0,0,0,3.59-8.36Z"/><path class="cls-22" d="M63.24,141.17a.83.83,0,0,0-1.08.43.82.82,0,0,0,1.51.65A.83.83,0,0,0,63.24,141.17Z"/><path class="cls-22" d="M56.62,139.45a.3.3,0,0,0,.16.39.29.29,0,0,0,.39-.15.32.32,0,0,0-.16-.4A.31.31,0,0,0,56.62,139.45Z"/><path class="cls-22" d="M58,136.71a.43.43,0,1,0,.22.55A.42.42,0,0,0,58,136.71Z"/><path class="cls-22" d="M50.42,136.5a.21.21,0,0,0,.12.29.22.22,0,0,0,.29-.11.23.23,0,0,0-.11-.3A.23.23,0,0,0,50.42,136.5Z"/><path class="cls-22" d="M48,136.64a.5.5,0,1,0,.26.66A.51.51,0,0,0,48,136.64Z"/><path class="cls-22" d="M51.9,133.52a.55.55,0,0,0-.43,1,.55.55,0,1,0,.43-1Z"/><path class="cls-22" d="M61.53,136.48a.67.67,0,0,0-.53,1.24.67.67,0,1,0,.53-1.24Z"/><path class="cls-19" d="M64.41,143.48a4.52,4.52,0,0,1-3.09-.17L53.52,140l-1.94-.83a5.3,5.3,0,0,1-1.06.08,5.47,5.47,0,0,1-2-.46,4.82,4.82,0,0,1-3-3.39,2.4,2.4,0,0,1,0-.24,2.46,2.46,0,0,0-.34.44A4.2,4.2,0,0,0,47.42,140a5.58,5.58,0,0,0,.69.35,5.23,5.23,0,0,0,3,.38l1.09.47,8.65,3.71a4.55,4.55,0,0,0,6.33-3.83A4.54,4.54,0,0,1,64.41,143.48Z"/><path class="cls-24" d="M64.49,136.52,52,131.15a4.56,4.56,0,0,0-5.82,2.07,4.56,4.56,0,0,1,5.29-1.28L64,137.32a4.56,4.56,0,0,1,2.39,6h0a3.13,3.13,0,0,1-.15.32,4.36,4.36,0,0,0,.68-1.11h0A4.55,4.55,0,0,0,64.49,136.52Z"/></g><g id="g564"><polygon points="82.13 154.89 82.12 154.89 82.12 154.89 82.13 154.89"/><path d="M76.62,143.45a11.91,11.91,0,0,0-1.44-2.21h0c-.23-.29-.48-.58-.74-.85,1.36-.13,2.44-.84,2.47-3.57v-1.16l-1.15-.12a19.59,19.59,0,0,1-2.3-.42c-2.41-.52-3.63-.64-7,1.52a9.07,9.07,0,0,0-.75,1.21h0l-5,5h0a2.81,2.81,0,0,0-.4.51h0c-.71,1.17-1.37,1.92-.55,3.62a16.45,16.45,0,0,0,3.16,4.34,14.77,14.77,0,0,0,2.28,1.88,20.3,20.3,0,0,0,1,1.82c.29.48.37.61-.64,1.29v0a4.1,4.1,0,0,0-.83.7,3.58,3.58,0,0,0-.91,1.85,2.88,2.88,0,0,0,.42,2h0a3.1,3.1,0,0,0,.45.51l.58.53.73-.28a10.26,10.26,0,0,0,5-3.47,5.22,5.22,0,0,0,.65-4.45l.54.3c1,.52,1.36.71.69,2.32a4.58,4.58,0,0,0-.35,1.19,3.92,3.92,0,0,0,.28,2.26,3.1,3.1,0,0,0,1.56,1.55h0a3.48,3.48,0,0,0,.69.2l.79.13.45-.65c1.8-2.52,2.78-4.89,2.59-7.05a6.27,6.27,0,0,0-2.89-4.61h.73c1.24,0,1.67,0,1.84,1.86a4.82,4.82,0,0,0,.24,1.2h0A3.84,3.84,0,0,0,80,154.26a3.08,3.08,0,0,0,2.08.63,2.89,2.89,0,0,0,.74-.16l.74-.25.11-.77c.4-3.09.16-5.66-1-7.47S79.56,143.49,76.62,143.45ZM69.2,155.59a6.32,6.32,0,0,0-.89-1.87,8.71,8.71,0,0,1-.44-.78l.55-.26.33.74A4.13,4.13,0,0,1,69.2,155.59ZM81.33,152a2,2,0,0,1-.21-.41h0A2.06,2.06,0,0,1,81,151v0c-.4-4.11-1.4-4.12-4.34-4.16-.46,0-1,0-1.68-.06l-.58,0-.42.4-1.38,1.4-1.27,1.27,1.62.77c2.17,1,3.18,2.26,3.31,3.64a7.24,7.24,0,0,1-1.35,4.19,1.49,1.49,0,0,1,0-.47,2.54,2.54,0,0,1,.18-.58v0c1.57-3.77.69-4.24-1.84-5.56-.47-.25-1-.55-1.6-.9l-.86-.54-.71.71-.64.64-.08.08h0l-.09.06-.79.45-1.66-1a11.77,11.77,0,0,1-2.14-1.74,7.14,7.14,0,0,1-1.78-2.73c-.46-1-.67-1.76-.46-2.12h0l0,0,5-5h0l.07,0,.17-.05.14-.1c2.6-1.66,3.19-2.23,5-1.83l1.1.23a.49.49,0,0,1-.21,0l-.54,0a3.43,3.43,0,0,0-2.65.55l-1.26,1,1.3,1a15.24,15.24,0,0,1,2.56,2.44,7.26,7.26,0,0,1,1.36,2.29l.31.91,1,0c2.44-.11,3.94.49,4.7,1.65A7.11,7.11,0,0,1,81.33,152Z"/><path class="cls-27" d="M75.79,144.73a12.89,12.89,0,0,0-4.38-5.35c1.27-1,4.18,1.26,4.22-2.58-3.56-.36-5.26-2-9.36.68a1.57,1.57,0,0,0-.61.36l-5,5c-1.78,1.78,1.94,7.35,5.5,9.5h0c1.31,3.2,2.79,3.15,0,5-1.35.88-1.54,2.32-.74,3,4.11-1.58,6.14-3.86,4.47-7.52a2.48,2.48,0,0,0,.45-.35l.64-.64c3,1.88,4.37,1.46,2.94,4.91-.75,1.73,0,3.24,1.24,3.44,3.26-4.56,3.57-8.35-1.67-10.86l1.38-1.4c3.48.26,4.5-.61,4.85,3.08.15,1.88,1.52,2.87,2.71,2.46C83.19,148,81.67,144.45,75.79,144.73Z"/><path class="cls-19" d="M69.85,138.18l1.56,1.2c1.27-1,4.18,1.26,4.22-2.58C74.69,139.45,71.77,137.71,69.85,138.18Z"/><path class="cls-19" d="M80,147.59c-1-1.76-3.12-1.05-4.68-1.57l-.47,2c3.48.26,4.5-.61,4.85,3.08.15,1.88,1.52,2.87,2.71,2.46C80,152.29,81.08,149.46,80,147.59Z"/><path class="cls-19" d="M68.42,152.68a6.53,6.53,0,0,1-.31-.66,3.37,3.37,0,0,1-.3-1.43,10.9,10.9,0,0,1-5.35-5.85s0,0,0-.05c-.19-.45-.36-.9-.53-1.37s-.26-.79-.37-1.2a.61.61,0,0,1,0-.11l-.15.15-.68.68-.22.27-.1.21a2.47,2.47,0,0,0-.08,1.37c.41,2.41,3.2,6,5.9,7.65,1.31,3.2,2.79,3.15,0,5-1.35.88-1.54,2.32-.74,3,.57-2.39,3.67-2.95,3.71-5a5,5,0,0,0-.4-2C68.63,153.18,68.52,152.93,68.42,152.68Z"/><path class="cls-19" d="M75.63,153.41a7.83,7.83,0,0,0-2.36-1.67c-.54-.29-1.09-.57-1.6-.9L71,151.91c3,1.88,4.37,1.46,2.94,4.91-.75,1.73,0,3.24,1.24,3.44a2.91,2.91,0,0,1-.17-2C75.38,156.44,76.55,154.48,75.63,153.41Z"/><path class="cls-22" d="M66.3,146.53a1,1,0,1,0,.6,1.26A1,1,0,0,0,66.3,146.53Z"/><path class="cls-22" d="M71,141.81a.63.63,0,0,0-.79.38.62.62,0,0,0,1.17.42A.62.62,0,0,0,71,141.81Z"/><path class="cls-22" d="M72.91,146.14a.67.67,0,1,0,.41.85A.67.67,0,0,0,72.91,146.14Z"/><path class="cls-22" d="M66.4,139.34a.27.27,0,1,0,.16.35A.27.27,0,0,0,66.4,139.34Z"/><path class="cls-22" d="M64.11,142.39a.42.42,0,1,0-.28.8.42.42,0,1,0,.28-.8Z"/><path class="cls-24" d="M69.75,153.8a5.63,5.63,0,0,1,.58,2.62,5.23,5.23,0,0,0-.42-3.52C69.78,153,69.89,153.72,69.75,153.8Z"/><path class="cls-24" d="M75.79,144.73c-.54-1.58-2.61-4.41-5.94-6.55-.32,0,5.22,5.78,5.77,7.45,5.57-.26,7.23,2.86,6.76,7.93l.07,0C83.19,148,81.67,144.45,75.79,144.73Z"/><path class="cls-24" d="M75.47,137.7c0,.13,0,.26,0,.37a3.93,3.93,0,0,0,.17-1.27c-3.56-.36-5.26-2-9.36.68a1.57,1.57,0,0,0-.61.36L64.55,139C71.26,136.16,68.63,137,75.47,137.7Z"/><path class="cls-24" d="M66.18,157.38A2.35,2.35,0,0,0,65,159.46a2.82,2.82,0,0,1,1-1.18c1.41-1,1.73-1.42,1.53-2.05A5.55,5.55,0,0,1,66.18,157.38Z"/><path class="cls-24" d="M73.51,149.4l-.16.9c3.08,1.48,4.24,3.39,4,5.65C78,153.43,77.18,151.14,73.51,149.4Z"/><path class="cls-24" d="M73.64,158.09c0-.12.09-.24.14-.37a6,6,0,0,0,.57-2c-.1.32-.23.69-.41,1.12A3.44,3.44,0,0,0,73.64,158.09Z"/></g><g id="g590"><path d="M108.93,137.25a4.77,4.77,0,0,0,1,.64h0a3.84,3.84,0,0,0,2.24.32,3,3,0,0,0,1.89-1.09,2.44,2.44,0,0,0,.39-.64l.32-.72-.48-.6c-2-2.41-4-4-6.18-4.35s-4.11.38-6.15,2.49a11.11,11.11,0,0,0-2.6-.46h0c-.37,0-.74,0-1.13,0,.85-1.08,1.07-2.36-.91-4.25l-.84-.81-.87.76a20.29,20.29,0,0,1-1.88,1.4c-2,1.4-3,2.21-3.71,6.18a6.86,6.86,0,0,0,.37,1.37h0l.22,7h0a2.84,2.84,0,0,0,.1.65h0c.38,1.31.47,2.31,2.27,2.88a16.91,16.91,0,0,0,5.33.66,15.55,15.55,0,0,0,2.93-.37,14.23,14.23,0,0,0,2,.54c.55.12.7.16.51,1.36v0a4.49,4.49,0,0,0-.06,1.09,3.44,3.44,0,0,0,.73,1.92,2.74,2.74,0,0,0,1.71,1,3.07,3.07,0,0,0,.68,0l.79-.07.29-.73a10.23,10.23,0,0,0,.9-6h0A5.23,5.23,0,0,0,106,144l.59-.2c1.07-.37,1.44-.49,2.17,1.1h0a4.87,4.87,0,0,0,.63,1.07,4,4,0,0,0,1.84,1.34,3.06,3.06,0,0,0,2.19-.08h0a3.2,3.2,0,0,0,.63-.38l.62-.48-.15-.77c-.6-3-1.66-5.38-3.37-6.71a6.27,6.27,0,0,0-5.34-1.06l.5-.52C107.18,136.43,107.48,136.12,108.93,137.25Zm-5.11,9.14c-.25,0-.55-.12-.87-.21l.18-.58.77.26a4.09,4.09,0,0,1,1.89,1.17A6.19,6.19,0,0,0,103.82,146.39Zm-.94-8.67.08,2,.05,1.79,1.67-.65c2.24-.87,3.83-.77,4.92.08a7.2,7.2,0,0,1,2.13,3.85,1.72,1.72,0,0,1-.33-.33,2.46,2.46,0,0,1-.31-.52v0c-1.68-3.72-2.63-3.4-5.33-2.46-.5.17-1.1.38-1.74.54l-1,.26,0,1,0,.9v.12h0l0,.11-.2.89-1.87.52a11.74,11.74,0,0,1-2.72.38,7.13,7.13,0,0,1-3.22-.59c-1-.31-1.75-.7-1.86-1.12h0v0l-.15-6.2h0v0l0-.06.08-.16,0-.16c.57-3,.47-4.71,2-5.79l.92-.64a.52.52,0,0,1-.12.18l-.39.37h0a5.58,5.58,0,0,0-1.33,3.16l-.11,1.62,1.6-.28c1.16-.21,2.32-1.12,3.45-1h0a7.57,7.57,0,0,1,2.6.57l.87.4.63-.73c1.59-1.86,3-2.55,4.42-2.31a7.14,7.14,0,0,1,3.7,2.4,1.32,1.32,0,0,1-.44-.12h0a2.38,2.38,0,0,1-.51-.32h0c-3.25-2.53-4-1.8-6,.31-.32.33-.7.72-1.2,1.18l-.43.4Z"/><path class="cls-28" d="M109.72,136.25c1.47,1.18,3.13.86,3.64-.29-3.57-4.36-7.16-5.66-11-1.16-1.76-.76-4.42,0-6.81.36-1.59-1.86,3.69-3,.92-5.68-2.7,2.34-5,2.49-5.91,7.28a1.43,1.43,0,0,0-.15.7l.22,7c.09,2.51,6.69,3.61,10.7,2.49,3.24,1.23,4.21.12,3.68,3.45-.28,1.59.64,2.7,1.71,2.62,1.66-4.08,1.38-7.12-2.42-8.41a2.57,2.57,0,0,0,.05-.57l0-.9c3.41-.89,4.06-2.18,5.59,1.22.75,1.72,2.36,2.22,3.35,1.45-1.08-5.5-3.63-8.33-9.06-6.22l-.06-2C106.73,135.32,106.79,134,109.72,136.25Z"/><path class="cls-13" d="M104.36,144.68v.16a2.57,2.57,0,0,1-.05.57c2.24.76,3.26,2.13,3.38,4C107.83,147.18,106.88,145.55,104.36,144.68Z"/><path class="cls-13" d="M105,150.45a3.34,3.34,0,0,0,0,.94l0-.18a7.07,7.07,0,0,0,.12-1.69C105.12,149.79,105.08,150.09,105,150.45Z"/><path class="cls-13" d="M97.26,131.38a1.89,1.89,0,0,0-.77-1.9c-2.7,2.34-5,2.49-5.91,7.28a1.43,1.43,0,0,0-.15.7V138a1.73,1.73,0,0,1,.14-.44c.89-4.79,3.21-4.94,5.91-7.28A2.52,2.52,0,0,1,97.26,131.38Z"/><path class="cls-13" d="M104.36,143.94h0l0,.48c0-.11,0-.22,0-.33Z"/><path class="cls-13" d="M102.38,134.8c-1.76-.76-4.42,0-6.81.36a1.4,1.4,0,0,1-.23-.35,1,1,0,0,0,.23,1.11c2.39-.34,5.05-1.12,6.81-.37,3.72-4.38,7.23-3.27,10.71.83a1.51,1.51,0,0,0,.27-.42C109.79,131.6,106.2,130.3,102.38,134.8Z"/><path class="cls-13" d="M104.22,139.64l0-1.23,0,0,.06,2c5.21-2,7.77.49,8.92,5.56l.14-.09C112.2,140.36,109.65,137.53,104.22,139.64Z"/><path class="cls-29" d="M95.57,135.16c-1-2.19,3.69-3,.92-5.68,1.28,2.5-2.24,2.69-2.88,6,2.66,1.3,5.14,3.39,2.87,6.89C99.31,140.25,98.18,137,95.57,135.16Z"/><path class="cls-29" d="M107.37,133.65c-2-.5-2.9,1.55-4.34,2.33l1.13,1.7c2.57-2.36,2.63-3.7,5.56-1.43,1.47,1.18,3.13.86,3.64-.29C110.8,136.85,109.44,134.17,107.37,133.65Z"/><path class="cls-29" d="M105.61,146.92a5,5,0,0,0-1.71-1.06c-.26-.08-.52-.16-.77-.26s-.46-.14-.69-.22a3.47,3.47,0,0,1-1.25-.76,10.84,10.84,0,0,1-7.92-.11l-.06,0c-.45-.16-.9-.35-1.35-.55s-.76-.35-1.14-.54a.53.53,0,0,0-.1-.06v.21l0,1,.06.35a.6.6,0,0,0,.08.21,2.42,2.42,0,0,0,.93,1c2,1.36,6.58,1.79,9.62.94,3.24,1.23,4.21.12,3.68,3.45-.28,1.59.64,2.7,1.71,2.63C105.39,151,107.1,148.38,105.61,146.92Z"/><path class="cls-29" d="M111.68,144.58c-1-1.48-1.67-3.68-3.08-3.74a8.09,8.09,0,0,0-2.84.58c-.57.19-1.15.4-1.74.54l.32,1.23c3.41-.89,4.06-2.18,5.59,1.22.75,1.72,2.36,2.22,3.35,1.45A2.87,2.87,0,0,1,111.68,144.58Z"/><polygon class="cls-29" points="100.71 145.85 101.91 146.17 100.97 137.54 100.71 145.85"/></g><g id="g608"><g id="g610"><g id="g612"><path class="cls-9" d="M47.79,159.37a4.55,4.55,0,1,0-9,1.06l.81,6.86a4.55,4.55,0,0,0,9-1.07Z"/><path class="cls-30" d="M47.79,159.37a4.55,4.55,0,1,0-9,1.06l.81,6.86a4.55,4.55,0,0,0,9-1.07Z"/></g><path class="cls-19" d="M42.77,166.91,42,160.06a4.55,4.55,0,0,1,2.42-4.57,4.78,4.78,0,0,0-1.65-.11,4.56,4.56,0,0,0-4,5.05l.81,6.86a4.55,4.55,0,0,0,5,4,4.42,4.42,0,0,0,1.58-.49A4.52,4.52,0,0,1,42.77,166.91Z"/><path class="cls-22" d="M43.67,160.08a.41.41,0,0,0,.09.81.41.41,0,1,0-.09-.81Z"/><path class="cls-22" d="M40.61,161.56a.35.35,0,0,0-.3.39.35.35,0,0,0,.69-.08A.34.34,0,0,0,40.61,161.56Z"/><path class="cls-22" d="M46,157.88a.17.17,0,0,0-.15.2.17.17,0,0,0,.34,0A.18.18,0,0,0,46,157.88Z"/></g><path d="M49.71,152l0-.13,0-.11c-1.48-3.55-4.67-3.21-8.28-2.5s-6.94,1.59-6.87,5.42v.07l1,12.85.23,3,2-2.21,1.5-1.65,1,.77,1.17.9.71-1.29.87-1.57,1.28.73,1.19.67L46,165.7l.07-.13L48,167.06l1.89,1.46.15-2.38,0-.27.13.09,2.6,1.89-.61-3.15Zm-1.9,9.1-.15,2.3v.18l-1.26-1-1.24-1-.68,1.4-.16.32-1.22-.7L42,162l-.62,1.12-.78,1.4L39.8,164l-.92-.71-.79.86-.29.33L37,154.56c0-2.53,2.49-2.35,4.83-2.81s4.36-1.46,5.4.87L49.06,162Z"/><path class="cls-31" d="M35.76,154.66l1,12.84L39,165,41,166.46l1.5-2.69,2.39,1.37.75-1.53,3.15,2.44.16-2.57,2,1.45-2.45-12.68C46,146.3,35.63,147.79,35.76,154.66Z"/><path class="cls-7" d="M35.76,154.66l1,12.84L39,165l1.14.87-.93-11.73A5.71,5.71,0,0,1,43,148.56C39.47,148.29,35.68,150.49,35.76,154.66Z"/><path class="cls-8" d="M42.08,148.54a6.22,6.22,0,0,1,5.65,3.71l2.33,12.05.86.63-2.45-12.68A6.36,6.36,0,0,0,42.08,148.54Z"/></g><g id="g702"><g id="g704"><path d="M123.51,92.49a13.16,13.16,0,0,0-17.38-1.13,21.77,21.77,0,0,1,1.5,3.6,9.51,9.51,0,0,1,13.25.16h0a9.5,9.5,0,0,1,0,13.41h0a9.52,9.52,0,0,1-11.74,1.32,39.2,39.2,0,0,1-.54,3.93,13.18,13.18,0,0,0,14.91-2.63h0a13.22,13.22,0,0,0,0-18.67Z"/><path class="cls-30" d="M114.18,90.48A11.27,11.27,0,0,0,107,93.09a35.2,35.2,0,0,1,2.34,13.16,40.46,40.46,0,0,1-.38,5.62,11.34,11.34,0,1,0,5.27-21.39Z"/><path class="cls-19" d="M108.17,96.81a55.11,55.11,0,0,1,.77,14.86,10.69,10.69,0,0,0,1.27.07,9.92,9.92,0,0,0,9.92-9.92C120.13,94.83,113.62,93.54,108.17,96.81Z"/><path class="cls-24" d="M114.18,90.48A11.27,11.27,0,0,0,107,93.09c.07.18.15.37.22.57a11.35,11.35,0,0,1,16.61,14.21,11.35,11.35,0,0,0-9.6-17.39Z"/></g><g id="g714"><path d="M118.6,74.35c-.73-16.07-10.69-27.11-23.45-32.43a48,48,0,0,0-17.81-3.61,45,45,0,0,0-17.79,3.36C47.23,46.83,37.62,57.93,36.64,75.61c-.35,6.12.93,11.37,2.2,16.65a57.92,57.92,0,0,1,2.21,14.16,10.52,10.52,0,0,0,3.21,7.67h0a19.91,19.91,0,0,0,8.65,4.62h0a135.54,135.54,0,0,0,24.74,4.39c7.42.6,14.42.43,19.33-.92l1.22-.33h0c8.27-2.25,22.33-6.07,20.08-15.78-1.77-7.67-1.16-12.37-.48-17.65A74.78,74.78,0,0,0,118.6,74.35Zm-4,32.58c1.43,6.18-10.42,9.4-17.41,11.29h0l-1.22.34c-4.44,1.22-11,1.35-18,.78a131.28,131.28,0,0,1-24-4.26,16.23,16.23,0,0,1-7-3.66,6.9,6.9,0,0,1-2.11-5c0-5.49-1.16-10.29-2.31-15-1.22-5-2.43-10-2.12-15.56.9-16,9.53-26,20.6-30.67A41.26,41.26,0,0,1,77.3,42.07,44,44,0,0,1,93.71,45.4c11.5,4.8,20.47,14.71,21.12,29.1A70.62,70.62,0,0,1,114.08,88C113.35,93.61,112.71,98.62,114.62,106.93Z"/><path class="cls-32" d="M116.71,74.43c-2-43.45-75.43-48.26-78.19,1.28-.62,11.14,4.42,19.55,4.42,30.71,0,5.77,4.94,8.91,10.48,10.49,13,3.7,33,6.25,43.06,3.47,7.37-2,21.91-5.48,20-13.86C113.32,92.89,117.35,88.39,116.71,74.43Z"/><path class="cls-24" d="M116.71,74.43c-1-23.13-22.35-35.31-42.48-34.17,18.51,1,37.15,13,39.45,34.17,1.51,14-2.23,18.46,1.76,32.09,2.47,8.38-11.86,11.83-19.1,13.86a40.84,40.84,0,0,1-10.41,1.18,42.18,42.18,0,0,0,10.55-1.18c7.37-2,21.91-5.48,20-13.86C113.32,92.89,117.35,88.39,116.71,74.43Z"/><path class="cls-19" d="M51,104.56c-6-19.88,26.56-41.7-.31-55.28-6.8,5.85-11.52,14.58-12.17,26.43-.62,11.14,4.42,19.55,4.42,30.71,0,5.77,4.94,8.91,10.48,10.49,13,3.7,33,6.25,43.06,3.47,5.26-1.45,14.17-3.62,18.13-7.79C96.2,121.33,55.9,120.76,51,104.56Z"/><g id="g724"><path d="M30.86,92.49h0a13.19,13.19,0,0,0,0,18.67h0a13.21,13.21,0,0,0,14.93,2.63,36.47,36.47,0,0,1-.55-3.93,9.54,9.54,0,0,1-11.75-1.32h0a9.52,9.52,0,0,1,0-13.41h0A9.51,9.51,0,0,1,46.74,95a22.66,22.66,0,0,1,1.51-3.6,13.17,13.17,0,0,0-17.39,1.13Z"/><path class="cls-30" d="M40.2,90.48a11.35,11.35,0,1,0,0,22.69,11.22,11.22,0,0,0,5.26-1.3,42.1,42.1,0,0,1-.37-5.62,34.79,34.79,0,0,1,2.35-13.16A11.32,11.32,0,0,0,40.2,90.48Z"/><path class="cls-19" d="M34.25,101.82a9.92,9.92,0,0,0,9.92,9.92,10.41,10.41,0,0,0,1.26-.07,55.11,55.11,0,0,1,.78-14.86C40.75,93.54,34.25,94.83,34.25,101.82Z"/><path class="cls-24" d="M28.85,101.82a11.27,11.27,0,0,0,1.75,6.05A11.34,11.34,0,0,1,47.21,93.66c.07-.2.15-.39.23-.57a11.35,11.35,0,0,0-18.59,8.73Z"/></g><circle class="cls-24" cx="66.71" cy="98.38" r="14.16" transform="translate(-1.13 0.78) rotate(-0.66)"/><circle class="cls-22" cx="67.16" cy="97.93" r="13.7" transform="translate(-49.58 76.18) rotate(-45)"/><g id="g738"><path class="cls-33" d="M68.32,86.78a10,10,0,1,0,10,10A10,10,0,0,0,68.32,86.78Z"/><path class="cls-34" d="M68.32,86.78a10,10,0,1,0,10,10A10,10,0,0,0,68.32,86.78Z"/></g><path class="cls-35" d="M69.93,90.4a6.37,6.37,0,1,0,6.37,6.37A6.37,6.37,0,0,0,69.93,90.4Z"/><path class="cls-34" d="M65.86,88.51a4.67,4.67,0,1,0,4.67,4.67A4.67,4.67,0,0,0,65.86,88.51Z"/><path class="cls-34" d="M73.17,100a1.73,1.73,0,1,0,1.73,1.73A1.74,1.74,0,0,0,73.17,100Z"/><ellipse class="cls-24" cx="106.85" cy="100.87" rx="7.6" ry="10.38"/><ellipse class="cls-22" cx="106.66" cy="100.54" rx="7.36" ry="10.05"/><g id="g754"><g id="g756"><path class="cls-33" d="M105.6,92.36c-3,0-5.37,3.28-5.37,7.33s2.4,7.32,5.37,7.32,5.36-3.28,5.36-7.32S108.56,92.36,105.6,92.36Z"/><path class="cls-34" d="M105.6,92.36c-3,0-5.37,3.28-5.37,7.33s2.4,7.32,5.37,7.32,5.36-3.28,5.36-7.32S108.56,92.36,105.6,92.36Z"/></g><ellipse class="cls-35" cx="106.46" cy="99.69" rx="3.42" ry="4.66"/><ellipse class="cls-34" cx="104.28" cy="97.05" rx="2.5" ry="3.41"/><path class="cls-34" d="M108.21,102c-.52,0-.94.57-.94,1.27s.42,1.27.94,1.27.93-.57.93-1.27S108.72,102,108.21,102Z"/></g><path class="cls-24" d="M100.11,81.56c-2.61,1.12-1.69,8.21-.83,8.71.51.31,1.76-1.73,3.59-2.59,1.17-.55,3.11.16,3.52-.29C107.43,86.23,102.72,80.44,100.11,81.56Z"/><path class="cls-24" d="M82.24,75C78.63,72.61,69.87,79.72,71,81.16c.5.65,3.58.83,5.52,2.27,2.39,1.76,3.75,4.77,5,4.6C83.71,87.74,85.86,77.35,82.24,75Z"/><path class="cls-24" d="M65.17,119.57,70.39,118c10.92-4.92,21.06-5.67,30,0h4.28C94,107.61,78.74,108.57,65.17,119.57Z"/><path class="cls-22" d="M65.17,119.58q2.73.47,5.49.87c10.27-4.63,21.07-6.4,29.46-1.07,1.54-.41,3-.88,4.54-1.39C93.48,108.44,79.68,109.18,65.17,119.58Z"/><path class="cls-36" d="M68.67,120.15c11.55,2,22.5,2.14,32.39-1C94.1,111.71,77.66,111,68.67,120.15Z"/><path class="cls-37" d="M72.54,118H98.35A22.38,22.38,0,0,0,72.54,118Z"/><g id="g780"><path d="M76.48,124.29a9.46,9.46,0,0,0,18.92,0v-5.67H76.48ZM78,120.12H93.9v4.17a8,8,0,0,1-15.93,0Z"/><path class="cls-38" d="M77.23,124.29a8.71,8.71,0,1,0,17.41,0v-4.92H77.23Z"/><path class="cls-39" d="M85.94,119.37a24.1,24.1,0,0,1,.54,8.81,18.17,18.17,0,0,0,1.25-8.81Z"/><path class="cls-40" d="M85.94,131.46a8.18,8.18,0,0,1-8.17-8.16v1.12a8.17,8.17,0,0,0,16.33,0V123.3A8.18,8.18,0,0,1,85.94,131.46Z"/><circle class="cls-39" cx="80.01" cy="121.31" r="0.31"/><path class="cls-39" d="M84.85,122.6a.27.27,0,1,0,.26.26A.27.27,0,0,0,84.85,122.6Z"/><path class="cls-39" d="M82.16,125.92a.49.49,0,0,0-.48.49.49.49,0,0,0,1,0A.49.49,0,0,0,82.16,125.92Z"/><path class="cls-39" d="M86.26,128.49a.2.2,0,0,0-.2.2.2.2,0,0,0,.2.21.21.21,0,0,0,.21-.21A.2.2,0,0,0,86.26,128.49Z"/><path class="cls-39" d="M89.93,127.27a.16.16,0,0,0-.16.16.17.17,0,0,0,.16.17.17.17,0,0,0,.17-.17A.16.16,0,0,0,89.93,127.27Z"/><path class="cls-39" d="M91.51,122.84a.26.26,0,1,0,.26.26A.26.26,0,0,0,91.51,122.84Z"/><path class="cls-36" d="M93.31,120.93a0,0,0,0,0,0,0,0,0,0,1,0,0-.08A0,0,0,0,0,93.31,120.93Z"/><circle class="cls-39" cx="90.44" cy="120.69" r="0.26"/><path class="cls-39" d="M92.24,125.48a.15.15,0,0,0-.15.15.15.15,0,0,0,.3,0A.15.15,0,0,0,92.24,125.48Z"/><circle class="cls-39" cx="80.11" cy="123.4" r="0.22"/><path class="cls-39" d="M80,126.63a.17.17,0,0,0-.17.17A.18.18,0,0,0,80,127a.17.17,0,0,0,.17-.17A.16.16,0,0,0,80,126.63Z"/><circle class="cls-39" cx="84.17" cy="129.62" r="0.32"/></g><path d="M89.87,114.73c-.8-.12-1.6-.22-2.33-.26v-.28l-.72-.09a14.57,14.57,0,0,0-3.73,0,24.79,24.79,0,0,0-4.28.92l-.65.19,0,.54-3.24,1-.63.2.32,3.9,4.11.73.12,1.29,8.78,1.63,0-2.73,3.6-.32-.13.67,6.82-1,.32-3.9c-1.63-.6-3.32-1.27-5-1.81A29.22,29.22,0,0,0,89.87,114.73Zm6.47,5-3.17.47.11-.54-7.34.66,0,2.23-5.52-1-.12-1.3-4.09-.73-.11-1.28,3.24-1L80,117l0-.51a22.82,22.82,0,0,1,3.33-.66,14.1,14.1,0,0,1,2.58-.09v.43h.83a20.18,20.18,0,0,1,2.9.27,26.83,26.83,0,0,1,3.16.68l3.68,1.35Z"/><g id="g816"><polygon class="cls-41" points="75.23 117.61 75.45 120.2 79.57 120.93 79.11 116.36 75.23 117.61"/><polygon class="cls-34" points="77.39 117.54 76.99 120.22 79.06 120.64 78.86 116.93 77.39 117.54"/></g><g id="g822"><polygon class="cls-41" points="92.14 121.18 97.13 120.44 97.34 117.85 93.04 116.27 92.14 121.18"/><polygon class="cls-34" points="93.75 116.91 93.54 120.61 95.61 120.19 95.22 117.51 93.75 116.91"/></g><g id="g828"><path class="cls-41" d="M79.06,115.84l.6,6.38,7.15,1.32-.11-8.61A19.37,19.37,0,0,0,79.06,115.84Z"/><path class="cls-34" d="M82.84,115.44,81.7,122l4,1,.11-7.65A10.2,10.2,0,0,0,82.84,115.44Z"/></g><g id="g834"><path class="cls-41" d="M86.69,121.07l5.56-.5.79-4.3a26.68,26.68,0,0,0-6.49-1Z"/><path class="cls-34" d="M87.56,120.75l2-.22.35-4.79a14.67,14.67,0,0,0-2.68-.3Z"/></g><ellipse class="cls-42" cx="112.11" cy="85.36" rx="2.07" ry="3"/><path class="cls-42" d="M108.71,79.22c-.75,0-1.37,1-1.37,2.23s.62,2.23,1.37,2.23,1.37-1,1.37-2.23S109.47,79.22,108.71,79.22Z"/><path class="cls-42" d="M60.28,76.46a3.59,3.59,0,1,0,3.59,3.59A3.59,3.59,0,0,0,60.28,76.46Z"/><path class="cls-42" d="M66.65,79.49a1.18,1.18,0,1,0,1.17,1.17A1.17,1.17,0,0,0,66.65,79.49Z"/><path class="cls-42" d="M111.68,110.91c-.52,0-.94.65-.94,1.46s.42,1.46.94,1.46.94-.65.94-1.46S112.2,110.91,111.68,110.91Z"/><path class="cls-42" d="M109.39,113.63c-.4,0-.72.48-.72,1.08s.32,1.08.72,1.08.73-.48.73-1.08S109.8,113.63,109.39,113.63Z"/><path class="cls-42" d="M62.05,113.53a2.17,2.17,0,1,0,2.17,2.17A2.17,2.17,0,0,0,62.05,113.53Z"/><path class="cls-42" d="M57.7,113.64a1.06,1.06,0,1,0,1,1A1.05,1.05,0,0,0,57.7,113.64Z"/><circle class="cls-42" cx="53.05" cy="110.05" r="1.37"/><path class="cls-42" d="M92.07,89.62a1.84,1.84,0,1,0,1.84,1.84A1.84,1.84,0,0,0,92.07,89.62Z"/><path class="cls-42" d="M96,94.54a.83.83,0,1,0,.82.83A.83.83,0,0,0,96,94.54Z"/><path class="cls-42" d="M91.21,85.48a.43.43,0,0,0-.43.43.43.43,0,0,0,.86,0A.43.43,0,0,0,91.21,85.48Z"/></g><path d="M125.71,63.43l5.66-4.54-4.13-1.07,6.88-1.55L120.4,51.83l5.54-3.47-11.06-2.62L117,43.11l-1.83-.93c-7.38-3.78-18-6.38-29.38-6.66a74.08,74.08,0,0,0-26.87,4.13l2-13.94L51.18,41.56H33.91L45,47.18l-10.56,5,8,1.16a24,24,0,0,0-5.1,12.41A78.29,78.29,0,0,0,37.66,88L38,89.67l1.83-.43a6.36,6.36,0,0,1,2.78.26,3,3,0,0,1,1.17.52l5,22,2.38-27.84,5.38,7.64L54,73.35l7.76,3.25-2.2-10L64.76,70,63,65.25l-.23-.6L73.9,74.13l-1.4-6.62,8.69,5.29,1-5.13L92.54,74.9l.79-5.43,9.76,5.68,1.1-5.89,6.1,6.94L111.38,72l3.44,3.81,1.46,22.56,5.24-20.16,7.37,3.07L124,70.84l11.33-4.44ZM119.55,69l2.72,5.84-3-1.25L118.14,78V74.5l-8.43-9.38-1.07,4.19L102.19,62l-1.5,8-9.93-5.78-.72,5-10-7-1.11,5.47L67.66,60.69l1,4.63L55.12,53.82l2.26,6,.71,1.88L54.6,59.42l2.57,11.65-7.18-3,1.43,10.77-2.84-4L46.93,89.07a4.85,4.85,0,0,0-3.37-2.73,10.46,10.46,0,0,0-2.89-.47,72.92,72.92,0,0,1,0-19.64c.77-5.37,2.74-9.83,6.42-12.72l3-2.39-4.36-.64,6.76-3.21L47.8,44.88H53l2.36-3.83-.55,3.85,2.7-1.14a68.62,68.62,0,0,1,28.19-4.92c9.94.24,19.25,2.31,26.11,5.39L109,47.75l8.46,2-4.84,3,9,2.91-8.48,1.92,11,2.83-5.39,4.32,6.57,2Z"/><path class="cls-43" d="M122.23,64.1l5.52-4.44-7.57-1.95L127.86,56,116.5,52.31l5.19-3.25-9.76-2.31,2.51-3.1C101.05,36.8,76.52,34,56.9,42.23l1.26-8.85L52.1,43.22H40.85l7.9,4-8.66,4.1L46,52.2c-8.13,6.37-9.23,20-6.75,33.92,2-.49,5.8.43,6.09,2.06.84,4.66,1.93,6.54,2.76,11.19l1.71-19.91L54,85.3,52,70.69l7.47,3.15L57.1,63l4.33,2.81-2.49-6.6L71.27,69.72,70.08,64.1l10,6.05,1.08-5.29L91.29,72l.76-5.19,9.84,5.74,1.3-6.92,6.28,7.13,1.08-4.22,5.93,6.6V91l3.91-15.07,5.19,2.17-3.78-8.12,8.54-3.35Z"/><path class="cls-44" d="M120.25,48.71c-9.55,2.7-22.7,4.35-37.23,4.35s-27.79-1.67-37.34-4.38L40.1,51.33,46,52.2,45,53.79C54.52,57.61,68.25,60,83,60s28.26-2.43,37.85-6.32l-4.37-1.41,5.19-3.25Z"/><path class="cls-45" d="M118.16,72.67l-1.68-2.78-5.68-9.45-3.13,5.85-5.85-8.77L98.9,65.75l-9.09-7.69L88.3,65.31,82.12,54.06,77,62.82l-10-9.19-.22,6.48L56.7,52.27,54.53,50.6l.29,2.13.79,6.09L53.34,57,55,66.5l-1.62-1-5.2-3.33,1.31,11.19L48.14,71.5,47,69.86l-.86,6.38L41.84,64.32,43.77,80l-3.4-1,1,2.9-2.73-.17.66,4.41a6,6,0,0,1,5.35,1l1,2.31,2.51,9.93,1-11.4.16-1.82.57-6.69,3.49,5,.61.87-.61-4.65L52,70.69l1.33.57,6.14,2.58L57.1,63l4.33,2.81-2.49-6.6L71.27,69.72,70.08,64.1l10,6.05,1.08-5.29L91.29,72l.76-5.19,9.84,5.74,1.3-6.92,6.28,7.13,1.08-4.22,5.93,6.6V91l1-3.84,2.91-11.23,5.19,2.17-5.15-5.72Z"/><polygon class="cls-45" points="121.8 69.94 130.34 66.59 117.96 67.21 121.8 69.94"/><polygon class="cls-45" points="122.23 64.1 127.75 59.66 116.48 62.77 122.23 64.1"/><polygon class="cls-45" points="112.81 56.17 114.79 56.59 120.18 57.71 127.86 55.98 114.47 56.15 112.81 56.17"/><polygon class="cls-45" points="116.5 52.3 121.69 49.06 108.92 49.9 116.5 52.3"/><path class="cls-45" d="M46,52.2a18.55,18.55,0,0,0-5,6.32l7.31-8.41-8.29,1.22Z"/><polygon class="cls-45" points="48.75 47.23 51.46 46.01 40.85 43.22 48.75 47.23"/><polygon class="cls-45" points="111.93 46.75 114.44 43.65 106.02 45.85 111.93 46.75"/><path class="cls-44" d="M114.44,43.65c-13.31-6.81-37.63-9.66-57.2-1.56l-.34,2.45c19-8,42.57-5.62,56.2.76Z"/><polygon class="cls-44" points="111.93 46.75 106.02 45.85 109.43 47.69 121.69 49.06 111.93 46.75"/><polygon class="cls-44" points="40.09 51.34 43.81 51.88 48.75 49.53 46.4 48.34 40.09 51.34"/><polygon class="cls-44" points="52.1 43.22 40.85 43.22 52.1 45.53 58.16 33.38 52.1 43.22"/><polygon class="cls-44" points="116.5 54.61 127.86 55.98 118.93 53.1 116.5 54.61"/><polygon class="cls-44" points="117.78 65.03 130.34 66.59 116.48 62.77 117.78 65.03"/><polygon class="cls-44" points="119.03 67.98 125.58 78.06 121.8 69.94 119.03 67.98"/><polygon class="cls-44" points="127.75 59.66 112.81 56.17 116.72 59.36 127.75 59.66"/></g></g></svg>