<svg id="Layer_1" data-name="Layer 1" xmlns="http://www.w3.org/2000/svg" xmlns:xlink="http://www.w3.org/1999/xlink" viewBox="0 0 163.69 163.87"><defs><style>.cls-1,.cls-13,.cls-17,.cls-20,.cls-24,.cls-26,.cls-7{fill:none;}.cls-2{clip-path:url(#clip-path);}.cls-3{fill:#193030;}.cls-10,.cls-11,.cls-12,.cls-13,.cls-14,.cls-15,.cls-17,.cls-18,.cls-19,.cls-20,.cls-21,.cls-22,.cls-23,.cls-24,.cls-25,.cls-26,.cls-27,.cls-28,.cls-29,.cls-3,.cls-30,.cls-31,.cls-32,.cls-33,.cls-34,.cls-4,.cls-5,.cls-6,.cls-7,.cls-8,.cls-9{fill-rule:evenodd;}.cls-4{fill:#3c7575;}.cls-5{fill:#306161;}.cls-6{fill:#264747;}.cls-7{stroke:#280000;}.cls-13,.cls-17,.cls-20,.cls-24,.cls-26,.cls-7{stroke-miterlimit:22.93;stroke-width:4px;}.cls-8{fill:#4a0000;}.cls-9{fill:#600000;}.cls-10{opacity:0.2;}.cls-11{fill:#de4256;}.cls-12{fill:#e35b6a;}.cls-13{stroke:#999;}.cls-14{fill:#e6e6e6;}.cls-15,.cls-16{fill:#fff;}.cls-17{stroke:#284c4c;}.cls-18{fill:#458989;}.cls-19{fill:#3c7676;}.cls-20{stroke:#001644;}.cls-21{fill:#002063;}.cls-22{fill:#00297c;}.cls-23{fill:#326060;}.cls-24{stroke:#ffda77;}.cls-25{fill:#fff6df;}.cls-26{stroke:#000;}.cls-27{fill:#333;}.cls-28{fill:#1a1a1a;}.cls-29{fill:#ccc;}.cls-30{fill:#b3b3b3;}.cls-31{fill:#284c4c;}.cls-32{fill:#831925;}.cls-33{fill:#a01e2d;}.cls-34{fill:#bd2337;}</style><clipPath id="clip-path"><circle class="cls-1" cx="81.75" cy="81.94" r="81.94"/></clipPath></defs><g class="cls-2"><path class="cls-3" d="M91.24,136.7a6.18,6.18,0,0,0-11.41-.41l-3.12,6.83c-1.47,3.35,1.18,6,3.49,7l.07,0h0c2.09.92,6.42,1.31,7.71-2l3.09-6.76a6.15,6.15,0,0,0,.17-4.72Zm-2.39,3.7h0l-3.13,6.83,0,0c-.43.91-.75.42-1.63.75a3.71,3.71,0,0,1-4.79-2.2c-.34-.89-.77-.77-.34-1.71l3.12-6.83a3.74,3.74,0,0,1,2.09-1.94,3.79,3.79,0,0,1,2.86.1l.06,0A3.75,3.75,0,0,1,89,137.55h0A3.76,3.76,0,0,1,88.85,140.4Z"/><path class="cls-4" d="M87.52,134.35A5,5,0,0,0,81,136.79l-3.13,6.84a5,5,0,0,0,2.45,6.57h0a5,5,0,0,0,6.57-2.45L90,140.91A5,5,0,0,0,87.52,134.35Z"/><path class="cls-5" d="M87.52,134.35a4.91,4.91,0,0,0-1.74-.44,5,5,0,0,1,1,5.54l-3.12,6.84a5,5,0,0,1-4.83,2.88,4.94,4.94,0,0,0,8-1.42L90,140.91A5,5,0,0,0,87.52,134.35Z"/><path class="cls-6" d="M80.88,144.42a.69.69,0,0,0-.91.33.69.69,0,1,0,1.25.58A.68.68,0,0,0,80.88,144.42Z"/><path class="cls-6" d="M85,138.88a.47.47,0,0,0-.63.23.48.48,0,1,0,.87.4A.48.48,0,0,0,85,138.88Z"/><path class="cls-6" d="M87.65,141.46a.37.37,0,0,0-.5.19.38.38,0,1,0,.5-.19Z"/><path class="cls-6" d="M84.06,146.62a.51.51,0,1,0-.43.93.51.51,0,0,0,.43-.93Z"/><path class="cls-6" d="M83.06,135.94a.19.19,0,0,0,.09.26.19.19,0,0,0,.25-.1.18.18,0,0,0-.09-.25A.19.19,0,0,0,83.06,135.94Z"/><path class="cls-7" d="M82.62,129.17l-3.77,5.35,2.54-.84-.68,2.71,4.08-1.48.26,1.84,3-.61.64,3.29,2.52-.9,1.52,3.38,2.32-6C97.43,128.85,87.18,123.84,82.62,129.17Z"/><path class="cls-8" d="M82.62,129.17l-3.77,5.35,2.54-.84-.68,2.71,4.08-1.48.26,1.84,3-.61.64,3.29,2.52-.9,1.52,3.38,2.32-6C97.43,128.85,87.18,123.84,82.62,129.17Z"/><path class="cls-9" d="M81.8,130.33l-3,4.19,2.54-.84-.68,2.71,4.08-1.48.26,1.84,3-.61.64,3.29,2.52-.9,1.52,3.38,1.86-4.81a25.67,25.67,0,0,0-7.39-5A27.45,27.45,0,0,0,81.8,130.33Z"/><path class="cls-10" d="M89.5,127.17a6.23,6.23,0,0,1,2.07,7l-1.88,4.85,1.47-.52,1.52,3.38,2.32-6C96.48,131.62,93.27,128.09,89.5,127.17Z"/><path class="cls-3" d="M82.65,146.27a6.15,6.15,0,0,0-3.21-3.18,6.26,6.26,0,0,0-5,0l-12.77,5.57a6.3,6.3,0,0,0-3.44,3.66,6.18,6.18,0,0,0,.15,4.51h0A6.23,6.23,0,0,0,66.59,160l12.77-5.57a6.27,6.27,0,0,0,3.44-3.66,6.18,6.18,0,0,0-.15-4.51Zm-2.85,4.3a2.72,2.72,0,0,1-1.42,1.63l-12.76,5.57a2.71,2.71,0,0,1-2.16-.07,4.1,4.1,0,0,1-2.1-2.14h0a4.13,4.13,0,0,1-.15-3,2.75,2.75,0,0,1,1.42-1.63l12.76-5.57a2.71,2.71,0,0,1,2.16.07,4.1,4.1,0,0,1,2.1,2.14h0A4.1,4.1,0,0,1,79.8,150.57Z"/><path class="cls-3" d="M77.45,147.28c-2.6,1.14-4,3.7-3.12,5.72s3.71,2.75,6.32,1.61,4-3.7,3.12-5.72S80.06,146.14,77.45,147.28Z"/><path class="cls-4" d="M83,147.31a5,5,0,0,0-.32-1h0a5,5,0,0,0-6.53-2.56l-13.6,5.93A5,5,0,0,0,60,156.17h0a5,5,0,0,0,6.52,2.56l10.59-4.62a5.75,5.75,0,0,0,3.32-.43c2.54-1.11,3.88-3.65,3-5.68A3,3,0,0,0,83,147.31Z"/><path class="cls-5" d="M83.18,148c0,.08,0,.17,0,.26A5.32,5.32,0,0,1,79.93,152a6.18,6.18,0,0,1-2.17.51,5.42,5.42,0,0,1-1.15-.08l-2.12.92L66,157a5,5,0,0,1-6.46-2.42,5.19,5.19,0,0,0,.4,1.57,5,5,0,0,0,6.52,2.56l9.41-4.1,1.18-.52a5.75,5.75,0,0,0,3.32-.43q.39-.18.75-.39a4.57,4.57,0,0,0,2.41-4.82A3,3,0,0,0,83.18,148Z"/><path class="cls-11" d="M60,156.17h0a5,5,0,0,0,6.52,2.56c2.32-1,2.42-3.52,1.62-5.71C65.45,145.78,57.59,150.76,60,156.17Z"/><path class="cls-6" d="M77.52,149.4a.24.24,0,0,0-.12.32.24.24,0,0,0,.45-.19A.24.24,0,0,0,77.52,149.4Z"/><path class="cls-6" d="M80.52,149.67a.54.54,0,1,0,.71.27A.54.54,0,0,0,80.52,149.67Z"/><path class="cls-6" d="M76.21,146.28a.61.61,0,0,0-.31.8.61.61,0,1,0,.31-.8Z"/><path class="cls-6" d="M68.77,148.79a.61.61,0,1,0,.49,1.11.61.61,0,0,0,.31-.8A.6.6,0,0,0,68.77,148.79Z"/><path class="cls-6" d="M73.83,151.25a.61.61,0,1,0,.48,1.12.61.61,0,1,0-.48-1.12Z"/><path class="cls-12" d="M60.3,156h0a4.24,4.24,0,0,0,5.57,2.19c2-.86,2.07-3,1.38-4.88C65,147.12,58.27,151.37,60.3,156Z"/><path class="cls-11" d="M62.5,152a2.91,2.91,0,1,0,3.19,1.87A2.63,2.63,0,0,0,62.5,152Z"/><path class="cls-13" d="M32.83,162.84a1.27,1.27,0,0,0-.88-2.39l-10,3.67a1.27,1.27,0,0,0-.76,1.63,1.26,1.26,0,0,0,1.63.75Z"/><path class="cls-13" d="M34.29,166.84a1.27,1.27,0,0,0,.76-1.63,1.29,1.29,0,0,0-1.63-.76l-10,3.67a1.27,1.27,0,0,0,.88,2.39Z"/><path class="cls-13" d="M63.89,154.54a1,1,0,0,0-1.29-.6l-25.42,9.3L36,159.9a3.66,3.66,0,0,0-4.43-2.06l-10.91,2.41c-1.85.41-2.7,2.65-2.05,4.43l4.16,11.39a3.34,3.34,0,0,0,4.43,2.05l10-5a3.62,3.62,0,0,0,2.06-4.43l-1.32-3.6,25.42-9.3a1,1,0,0,0,.6-1.29ZM21.17,165.75a1.27,1.27,0,0,1,.76-1.63l10-3.67a1.27,1.27,0,0,1,.88,2.39l-10,3.66A1.26,1.26,0,0,1,21.17,165.75Zm1.47,4a1.28,1.28,0,0,1,.75-1.63l10-3.67a1.29,1.29,0,0,1,1.63.76,1.27,1.27,0,0,1-.76,1.63l-10,3.67A1.27,1.27,0,0,1,22.64,169.75Zm13.13,1.13-10,3.67a1.27,1.27,0,0,1-.87-2.38l10-3.67a1.28,1.28,0,0,1,1.63.76A1.26,1.26,0,0,1,35.77,170.88Z"/><path class="cls-14" d="M25.74,174.55a1.27,1.27,0,0,1-.87-2.38l5.45-2v-1.89l-6.05,2.22a1.27,1.27,0,0,1-.88-2.39l6.93-2.53v-1.84L22.8,166.5a1.26,1.26,0,0,1-1.63-.75,1.27,1.27,0,0,1,.76-1.63l8.39-3.07v-2.94l-9.71,2.14c-1.85.41-2.7,2.65-2.05,4.43l4.16,11.39a3.34,3.34,0,0,0,4.43,2.05l3.17-1.57v-3.67Z"/><path class="cls-14" d="M63.89,154.54a1,1,0,0,0-1.29-.6l-25.42,9.3L36,159.9a3.66,3.66,0,0,0-4.43-2.06l-1.2.27v2.94l1.63-.6a1.27,1.27,0,0,1,.88,2.39l-2.51.91v1.84l3.1-1.14a1.29,1.29,0,0,1,1.63.76,1.27,1.27,0,0,1-.76,1.63l-4,1.45v1.89l4.58-1.68a1.28,1.28,0,0,1,1.63.76,1.26,1.26,0,0,1-.76,1.62l-5.45,2v3.67l6.81-3.38a3.62,3.62,0,0,0,2.06-4.43l-1.32-3.6,25.42-9.3a1,1,0,0,0,.6-1.29Z"/><path class="cls-15" d="M23.68,175.51l-4-10.91a3.29,3.29,0,0,1,1.15-3.92h-.09c-1.7.37-2.45,2.49-1.83,4.2l4,10.9c.63,1.71,2.55,2.8,4.1,2l.14-.07A3.3,3.3,0,0,1,23.68,175.51Z"/><rect class="cls-16" x="36.88" y="159.79" width="27.01" height="0.5" transform="translate(-51.91 27.04) rotate(-20.09)"/><path class="cls-17" d="M109,123.78,97.21,124c-11.91.19-3,28.26-2.88,37.38a7.61,7.61,0,0,0,7.7,7.46l19.63-.31a7.6,7.6,0,0,0,7.46-7.7C129,151.68,120.87,123.59,109,123.78Z"/><path class="cls-18" d="M109,123.78,97.21,124c-11.91.19-3,28.26-2.88,37.38a7.61,7.61,0,0,0,7.7,7.46l19.63-.31a7.6,7.6,0,0,0,7.46-7.7C129,151.68,120.87,123.59,109,123.78Z"/><polygon class="cls-19" points="99.02 146.12 93.89 152.36 96.23 157.96 97.91 154.29 101.1 161.11 104.63 154.59 108.16 156.79 109.49 153.39 114.34 158.65 117.37 152.65 124.75 155.71 123.05 145.18 99.02 146.12"/><path class="cls-19" d="M111.45,124.16c7.23,8.31,11.75,25.63,11.86,32.43a7.59,7.59,0,0,1-7.46,7.69l-19.63.31a6.93,6.93,0,0,1-1.13-.07,7.62,7.62,0,0,0,6.94,4.29l19.63-.31a7.6,7.6,0,0,0,7.46-7.7C129,152.33,122,127.51,111.45,124.16Z"/><path class="cls-7" d="M108.92,123l-12.16.19c-8.69.14-6.69,14.62-4.7,26.46l.48-.93,2.53,3.52,2.51-3.33,2.16,7.25,3.58-7.23,3.21,2.1,1-2.27,4.29,5.47,4.3-7.25,7.65,4.39,1-5.24,2.11.58C123.45,135.41,117,122.86,108.92,123Z"/><path class="cls-8" d="M108.92,123l-12.16.19c-8.69.14-6.69,14.62-4.7,26.46l.48-.93,2.53,3.52,2.51-3.33,2.16,7.25,3.58-7.23,3.21,2.1,1-2.27,4.29,5.47,4.3-7.25,7.65,4.39,1-5.24,2.11.58C123.45,135.41,117,122.86,108.92,123Z"/><path class="cls-9" d="M112.15,123.61a68.09,68.09,0,0,1-8.34,1.21,64.23,64.23,0,0,1-11.08.05c-1.27,1.37-2,3.5-2.23,6.08a57.53,57.53,0,0,0,13.86.3,56.54,56.54,0,0,0,13.82-2.72A15.61,15.61,0,0,0,112.15,123.61Z"/><path class="cls-9" d="M106.51,136.68a67.15,67.15,0,0,1-16.12-.35c.11,2.39.4,4.95.76,7.52a67.91,67.91,0,0,0,16,.33c7.19-.61,13.53-2,17.57-3.74a62.45,62.45,0,0,0-3.08-6.6A68.87,68.87,0,0,1,106.51,136.68Z"/><path class="cls-9" d="M95.07,152.23l2.11-2.8c-1.56-.08-3-.2-4.39-.38Z"/><path class="cls-9" d="M97.74,149.46l2,6.69L103,149.5C101.19,149.54,99.42,149.53,97.74,149.46Z"/><polygon class="cls-9" points="92.06 149.64 92.39 149 91.94 148.94 92.06 149.64"/><path class="cls-9" d="M125.07,146.19l1.85.51-.32-1C126.11,145.85,125.6,146,125.07,146.19Z"/><path class="cls-9" d="M123.76,151.36l1-5.08a61,61,0,0,1-6.94,1.69Z"/><path class="cls-9" d="M107.92,149.25l3.89,5,3.44-5.81c-2,.32-4.21.58-6.44.77Z"/><path class="cls-9" d="M106.53,151l.75-1.72c-1.06.07-2.1.13-3.12.17Z"/><path class="cls-10" d="M108.92,123l-3.66.06a9,9,0,0,1,2.47.75c5.24,2.46,9.57,10,12.56,17.89.63,1.66,1.2,3.34,1.71,5l-.31-.09-1.8-.5-.55,2.74,3.26,1.86,1.16.67,1-5.24,1.49.41.62.17C123.45,135.41,117,122.86,108.92,123Z"/><path class="cls-20" d="M122.15,161.49a119.06,119.06,0,0,1-12.16.79,107.86,107.86,0,0,1-16.43-.89,11.41,11.41,0,0,0,.8,4.05c1.31,3.28,4.1,5.53,7.26,5.48l20.51-.32c4.35-.07,7.85-4.47,7.76-9.79,0-.21,0-.43,0-.66A70.59,70.59,0,0,1,122.15,161.49Z"/><path class="cls-21" d="M122.15,161.49a119.06,119.06,0,0,1-12.16.79,107.86,107.86,0,0,1-16.43-.89,11.41,11.41,0,0,0,.8,4.05c1.31,3.28,4.1,5.53,7.26,5.48l20.51-.32c4.35-.07,7.85-4.47,7.76-9.79,0-.21,0-.43,0-.66A70.59,70.59,0,0,1,122.15,161.49Z"/><path class="cls-22" d="M110,162.28a107.86,107.86,0,0,1-16.43-.89,11.31,11.31,0,0,0,.8,4,9.52,9.52,0,0,0,2.49,3.62l19.91-.31c3.72-.06,6.81-3.29,7.58-7.54l-2.19.29A119.06,119.06,0,0,1,110,162.28Z"/><path class="cls-23" d="M125,156.79a1,1,0,0,0-.95,1,1,1,0,0,0,1.92,0A1,1,0,0,0,125,156.79Z"/><path class="cls-23" d="M119.35,156.14a.3.3,0,0,0-.29.3.3.3,0,1,0,.59,0A.29.29,0,0,0,119.35,156.14Z"/><path class="cls-23" d="M118.83,152.1a.27.27,0,1,0,0,.53.26.26,0,0,0,.26-.27A.25.25,0,0,0,118.83,152.1Z"/><path class="cls-23" d="M115,158.45a0,0,0,0,0,0,0,0,0,0,0,0,0-.08A0,0,0,0,0,115,158.45Z"/><path class="cls-23" d="M107.23,157.79a.14.14,0,0,0-.14.14.14.14,0,0,0,.28,0A.14.14,0,0,0,107.23,157.79Z"/><path class="cls-23" d="M104.8,155.24a.25.25,0,0,0-.24.25.26.26,0,0,0,.25.24.24.24,0,0,0,.24-.25A.24.24,0,0,0,104.8,155.24Z"/><path class="cls-23" d="M96.44,157.76a.45.45,0,0,0-.45.45.46.46,0,0,0,.46.45.45.45,0,0,0,.44-.46A.44.44,0,0,0,96.44,157.76Z"/><path class="cls-23" d="M94.59,156.17a.11.11,0,0,0-.11.12.11.11,0,0,0,.11.11.11.11,0,0,0,.12-.11A.12.12,0,0,0,94.59,156.17Z"/><path class="cls-23" d="M105.48,158.49a.51.51,0,0,0-.5.51.5.5,0,0,0,.51.49A.49.49,0,0,0,106,159,.5.5,0,0,0,105.48,158.49Z"/><path class="cls-23" d="M112.65,159.63a.44.44,0,1,0,.44.43A.43.43,0,0,0,112.65,159.63Z"/><path class="cls-17" d="M116.72,93.53a11.36,11.36,0,1,0,12.68,9.87A11.35,11.35,0,0,0,116.72,93.53Z"/><path class="cls-18" d="M116.72,93.53a11.36,11.36,0,1,0,12.68,9.87A11.35,11.35,0,0,0,116.72,93.53Z"/><path class="cls-19" d="M113,95.44A9.94,9.94,0,1,0,124,104.07,9.93,9.93,0,0,0,113,95.44Z"/><path class="cls-17" d="M49.26,101.94A11.36,11.36,0,1,0,62,111.81,11.36,11.36,0,0,0,49.26,101.94Z"/><path class="cls-18" d="M49.26,101.94A11.36,11.36,0,1,0,62,111.81,11.36,11.36,0,0,0,49.26,101.94Z"/><path class="cls-19" d="M53.39,102.86a9.94,9.94,0,1,0,11.09,8.64A9.94,9.94,0,0,0,53.39,102.86Z"/><path class="cls-17" d="M113.87,68.43a10.54,10.54,0,0,0-11.73-9.12L51.55,65.62a10.53,10.53,0,0,0-9.13,11.72l5.2,41.7a10.54,10.54,0,0,0,11.73,9.13l50.59-6.31a10.54,10.54,0,0,0,9.13-11.73Z"/><path class="cls-18" d="M113.87,68.43a10.54,10.54,0,0,0-11.73-9.12L51.55,65.62a10.53,10.53,0,0,0-9.13,11.72l5.2,41.7a10.54,10.54,0,0,0,11.73,9.13l50.59-6.31a10.54,10.54,0,0,0,9.13-11.73Z"/><path class="cls-19" d="M43.39,85.1l.88,7.09a323.54,323.54,0,0,0,72.95,3.14l-.85-6.8A324.3,324.3,0,0,1,43.39,85.1Z"/><path class="cls-23" d="M57.24,99.8a11.18,11.18,0,1,0,12.48,9.71A11.17,11.17,0,0,0,57.24,99.8Z"/><path class="cls-19" d="M113.87,68.43a10.55,10.55,0,0,0-7.49-8.78,10.22,10.22,0,0,1,1.38,4l5.2,41.7a10.54,10.54,0,0,1-9.12,11.73l-50.6,6.3a10.23,10.23,0,0,1-4.25-.34,10.56,10.56,0,0,0,10.35,5.1l50.6-6.31a10.54,10.54,0,0,0,9.13-11.72Z"/><path class="cls-23" d="M97.57,93.73a12.66,12.66,0,1,0,14.13,11A12.65,12.65,0,0,0,97.57,93.73Z"/><path class="cls-17" d="M96.8,96.2a9.23,9.23,0,1,0,10.3,8A9.23,9.23,0,0,0,96.8,96.2Z"/><path class="cls-15" d="M96.8,96.2a9.23,9.23,0,1,0,10.3,8A9.23,9.23,0,0,0,96.8,96.2Z"/><path class="cls-14" d="M95.74,99.71a5.88,5.88,0,1,0,6.56,5.11A5.87,5.87,0,0,0,95.74,99.71Z"/><path class="cls-15" d="M99.25,97.51a4.31,4.31,0,1,0,4.81,3.74A4.32,4.32,0,0,0,99.25,97.51Z"/><path class="cls-15" d="M93.86,108.85a1.6,1.6,0,1,0,1.79,1.39A1.6,1.6,0,0,0,93.86,108.85Z"/><path class="cls-17" d="M58.71,102.53a7.49,7.49,0,1,0,8.36,6.5A7.49,7.49,0,0,0,58.71,102.53Z"/><path class="cls-15" d="M58.71,102.53a7.49,7.49,0,1,0,8.36,6.5A7.49,7.49,0,0,0,58.71,102.53Z"/><path class="cls-14" d="M57.85,105.37a4.78,4.78,0,1,0,5.33,4.15A4.77,4.77,0,0,0,57.85,105.37Z"/><path class="cls-15" d="M60.7,103.6a3.49,3.49,0,1,0,3.9,3A3.48,3.48,0,0,0,60.7,103.6Z"/><path class="cls-15" d="M56.33,112.79a1.3,1.3,0,1,0,1.45,1.13A1.3,1.3,0,0,0,56.33,112.79Z"/><path class="cls-19" d="M62.38,127.79l5.38-.67c8.08-6.67,18.13-7.17,29.47-3.68l4.8-.6C85.51,113.87,72.83,116.35,62.38,127.79Z"/><path class="cls-11" d="M67.76,127.12l29.47-3.68C87.36,117.67,75.66,119.07,67.76,127.12Z"/><path class="cls-12" d="M69,127l27-3.37A23.6,23.6,0,0,0,69,127Z"/><polygon class="cls-24" points="90.14 122.94 90.34 127.77 94.48 126.68 94.37 123.94 90.14 122.94"/><polygon class="cls-25" points="90.14 122.94 90.34 127.77 94.48 126.68 94.37 123.94 90.14 122.94"/><polygon class="cls-15" points="90.48 123.42 90.75 127.32 92.86 126.62 92.11 123.87 90.48 123.42"/><polygon class="cls-24" points="70.05 126.98 70.61 129.66 74.9 129.7 73.91 124.97 70.05 126.98"/><polygon class="cls-25" points="70.05 126.98 70.61 129.66 74.9 129.7 73.91 124.97 70.05 126.98"/><polygon class="cls-15" points="72.23 126.34 72.17 129.2 74.39 129.36 73.69 125.52 72.23 126.34"/><path class="cls-24" d="M80.39,122.74l.85,8.86,6.67-2.21-.2-6.75A16.76,16.76,0,0,0,80.39,122.74Z"/><path class="cls-25" d="M80.39,122.74l.85,8.86,6.67-2.21-.2-6.75A16.76,16.76,0,0,0,80.39,122.74Z"/><path class="cls-15" d="M80.59,123l1.11,8,4-1.6-2-6.7A11.26,11.26,0,0,0,80.59,123Z"/><path class="cls-23" d="M76.8,101.43a1.48,1.48,0,1,0,1.65,1.29A1.48,1.48,0,0,0,76.8,101.43Z"/><path class="cls-23" d="M76.28,114.36a1.33,1.33,0,0,0-1.14,1.47,1.32,1.32,0,1,0,1.14-1.47Z"/><path class="cls-26" d="M158.07,93.38,136.6,86.62a4.35,4.35,0,0,0-5.44,2.83h0A4.35,4.35,0,0,0,134,94.9l21.47,6.75a4.34,4.34,0,0,0,5.44-2.83h0A4.35,4.35,0,0,0,158.07,93.38Z"/><path class="cls-27" d="M158.07,93.38,136.6,86.62a4.35,4.35,0,0,0-5.44,2.83h0A4.35,4.35,0,0,0,134,94.9l21.47,6.75a4.34,4.34,0,0,0,5.44-2.83h0A4.35,4.35,0,0,0,158.07,93.38Z"/><path class="cls-28" d="M156.52,98.3l-21.47-6.76a4.36,4.36,0,0,1-3-3.65,4.34,4.34,0,0,0,2,7l21.47,6.75a4.34,4.34,0,0,0,5.44-2.83,4.23,4.23,0,0,0,.17-1.79A4.33,4.33,0,0,1,156.52,98.3Z"/><path class="cls-13" d="M133.12,87.34l-12.93-4.08A2.62,2.62,0,0,0,116.92,85h0a2.61,2.61,0,0,0,1.7,3.28l12.94,4.07a2.61,2.61,0,0,0,3.27-1.71h0A2.61,2.61,0,0,0,133.12,87.34Z"/><path class="cls-14" d="M133.12,87.34l-12.93-4.08A2.62,2.62,0,0,0,116.92,85h0a2.61,2.61,0,0,0,1.7,3.28l12.94,4.07a2.61,2.61,0,0,0,3.27-1.71h0A2.61,2.61,0,0,0,133.12,87.34Z"/><path class="cls-29" d="M132.19,90.3l-12.93-4.07a2.61,2.61,0,0,1-1.81-2.2,2.49,2.49,0,0,0-.53.94,2.61,2.61,0,0,0,1.7,3.28l12.94,4.07a2.62,2.62,0,0,0,3.27-1.71,2.66,2.66,0,0,0,.11-1.08A2.61,2.61,0,0,1,132.19,90.3Z"/><path class="cls-13" d="M112,40,54.66,36.65A11.87,11.87,0,0,0,42.15,47.77l-2,35a302.12,302.12,0,0,0,81.05,3.43l2-33.76A11.87,11.87,0,0,0,112,40Z"/><path class="cls-14" d="M112,40,54.66,36.65A11.87,11.87,0,0,0,42.15,47.77l-2,35a302.12,302.12,0,0,0,81.05,3.43l2-33.76A11.87,11.87,0,0,0,112,40Z"/><path class="cls-15" d="M70.56,37.57c-22.93.32-21,27.08-22.08,43.71l20,2.23c-.22-15.6.24-43.14,11.17-45.41l-4.37-.25Z"/><path class="cls-15" d="M71,83.29l6.87.76C77.64,68.46,78.1,40.92,89,38.64l-4.36-.25C71.31,37.57,72.17,65.59,71,83.29Z"/><path class="cls-29" d="M116,40.91c3.19,12.37,3.82,25.62-2.39,41.14l7.67,3.07,1.9-32.64A11.88,11.88,0,0,0,116,40.91Z"/><path class="cls-15" d="M102.37,39.42,98,39.17c10.59,3.52,7.85,30.92,5.82,46.39l6.92,0C111.63,67.89,115.72,40.15,102.37,39.42Z"/><path class="cls-30" d="M109.38,39.83,55.61,36.7c-1.13.29-1.76.63-1.78,1-.11,1.81,12.61,4,28.41,5s28.68.19,28.78-1.62C111.05,40.65,110.46,40.24,109.38,39.83Z"/><path class="cls-29" d="M42.15,47.77,40.28,80l2.81.46,2.39.38a74,74,0,0,1-1.74-11.59,80.66,80.66,0,0,1,4.22-31A11.85,11.85,0,0,0,42.15,47.77Z"/><path class="cls-13" d="M37.28,79.47l-.4,6.9A325,325,0,0,0,124,90.06l.4-6.89A324.63,324.63,0,0,1,37.28,79.47Z"/><path class="cls-14" d="M37.28,79.47l-.4,6.9A325,325,0,0,0,124,90.06l.4-6.89A324.63,324.63,0,0,1,37.28,79.47Z"/><path class="cls-15" d="M65.43,90.17q6.51.58,13.08.9l.4-6.9q-6.57-.3-13.08-.89Z"/><path class="cls-15" d="M59.07,89.55c1.47.16,2.94.3,4.41.44l.4-6.89c-1.47-.13-2.94-.29-4.41-.44Z"/><path class="cls-15" d="M95.14,91.43q3.1,0,6.23-.08l.4-6.89q-3.12.08-6.23.08Z"/><path class="cls-29" d="M43.09,80.46,40.28,80l-3-.53-.4,6.9q2.9.51,5.81,1,4.19.68,8.39,1.23l.23-4,.17-2.9c-2-.27-4-.56-6-.85Z"/><path class="cls-29" d="M118.48,83.65c-1.93.15-3.85.27-5.77.38l-4.1.2-.17,2.92-.23,4c1.37-.06,2.73-.12,4.1-.2,1.92-.11,3.84-.23,5.77-.38s3.92-.3,5.89-.48l.4-6.89-3,.26Z"/><path class="cls-17" d="M126,132.53a5,5,0,0,0-7-.59h0a5,5,0,0,0-.58,7l4.85,5.74a5,5,0,0,0,7,.58h0a5,5,0,0,0,.59-7Z"/><path class="cls-18" d="M126,132.53a5,5,0,0,0-7-.59h0a5,5,0,0,0-.58,7l4.85,5.74a5,5,0,0,0,7,.58h0a5,5,0,0,0,.59-7Z"/><path class="cls-19" d="M126,132.53a5,5,0,0,0-7-.59,4.84,4.84,0,0,0-1.13,1.39,5,5,0,0,1,5.43,1.47l4.85,5.74a5,5,0,0,1,.55,5.6,4.84,4.84,0,0,0,1.55-.89,5,5,0,0,0,.59-7Z"/><path class="cls-23" d="M125.27,142.23a.69.69,0,1,0,.89,1.05.67.67,0,0,0,.08-1A.69.69,0,0,0,125.27,142.23Z"/><path class="cls-23" d="M122,136.15a.48.48,0,1,0,.67.06A.49.49,0,0,0,122,136.15Z"/><path class="cls-23" d="M125.48,134.85a.38.38,0,1,0,.54,0A.38.38,0,0,0,125.48,134.85Z"/><path class="cls-23" d="M128.62,140.3a.51.51,0,0,0-.06.73.52.52,0,0,0,.72.06.51.51,0,0,0-.66-.79Z"/><path class="cls-23" d="M118.56,136.39a.2.2,0,0,0,0,.27.19.19,0,0,0,.27,0,.18.18,0,0,0,0-.27A.19.19,0,0,0,118.56,136.39Z"/><path class="cls-7" d="M112.23,134.17l3.22,5.69.32-2.66,2.17,1.77.4-4.32,1.77.55.71-2.93,3.25.82.26-2.66,3.71.07-4.43-4.65C118.24,120.63,109.34,127.76,112.23,134.17Z"/><path class="cls-8" d="M112.23,134.17l3.22,5.69.32-2.66,2.17,1.77.4-4.32,1.77.55.71-2.93,3.25.82.26-2.66,3.71.07-4.43-4.65C118.24,120.63,109.34,127.76,112.23,134.17Z"/><path class="cls-9" d="M116.84,131.33a28.69,28.69,0,0,0-3.92,4.07l2.53,4.46.32-2.66,2.17,1.77.4-4.32,1.77.55.71-2.93,3.25.82.26-2.66,3.71.07-3.57-3.74A25.61,25.61,0,0,0,116.84,131.33Z"/><path class="cls-10" d="M113.35,127.09a6.23,6.23,0,0,1,7.24,1.12l3.59,3.77.15-1.55,3.71.07-4.43-4.65C120.35,122.68,115.78,124.07,113.35,127.09Z"/><path class="cls-31" d="M130.33,142.34a6.15,6.15,0,0,0-4.51.14,6.3,6.3,0,0,0-3.44,3.67l-4.73,13.1a6.27,6.27,0,0,0,.29,5,6.16,6.16,0,0,0,3.38,3h0a6.12,6.12,0,0,0,4.52-.14,6.29,6.29,0,0,0,3.43-3.67l4.73-13.1a6.25,6.25,0,0,0-.29-5A6.14,6.14,0,0,0,130.33,142.34Zm1.37,7.18L127,162.62a2.68,2.68,0,0,1-1.54,1.52,4.1,4.1,0,0,1-3,.05h0a4.06,4.06,0,0,1-2.27-2,2.68,2.68,0,0,1-.21-2.15l4.73-13.1a2.72,2.72,0,0,1,1.54-1.51,4.07,4.07,0,0,1,3-.05h0a4.06,4.06,0,0,1,2.27,2A2.69,2.69,0,0,1,131.7,149.52Z"/><path class="cls-31" d="M133,143.33c-2.08-.75-4.54.81-5.51,3.48s-.07,5.45,2,6.2,4.55-.81,5.51-3.48S135.08,144.08,133,143.33Z"/><path class="cls-18" d="M132.1,143a3.62,3.62,0,0,0-.79-.18,5.24,5.24,0,0,0-1-.48h0a5,5,0,0,0-6.35,3l-5,14a5,5,0,0,0,3,6.34h0a5,5,0,0,0,6.34-3l3.93-10.86a5.77,5.77,0,0,0,2-2.71C135.1,146.47,134.18,143.75,132.1,143Z"/><path class="cls-23" d="M124.72,161.2a.9.9,0,0,0-1.16.54.92.92,0,0,0,.55,1.16.9.9,0,0,0,.61-1.7Z"/><path class="cls-23" d="M127.13,155.21a.31.31,0,1,0-.22.59.31.31,0,1,0,.22-.59Z"/><path class="cls-23" d="M124.54,153.94a.47.47,0,1,0-.32.89.47.47,0,0,0,.32-.89Z"/><path class="cls-23" d="M129.4,148.07a.25.25,0,0,0-.32.15.24.24,0,0,0,.15.31.23.23,0,0,0,.31-.15A.24.24,0,0,0,129.4,148.07Z"/><path class="cls-23" d="M132,145.9a.54.54,0,1,0-.37,1,.54.54,0,0,0,.37-1Z"/><path class="cls-23" d="M126.69,146.66a.61.61,0,1,0-.41,1.14.62.62,0,0,0,.78-.36A.61.61,0,0,0,126.69,146.66Z"/><path class="cls-23" d="M122.05,156.45a.74.74,0,1,0,.45,1A.74.74,0,0,0,122.05,156.45Z"/><path class="cls-19" d="M132.54,143.2a3.05,3.05,0,0,0-.6-.06l.17.21a5.31,5.31,0,0,1,.49,4.89,6.09,6.09,0,0,1-1.13,1.92,5.12,5.12,0,0,1-.84.78l-.79,2.17-3.14,8.7a5,5,0,0,1-6.19,3,4.94,4.94,0,0,0,7.75-2.18l3.49-9.65.44-1.21a5.77,5.77,0,0,0,2-2.71,6.21,6.21,0,0,0,.24-.81A4.56,4.56,0,0,0,132.54,143.2Z"/><path class="cls-26" d="M91,162.81C77.24,151.34,59.76,149.63,52,159s-2.9,26.22,10.88,37.68,31.27,13.17,39,3.82S104.81,174.27,91,162.81Z"/><path class="cls-32" d="M91,162.81C77.24,151.34,59.76,149.63,52,159s-2.9,26.22,10.88,37.68,31.27,13.17,39,3.82S104.81,174.27,91,162.81Z"/><path class="cls-33" d="M85.49,170.76c-10.84-9-24.61-10.31-30.77-2.91s-2.36,20.71,8.48,29.72S87.81,207.88,94,200.48,96.33,179.77,85.49,170.76Z"/><path class="cls-33" d="M57.29,164.81l.36.49A15.56,15.56,0,0,1,65,163.08L65.86,153a20.44,20.44,0,0,0-9.47,2.39Z"/><path class="cls-33" d="M69.55,163.29a31.17,31.17,0,0,1,11.82,4.49l5.33-8.18A40.31,40.31,0,0,0,71,153.31Z"/><path class="cls-34" d="M70.92,167.47a28.1,28.1,0,0,1,9.07,4l1.38-3.66a31.17,31.17,0,0,0-11.82-4.49Z"/><path class="cls-34" d="M57.65,165.3l2.25,3a14.53,14.53,0,0,1,6.88-1.4L65,163.08A15.56,15.56,0,0,0,57.65,165.3Z"/><path class="cls-31" d="M139.11,178.27a3.07,3.07,0,0,0-1.25-1.79h0a3.79,3.79,0,0,0-2.14-.65,4.4,4.4,0,0,0-1.18.13h0c-1.3.29-1.35.12-1.52-.47a17.45,17.45,0,0,0-.73-2.11,16.84,16.84,0,0,0,.2-3.21,18.31,18.31,0,0,0-1.1-5.75c-.74-1.92-1.84-1.94-3.3-2.26h0a2.88,2.88,0,0,0-.72-.06h0l-7.68.26h0a8.18,8.18,0,0,0-1.52-.3c-4.25,1.11-5.07,2.17-6.44,4.48a24.19,24.19,0,0,1-1.39,2.14l-.77,1,.94.85c2.2,2,3.57,1.69,4.68.7,0,.41.07.82.12,1.22h0a12.9,12.9,0,0,0,.68,2.8c-2.15,2.37-2.8,4.65-2.27,6.87s2.4,4.43,5.17,6.4l.69.49.75-.4a2.83,2.83,0,0,0,.68-.47h0a3.37,3.37,0,0,0,1-2.13,4.25,4.25,0,0,0-.51-2.42h0a5.86,5.86,0,0,0-.78-1.1h0c-1.33-1.5-1-1.85-.11-2.85l.53-.58a6.82,6.82,0,0,0,1.53,5.73c1.57,1.77,4.19,2.75,7.54,3.19l.85.11.47-.71a3.17,3.17,0,0,0,.36-.71h0a3.4,3.4,0,0,0-.07-2.39,4.24,4.24,0,0,0-1.59-1.91,5.49,5.49,0,0,0-1.21-.61h0c-1.78-.67-1.67-1.09-1.34-2.27l.18-.65a5.65,5.65,0,0,0,4,2.79h0a11.07,11.07,0,0,0,6.49-1.4l.76-.36,0-.86a2.94,2.94,0,0,0-.09-.74Zm-11-2.65-.12,0h0l-.12,0h0l-1,0-1.1,0-.21,1.09c-.14.71-.32,1.38-.48,1.94-.82,3-1.11,4.05,3.06,5.61h0a2.5,2.5,0,0,1,.59.29,1.77,1.77,0,0,1,.38.33,7.81,7.81,0,0,1-4.34-2c-1-1.12-1.21-2.84-.43-5.33l.59-1.87-2,.06-2.14.07-.64,0-.39.49c-.47.58-.86,1-1.2,1.38-2.15,2.37-2.9,3.19.08,6.55h0a2.32,2.32,0,0,1,.38.54h0a1.91,1.91,0,0,1,.17.47,7.74,7.74,0,0,1-2.88-3.86c-.35-1.47.28-3.11,2.19-5l.76-.73-.5-.92a8.29,8.29,0,0,1-.81-2.79h0a16.5,16.5,0,0,1,0-3.85l.18-1.75-1.74.23A3.68,3.68,0,0,0,114,168.4h0l-.37.44a.59.59,0,0,1-.2.15c.24-.37.44-.72.64-1.05,1.06-1.78,2-1.83,5.22-2.65l.18,0,.17-.11.06,0h0l7.68-.25h0c.45.1.93.86,1.34,1.95a7.84,7.84,0,0,1,.87,3.45,13.43,13.43,0,0,1-.22,3l-.44,2.07Zm1.68.79-.34-.82.62-.24c.11.34.21.65.28.93a7,7,0,0,0,.83,2.1A4.49,4.49,0,0,1,129.78,176.41Z"/><path class="cls-18" d="M134.85,177.31c-3.59.81-2.45-.32-4-3.76h0c.94-4.44-.73-11.53-3.47-11.45l-7.68.26a1.51,1.51,0,0,0-.74.21c-5.15,1.3-5.15,3.84-7.51,6.94,3.09,2.83,3.43-1.19,5.2-1.43a14,14,0,0,0,1,7.45c-4.61,4.48-2.95,8.3,2.05,11.86,1.22-.64,1.44-2.47.06-4-2.68-3-1.22-3.19,1.16-6.14l2.13-.07c-1.9,6,1.35,8.61,7.41,9.41.77-1.14.11-2.86-1.82-3.54-3.8-1.43-2.44-2.22-1.72-6l1,0a2.44,2.44,0,0,0,.62-.1c1.67,4.05,5,4.14,9.32,2.05C137.83,177.81,136.55,176.89,134.85,177.31Z"/><path class="cls-19" d="M134.85,177.31c-3.59.81-2.45-.32-4-3.76.71-3.36-.08-8.26-1.69-10.39a2.79,2.79,0,0,0-1.15-.95l-.24-.07-.39,0-1,0h-.23a.61.61,0,0,0,.07.1c.23.4.46.8.67,1.2s.49,1,.7,1.43a.14.14,0,0,0,0,.06,11.79,11.79,0,0,1,.68,8.61,3.77,3.77,0,0,1,.91,1.31,7,7,0,0,1,.3.73c.12.26.23.54.34.82a5.38,5.38,0,0,0,1.27,1.78c1.69,1.52,4.43-.53,6.77.8C137.83,177.81,136.55,176.89,134.85,177.31Z"/></g></svg>