<svg id="Layer_1" data-name="Layer 1" xmlns="http://www.w3.org/2000/svg" viewBox="0 0 244.2 100.2"><defs><style>.cls-1{fill:#242127;}.cls-1,.cls-11,.cls-2,.cls-3,.cls-4,.cls-6,.cls-8,.cls-9{fill-rule:evenodd;}.cls-2{fill:#84758f;}.cls-3{fill:#504757;}.cls-4{fill:#615669;}.cls-5,.cls-6{fill:#a398ac;}.cls-7,.cls-8{fill:#2d2530;}.cls-10,.cls-9{fill:#514257;}.cls-11{fill:#413646;}</style></defs><path class="cls-1" d="M19.24,0H226.57V1.61a16,16,0,0,0,4.69,11.33,16,16,0,0,0,11.33,4.69h1.61V100.2q-122.1,0-244.2,0V17.63H1.61a16,16,0,0,0,11.33-4.69A16,16,0,0,0,17.63,1.61V0ZM223.41,3.22H20.79a19.18,19.18,0,0,1-5.57,12,19.2,19.2,0,0,1-12,5.57V97H241V20.79a19.18,19.18,0,0,1-12-5.57A19.18,19.18,0,0,1,223.41,3.22Z"/><path class="cls-2" d="M19.24,1.61H225a17.63,17.63,0,0,0,17.63,17.63V98.59H1.61V19.24A17.63,17.63,0,0,0,19.24,1.61Z"/><path class="cls-3" d="M26.2,12.11H218c0,9,6.87,16.2,15.35,16.2V83.48H10.85V28.31C19.33,28.31,26.2,21.06,26.2,12.11Z"/><path class="cls-4" d="M29.83,19.87H214.37c0,8.37,6.34,15.15,14.16,15.15V83.48H15.67V35C23.49,35,29.83,28.24,29.83,19.87Z"/><rect class="cls-5" x="10.85" y="83.48" width="222.5" height="3.67"/><path class="cls-6" d="M241.1,97.12H3.1V20.53A17.36,17.36,0,0,0,20.37,3.08H223.83A17.36,17.36,0,0,0,241.1,20.53V97.12ZM225,1.61H19.24A17.63,17.63,0,0,1,1.61,19.24V98.59h241V19.24A17.63,17.63,0,0,1,225,1.61Z"/><polygon class="cls-1" points="212.12 1.61 209.66 1.61 208.71 3.08 197.48 7.6 183.94 6.6 179.95 3.08 179.95 1.61 177.91 1.61 178.59 3.08 183.37 7.18 182.26 10.9 184.26 7.44 197.69 8.7 210.5 3.08 212.12 1.61"/><polygon class="cls-1" points="29.5 52.26 15.67 51.58 10.85 45.7 5.05 44.23 10.85 47.11 15.67 53.62 29.5 52.26"/><polygon class="cls-1" points="242.59 39.74 242.59 38.28 241.1 38.28 237.46 40.61 234.29 45.57 233.35 46.02 228.53 45.15 224.4 44.68 215.84 48.61 224.6 45.47 228.53 45.99 233.35 47.2 234.94 46.57 238.04 51.66 241.1 54.6 242.59 55.91 242.59 54.02 241.1 53.49 238.62 50.82 235.73 45.99 238.3 41.27 241.1 39.22 242.59 39.74"/><polygon class="cls-1" points="226.76 98.59 224.66 98.59 225.03 97.12 219.72 90.07 226.76 97.12 226.76 98.59"/><polygon class="cls-1" points="42.61 30.41 46.18 19.87 41.88 12.11 44.29 6.16 43.35 12.11 48.49 19.87 42.61 30.41"/><polygon class="cls-6" points="222.86 96.19 222.51 97.12 225.03 97.12 219.72 90.07 222.86 96.19"/><polygon class="cls-6" points="239.18 42.08 241.1 41.14 241.1 39.22 238.3 41.27 235.73 45.99 239.18 42.08"/><polygon class="cls-6" points="238.04 51.66 234.94 46.57 233.35 47.2 233.35 48.12 234.51 47.65 237.4 52.74 241.1 56.57 241.1 54.6 238.04 51.66"/><polygon class="cls-6" points="197.89 9.49 213.79 3.08 210.5 3.08 197.69 8.7 184.26 7.44 182.26 10.9 184.82 8.29 197.89 9.49"/><polygon class="cls-6" points="183.37 7.18 178.59 3.08 175.69 3.08 182.25 7.13 182.81 9.04 183.37 7.18"/><polygon class="cls-6" points="10.85 47.11 5.05 44.23 10.85 48.62 10.85 47.11"/><polygon class="cls-2" points="224.49 46.44 228.53 46.97 228.53 45.99 224.6 45.47 215.84 48.61 224.49 46.44"/><polygon class="cls-2" points="15.67 55.2 29.5 52.26 15.67 53.62 15.67 55.2"/><circle class="cls-7" cx="25.65" cy="43.52" r="3.36"/><path class="cls-8" d="M73.3,41.84A2.31,2.31,0,1,1,71,44.15,2.3,2.3,0,0,1,73.3,41.84Z"/><path class="cls-8" d="M132.5,36.38A3.57,3.57,0,1,1,128.93,40,3.57,3.57,0,0,1,132.5,36.38Z"/><path class="cls-8" d="M191.06,35.54a1.26,1.26,0,0,1,0,2.52,1.26,1.26,0,1,1,0-2.52Z"/><circle class="cls-7" cx="198.62" cy="55.69" r="2.1"/><path class="cls-8" d="M169.44,61.15a.63.63,0,1,1-.63.63A.63.63,0,0,1,169.44,61.15Z"/><path class="cls-8" d="M96,69.54a.63.63,0,0,1,.63.63.63.63,0,0,1-.63.63.63.63,0,0,1-.63-.63A.64.64,0,0,1,96,69.54Z"/><path class="cls-8" d="M40.56,70.38a2.73,2.73,0,1,1-2.73,2.73A2.74,2.74,0,0,1,40.56,70.38Z"/><path class="cls-8" d="M59.87,52.75a2.31,2.31,0,1,1-2.31,2.31A2.31,2.31,0,0,1,59.87,52.75Z"/><path class="cls-8" d="M105.84,27.56a1.68,1.68,0,1,1-1.68,1.68A1.68,1.68,0,0,1,105.84,27.56Z"/><path class="cls-9" d="M56.3,7.15A1.31,1.31,0,1,1,55,8.46,1.31,1.31,0,0,1,56.3,7.15Z"/><path class="cls-9" d="M78.76,5.57a1.32,1.32,0,1,1-1.31,1.32A1.32,1.32,0,0,1,78.76,5.57Z"/><path class="cls-9" d="M107,4.73a1.74,1.74,0,1,1-1.73,1.74A1.73,1.73,0,0,1,107,4.73Z"/><path class="cls-9" d="M149.71,6.73a1.52,1.52,0,1,1-1.52,1.52A1.52,1.52,0,0,1,149.71,6.73Z"/><path class="cls-9" d="M164.09,6.94a.47.47,0,0,1,0,.94.47.47,0,1,1,0-.94Z"/><path class="cls-9" d="M226.35,18.38a1.23,1.23,0,1,1-1.23,1.23A1.23,1.23,0,0,1,226.35,18.38Z"/><path class="cls-9" d="M235,22.63a1.21,1.21,0,1,1-1.2,1.2A1.21,1.21,0,0,1,235,22.63Z"/><path class="cls-9" d="M222.62,15.7a.61.61,0,1,1-.6.6A.6.6,0,0,1,222.62,15.7Z"/><path class="cls-9" d="M237.37,71a1.6,1.6,0,1,1-1.6,1.6A1.6,1.6,0,0,1,237.37,71Z"/><path class="cls-9" d="M237.16,64.4a.76.76,0,1,1-.76.76A.76.76,0,0,1,237.16,64.4Z"/><path class="cls-9" d="M237.92,77.63a1,1,0,1,1-1,1A1,1,0,0,1,237.92,77.63Z"/><path class="cls-9" d="M17.33,90.59a2.76,2.76,0,1,1-2.75,2.75A2.75,2.75,0,0,1,17.33,90.59Z"/><path class="cls-9" d="M28.43,91a1.63,1.63,0,1,1-1.62,1.62A1.62,1.62,0,0,1,28.43,91Z"/><circle class="cls-10" cx="41.19" cy="91.32" r="0.89"/><path class="cls-9" d="M6.76,88.59a1.26,1.26,0,0,1,0,2.52,1.26,1.26,0,1,1,0-2.52Z"/><path class="cls-9" d="M6.08,33.33a1.42,1.42,0,1,1-1.42,1.42A1.42,1.42,0,0,1,6.08,33.33Z"/><path class="cls-9" d="M9.75,25a1.21,1.21,0,1,1-1.21,1.21A1.21,1.21,0,0,1,9.75,25Z"/><polygon class="cls-3" points="36.15 38.06 208.05 38.06 214.24 42.42 214.24 73.79 208.05 78.15 36.15 78.15 29.96 73.79 29.96 42.42 36.15 38.06"/><polygon class="cls-11" points="36.15 42.21 208.05 42.21 214.24 46.57 214.24 42.62 214.24 42.42 210.4 39.71 208.05 38.06 36.15 38.06 29.96 42.42 29.96 46.57 36.15 42.21"/><polygon class="cls-2" points="208.05 78.15 36.15 78.15 29.96 73.79 29.96 46.57 29.96 43.59 29.92 43.62 28.49 75.25 34.68 79.62 209.52 79.62 215.71 75.25 214.28 44.16 214.24 44.13 214.24 46.57 214.24 73.79 208.05 78.15"/></svg>