<svg width="95" height="30" viewBox="0 0 95 30" fill="none" xmlns="http://www.w3.org/2000/svg">
<g clip-path="url(#clip0)">
<path fill-rule="evenodd" clip-rule="evenodd" d="M4.81493 0H90.5847L95 4.36328V25.6663L90.5847 30.0296H4.41535L0 25.6663V4.36328L4.41535 0H4.81493ZM89.7855 1.90523H5.21451L1.92797 5.15301V24.8963L5.21451 28.1441H89.7855L93.072 24.8963V5.15301L89.7855 1.90523Z" fill="#242127"/>
<path fill-rule="evenodd" clip-rule="evenodd" d="M4.81493 0.947754H90.1851L94.041 4.75822V25.2419L90.1851 29.0524H4.81493L0.958984 25.2419V4.75822L4.81493 0.947754Z" fill="#72667C"/>
<path fill-rule="evenodd" clip-rule="evenodd" d="M6.4532 3.1687H88.5468L91.7934 6.37699V23.6228L88.5468 26.8311H6.4532L3.20662 23.6228V6.37699L6.4532 3.1687Z" fill="#84758F"/>
<path fill-rule="evenodd" clip-rule="evenodd" d="M0.958984 18.6969V16.7423H3.20662L5.43427 15.3208L3.20662 17.8874L0.958984 18.6969Z" fill="#242127"/>
<path fill-rule="evenodd" clip-rule="evenodd" d="M3.99579 7.00878L7.23238 3.84985H87.9974L91.0442 6.60404L91.7934 12.8034V6.37699L88.5468 3.1687H6.4532L3.20662 6.37699V12.8034L3.99579 7.00878Z" fill="#A398AC"/>
<path fill-rule="evenodd" clip-rule="evenodd" d="M0.958984 4.75822V11.1057L1.45846 5.1827L5.32439 1.37224H89.8854L93.5515 4.99514L94.041 11.471V4.75822L90.1851 0.947754H4.81493L0.958984 4.75822Z" fill="#84758F"/>
<path fill-rule="evenodd" clip-rule="evenodd" d="M87.2981 0.947754H84.8607L83.7219 2.66542L87.2981 0.947754Z" fill="#242127"/>
<path fill-rule="evenodd" clip-rule="evenodd" d="M86.469 29.0523H84.2713L84.0515 26.8312L86.0594 23.2577L84.8707 19.5657L87.408 22.8529L91.7934 23.6229L94.041 25.2419L92.4926 26.7621L91.0242 24.3732L87.0284 23.6525L85.1803 26.8312L86.469 29.0523Z" fill="#242127"/>
<path fill-rule="evenodd" clip-rule="evenodd" d="M87.0284 23.6526L85.3302 26.5746L87.358 24.0376L90.6746 24.314L87.0284 23.6526Z" fill="#A398AC"/>
<path fill-rule="evenodd" clip-rule="evenodd" d="M17.0221 0.947754H15.7434L16.5626 2.4285L19.5694 3.0208L20.3286 3.85002L19.8291 5.49859L20.9979 3.85002L20.5883 3.00106L22.8759 2.10274L23.2056 0.947754H22.0967L21.857 1.82633L20.1987 2.48773L17.3018 1.93492L17.0221 0.947754Z" fill="#242127"/>
<path fill-rule="evenodd" clip-rule="evenodd" d="M10.3391 8.0848C10.6157 8.07693 10.8884 8.15093 11.1222 8.29728C11.3559 8.44364 11.5401 8.65568 11.6511 8.9062C11.762 9.15672 11.7947 9.43429 11.7449 9.70329C11.6951 9.97229 11.5651 10.2205 11.3716 10.4159C11.1781 10.6114 10.9299 10.7453 10.6588 10.8004C10.3878 10.8555 10.1063 10.8293 9.85038 10.7252C9.59449 10.6211 9.37592 10.4438 9.22272 10.2161C9.06952 9.98832 8.98866 9.72055 8.99054 9.44709C8.99046 9.09086 9.13157 8.74877 9.38366 8.49412C9.63574 8.23948 9.97873 8.09254 10.3391 8.0848V8.0848Z" fill="#514257"/>
<path fill-rule="evenodd" clip-rule="evenodd" d="M24.6041 15.4294C24.8056 15.4197 25.0053 15.4705 25.1771 15.5751C25.3488 15.6797 25.4844 15.8332 25.5662 16.0155C25.6479 16.1977 25.6719 16.4002 25.6349 16.5961C25.598 16.7921 25.5019 16.9725 25.3592 17.1134C25.2166 17.2544 25.0341 17.3494 24.8358 17.3859C24.6375 17.4224 24.4326 17.3987 24.2482 17.3179C24.0637 17.2372 23.9084 17.1031 23.8025 16.9334C23.6966 16.7637 23.6453 16.5663 23.6551 16.3672C23.6538 16.2437 23.6774 16.1211 23.7246 16.0068C23.7718 15.8924 23.8417 15.7885 23.9301 15.7011C24.0185 15.6138 24.1236 15.5448 24.2394 15.4981C24.3551 15.4514 24.4791 15.4281 24.6041 15.4294V15.4294Z" fill="#514257"/>
<path fill-rule="evenodd" clip-rule="evenodd" d="M61.5552 19.7434C62.0353 19.7434 62.5046 19.8841 62.9038 20.1477C63.303 20.4113 63.6141 20.7859 63.7979 21.2242C63.9816 21.6626 64.0297 22.1449 63.936 22.6102C63.8423 23.0755 63.6111 23.503 63.2717 23.8384C62.9322 24.1739 62.4997 24.4024 62.0288 24.4949C61.5579 24.5875 61.0698 24.54 60.6263 24.3584C60.1827 24.1769 59.8036 23.8694 59.5369 23.4749C59.2701 23.0805 59.1278 22.6167 59.1278 22.1422C59.1278 21.506 59.3835 20.8959 59.8387 20.446C60.294 19.9961 60.9114 19.7434 61.5552 19.7434V19.7434Z" fill="#514257"/>
<path fill-rule="evenodd" clip-rule="evenodd" d="M73.133 11.6584C73.3128 11.6584 73.4886 11.7111 73.6381 11.8098C73.7876 11.9086 73.9041 12.0488 73.9729 12.213C74.0417 12.3771 74.0597 12.5578 74.0246 12.732C73.9895 12.9063 73.9029 13.0663 73.7758 13.192C73.6487 13.3176 73.4867 13.4032 73.3104 13.4378C73.134 13.4725 72.9512 13.4547 72.7851 13.3867C72.619 13.3187 72.4771 13.2036 72.3772 13.0558C72.2773 12.9081 72.224 12.7344 72.224 12.5568C72.224 12.3185 72.3198 12.09 72.4902 11.9216C72.6607 11.7531 72.8919 11.6584 73.133 11.6584V11.6584Z" fill="#514257"/>
<path fill-rule="evenodd" clip-rule="evenodd" d="M40.6372 7.48267C40.817 7.48267 40.9928 7.53535 41.1423 7.63406C41.2918 7.73277 41.4083 7.87307 41.4771 8.03721C41.5459 8.20136 41.5639 8.38198 41.5288 8.55624C41.4937 8.7305 41.4071 8.89056 41.28 9.0162C41.1529 9.14183 40.9909 9.22739 40.8146 9.26205C40.6382 9.29671 40.4555 9.27892 40.2893 9.21093C40.1232 9.14294 39.9813 9.0278 39.8814 8.88007C39.7815 8.73234 39.7282 8.55866 39.7282 8.38099C39.7282 8.14274 39.824 7.91425 39.9944 7.74578C40.1649 7.57731 40.3961 7.48267 40.6372 7.48267V7.48267Z" fill="#514257"/>
</g>
<defs>
<clipPath id="clip0">
<rect width="95" height="30" fill="white"/>
</clipPath>
</defs>
</svg>
