<svg width="214" height="117" viewBox="0 0 214 117" fill="none" xmlns="http://www.w3.org/2000/svg">
<path d="M60.3125 5.84375C59.7812 5.875 59.25 5.89062 58.7188 5.89062C58.2188 5.85938 57.75 5.84375 57.3125 5.84375C56.8125 5.84375 56.3438 5.82812 55.9062 5.79688C55.9688 7.45312 55.9844 9.39062 55.9531 11.6094C55.9531 13.7969 55.9219 16.0469 55.8594 18.3594C55.8281 20.6719 55.7656 22.9375 55.6719 25.1562C55.6094 27.3438 55.5312 29.2812 55.4375 30.9688C56.625 30.9375 57.6719 30.9375 58.5781 30.9688C59.4844 31 59.9688 31.0469 60.0312 31.1094C60.0938 31.2031 60.0938 31.5156 60.0312 32.0469C59.9688 32.5469 59.875 33.1094 59.75 33.7344C59.625 34.3281 59.5 34.875 59.375 35.375C59.25 35.9062 59.1562 36.2344 59.0938 36.3594C58.2188 36.3906 57.4062 36.3906 56.6562 36.3594C55.9375 36.3594 55.3125 36.3281 54.7812 36.2656C54.1562 36.2344 53.5938 36.1875 53.0938 36.125C52.5938 36.0312 52.0625 35.9219 51.5 35.7969C51.0312 35.6719 50.4844 35.5156 49.8594 35.3281C49.2656 35.1406 48.6562 34.9062 48.0312 34.625C47.9062 34.5625 47.75 34.3906 47.5625 34.1094C47.4062 33.8281 47.2344 33.5312 47.0469 33.2188C46.8906 32.875 46.7656 32.5469 46.6719 32.2344C46.5469 31.9219 46.4844 31.7031 46.4844 31.5781C46.4844 31.5469 46.625 31.5156 46.9062 31.4844C47.1875 31.4219 47.5781 31.375 48.0781 31.3438C48.5781 31.2812 49.1406 31.2344 49.7656 31.2031C50.3906 31.1406 51.0625 31.0938 51.7812 31.0625C51.7188 30.1562 51.625 28.9688 51.5 27.5C51.4062 26 51.2969 24.3906 51.1719 22.6719C51.0781 20.9219 50.9688 19.1406 50.8438 17.3281C50.75 15.4844 50.6719 13.7812 50.6094 12.2188C50.5469 10.625 50.5156 9.23438 50.5156 8.04688C50.5156 6.85938 50.5625 6.03125 50.6562 5.5625C50.6875 5.5 50.7031 5.45312 50.7031 5.42188C50.7031 5.35938 50.7188 5.29688 50.75 5.23438L49.4375 4.90625C49.0625 4.8125 48.6562 4.70312 48.2188 4.57812C47.7812 4.45312 47.3438 4.3125 46.9062 4.15625C46.7812 4.09375 46.625 3.92188 46.4375 3.64062C46.2188 3.35938 46.0156 3.04688 45.8281 2.70312C45.6094 2.35938 45.4375 2.04688 45.3125 1.76562C45.1562 1.45312 45.0781 1.23438 45.0781 1.10938C45.0781 1.04688 45.4844 0.984375 46.2969 0.921875C47.0781 0.828125 48.0625 0.75 49.25 0.6875C50.4375 0.625 51.7188 0.578125 53.0938 0.546875C54.5 0.515625 55.7969 0.5 56.9844 0.5C58.2031 0.5 59.2188 0.515625 60.0312 0.546875C60.875 0.546875 61.3281 0.578125 61.3906 0.640625C61.4844 0.734375 61.4844 1.04688 61.3906 1.57812C61.3281 2.07812 61.2188 2.64062 61.0625 3.26562C60.9375 3.85938 60.7969 4.42188 60.6406 4.95312C60.5156 5.45312 60.4062 5.75 60.3125 5.84375Z" fill="#27AE60"/>
<path d="M75.4062 15.3594C75.4062 15.8594 75.3438 16.5781 75.2188 17.5156C75.125 18.4531 74.9844 19.4844 74.7969 20.6094C74.6094 21.7031 74.4062 22.8438 74.1875 24.0312C74 25.1875 73.7969 26.25 73.5781 27.2188C73.3906 28.1875 73.2188 29 73.0625 29.6562C72.9375 30.3125 72.8594 30.6719 72.8281 30.7344C72.7656 30.8281 72.5938 30.8906 72.3125 30.9219C72.0625 30.9219 71.7656 30.8906 71.4219 30.8281C71.1094 30.7656 70.8125 30.6719 70.5312 30.5469C70.2812 30.4219 70.125 30.2656 70.0625 30.0781C70.0312 29.9531 70.0156 29.5156 70.0156 28.7656C70.0469 28.0156 70.0781 27.125 70.1094 26.0938C70.1719 25.0312 70.2344 23.9062 70.2969 22.7188C70.3594 21.5 70.4219 20.375 70.4844 19.3438C70.5781 18.2812 70.6406 17.375 70.6719 16.625C70.7344 15.875 70.7656 15.4219 70.7656 15.2656C70.7656 14.7031 70.7031 14.1719 70.5781 13.6719C70.4844 13.1406 70.3594 12.6875 70.2031 12.3125C70.0469 11.9375 69.8594 11.6562 69.6406 11.4688C69.4531 11.25 69.2812 11.1719 69.125 11.2344C68.7188 11.2969 68.375 11.4062 68.0938 11.5625C67.8125 11.6875 67.5781 11.8281 67.3906 11.9844C67.1719 12.1719 67 12.3906 66.875 12.6406C66.8438 12.7031 66.7812 12.8906 66.6875 13.2031C66.625 13.5156 66.5938 13.875 66.5938 14.2812C66.5938 14.4062 66.5938 14.8594 66.5938 15.6406C66.5938 16.3906 66.5781 17.2969 66.5469 18.3594C66.5469 19.4219 66.5312 20.5781 66.5 21.8281C66.5 23.0469 66.4844 24.1875 66.4531 25.25C66.4531 26.2812 66.4375 27.1719 66.4062 27.9219C66.375 28.6719 66.3438 29.0938 66.3125 29.1875C66.25 29.375 66.0938 29.6406 65.8438 29.9844C65.5938 30.2969 65.3125 30.5938 65 30.875C64.6875 31.1562 64.3906 31.375 64.1094 31.5312C63.8281 31.6562 63.6406 31.625 63.5469 31.4375C63.4531 31.3438 63.3594 30.8906 63.2656 30.0781C63.1719 29.2344 63.0625 28.2188 62.9375 27.0312C62.8438 25.8125 62.7344 24.5 62.6094 23.0938C62.4844 21.6562 62.375 20.2812 62.2812 18.9688C62.1875 17.6562 62.1094 16.4688 62.0469 15.4062C61.9844 14.3438 61.9375 13.5781 61.9062 13.1094C61.875 12.4531 61.8438 11.7188 61.8125 10.9062C61.7812 10.0625 61.75 9.28125 61.7188 8.5625C61.7188 7.8125 61.7188 7.17188 61.7188 6.64062C61.75 6.07812 61.8125 5.73438 61.9062 5.60938C61.9688 5.48438 62.1719 5.45312 62.5156 5.51562C62.8906 5.57812 63.2812 5.70312 63.6875 5.89062C64.125 6.04688 64.5312 6.25 64.9062 6.5C65.2812 6.71875 65.5312 6.9375 65.6562 7.15625C65.7188 7.34375 65.7969 7.5625 65.8906 7.8125C65.9844 8.03125 66.0625 8.40625 66.125 8.9375C66.6562 8.625 67.2344 8.34375 67.8594 8.09375C68.4844 7.8125 69.0938 7.60938 69.6875 7.48438C70.3125 7.32812 70.9062 7.28125 71.4688 7.34375C72.0312 7.375 72.5312 7.53125 72.9688 7.8125C73.25 8.03125 73.5312 8.40625 73.8125 8.9375C74.125 9.46875 74.3906 10.0938 74.6094 10.8125C74.8594 11.5312 75.0469 12.2969 75.1719 13.1094C75.3281 13.8906 75.4062 14.6406 75.4062 15.3594Z" fill="#27AE60"/>
<path d="M81.125 29.1406C80.6875 27.5469 80.2031 25.6719 79.6719 23.5156C79.2344 21.6719 78.7031 19.4375 78.0781 16.8125C77.4844 14.1562 76.8438 11.125 76.1562 7.71875C76.1562 7.5 76.2969 7.23438 76.5781 6.92188C76.8281 6.57812 77.1406 6.26562 77.5156 5.98438C77.8906 5.67188 78.2812 5.42188 78.6875 5.23438C79.0938 5.01562 79.4531 4.90625 79.7656 4.90625C79.8906 5.09375 80.1094 5.92188 80.4219 7.39062C80.5469 8.01562 80.6875 8.8125 80.8438 9.78125C81.0312 10.7188 81.2344 11.8906 81.4531 13.2969C81.6719 14.7031 81.9062 16.3594 82.1562 18.2656C82.4375 20.1406 82.75 22.3125 83.0938 24.7812C83.3438 23.0938 83.5781 21.5 83.7969 20C84.0469 18.5 84.2656 17.1719 84.4531 16.0156C84.6719 14.6719 84.875 13.4219 85.0625 12.2656C85.1562 11.5469 85.2656 10.7969 85.3906 10.0156C85.5156 9.20312 85.6406 8.46875 85.7656 7.8125C85.9219 7.15625 86.0781 6.60938 86.2344 6.17188C86.4219 5.70312 86.6094 5.46875 86.7969 5.46875C86.9844 5.46875 87.2656 5.51562 87.6406 5.60938C88.0156 5.67188 88.3906 5.76562 88.7656 5.89062C89.1719 6.01562 89.5312 6.17188 89.8438 6.35938C90.1562 6.51562 90.3125 6.6875 90.3125 6.875C90.3125 6.96875 90.2188 7.4375 90.0312 8.28125C89.8438 9.09375 89.5938 10.1406 89.2812 11.4219C88.9688 12.7031 88.6094 14.1562 88.2031 15.7812C87.7969 17.375 87.375 19 86.9375 20.6562C86.5312 22.3125 86.1094 23.9375 85.6719 25.5312C85.2344 27.125 84.8281 28.5469 84.4531 29.7969C84.1094 31.0156 83.8125 32.0156 83.5625 32.7969C83.3125 33.5469 83.1406 33.9219 83.0469 33.9219C82.9531 33.9219 82.6875 33.5 82.25 32.6562C81.8438 31.7812 81.4688 30.6094 81.125 29.1406Z" fill="#27AE60"/>
<path d="M103.156 10.3438C103.344 10.5625 103.516 10.7969 103.672 11.0469C103.828 11.2656 103.969 11.5781 104.094 11.9844C104.219 12.3594 104.312 12.8594 104.375 13.4844C104.469 14.1094 104.516 14.9219 104.516 15.9219C104.516 17.5156 104.469 19.125 104.375 20.75C104.312 22.3438 104.25 23.75 104.188 24.9688C104.156 26.0625 104.125 27.0781 104.094 28.0156C104.062 28.9531 104.031 29.7812 104 30.5C103.969 31.1875 103.922 31.7344 103.859 32.1406C103.828 32.5469 103.797 32.7656 103.766 32.7969C103.641 32.8906 103.438 32.8594 103.156 32.7031C102.906 32.5156 102.625 32.2812 102.312 32C102.031 31.7188 101.766 31.4219 101.516 31.1094C101.266 30.7969 101.109 30.5469 101.047 30.3594C101.047 30.2031 101 29.75 100.906 29C100.156 29.4375 99.3281 29.75 98.4219 29.9375C97.5156 30.0938 96.6094 30.1562 95.7031 30.125C94.8281 30.0625 94.0156 29.8906 93.2656 29.6094C92.5156 29.3281 91.9531 28.9531 91.5781 28.4844C91.4219 28.2969 91.2812 28.0156 91.1562 27.6406C91.0625 27.2656 90.9688 26.8438 90.875 26.375C90.8125 25.875 90.75 25.3594 90.6875 24.8281C90.625 24.2656 90.5781 23.75 90.5469 23.2812C90.4844 22.0625 90.6406 21.0156 91.0156 20.1406C91.3906 19.2344 92.0781 18.5625 93.0781 18.125C93.5156 17.9375 94.0938 17.8438 94.8125 17.8438C95.5625 17.8125 96.2969 17.8438 97.0156 17.9375C97.7656 18 98.4375 18.0938 99.0312 18.2188C99.625 18.3125 100 18.3906 100.156 18.4531C100.031 16.8594 99.9375 15.4844 99.875 14.3281C99.8125 13.1406 99.6875 12.375 99.5 12.0312C99.3438 11.8125 99.1562 11.5938 98.9375 11.375C98.75 11.2188 98.5 11.0469 98.1875 10.8594C97.875 10.6719 97.5 10.5312 97.0625 10.4375C96.7188 10.375 96.4062 10.5156 96.125 10.8594C95.875 11.1719 95.6406 11.7344 95.4219 12.5469C95.2344 13.3281 95.125 14.5312 95.0938 16.1562C94 16.1875 93.1562 16.1875 92.5625 16.1562C92 16.0938 91.5781 16.0312 91.2969 15.9688C90.9531 15.9062 90.75 15.8281 90.6875 15.7344C90.625 15.6094 90.6562 15.1562 90.7812 14.375C90.9062 13.5625 91.0781 12.6875 91.2969 11.75C91.5469 10.8125 91.8281 9.92188 92.1406 9.07812C92.4844 8.23438 92.8438 7.70312 93.2188 7.48438C93.9688 7.04688 94.8594 6.89062 95.8906 7.01562C96.9531 7.14062 97.9844 7.40625 98.9844 7.8125C99.9844 8.21875 100.875 8.67188 101.656 9.17188C102.438 9.67188 102.938 10.0625 103.156 10.3438ZM100.25 24.0312C100.25 23.875 100.266 23.6719 100.297 23.4219C100.328 23.1406 100.344 22.8594 100.344 22.5781C100.344 22.2969 100.328 22.0312 100.297 21.7812C100.297 21.5312 100.266 21.3438 100.203 21.2188C100.109 21.0312 99.8281 20.875 99.3594 20.75C98.9219 20.625 98.4219 20.5469 97.8594 20.5156C97.2969 20.4531 96.7656 20.4375 96.2656 20.4688C95.7656 20.4688 95.4219 20.5312 95.2344 20.6562C94.9844 20.8125 94.7969 21.0312 94.6719 21.3125C94.5781 21.5938 94.5156 22.0312 94.4844 22.625C94.4844 22.9062 94.5 23.2031 94.5312 23.5156C94.5625 23.8281 94.5938 24.1406 94.625 24.4531C94.6875 24.7344 94.75 24.9844 94.8125 25.2031C94.9062 25.4219 95 25.5625 95.0938 25.625C95.3125 25.7812 95.6875 25.9219 96.2188 26.0469C96.7812 26.1406 97.3438 26.1719 97.9062 26.1406C98.4688 26.0781 98.9844 25.8906 99.4531 25.5781C99.9219 25.2656 100.188 24.75 100.25 24.0312Z" fill="#27AE60"/>
<path d="M121.109 11.9375C121.141 12.2812 121.078 12.8125 120.922 13.5312C120.797 14.25 120.594 14.9688 120.312 15.6875C120.062 16.4062 119.719 17.0312 119.281 17.5625C118.875 18.0938 118.406 18.3594 117.875 18.3594C117.5 18.3594 117.188 18.0625 116.938 17.4688C116.719 16.875 116.547 16.1875 116.422 15.4062C116.328 14.5938 116.25 13.7969 116.188 13.0156C116.125 12.2344 116.062 11.6875 116 11.375C115.906 11.2188 115.719 11.0781 115.438 10.9531C115.188 10.7969 114.938 10.7188 114.688 10.7188C114.438 10.7188 114.156 10.9219 113.844 11.3281C113.531 11.7344 113.219 12.2031 112.906 12.7344C112.625 13.2656 112.375 13.7969 112.156 14.3281C111.969 14.8594 111.891 15.25 111.922 15.5C111.922 15.6875 112.125 16.0156 112.531 16.4844C112.938 16.9531 113.438 17.5156 114.031 18.1719C114.656 18.7969 115.312 19.4844 116 20.2344C116.719 20.9531 117.375 21.6875 117.969 22.4375C118.562 23.1562 119.062 23.8438 119.469 24.5C119.906 25.1562 120.141 25.7188 120.172 26.1875C120.203 26.75 120.047 27.4688 119.703 28.3438C119.391 29.2188 118.984 30.0625 118.484 30.875C117.984 31.6875 117.453 32.3906 116.891 32.9844C116.328 33.5781 115.828 33.8906 115.391 33.9219C114.953 33.9531 114.312 33.7188 113.469 33.2188C112.656 32.6875 111.828 32.0781 110.984 31.3906C110.172 30.6719 109.438 29.9688 108.781 29.2812C108.156 28.5938 107.797 28.0938 107.703 27.7812C107.609 27.5 107.547 27.125 107.516 26.6562C107.516 26.1875 107.531 25.7188 107.562 25.25C107.625 24.7812 107.719 24.3906 107.844 24.0781C107.969 23.7344 108.125 23.5625 108.312 23.5625C108.5 23.5625 108.875 23.8906 109.438 24.5469C110 25.1719 110.609 25.8906 111.266 26.7031C111.922 27.4844 112.562 28.2031 113.188 28.8594C113.812 29.4844 114.266 29.7969 114.547 29.7969C114.703 29.7969 114.875 29.6875 115.062 29.4688C115.25 29.2188 115.422 28.9375 115.578 28.625C115.734 28.3125 115.859 28 115.953 27.6875C116.078 27.3438 116.141 27.0781 116.141 26.8906C116.109 26.6094 115.859 26.2031 115.391 25.6719C114.922 25.1406 114.328 24.5469 113.609 23.8906C112.891 23.2344 112.109 22.5469 111.266 21.8281C110.422 21.0781 109.641 20.375 108.922 19.7188C108.203 19.0625 107.609 18.4688 107.141 17.9375C106.672 17.4062 106.422 17 106.391 16.7188C106.359 16.4375 106.453 16 106.672 15.4062C106.891 14.7812 107.172 14.1094 107.516 13.3906C107.859 12.6406 108.25 11.875 108.688 11.0938C109.156 10.3125 109.625 9.59375 110.094 8.9375C110.562 8.28125 111.016 7.75 111.453 7.34375C111.922 6.90625 112.328 6.6875 112.672 6.6875C113.359 6.6875 114.172 6.875 115.109 7.25C116.078 7.625 117 8.09375 117.875 8.65625C118.75 9.1875 119.5 9.75 120.125 10.3438C120.75 10.9375 121.078 11.4688 121.109 11.9375Z" fill="#27AE60"/>
<path d="M127.719 14.8438C127.781 15 127.812 15.5 127.812 16.3438C127.844 17.1562 127.844 18.1562 127.812 19.3438C127.812 20.5 127.781 21.75 127.719 23.0938C127.656 24.4062 127.578 25.6562 127.484 26.8438C127.422 28 127.344 29 127.25 29.8438C127.156 30.6562 127.062 31.1406 126.969 31.2969C126.688 31.7344 126.266 32.0156 125.703 32.1406C125.141 32.2344 124.734 32.25 124.484 32.1875C124.359 32.1875 124.219 31.8281 124.062 31.1094C123.938 30.3906 123.812 29.4844 123.688 28.3906C123.562 27.2969 123.453 26.1094 123.359 24.8281C123.266 23.5469 123.188 22.3281 123.125 21.1719C123.062 19.9844 123.031 18.9531 123.031 18.0781C123.031 17.2031 123.062 16.6406 123.125 16.3906C123.219 15.9844 123.484 15.625 123.922 15.3125C124.391 15 124.875 14.7656 125.375 14.6094C125.906 14.4531 126.391 14.3906 126.828 14.4219C127.297 14.4219 127.594 14.5625 127.719 14.8438ZM127.953 7.25C128.078 7.5 128.125 7.84375 128.094 8.28125C128.094 8.71875 128.047 9.17188 127.953 9.64062C127.859 10.1094 127.734 10.5625 127.578 11C127.422 11.4375 127.266 11.7812 127.109 12.0312C126.797 12.4688 126.328 12.75 125.703 12.875C125.109 12.9688 124.672 12.9844 124.391 12.9219C124.172 12.8906 123.953 12.75 123.734 12.5C123.516 12.2188 123.328 11.8906 123.172 11.5156C123.016 11.1094 122.906 10.6719 122.844 10.2031C122.781 9.73438 122.797 9.29688 122.891 8.89062C122.984 8.48438 123.281 8.125 123.781 7.8125C124.281 7.46875 124.812 7.21875 125.375 7.0625C125.938 6.875 126.469 6.79688 126.969 6.82812C127.469 6.82812 127.797 6.96875 127.953 7.25Z" fill="#27AE60"/>
<path d="M141.453 9.35938C141.672 9.54688 141.875 9.90625 142.062 10.4375C142.281 10.9688 142.469 11.6094 142.625 12.3594C142.781 13.1094 142.922 13.9219 143.047 14.7969C143.172 15.6719 143.281 16.5312 143.375 17.375C143.469 18.2188 143.531 19.0156 143.562 19.7656C143.625 20.4844 143.672 21.0781 143.703 21.5469C143.734 22.1094 143.75 22.7031 143.75 23.3281C143.781 23.9219 143.781 24.5 143.75 25.0625C143.75 25.5938 143.719 26.0781 143.656 26.5156C143.625 26.9531 143.562 27.2812 143.469 27.5C143.281 27.9688 142.953 28.2969 142.484 28.4844C142.047 28.6406 141.547 28.75 140.984 28.8125C140.703 28.8438 140.219 28.8594 139.531 28.8594C138.875 28.8281 138.156 28.7969 137.375 28.7656C136.625 28.7031 135.906 28.6406 135.219 28.5781C134.531 28.5156 134.016 28.4531 133.672 28.3906C132.984 28.2344 132.484 28.0312 132.172 27.7812C131.891 27.5312 131.609 27.1719 131.328 26.7031C131.234 26.5156 131.156 26.0469 131.094 25.2969C131.031 24.5156 130.984 23.5938 130.953 22.5312C130.953 21.4375 130.969 20.2656 131 19.0156C131.031 17.7656 131.078 16.5781 131.141 15.4531C131.234 14.3281 131.328 13.3438 131.422 12.5C131.547 11.6562 131.703 11.0938 131.891 10.8125C132.203 10.375 132.734 9.96875 133.484 9.59375C134.266 9.21875 134.969 8.92188 135.594 8.70312C135.906 8.60938 136.312 8.54688 136.812 8.51562C137.344 8.45312 137.891 8.45312 138.453 8.51562C139.047 8.54688 139.609 8.64062 140.141 8.79688C140.672 8.92188 141.109 9.10938 141.453 9.35938ZM138.828 23.8906C138.891 23.7656 138.953 23.3906 139.016 22.7656C139.109 22.1094 139.172 21.3281 139.203 20.4219C139.266 19.5156 139.297 18.5469 139.297 17.5156C139.328 16.4844 139.344 15.5312 139.344 14.6562C139.344 13.7812 139.312 13.0469 139.25 12.4531C139.188 11.8281 139.109 11.4688 139.016 11.375C138.859 11.25 138.625 11.2031 138.312 11.2344C138.031 11.2344 137.734 11.2812 137.422 11.375C137.109 11.4375 136.828 11.5312 136.578 11.6562C136.328 11.75 136.156 11.8438 136.062 11.9375C135.656 12.2812 135.438 12.8438 135.406 13.625C135.406 13.8438 135.375 14.4688 135.312 15.5C135.281 16.5 135.266 17.5938 135.266 18.7812C135.266 19.9375 135.281 21.0156 135.312 22.0156C135.375 23.0156 135.484 23.625 135.641 23.8438C135.797 24.0625 136.016 24.2344 136.297 24.3594C136.609 24.4531 136.922 24.5 137.234 24.5C137.578 24.5 137.891 24.4531 138.172 24.3594C138.484 24.2344 138.703 24.0781 138.828 23.8906Z" fill="#27AE60"/>
<path d="M159.594 15.3594C159.594 15.8594 159.531 16.5781 159.406 17.5156C159.312 18.4531 159.172 19.4844 158.984 20.6094C158.797 21.7031 158.594 22.8438 158.375 24.0312C158.188 25.1875 157.984 26.25 157.766 27.2188C157.578 28.1875 157.406 29 157.25 29.6562C157.125 30.3125 157.047 30.6719 157.016 30.7344C156.953 30.8281 156.781 30.8906 156.5 30.9219C156.25 30.9219 155.953 30.8906 155.609 30.8281C155.297 30.7656 155 30.6719 154.719 30.5469C154.469 30.4219 154.312 30.2656 154.25 30.0781C154.219 29.9531 154.203 29.5156 154.203 28.7656C154.234 28.0156 154.266 27.125 154.297 26.0938C154.359 25.0312 154.422 23.9062 154.484 22.7188C154.547 21.5 154.609 20.375 154.672 19.3438C154.766 18.2812 154.828 17.375 154.859 16.625C154.922 15.875 154.953 15.4219 154.953 15.2656C154.953 14.7031 154.891 14.1719 154.766 13.6719C154.672 13.1406 154.547 12.6875 154.391 12.3125C154.234 11.9375 154.047 11.6562 153.828 11.4688C153.641 11.25 153.469 11.1719 153.312 11.2344C152.906 11.2969 152.562 11.4062 152.281 11.5625C152 11.6875 151.766 11.8281 151.578 11.9844C151.359 12.1719 151.188 12.3906 151.062 12.6406C151.031 12.7031 150.969 12.8906 150.875 13.2031C150.812 13.5156 150.781 13.875 150.781 14.2812C150.781 14.4062 150.781 14.8594 150.781 15.6406C150.781 16.3906 150.766 17.2969 150.734 18.3594C150.734 19.4219 150.719 20.5781 150.688 21.8281C150.688 23.0469 150.672 24.1875 150.641 25.25C150.641 26.2812 150.625 27.1719 150.594 27.9219C150.562 28.6719 150.531 29.0938 150.5 29.1875C150.438 29.375 150.281 29.6406 150.031 29.9844C149.781 30.2969 149.5 30.5938 149.188 30.875C148.875 31.1562 148.578 31.375 148.297 31.5312C148.016 31.6562 147.828 31.625 147.734 31.4375C147.641 31.3438 147.547 30.8906 147.453 30.0781C147.359 29.2344 147.25 28.2188 147.125 27.0312C147.031 25.8125 146.922 24.5 146.797 23.0938C146.672 21.6562 146.562 20.2812 146.469 18.9688C146.375 17.6562 146.297 16.4688 146.234 15.4062C146.172 14.3438 146.125 13.5781 146.094 13.1094C146.062 12.4531 146.031 11.7188 146 10.9062C145.969 10.0625 145.938 9.28125 145.906 8.5625C145.906 7.8125 145.906 7.17188 145.906 6.64062C145.938 6.07812 146 5.73438 146.094 5.60938C146.156 5.48438 146.359 5.45312 146.703 5.51562C147.078 5.57812 147.469 5.70312 147.875 5.89062C148.312 6.04688 148.719 6.25 149.094 6.5C149.469 6.71875 149.719 6.9375 149.844 7.15625C149.906 7.34375 149.984 7.5625 150.078 7.8125C150.172 8.03125 150.25 8.40625 150.312 8.9375C150.844 8.625 151.422 8.34375 152.047 8.09375C152.672 7.8125 153.281 7.60938 153.875 7.48438C154.5 7.32812 155.094 7.28125 155.656 7.34375C156.219 7.375 156.719 7.53125 157.156 7.8125C157.438 8.03125 157.719 8.40625 158 8.9375C158.312 9.46875 158.578 10.0938 158.797 10.8125C159.047 11.5312 159.234 12.2969 159.359 13.1094C159.516 13.8906 159.594 14.6406 159.594 15.3594Z" fill="#27AE60"/>
<path d="M38.168 41.6973C38.168 41.9121 37.8099 42.9147 37.0938 44.7051C36.4493 46.4954 35.5541 48.7871 34.4082 51.5801C33.2624 54.373 31.9375 57.5599 30.4336 61.1406C28.9297 64.7214 27.39 68.3737 25.8145 72.0977C24.239 75.8216 22.6635 79.5456 21.0879 83.2695C19.5124 86.9219 18.0443 90.252 16.6836 93.2598C15.3946 96.2676 14.2845 98.8099 13.3536 100.887C12.4942 102.964 11.9213 104.324 11.6348 104.969C19.0111 104.253 24.239 103.823 27.3184 103.68C30.4694 103.465 32.1524 103.465 32.3672 103.68C32.6537 103.966 32.6537 104.646 32.3672 105.721C32.0808 106.723 31.6511 107.869 31.0782 109.158C30.5052 110.376 29.8965 111.557 29.252 112.703C28.6075 113.777 28.0704 114.565 27.6407 115.066C27.5691 115.21 26.9961 115.353 25.9219 115.496C24.9193 115.568 23.6661 115.639 22.1621 115.711C20.7299 115.783 19.1185 115.854 17.3282 115.926C15.6094 115.997 13.9623 116.069 12.3868 116.141C10.8112 116.141 9.41475 116.141 8.19731 116.141C7.05147 116.141 6.29952 116.105 5.94145 116.033C5.44014 115.962 4.93884 115.675 4.43754 115.174C4.00785 114.601 3.57817 113.956 3.14848 113.24C2.79041 112.524 2.46814 111.772 2.18168 110.984C1.89522 110.125 1.71619 109.373 1.64457 108.729C1.57296 108.084 1.89522 106.473 2.61137 103.895C3.39913 101.245 4.40173 98.0938 5.61918 94.4414C6.90824 90.7891 8.30473 86.8503 9.80863 82.625C11.3125 78.3997 12.7806 74.3535 14.2129 70.4863C15.7168 66.5475 17.0417 63.0384 18.1875 59.959C19.3334 56.8079 20.1569 54.5163 20.6582 53.084C17.0775 53.2988 14.1055 53.5137 11.7422 53.7285C9.45056 53.8717 7.62439 53.9792 6.26371 54.0508C4.90304 54.1224 3.93624 54.1582 3.36332 54.1582C2.79041 54.1582 2.43233 54.0508 2.2891 53.8359C1.93103 53.4062 1.57296 52.5469 1.21488 51.2578C0.928426 49.8971 0.713582 48.4648 0.570353 46.9609C0.427124 45.3854 0.391317 43.9531 0.462931 42.6641C0.534546 41.3034 0.74939 40.444 1.10746 40.0859C1.32231 39.8711 2.36072 39.6921 4.2227 39.5488C6.15629 39.334 8.48376 39.1908 11.2051 39.1191C13.9265 39.0475 16.8269 39.0475 19.9063 39.1191C23.0573 39.1191 25.9577 39.2266 28.6075 39.4414C31.3288 39.5846 33.5847 39.8711 35.375 40.3008C37.1654 40.6589 38.0964 41.1243 38.168 41.6973Z" fill="#F2F2F2"/>
<path d="M61.586 58.2402C62.0873 58.6699 62.5528 59.4935 62.9825 60.7109C63.4838 61.9284 63.9135 63.3965 64.2715 65.1152C64.6296 66.834 64.9519 68.696 65.2383 70.7012C65.5248 72.7064 65.7754 74.6758 65.9903 76.6094C66.2051 78.543 66.3483 80.3691 66.42 82.0879C66.5632 83.735 66.6706 85.0957 66.7422 86.1699C66.8138 87.459 66.8496 88.8197 66.8496 90.252C66.9213 91.6126 66.9213 92.9375 66.8496 94.2266C66.8496 95.444 66.778 96.554 66.6348 97.5566C66.5632 98.5592 66.42 99.3112 66.2051 99.8125C65.7754 100.887 65.0235 101.639 63.9493 102.068C62.9467 102.426 61.8008 102.677 60.5118 102.82C59.8672 102.892 58.7572 102.928 57.1817 102.928C55.6778 102.856 54.0306 102.785 52.2403 102.713C50.5215 102.57 48.8744 102.426 47.2989 102.283C45.7233 102.14 44.5417 101.997 43.7539 101.854C42.1784 101.495 41.0326 101.03 40.3164 100.457C39.6719 99.8841 39.0274 99.0605 38.3829 97.9863C38.168 97.5566 37.989 96.4824 37.8457 94.7637C37.7025 92.9733 37.5951 90.8607 37.5235 88.4258C37.5235 85.9193 37.5593 83.2337 37.6309 80.3691C37.7025 77.5046 37.8099 74.7832 37.9532 72.2051C38.168 69.627 38.3829 67.3711 38.5977 65.4375C38.8842 63.5039 39.2422 62.2148 39.6719 61.5703C40.3881 60.5677 41.6055 59.6367 43.3243 58.7773C45.1146 57.918 46.726 57.2376 48.1582 56.7363C48.8744 56.5215 49.8054 56.3783 50.9512 56.3066C52.1687 56.1634 53.4219 56.1634 54.711 56.3066C56.0717 56.3783 57.3607 56.5931 58.5782 56.9512C59.7956 57.2376 60.7982 57.6673 61.586 58.2402ZM55.5704 91.541C55.7136 91.2546 55.8568 90.3952 56 88.9629C56.2149 87.459 56.3581 85.6686 56.4297 83.5918C56.573 81.515 56.6446 79.2949 56.6446 76.9316C56.7162 74.5684 56.752 72.3841 56.752 70.3789C56.752 68.3737 56.6804 66.6908 56.5372 65.3301C56.3939 63.8978 56.2149 63.0742 56 62.8594C55.642 62.5729 55.1049 62.4655 54.3887 62.5371C53.7442 62.5371 53.0638 62.6445 52.3477 62.8594C51.6316 63.0026 50.987 63.2174 50.4141 63.5039C49.8412 63.7188 49.4473 63.9336 49.2325 64.1484C48.3015 64.9362 47.8002 66.2253 47.7286 68.0156C47.7286 68.5169 47.6569 69.9492 47.5137 72.3125C47.4421 74.6042 47.4063 77.1107 47.4063 79.832C47.4063 82.4818 47.4421 84.9525 47.5137 87.2441C47.6569 89.5358 47.9076 90.9323 48.2657 91.4336C48.6237 91.9349 49.125 92.3288 49.7696 92.6152C50.4857 92.8301 51.2019 92.9375 51.918 92.9375C52.7058 92.9375 53.4219 92.8301 54.0664 92.6152C54.7826 92.3288 55.2839 91.9707 55.5704 91.541Z" fill="#F2F2F2"/>
<path d="M116.049 53.4062C117.41 54.5521 118.412 56.8438 119.057 60.2812C119.701 63.6471 119.952 67.4069 119.809 71.5605C119.737 72.8496 119.558 74.64 119.272 76.9316C118.985 79.1517 118.627 81.6224 118.197 84.3438C117.839 86.9935 117.41 89.7148 116.908 92.5078C116.479 95.3008 116.049 97.8789 115.619 100.242C115.189 102.605 114.796 104.611 114.438 106.258C114.151 107.833 113.972 108.764 113.9 109.051C113.757 109.552 113.363 110.053 112.719 110.555C112.074 111.056 111.394 111.486 110.678 111.844C110.033 112.13 109.389 112.345 108.744 112.488C108.1 112.56 107.706 112.417 107.563 112.059C107.491 111.844 107.491 110.734 107.563 108.729C107.634 106.723 107.742 104.253 107.885 101.316C108.028 98.3086 108.171 95.1217 108.314 91.7559C108.529 88.3184 108.708 85.0957 108.852 82.0879C108.995 79.0801 109.138 76.5378 109.281 74.4609C109.425 72.3125 109.496 71.0234 109.496 70.5938C109.568 68.3737 109.389 66.4401 108.959 64.793C108.529 63.0742 107.813 62.2148 106.811 62.2148C106.453 62.2148 106.023 62.3939 105.522 62.752C105.02 63.0384 104.519 63.3965 104.018 63.8262C103.588 64.2559 103.158 64.7214 102.729 65.2227C102.37 65.724 102.191 66.1895 102.191 66.6191C102.12 67.9082 102.012 69.806 101.869 72.3125C101.798 74.819 101.69 77.5762 101.547 80.584C101.475 83.5918 101.368 86.6712 101.225 89.8223C101.153 92.9733 101.046 95.8737 100.902 98.5234C100.831 101.173 100.759 103.393 100.688 105.184C100.616 106.902 100.544 107.869 100.473 108.084C100.329 108.37 99.864 108.585 99.0762 108.729C98.3601 108.8 97.5365 108.8 96.6055 108.729C95.6745 108.657 94.8151 108.478 94.0274 108.191C93.3112 107.905 92.8815 107.511 92.7383 107.01C92.5951 106.652 92.4877 105.577 92.4161 103.787C92.3444 101.925 92.237 99.7051 92.0938 97.127C92.0222 94.5488 91.9506 91.7917 91.8789 88.8555C91.8073 85.8477 91.7357 83.0547 91.6641 80.4766C91.5925 77.8984 91.5209 75.6784 91.4493 73.8164C91.4493 71.9544 91.4493 70.8086 91.4493 70.3789C91.4493 68.6602 91.306 67.2995 91.0196 66.2969C90.7331 65.2227 90.375 64.3991 89.9454 63.8262C89.5873 63.1816 89.1576 62.7878 88.6563 62.6445C88.155 62.4297 87.6537 62.3223 87.1524 62.3223C86.9375 62.3223 86.6153 62.5013 86.1856 62.8594C85.7559 63.1458 85.3262 63.6113 84.8965 64.2559C84.4668 64.8288 84.1088 65.5091 83.8223 66.2969C83.5358 67.013 83.4284 67.8008 83.5 68.6602C83.5 69.0182 83.5358 70.3431 83.6075 72.6348C83.6791 74.9264 83.7149 77.6836 83.7149 80.9062C83.7865 84.1289 83.8581 87.6022 83.9297 91.3262C84.0013 95.0501 84.0371 98.5234 84.0371 101.746C84.1088 104.897 84.1446 107.583 84.1446 109.803C84.1446 111.951 84.1446 113.097 84.1446 113.24C84.0013 113.598 83.6075 113.813 82.9629 113.885C82.3184 113.885 81.6023 113.742 80.8145 113.455C80.0267 113.169 79.2748 112.775 78.5586 112.273C77.8425 111.701 77.3412 111.02 77.0547 110.232C76.9115 109.66 76.6967 108.406 76.4102 106.473C76.1237 104.539 75.8015 102.247 75.4434 99.5977C75.0853 96.8763 74.7273 93.9759 74.3692 90.8965C74.0111 87.7454 73.653 84.7376 73.295 81.873C72.9369 78.9368 72.6146 76.2871 72.3282 73.9238C72.1133 71.5605 71.9343 69.7702 71.7911 68.5527C71.5762 66.834 71.3256 64.972 71.0391 62.9668C70.8243 60.89 70.6094 58.9206 70.3946 57.0586C70.2513 55.125 70.1439 53.4779 70.0723 52.1172C70.0007 50.6849 70.0723 49.7897 70.2871 49.4316C70.4304 49.1452 70.9317 49.0378 71.7911 49.1094C72.722 49.181 73.6888 49.3958 74.6914 49.7539C75.7657 50.0404 76.7683 50.4701 77.6993 51.043C78.7019 51.5443 79.3464 52.0814 79.6329 52.6543C79.8477 53.084 80.0625 53.6211 80.2774 54.2656C80.5638 54.8385 80.8503 55.7695 81.1368 57.0586C82.3542 56.1276 83.6075 55.2682 84.8965 54.4805C86.1856 53.6211 87.4746 52.9766 88.7637 52.5469C90.0528 52.0456 91.2702 51.7949 92.4161 51.7949C93.6335 51.7233 94.7793 52.0456 95.8536 52.7617C96.7845 53.4779 97.6797 54.7311 98.5391 56.5215C101.977 54.5879 105.271 53.263 108.422 52.5469C111.645 51.7591 114.187 52.0456 116.049 53.4062Z" fill="#F2F2F2"/>
<path d="M151.606 60.1738C152.322 60.6035 153.038 61.3913 153.754 62.5371C154.542 63.6113 155.222 64.9004 155.795 66.4043C156.439 67.9082 156.941 69.5195 157.299 71.2383C157.657 72.8854 157.836 74.4609 157.836 75.9648C157.836 77.0391 157.693 78.543 157.406 80.4766C157.191 82.3385 156.869 84.4154 156.439 86.707C156.01 88.9271 155.544 91.2546 155.043 93.6895C154.542 96.0527 154.04 98.237 153.539 100.242C153.109 102.247 152.716 103.966 152.357 105.398C151.999 106.759 151.749 107.583 151.606 107.869C151.247 108.729 150.925 109.48 150.639 110.125C150.424 110.698 150.137 111.128 149.779 111.414C148.992 111.987 147.989 112.417 146.772 112.703C145.554 112.918 144.301 113.061 143.012 113.133C141.723 113.204 140.469 113.204 139.252 113.133C138.106 112.99 137.211 112.811 136.566 112.596C136.28 112.524 135.958 112.452 135.6 112.381C135.313 112.238 134.991 112.094 134.633 111.951C133.917 113.169 133.093 114.279 132.162 115.281C131.231 116.212 130.372 116.606 129.584 116.463C129.298 116.391 128.975 115.21 128.617 112.918C128.331 110.626 128.009 107.618 127.65 103.895C127.292 100.099 126.934 95.8021 126.576 91.0039C126.218 86.2057 125.896 81.3001 125.609 76.2871C125.323 71.2025 125.072 66.2253 124.857 61.3555C124.643 56.4857 124.464 52.153 124.32 48.3574C124.249 44.4902 124.249 41.3392 124.32 38.9043C124.392 36.3978 124.571 35.0371 124.857 34.8223C125.144 34.6074 125.788 34.7865 126.791 35.3594C127.865 35.8607 129.011 36.6484 130.229 37.7227C131.446 38.7253 132.556 39.9427 133.559 41.375C134.633 42.8073 135.349 44.2754 135.707 45.7793C135.922 46.9251 136.065 48.8945 136.137 51.6875C136.28 54.4805 136.352 57.7747 136.352 61.5703C139.503 60.3529 142.403 59.5651 145.053 59.207C147.774 58.849 149.958 59.1712 151.606 60.1738ZM146.986 75.9648C146.986 74.819 146.807 73.709 146.449 72.6348C146.091 71.4889 145.662 70.5221 145.16 69.7344C144.659 68.875 144.122 68.2305 143.549 67.8008C142.976 67.3711 142.475 67.2279 142.045 67.3711C141.257 67.5143 140.505 67.7292 139.789 68.0156C139.073 68.2305 138.464 68.4453 137.963 68.6602C137.318 68.9466 136.781 69.1973 136.352 69.4121C136.28 73.6374 136.173 77.9342 136.029 82.3027C135.958 86.6712 135.922 90.7533 135.922 94.5488C135.922 96.4108 135.958 98.0579 136.029 99.4902C136.101 100.851 136.137 101.71 136.137 102.068C136.352 103.787 136.817 105.005 137.533 105.721C137.748 105.864 138.07 106.079 138.5 106.365C139.001 106.58 139.503 106.795 140.004 107.01C140.577 107.153 141.114 107.26 141.615 107.332C142.117 107.332 142.546 107.189 142.904 106.902C142.976 106.831 143.119 106.043 143.334 104.539C143.62 102.964 143.907 101.066 144.193 98.8457C144.48 96.6257 144.766 94.2266 145.053 91.6484C145.411 88.9987 145.733 86.5638 146.02 84.3438C146.306 82.0521 146.521 80.1185 146.664 78.543C146.879 76.9674 146.986 76.1081 146.986 75.9648Z" fill="#F2F2F2"/>
<path d="M174.057 70.8086C174.2 71.1667 174.272 72.3125 174.272 74.2461C174.343 76.1081 174.343 78.3997 174.272 81.1211C174.272 83.7708 174.2 86.6354 174.057 89.7148C173.913 92.7227 173.734 95.5872 173.52 98.3086C173.376 100.958 173.197 103.25 172.982 105.184C172.768 107.046 172.553 108.156 172.338 108.514C171.693 109.516 170.727 110.161 169.438 110.447C168.148 110.662 167.217 110.698 166.645 110.555C166.358 110.555 166.036 109.731 165.678 108.084C165.391 106.437 165.105 104.36 164.818 101.854C164.532 99.347 164.281 96.6257 164.066 93.6895C163.852 90.7533 163.673 87.9603 163.529 85.3105C163.386 82.5892 163.314 80.2259 163.314 78.2207C163.314 76.2155 163.386 74.9264 163.529 74.3535C163.744 73.4225 164.353 72.599 165.356 71.8828C166.43 71.1667 167.54 70.6296 168.686 70.2715C169.903 69.9134 171.013 69.7702 172.016 69.8418C173.09 69.8418 173.77 70.1641 174.057 70.8086ZM174.594 53.4062C174.88 53.9792 174.988 54.7669 174.916 55.7695C174.916 56.7721 174.809 57.8105 174.594 58.8848C174.379 59.959 174.092 60.9974 173.734 62C173.376 63.0026 173.018 63.7904 172.66 64.3633C171.944 65.3659 170.87 66.0104 169.438 66.2969C168.077 66.5117 167.074 66.5475 166.43 66.4043C165.928 66.3327 165.427 66.0104 164.926 65.4375C164.425 64.793 163.995 64.041 163.637 63.1816C163.279 62.2507 163.028 61.248 162.885 60.1738C162.742 59.0996 162.777 58.097 162.992 57.166C163.207 56.235 163.887 55.4115 165.033 54.6953C166.179 53.9076 167.397 53.3346 168.686 52.9766C169.975 52.5469 171.192 52.3678 172.338 52.4395C173.484 52.4395 174.236 52.7617 174.594 53.4062Z" fill="#F2F2F2"/>
<path d="M190.492 85.9551C191.638 85.5254 192.927 85.0599 194.359 84.5586C195.863 83.9857 197.296 83.4844 198.656 83.0547C200.017 82.5534 201.234 82.1237 202.309 81.7656C203.383 81.4076 204.171 81.1211 204.672 80.9062C204.6 80.1185 204.493 79.2233 204.35 78.2207C204.278 77.1465 204.171 76.1439 204.027 75.2129C203.884 74.2103 203.705 73.3509 203.49 72.6348C203.275 71.9186 203.061 71.4889 202.846 71.3457C202.273 71.1309 201.306 70.9518 199.945 70.8086C198.656 70.5938 197.296 70.6296 195.863 70.916C194.503 71.2025 193.249 71.7396 192.104 72.5273C190.958 73.3151 190.313 74.5684 190.17 76.2871C190.027 77.4329 189.991 78.8652 190.063 80.584C190.134 82.3027 190.277 84.0931 190.492 85.9551ZM213.803 87.6738C213.731 87.8171 212.872 88.1035 211.225 88.5332C209.578 88.9629 207.608 89.4284 205.316 89.9297C203.025 90.3594 200.59 90.8249 198.012 91.3262C195.434 91.7559 193.214 92.1139 191.352 92.4004C191.71 95.265 192.139 97.8431 192.641 100.135C193.142 102.355 193.572 103.751 193.93 104.324C194.288 104.826 194.753 105.291 195.326 105.721C195.828 106.079 196.436 106.437 197.152 106.795C197.94 107.081 198.871 107.296 199.945 107.439C200.733 107.654 201.485 107.368 202.201 106.58C202.774 105.864 203.275 104.611 203.705 102.82C204.206 101.03 204.457 98.2012 204.457 94.334C206.677 93.9759 208.396 93.7611 209.613 93.6895C210.902 93.6178 211.833 93.6178 212.406 93.6895C213.122 93.7611 213.552 93.8685 213.695 94.0117C213.767 94.2266 213.767 94.7637 213.695 95.623C213.624 96.4824 213.445 97.5566 213.158 98.8457C212.943 100.063 212.657 101.424 212.299 102.928C212.012 104.36 211.654 105.757 211.225 107.117C210.795 108.406 210.329 109.588 209.828 110.662C209.327 111.665 208.79 112.381 208.217 112.811C206.498 114.1 204.35 114.744 201.772 114.744C199.193 114.673 196.651 114.314 194.145 113.67C191.638 112.954 189.382 112.13 187.377 111.199C185.372 110.197 184.119 109.373 183.617 108.729C183.259 108.299 182.937 107.225 182.65 105.506C182.364 103.715 182.113 101.567 181.898 99.0605C181.755 96.554 181.648 93.7969 181.576 90.7891C181.505 87.7812 181.54 84.8451 181.684 81.9805C181.898 79.1159 182.185 76.4661 182.543 74.0312C182.973 71.5964 183.546 69.627 184.262 68.123C185.336 65.9746 187.091 64.2201 189.525 62.8594C191.96 61.4987 194.538 60.5677 197.26 60.0664C199.981 59.5651 202.559 59.4935 204.994 59.8516C207.501 60.2096 209.363 60.9974 210.58 62.2148C211.296 62.931 211.941 64.3633 212.514 66.5117C213.087 68.5885 213.445 71.1309 213.588 74.1387C213.588 74.4251 213.624 75.2487 213.695 76.6094C213.767 77.9701 213.803 79.4382 213.803 81.0137C213.874 82.5176 213.91 83.9499 213.91 85.3105C213.91 86.6712 213.874 87.459 213.803 87.6738Z" fill="#F2F2F2"/>
</svg>
