<svg id="Layer_1" data-name="Layer 1" xmlns="http://www.w3.org/2000/svg" xmlns:xlink="http://www.w3.org/1999/xlink" viewBox="0 0 163.87 163.87"><defs><style>.cls-1,.cls-11,.cls-19,.cls-21,.cls-24,.cls-26,.cls-3,.cls-8{fill:none;}.cls-2{clip-path:url(#clip-path);}.cls-3{stroke:#be2234;}.cls-11,.cls-19,.cls-21,.cls-24,.cls-26,.cls-3{stroke-miterlimit:22.93;}.cls-11,.cls-19,.cls-21,.cls-24,.cls-26,.cls-3,.cls-8{stroke-width:4px;}.cls-22,.cls-4{fill:#e35b6a;}.cls-10,.cls-11,.cls-12,.cls-13,.cls-14,.cls-15,.cls-16,.cls-17,.cls-18,.cls-19,.cls-20,.cls-21,.cls-23,.cls-24,.cls-25,.cls-26,.cls-27,.cls-28,.cls-29,.cls-30,.cls-4,.cls-5,.cls-6,.cls-7,.cls-8,.cls-9{fill-rule:evenodd;}.cls-5{fill:#de4256;}.cls-6{fill:#ec9099;}.cls-7{fill:#be2234;}.cls-21,.cls-8{stroke:#284c4c;}.cls-8{stroke-linecap:round;stroke-linejoin:round;}.cls-9{fill:#458989;}.cls-10{fill:#3c7676;}.cls-11{stroke:#b3b3b3;}.cls-12{fill:#fff;}.cls-13{opacity:0.2;}.cls-14{fill:#326060;}.cls-15{fill:#193030;}.cls-16{fill:#3c7575;}.cls-17{fill:#264747;}.cls-18{fill:#306161;}.cls-19{stroke:#ccc;}.cls-20{fill:#e6e6e6;}.cls-23{fill:#ff4784;}.cls-24{stroke:#ffda77;}.cls-25{fill:#fff6df;}.cls-26{stroke:#000;}.cls-27{fill:#333;}.cls-28{fill:#1a1a1a;}.cls-29{fill:#4d4d4d;}.cls-30{fill:#284c4c;}</style><clipPath id="clip-path"><circle class="cls-1" cx="81.94" cy="81.94" r="81.94"/></clipPath></defs><g class="cls-2"><path class="cls-3" d="M16.13,124.47l-4-3.32,5.2-1-3.62-3.12L15.05,116l-1.89-3.51,2.22-2.68-4.92-4.07,3.88-1.5,2.06-.79-2.24-.65L8.37,101.1l-.55-3-.05-.27L9,97,7.66,96.6v-.33c-1.44,0-2.81,0-2.95,0S1,97.19.55,98.05c-.85,1.52-1.66,1.08-2.06,4.31a3.66,3.66,0,0,0,.5,2.72c-3.43-.19-8.76,5-6.48,8.24a15.79,15.79,0,0,1,1.12,1.76c-2.45-.66-9.42,1.91-11.46,3.53-1.76,1.39-3.05,2.79-3.18,4.87-5.21-6.26-16.48.25-15.27,2.63l-6.3,3.17L14.25,129c1.06,0,5.29,1.08,5.52.36l2.46-1.31-3.86-2.27Z"/><path class="cls-4" d="M16.13,124.47l-4-3.32,5.2-1-3.62-3.12L15.05,116l-1.89-3.51,2.22-2.68-4.92-4.07,3.88-1.5,2.06-.79-2.24-.65L8.37,101.1l-.55-3-.05-.27L9,97,7.66,96.6v-.33c-1.44,0-2.81,0-2.95,0S1,97.19.55,98.05c-.85,1.52-1.66,1.08-2.06,4.31a3.66,3.66,0,0,0,.5,2.72c-3.43-.19-8.76,5-6.48,8.24a15.79,15.79,0,0,1,1.12,1.76c-2.45-.66-9.42,1.91-11.46,3.53-1.76,1.39-3.05,2.79-3.18,4.87-5.21-6.26-16.48.25-15.27,2.63l-6.3,3.17L14.25,129c1.06,0,5.29,1.08,5.52.36l2.46-1.31-3.86-2.27Z"/><path class="cls-5" d="M16.13,124.47l-7.76,2.78-4.18-2.2a23.35,23.35,0,0,1-2.55,1.39l-15.26,1.69-29,1.15L14.25,129c1.06,0,5.29,1.08,5.52.36l2.46-1.31-3.86-2.27Z"/><path class="cls-6" d="M-5.75,108.56a5.75,5.75,0,0,0-1.37,2.52,3.81,3.81,0,0,0,.27,2.62,6,6,0,0,0,1.94,2.16c-2.24-4.17-.21-7.12,6.37-8.77a11.87,11.87,0,0,1-2-1.15A9.67,9.67,0,0,0-5.75,108.56Z"/><path class="cls-6" d="M7.66,96.6v-.33c-1.44,0-2.81,0-2.95,0s-1.24.34-2.35.73A8.09,8.09,0,0,0,0,99.29c-2,3-.8,5,1,6.57-1.14-4.75,1-7.36,6.93-7.37l-.07-.37-.05-.27L9,97Z"/><path class="cls-7" d="M2.17,95a10.25,10.25,0,0,0-3.76,3.23,5.77,5.77,0,0,0-1,4.5c0,2.75,4.21,4.57,6.32,5.22C1.1,106-3,103.7,0,99.29A8.31,8.31,0,0,1,3,96.67c2.41-1.24,5.39-1.5,7.38.31l1.25-1.38C9,93.2,5.18,93.46,2.17,95Z"/><path class="cls-7" d="M.84,119.45a6.78,6.78,0,0,0-3.18-2.2c-2.49-1-3.89-2.28-4.51-3.55a3.81,3.81,0,0,1-.27-2.62,5.75,5.75,0,0,1,1.37-2.52,9.56,9.56,0,0,1,5.58-2.65l-.74-1.79a9.84,9.84,0,0,0-6.23,3.21,7.66,7.66,0,0,0-1.8,3.33,5.65,5.65,0,0,0,.42,3.85c.8,1.66,2.52,3.24,5.46,4.46a5.16,5.16,0,0,1,2.33,1.48h0c1.9,2.14-4.92,4.94-9.22,6.3,2.09-.15,13.54-3.05,10.78-7.31Z"/><path class="cls-7" d="M1.64,126.44c5.63-2.66,11.3-7.64,3.38-15.23C9.22,118.54,8.38,120.74,1.64,126.44Z"/><polygon class="cls-8" points="24.02 129.13 24.02 129.13 24.01 129.13 24.02 129.13"/><path class="cls-8" d="M64.76,102.47C62.07,88.08,26.27,85.2,15.26,87.26A9.16,9.16,0,0,0,10.2,90l3.23,1.11L8.16,93.44a9,9,0,0,0-.5,3.16L9,97l-1.21.9.05.27.55,3,8,2.33-5.94,2.29,4.92,4.07-2.22,2.68L15.05,116l-1.35,1.07,3.62,3.12-5.2,1,4,3.32L24,129.13c11.94-1.72,46,1.54,43.39-12.48Z"/><polygon class="cls-9" points="24.02 129.13 24.02 129.13 24.01 129.13 24.02 129.13"/><path class="cls-9" d="M64.76,102.47C62.07,88.08,26.27,85.2,15.26,87.26A9.16,9.16,0,0,0,10.2,90l3.23,1.11L8.16,93.44a9,9,0,0,0-.5,3.16L9,97l-1.21.9.05.27.55,3,8,2.33-5.94,2.29,4.92,4.07-2.22,2.68L15.05,116l-1.35,1.07,3.62,3.12-5.2,1,4,3.32L24,129.13c11.94-1.72,46,1.54,43.39-12.48Z"/><polygon class="cls-10" points="22.45 91.28 27.95 99.41 21.47 104.53 28.98 109.08 25.21 111.52 28.73 115.22 21.75 121.08 30.73 123.23 26.73 126.16 34.05 127.61 40.3 119.91 35.55 90.75 22.45 91.28"/><polygon class="cls-10" points="17.32 120.17 15.38 109.79 13.16 112.47 15.05 115.98 13.7 117.05 17.32 120.17"/><polygon class="cls-10" points="10.46 105.72 15.38 109.79 14.34 104.22 10.46 105.72"/><polygon class="cls-10" points="12.12 121.15 16.13 124.47 18.37 125.8 17.32 120.17 12.12 121.15"/><path class="cls-10" d="M15.26,87.26A9.16,9.16,0,0,0,10.2,90l3.23,1.11L8.16,93.44a9,9,0,0,0-.5,3.16L9,97l-1.21.9.05.27.55,3,5.79,1.68a9.36,9.36,0,0,1,7.59-9.56c8.21-1.53,30.17-.32,42,6.34C57.08,87.69,25.49,85.35,15.26,87.26Z"/><path class="cls-11" d="M65.73,102.32c-1.83-9.8-18.52-14.45-33-15.87L34,88.86,27.93,91.4l7.16,8.14-7.67,6.94,7.63,3.83-2.49,1.74,3.32,3.36-7.83,6.08,9.25.83-3.38,3.83,4.85,2.19-1,.81c14.75-.51,32.67-1.64,30.7-12.14Z"/><path class="cls-12" d="M65.73,102.32c-1.83-9.8-18.52-14.45-33-15.87L34,88.86,27.93,91.4l7.16,8.14-7.67,6.94,7.63,3.83-2.49,1.74,3.32,3.36-7.83,6.08,9.25.83-3.38,3.83,4.85,2.19-1,.81c14.75-.51,32.67-1.64,30.7-12.14Z"/><path class="cls-13" d="M32.77,86.45l.36.71.86,1.7L27.93,91.4,29,92.63l3.05,3.47,3.15-1.33-1-2L34,92.37c2.11.21,4.28.48,6.43.84C50.67,94.88,60.8,98.25,65,104a11,11,0,0,1,1.52,2.78l-.83-4.42C63.9,92.52,47.21,87.87,32.77,86.45Z"/><path class="cls-14" d="M19.72,90.35a1.18,1.18,0,1,0,1.38.94A1.18,1.18,0,0,0,19.72,90.35Z"/><path class="cls-14" d="M22.84,97.59a.35.35,0,0,0-.29.42.36.36,0,1,0,.71-.14A.36.36,0,0,0,22.84,97.59Z"/><path class="cls-14" d="M27.87,97.25a.33.33,0,0,0-.26.39.32.32,0,0,0,.38.26.33.33,0,0,0,.27-.38A.34.34,0,0,0,27.87,97.25Z"/><path class="cls-14" d="M21.49,103.65s0,0,.05,0a0,0,0,0,0,0-.06,0,0,0,0,0,0,0S21.49,103.62,21.49,103.65Z"/><path class="cls-14" d="M24,112.74a.17.17,0,0,0-.13.2.16.16,0,0,0,.19.14.17.17,0,0,0,.14-.2A.19.19,0,0,0,24,112.74Z"/><path class="cls-14" d="M27.56,114.93a.3.3,0,1,0,.35.24A.3.3,0,0,0,27.56,114.93Z"/><path class="cls-14" d="M26.28,125.43a.54.54,0,0,0-.44.64.55.55,0,1,0,1.08-.2A.54.54,0,0,0,26.28,125.43Z"/><path class="cls-14" d="M29.12,127.59a.13.13,0,0,0-.11.16.14.14,0,0,0,.16.12.15.15,0,0,0,.12-.17A.15.15,0,0,0,29.12,127.59Z"/><path class="cls-14" d="M23.11,114.67a.62.62,0,1,0,.72.49A.63.63,0,0,0,23.11,114.67Z"/><path class="cls-14" d="M20.08,106.38a.53.53,0,1,0,.19,1.05.55.55,0,0,0,.43-.63A.52.52,0,0,0,20.08,106.38Z"/><path class="cls-6" d="M.69,111.88c3,1.8,3.64,5.76,2.22,11.6C7.07,119.13,7.94,112.87.69,111.88Z"/><path class="cls-5" d="M.47,124.69a.31.31,0,1,0,0,.61.31.31,0,0,0,0-.61Z"/><path class="cls-5" d="M9,125a.51.51,0,1,0,0,1,.51.51,0,0,0,0-1Z"/><path class="cls-5" d="M4.32,108.24a.44.44,0,0,0-.45.43.44.44,0,1,0,.88,0A.43.43,0,0,0,4.32,108.24Z"/><path class="cls-5" d="M10,110.05a.92.92,0,1,0,.91.91A.91.91,0,0,0,10,110.05Z"/><path class="cls-5" d="M10.69,115.58a.28.28,0,0,0-.27.27.27.27,0,1,0,.54,0A.28.28,0,0,0,10.69,115.58Z"/><path class="cls-15" d="M131.67,117l-14-.46a6.34,6.34,0,0,0-4.72,1.85,6.23,6.23,0,0,0-1.81,4.17h0a6.19,6.19,0,0,0,1.54,4.28,6.37,6.37,0,0,0,4.59,2.15l14,.45a6.34,6.34,0,0,0,4.72-1.84,6.18,6.18,0,0,0,1.81-4.17h0a6.16,6.16,0,0,0-1.54-4.28A6.34,6.34,0,0,0,131.67,117Zm2.83,6.32a4.1,4.1,0,0,1-1.17,2.79,2.68,2.68,0,0,1-2,.87l-14-.45a2.78,2.78,0,0,1-1.92-1,4.1,4.1,0,0,1-1-2.86,4,4,0,0,1,1.16-2.79,2.76,2.76,0,0,1,2-.88l14,.46a2.71,2.71,0,0,1,1.93,1,4.13,4.13,0,0,1,1,2.86Z"/><path class="cls-15" d="M116.35,121.55c-2.86-.09-5.24,1.63-5.31,3.86s2.18,4.1,5,4.19,5.24-1.63,5.31-3.86S119.21,121.64,116.35,121.55Z"/><path class="cls-16" d="M131.21,118.19l-15-.48a5,5,0,0,0-5.15,4.83h0a5,5,0,0,0,.09,1.1,2.68,2.68,0,0,0-.13.8c-.08,2.23,2.13,4.1,4.92,4.19a5.76,5.76,0,0,0,3.27-.83l11.63.38a5,5,0,0,0,5.15-4.83h0A5,5,0,0,0,131.21,118.19Z"/><path class="cls-17" d="M131.79,123.45a.91.91,0,1,0,.88.93A.91.91,0,0,0,131.79,123.45Z"/><path class="cls-17" d="M124.68,124a.32.32,0,0,0,0,.64.31.31,0,0,0,.33-.31A.31.31,0,0,0,124.68,124Z"/><path class="cls-17" d="M124.62,121a.49.49,0,0,0-.5.47.48.48,0,1,0,.5-.47Z"/><path class="cls-17" d="M117.07,123.56a.25.25,0,0,0,0,.5.25.25,0,0,0,.25-.24A.25.25,0,0,0,117.07,123.56Z"/><path class="cls-17" d="M114.37,124.93a.54.54,0,0,0-.56.53.52.52,0,0,0,.52.55.53.53,0,0,0,.56-.52A.54.54,0,0,0,114.37,124.93Z"/><path class="cls-17" d="M117.13,120.15a.62.62,0,0,0,0,1.23.62.62,0,1,0,0-1.23Z"/><path class="cls-17" d="M128.17,119.33a.74.74,0,0,0-.77.72.75.75,0,0,0,.72.78.76.76,0,0,0,.78-.73A.76.76,0,0,0,128.17,119.33Z"/><path class="cls-18" d="M133.91,125.34a5,5,0,0,1-3.23,1.06l-9.31-.3-2.32-.07a5.65,5.65,0,0,1-1,.5,6,6,0,0,1-2.22.33,5.32,5.32,0,0,1-4.39-2.28c0-.08-.09-.16-.13-.24a2.48,2.48,0,0,0-.17.59,4.59,4.59,0,0,0,4,3.62,6,6,0,0,0,.85.08,5.76,5.76,0,0,0,3.27-.83l1.3,0,10.33.34a5,5,0,0,0,5.15-4.83,4.85,4.85,0,0,0-.22-1.62A5,5,0,0,1,133.91,125.34Z"/><path class="cls-15" d="M115.25,110.09a6.22,6.22,0,0,0-11.45,1.11h0a6.21,6.21,0,0,0,.45,4.74l3.53,6.61c1.5,3.26,5.83,2.61,7.88,1.55h0l.07,0c2.26-1.2,4.76-4,3.08-7.3Zm1.14,9.58a3.74,3.74,0,0,1-4.68,2.5c-.9-.28-1.2.24-1.69-.65l0,0-3.56-6.68h0a3.76,3.76,0,0,1-.28-2.87h0a3.68,3.68,0,0,1,1.76-2.18l.06,0a3.76,3.76,0,0,1,2.87-.28,3.71,3.71,0,0,1,2.22,1.83l3.56,6.68C117.12,118.84,116.68,118.75,116.39,119.67Z"/><path class="cls-16" d="M114.16,110.67a5,5,0,0,0-6.76-2.06h0a5,5,0,0,0-2.06,6.76l3.57,6.68a5,5,0,0,0,6.75,2.06h0a5,5,0,0,0,2-6.76Z"/><path class="cls-18" d="M112,120.38l-3.57-6.68a5,5,0,0,1,.65-5.63,4.92,4.92,0,0,0-1.72.54,5,5,0,0,0-2.06,6.76l3.57,6.68a5,5,0,0,0,6.75,2.06,5.1,5.1,0,0,0,1.42-1.13A5,5,0,0,1,112,120.38Z"/><path class="cls-17" d="M114.69,118.33a.7.7,0,0,0-.28.94.69.69,0,0,0,.94.28.7.7,0,0,0,.28-.94A.69.69,0,0,0,114.69,118.33Z"/><path class="cls-17" d="M110.22,113a.48.48,0,1,0,.65.2A.49.49,0,0,0,110.22,113Z"/><path class="cls-17" d="M107.7,115.77a.38.38,0,1,0,.52.16A.38.38,0,0,0,107.7,115.77Z"/><path class="cls-17" d="M111.63,120.74a.52.52,0,0,0-.21.7.52.52,0,1,0,.92-.49A.52.52,0,0,0,111.63,120.74Z"/><path class="cls-17" d="M111.72,109.86a.21.21,0,0,0-.08.26.2.2,0,0,0,.27.08.19.19,0,0,0,.08-.26A.21.21,0,0,0,111.72,109.86Z"/><path class="cls-19" d="M112,103.11c-4.92-5.09-14.92.58-12,7.54l2.7,5.89L104,113l2.59.75.45-3.35,3,.44.15-1.87,4.2,1.24-.86-2.69,2.61.69Z"/><path class="cls-12" d="M112,103.11c-4.92-5.09-14.92.58-12,7.54l2.7,5.89L104,113l2.59.75.45-3.35,3,.44.15-1.87,4.2,1.24-.86-2.69,2.61.69Z"/><path class="cls-20" d="M105,101.51c-3.73,1.16-6.74,4.91-5,9.14l2.7,5.89L104,113l1.51.44-2.18-4.76A6.29,6.29,0,0,1,105,101.51Z"/><path class="cls-15" d="M147.16,122.34l.05.67c.36,0,.69-.09,1-.14a7,7,0,0,1,2.27-.14,4.6,4.6,0,0,0-2.39-.43Z"/><path class="cls-15" d="M152.69,112.28a6.86,6.86,0,0,0-5.88,1l.3-.73c.53-1.25.71-1.69,2.65-1.12h0a5.5,5.5,0,0,0,1.33.24h0a4.37,4.37,0,0,0,2.42-.57,3.36,3.36,0,0,0,1.5-1.87h0a3.51,3.51,0,0,0,.14-.82l0-.86-.74-.42c-3-1.68-5.7-2.47-8.05-2s-4.06,2-5.3,5a12.85,12.85,0,0,0-2.85.57h0c-.39.12-.78.26-1.16.4.42-1.43.14-2.82-2.64-4l-1.18-.49-.59,1.13a22.56,22.56,0,0,1-1.35,2.18c-1.52,2.23-2.14,3.43-1.34,7.8a9.88,9.88,0,0,0,.92,1.25h0l3.05,7.12h0a3,3,0,0,0,.36.62h0c.91,1.2,1.4,2.18,3.47,2a18.25,18.25,0,0,0,5.72-1.45,16.79,16.79,0,0,0,2.84-1.55,18.48,18.48,0,0,0,2.24-.24c.61-.1.78-.12,1.07,1.19h0a4.94,4.94,0,0,0,.39,1.14,3.78,3.78,0,0,0,1.51,1.68,3,3,0,0,0,2.16.37h0a2.94,2.94,0,0,0,.72-.25l.77-.37v-.86c0-2.69-.4-4.93-1.5-6.51h0a5.68,5.68,0,0,0-4.26-2.47l.52-.45c.94-.8,1.28-1.08,2.65.26h0a5.53,5.53,0,0,0,1.08.84,4.25,4.25,0,0,0,2.41.64,3.42,3.42,0,0,0,2.22-1h0a2.86,2.86,0,0,0,.49-.63l.45-.74-.47-.72C157,114.92,155,113,152.69,112.28Zm-2.24,10.45a7,7,0,0,0-2.27.14c-.28,0-.61.1-1,.14l-.05-.67.9,0A4.6,4.6,0,0,1,150.45,122.73Zm4.7-4.9a2.66,2.66,0,0,1-.52-.41l0,0c-3.2-3.13-4-2.43-6.43-.39-.44.38-1,.83-1.56,1.26l-.9.66.44,1,.38.9,0,.12v0l0,.12.14,1-1.7,1.28a12.72,12.72,0,0,1-2.64,1.48,7.8,7.8,0,0,1-3.52.69c-1.16.08-2.06,0-2.35-.4h0v0h0l-2.63-6.27h0v-.1l0-.2,0-.18c-.64-3.33-1.4-5-.23-6.73.22-.33.45-.66.69-1a.53.53,0,0,1-.06.24c-.05.14-.15.34-.24.53h0a6,6,0,0,0-.09,3.75l.53,1.7,1.51-.92c1.12-.68,1.93-2.08,3.11-2.45h0A8.42,8.42,0,0,1,142,113l1,.06.34-1c.88-2.53,2.11-3.81,3.6-4.12a7.86,7.86,0,0,1,4.75,1,1.61,1.61,0,0,1-.5,0h0a2.71,2.71,0,0,1-.66-.12h0c-4.34-1.28-4.77-.25-6,2.72-.19.47-.42,1-.75,1.69l-.27.57.25.59.84,2,.78,1.81,1.45-1.34c1.94-1.78,3.61-2.31,5.06-1.88a7.87,7.87,0,0,1,3.71,3.09A1.88,1.88,0,0,1,155.15,117.83Z"/><path class="cls-16" d="M145.9,115.81l-.85-2c1.68-3.43,1.21-4.83,5.11-3.68,2,.61,3.54-.37,3.61-1.76-5.39-3-9.58-2.91-11.7,3.2-2.09-.07-4.5,1.8-6.81,3.11-2.37-1.27,2.57-4.58-1.33-6.2-1.82,3.49-4.14,4.57-3.13,9.82a1.67,1.67,0,0,0,.12.77l3.05,7.12c1.09,2.54,8.28,1,11.93-1.72,3.81,0,4.36-1.57,5.14,2.05.35,1.74,1.74,2.51,2.81,2,.06-4.83-1.44-7.83-5.85-7.62a2.78,2.78,0,0,0-.17-.61l-.39-.91c3.13-2.27,3.28-3.85,6.2-1,1.45,1.47,3.3,1.33,4,.14C154.34,113.35,150.6,111.49,145.9,115.81Z"/><path class="cls-18" d="M135.26,114.7c-1.87-1.87,2.57-4.58-1.33-6.2,2.31,2-1.21,3.67-.54,7.3,3.23.25,6.6,1.41,5.68,5.9C141.12,118.4,138.66,115.51,135.26,114.7Z"/><path class="cls-18" d="M146.72,108.42c-2.19.27-2.34,2.75-3.51,4.13l1.84,1.28c1.68-3.43,1.21-4.83,5.11-3.68,2,.61,3.54-.37,3.61-1.76C151.51,110.33,149.05,108.13,146.72,108.42Z"/><path class="cls-18" d="M150.23,122.7a5.72,5.72,0,0,0-2.17-.4c-.3,0-.6,0-.9,0s-.53,0-.79,0a3.93,3.93,0,0,1-1.59-.28,11.91,11.91,0,0,1-8.13,3.06h-.07c-.52,0-1.06,0-1.61,0s-.91-.06-1.38-.11h-.12l.09.22.42,1,.19.34.17.18a2.75,2.75,0,0,0,1.36.65c2.63.56,7.43-.81,10.2-2.89,3.81,0,4.36-1.57,5.14,2.05.35,1.74,1.74,2.51,2.81,2C151.64,127,152.33,123.59,150.23,122.7Z"/><path class="cls-18" d="M155.5,117.88c-1.66-1.1-3.18-3.1-4.65-2.59a8.61,8.61,0,0,0-2.66,1.72c-.52.43-1,.88-1.57,1.26l.82,1.12c3.13-2.27,3.28-3.85,6.2-1,1.45,1.47,3.3,1.33,4,.14A3.15,3.15,0,0,1,155.5,117.88Z"/><polygon class="cls-18" points="144.79 123.57 146.14 123.41 141.73 114.97 144.79 123.57"/><path class="cls-21" d="M55.58,91.55A11.45,11.45,0,1,0,67,103,11.45,11.45,0,0,0,55.58,91.55Z"/><path class="cls-9" d="M55.58,91.55A11.45,11.45,0,1,0,67,103,11.45,11.45,0,0,0,55.58,91.55Z"/><path class="cls-10" d="M59.6,93a10,10,0,1,0,10,10A10,10,0,0,0,59.6,93Z"/><path class="cls-21" d="M124.08,91.55A11.45,11.45,0,1,0,135.53,103,11.45,11.45,0,0,0,124.08,91.55Z"/><path class="cls-9" d="M124.08,91.55A11.45,11.45,0,1,0,135.53,103,11.45,11.45,0,0,0,124.08,91.55Z"/><path class="cls-10" d="M120.07,93a10,10,0,1,0,10,10A10,10,0,0,0,120.07,93Z"/><rect class="cls-3" x="100.28" y="59.98" width="24.78" height="29.64" rx="10.19"/><rect class="cls-22" x="100.28" y="59.98" width="24.78" height="29.64" rx="10.19"/><path class="cls-23" d="M111.82,64.23a1.08,1.08,0,1,0,1.07,1.08A1.08,1.08,0,0,0,111.82,64.23Z"/><path class="cls-23" d="M110.18,72.53a1.61,1.61,0,1,0,1.61,1.61A1.61,1.61,0,0,0,110.18,72.53Z"/><path class="cls-5" d="M122.71,69.43a1.41,1.41,0,1,0,1.41,1.41A1.42,1.42,0,0,0,122.71,69.43Z"/><path class="cls-23" d="M117.1,83.31a.84.84,0,0,0-.83.84.83.83,0,0,0,1.66,0A.84.84,0,0,0,117.1,83.31Z"/><path class="cls-23" d="M107.22,82.65a1.25,1.25,0,1,0,1.25,1.25A1.25,1.25,0,0,0,107.22,82.65Z"/><path class="cls-23" d="M103.52,68.05a.92.92,0,1,0,.91.91A.91.91,0,0,0,103.52,68.05Z"/><path class="cls-23" d="M118.81,77.28a1.06,1.06,0,1,0,1,1.06A1.06,1.06,0,0,0,118.81,77.28Z"/><path class="cls-21" d="M109.5,59a23.73,23.73,0,0,1,.27-3.5H65.9A10.61,10.61,0,0,0,55.31,66.1v42.34A10.61,10.61,0,0,0,65.9,119h51.37a10.62,10.62,0,0,0,10.59-10.59V80.93A22.2,22.2,0,0,1,109.5,59Z"/><path class="cls-9" d="M109.5,59a23.73,23.73,0,0,1,.27-3.5H65.9A10.61,10.61,0,0,0,55.31,66.1v42.34A10.61,10.61,0,0,0,65.9,119h51.37a10.62,10.62,0,0,0,10.59-10.59V80.93A22.2,22.2,0,0,1,109.5,59Z"/><path class="cls-14" d="M116.85,94.75a9.09,9.09,0,1,0,9.09,9.09A9.11,9.11,0,0,0,116.85,94.75Z"/><path class="cls-10" d="M71.41,113.51a10.61,10.61,0,0,1-10.59-10.58V60.58a10.47,10.47,0,0,1,.87-4.19,10.63,10.63,0,0,0-6.38,9.71v42.35A10.61,10.61,0,0,0,65.89,119h51.38a10.62,10.62,0,0,0,9.71-6.39,10.51,10.51,0,0,1-4.19.87Z"/><path class="cls-14" d="M74.76,89.36a12.76,12.76,0,1,0,12.75,12.76A12.78,12.78,0,0,0,74.76,89.36Z"/><path class="cls-21" d="M75.84,91.73a9.31,9.31,0,1,0,9.3,9.31A9.32,9.32,0,0,0,75.84,91.73Z"/><path class="cls-12" d="M75.84,91.73a9.31,9.31,0,1,0,9.3,9.31A9.32,9.32,0,0,0,75.84,91.73Z"/><path class="cls-20" d="M77.33,95.11A5.93,5.93,0,1,0,83.26,101,5.93,5.93,0,0,0,77.33,95.11Z"/><path class="cls-12" d="M73.55,93.35a4.34,4.34,0,1,0,4.33,4.34A4.35,4.35,0,0,0,73.55,93.35Z"/><path class="cls-12" d="M80.35,104A1.61,1.61,0,1,0,82,105.63,1.61,1.61,0,0,0,80.35,104Z"/><path class="cls-21" d="M115.94,97.11a6.09,6.09,0,1,0,6.09,6.08A6.09,6.09,0,0,0,115.94,97.11Z"/><path class="cls-12" d="M115.94,97.11a6.09,6.09,0,1,0,6.09,6.08A6.09,6.09,0,0,0,115.94,97.11Z"/><path class="cls-20" d="M116.92,99.31a3.88,3.88,0,1,0,3.88,3.88A3.88,3.88,0,0,0,116.92,99.31Z"/><path class="cls-12" d="M114.44,98.16a2.84,2.84,0,1,0,2.84,2.84A2.85,2.85,0,0,0,114.44,98.16Z"/><path class="cls-12" d="M118.9,105.14a1.06,1.06,0,1,0,1,1.06A1.05,1.05,0,0,0,118.9,105.14Z"/><path class="cls-10" d="M73.92,119H78.8c10.9-4.91,21-5.66,29.93,0h5.46C102.31,108.89,89.33,108,73.92,119Z"/><path class="cls-5" d="M78.8,119h29.93C99.82,112,88,112,78.8,119Z"/><path class="cls-4" d="M80.08,119h27.41A23.76,23.76,0,0,0,80.08,119Z"/><polygon class="cls-24" points="81.72 119.17 81.95 121.92 86.23 122.5 85.83 117.64 81.72 119.17"/><polygon class="cls-25" points="81.72 119.17 81.95 121.92 86.23 122.5 85.83 117.64 81.72 119.17"/><polygon class="cls-12" points="83.98 118.81 83.56 121.66 85.76 122.1 85.55 118.16 83.98 118.81"/><polygon class="cls-24" points="101.91 122.5 106.19 121.92 106.42 119.17 102.31 117.64 101.91 122.5"/><polygon class="cls-25" points="101.91 122.5 106.19 121.92 106.42 119.17 102.31 117.64 101.91 122.5"/><polygon class="cls-12" points="102.59 118.16 102.38 122.1 104.58 121.66 104.16 118.81 102.59 118.16"/><path class="cls-24" d="M87,117l.64,6.78,6.95,1.38-.26-9A16.85,16.85,0,0,0,87,117Z"/><path class="cls-25" d="M87,117l.64,6.78,6.95,1.38-.26-9A16.85,16.85,0,0,0,87,117Z"/><path class="cls-12" d="M91,116.61l-1.21,7,4.25,1.09.12-8.13A11.15,11.15,0,0,0,91,116.61Z"/><path class="cls-14" d="M75.15,79.77a.75.75,0,0,0,0,1.5.75.75,0,0,0,0-1.5Z"/><path class="cls-14" d="M84.17,83.3a.78.78,0,1,0,.78.78A.78.78,0,0,0,84.17,83.3Z"/><path class="cls-14" d="M96.49,94.47A1.5,1.5,0,1,0,98,96,1.5,1.5,0,0,0,96.49,94.47Z"/><path class="cls-14" d="M63,90a.35.35,0,0,0-.35.34.35.35,0,0,0,.35.35.35.35,0,0,0,.34-.35A.34.34,0,0,0,63,90Z"/><path class="cls-14" d="M98.61,107.33a1.33,1.33,0,1,0,1.32,1.33A1.33,1.33,0,0,0,98.61,107.33Z"/><path class="cls-14" d="M118.54,83.44a.35.35,0,0,0-.34.35.35.35,0,0,0,.69,0A.35.35,0,0,0,118.54,83.44Z"/><path class="cls-14" d="M96.23,82.33a.72.72,0,1,0,.72.72A.72.72,0,0,0,96.23,82.33Z"/><path class="cls-14" d="M69.81,85.35A1.15,1.15,0,1,0,71,86.49,1.15,1.15,0,0,0,69.81,85.35Z"/><path class="cls-14" d="M110.24,85.74a1.44,1.44,0,1,0,1.44,1.44A1.45,1.45,0,0,0,110.24,85.74Z"/><path class="cls-26" d="M108.14,55.52l-11-18L97,42.86,85,33.79l2.65,8.85L75.51,34.23l3.54,9.07L68.21,36.22,70,42.42,56.06,35.13l4.4,10.94L47.52,44.3l9.4,7.19L40.33,57.24l9.51,4.65L37.9,61.44l9.73,10-7.08-.88,9.07,13.27-4.42-.88,5.13,9.91,1.39-4.16,4.87,24.82,2.32-26.7,2.75,6.51,10-15.91L69.09,93.31,87.46,78.92l-2.33,11.4,15.15-13.5-1,9.52L112.67,74.8A27.8,27.8,0,0,1,108.14,55.52Z"/><path class="cls-27" d="M108.14,55.52l-11-18L97,42.86,85,33.79l2.65,8.85L75.51,34.23l3.54,9.07L68.21,36.22,70,42.42,56.06,35.13l4.4,10.94L47.52,44.3l9.4,7.19L40.33,57.24l9.51,4.65L37.9,61.44l9.73,10-7.08-.88,9.07,13.27-4.42-.88,5.13,9.91,1.39-4.16,4.87,24.82,2.32-26.7,2.75,6.51,10-15.91L69.09,93.31,87.46,78.92l-2.33,11.4,15.15-13.5-1,9.52L112.67,74.8A27.8,27.8,0,0,1,108.14,55.52Z"/><path class="cls-5" d="M116.6,63.78a.75.75,0,1,0,.74.75A.74.74,0,0,0,116.6,63.78Z"/><path class="cls-5" d="M117.23,70.64a.6.6,0,0,0-.6.61.61.61,0,1,0,.6-.61Z"/><path class="cls-5" d="M122,65.33a.5.5,0,0,0-.5.5.5.5,0,0,0,1,0A.5.5,0,0,0,122,65.33Z"/><path class="cls-5" d="M121.77,75a.4.4,0,0,0-.39.39.39.39,0,0,0,.39.39.38.38,0,0,0,.38-.39A.39.39,0,0,0,121.77,75Z"/><path class="cls-28" d="M101.72,78.4l.94-9.11,0-.4-.1.07-2.32,2.09L87.56,82.39,89.88,71,71.52,85.37l2.55-15.93-10,15.92-2.75-6.51-.52,6-.47,5.38.47,1.11.8,1.88,0,.1.05-.08,9.93-15.83-1.3,8.1L70,87.63l-.45,2.84-.46,2.84,5-3.93L87.46,78.92l-2.33,11.4,15.15-13.5-1,9.52,2.28-2,11.1-9.58a30.74,30.74,0,0,1-2.19-4Z"/><polygon class="cls-28" points="56.28 91.57 55.31 86.63 54.15 80.73 52.76 84.89 47.63 74.97 52.05 75.86 42.98 62.59 50.06 63.47 48.47 61.84 37.9 61.45 47.63 71.4 40.55 70.52 49.62 83.79 45.2 82.91 50.33 92.82 51.73 88.66 52.38 92 53.05 95.42 55.31 106.94 56.4 112.49 56.59 113.48 56.67 112.58 57.82 99.41 56.64 93.42 56.28 91.57"/><polygon class="cls-29" points="40.33 57.24 47.5 60.74 60.46 56.24 55.08 52.13 40.33 57.24"/><polygon class="cls-29" points="96.97 42.86 85.03 33.79 87.68 42.64 75.51 34.23 79.05 43.3 68.21 36.22 69.98 42.42 56.06 35.13 60.46 46.07 47.52 44.3 54.33 49.5 64 50.83 59.6 39.89 73.52 47.17 71.75 40.98 82.59 48.06 79.05 38.99 91.22 47.4 88.57 38.55 100.51 47.62 100.69 43.29 97.19 37.55 96.97 42.86"/><path class="cls-21" d="M51.17,112.12a5,5,0,0,0-7,7.09l5.38,5.33a5,5,0,0,0,7.06,0h0a5,5,0,0,0,0-7.06Z"/><path class="cls-9" d="M51.17,112.12a5,5,0,0,0-7,7.09l5.38,5.33a5,5,0,0,0,7.06,0h0a5,5,0,0,0,0-7.06Z"/><path class="cls-10" d="M52,122l-5.38-5.34a5,5,0,0,1-1.05-5.57,4.9,4.9,0,0,0-1.47,1,5,5,0,0,0,0,7.06l5.38,5.33a5,5,0,0,0,7.06,0,4.77,4.77,0,0,0,1-1.49A5,5,0,0,1,52,122Z"/><path class="cls-14" d="M53.94,119.28a.69.69,0,0,0,0,1,.69.69,0,1,0,1-1A.69.69,0,0,0,53.94,119.28Z"/><path class="cls-14" d="M48.09,115.52a.48.48,0,0,0,.69.68.5.5,0,0,0,0-.68A.49.49,0,0,0,48.09,115.52Z"/><path class="cls-14" d="M46.5,118.9a.4.4,0,0,0,0,.55.39.39,0,0,0,.54,0,.38.38,0,0,0,0-.54A.39.39,0,0,0,46.5,118.9Z"/><path class="cls-14" d="M51.73,122.48a.52.52,0,1,0,.74,0A.53.53,0,0,0,51.73,122.48Z"/><path class="cls-14" d="M48.61,112.07a.18.18,0,0,0,0,.27.2.2,0,0,0,.27,0,.19.19,0,1,0-.27-.27Z"/><path class="cls-11" d="M46.88,105.53c-6.2-3.4-14.08,5-9.27,10.77l4.32,4.82.23-3.73,2.69,0L44.29,114l3-.48-.41-1.82,4.37-.06-1.61-2.31,2.7-.12Z"/><path class="cls-12" d="M46.88,105.53c-6.2-3.4-14.08,5-9.27,10.77l4.32,4.82.23-3.73,2.69,0L44.29,114l3-.48-.41-1.82,4.37-.06-1.61-2.31,2.7-.12Z"/><path class="cls-20" d="M39.68,106.09c-3.23,2.2-5,6.68-2.07,10.21l4.32,4.82.23-3.73,1.57,0-3.5-3.9A6.28,6.28,0,0,1,39.68,106.09Z"/><path class="cls-30" d="M79.41,117.37a6.17,6.17,0,0,0-2.74-3.63,6.28,6.28,0,0,0-5-.7l-13.53,3.71a6.32,6.32,0,0,0-4,3.16,6.22,6.22,0,0,0-.51,4.52h0a6.18,6.18,0,0,0,2.74,3.63,6.3,6.3,0,0,0,5,.7L75,125.05a6.32,6.32,0,0,0,4-3.16,6.21,6.21,0,0,0,.51-4.52ZM76,121.25a2.74,2.74,0,0,1-1.65,1.42l-13.54,3.71a2.72,2.72,0,0,1-2.14-.38,4.13,4.13,0,0,1-1.78-2.44h0a4.15,4.15,0,0,1,.29-3,2.74,2.74,0,0,1,1.65-1.42l13.53-3.71a2.75,2.75,0,0,1,2.14.38,4,4,0,0,1,1.78,2.44A4.1,4.1,0,0,1,76,121.25Z"/><path class="cls-30" d="M58.38,121.94c-2.76.75-4.53,3.1-3.94,5.25s3.31,3.27,6.07,2.52,4.52-3.11,3.94-5.26S61.14,121.18,58.38,121.94Z"/><path class="cls-9" d="M77.72,117.84a5,5,0,0,0-6.13-3.5l-14.43,4a5,5,0,0,0-3.5,6.14h0a5.06,5.06,0,0,0,.41,1,3.24,3.24,0,0,0,.12.81c.59,2.15,3.24,3.29,5.93,2.55A5.85,5.85,0,0,0,63,127.05L74.22,124a5,5,0,0,0,3.5-6.13Z"/><path class="cls-14" d="M73.69,119.18a.91.91,0,1,0,1.12.64A.93.93,0,0,0,73.69,119.18Z"/><path class="cls-14" d="M67.07,121.85a.32.32,0,0,0-.23.39.32.32,0,0,0,.62-.17A.31.31,0,0,0,67.07,121.85Z"/><path class="cls-14" d="M66.11,119a.46.46,0,0,0-.34.58.48.48,0,0,0,.59.33.47.47,0,0,0,.33-.58A.45.45,0,0,0,66.11,119Z"/><path class="cls-14" d="M59.66,123.64a.25.25,0,0,0-.17.31.24.24,0,0,0,.3.17.24.24,0,0,0,.18-.3A.25.25,0,0,0,59.66,123.64Z"/><path class="cls-14" d="M57.48,125.75a.54.54,0,1,0,.67.38A.54.54,0,0,0,57.48,125.75Z"/><path class="cls-14" d="M58.72,120.37a.61.61,0,0,0-.43.75.61.61,0,1,0,.43-.75Z"/><path class="cls-14" d="M69,116.32a.75.75,0,1,0,.92.52A.75.75,0,0,0,69,116.32Z"/><path class="cls-10" d="M77,116.36a5,5,0,0,1-.76,4,5,5,0,0,1-2.78,2l-9,2.46-2.24.61a4.92,4.92,0,0,1-.85.79,6.08,6.08,0,0,1-2,1,5.33,5.33,0,0,1-4.87-.89l-.19-.18a3.11,3.11,0,0,0,0,.61A4.59,4.59,0,0,0,59.29,129,6.16,6.16,0,0,0,63,127.05l1.26-.34,10-2.74A5,5,0,0,0,77,116.36Z"/><path class="cls-30" d="M87.68,126.94l-.8-.4-.29.6c.33.15.64.26.91.36a7,7,0,0,1,2,1A4.57,4.57,0,0,0,87.68,126.94Z"/><path class="cls-30" d="M94.7,111.26c-2.19-.71-4.54-.24-7.08,1.74a11.92,11.92,0,0,0-2.76-.91h0a11.74,11.74,0,0,0-1.21-.21c1.08-1,1.52-2.4-.33-4.77l-.78-1-1.07.68A21.1,21.1,0,0,1,79.2,108c-2.42,1.19-3.55,1.93-5,6.12a8.13,8.13,0,0,0,.18,1.54h0l-.86,7.69h0a3.47,3.47,0,0,0,0,.72c.2,1.49.14,2.59,2,3.49a18.26,18.26,0,0,0,5.69,1.56,16.8,16.8,0,0,0,3.24.06,18.32,18.32,0,0,0,2.06.9c.58.22.74.28.34,1.56v0a5,5,0,0,0-.22,1.18,3.74,3.74,0,0,0,.48,2.2,3.12,3.12,0,0,0,1.7,1.4,2.94,2.94,0,0,0,.74.14l.86.06.43-.74c1.36-2.33,2.09-4.48,1.92-6.4h0a5.7,5.7,0,0,0-2.49-4.25l.67-.13c1.22-.23,1.65-.31,2.18,1.53a5.27,5.27,0,0,0,.51,1.26,4.35,4.35,0,0,0,1.79,1.75,3.35,3.35,0,0,0,2.4.26h0a3.15,3.15,0,0,0,.74-.31l.76-.42,0-.86c-.17-3.4-1-6.11-2.6-7.83a6.87,6.87,0,0,0-5.64-2l.63-.49c1.08-.82,1.45-1.11,2.86.34h0a5.81,5.81,0,0,0,1,.87h0a4.29,4.29,0,0,0,2.38.69,3.34,3.34,0,0,0,2.23-.88h0a3.07,3.07,0,0,0,.53-.65l.46-.72-.44-.73C99,114,97,112,94.7,111.26ZM87.5,127.5c-.27-.1-.58-.21-.91-.36l.29-.6.8.4a4.57,4.57,0,0,1,1.86,1.56A7,7,0,0,0,87.5,127.5ZM97,116.9h0a3.39,3.39,0,0,1-.52-.43v0c-3.14-3.26-4-2.58-6.56-.61-.4.32-.87.68-1.49,1.1l-.53.36-.07.64-.24,2.14-.22,2,1.92-.44c2.57-.59,4.28-.23,5.33.86a7.89,7.89,0,0,1,1.7,4.52,1.89,1.89,0,0,1-.3-.41,2.87,2.87,0,0,1-.25-.61v0c-1.23-4.31-2.31-4.11-5.39-3.51-.57.11-1.25.23-2,.32l-1.11.12-.12,1.1-.12,1h0l0,.12v0l0,.12-.37.92-2.11.27a12.75,12.75,0,0,1-3,0,7.78,7.78,0,0,1-3.4-1.14c-1.06-.5-1.78-1-1.85-1.5h0v0h0l.86-7.68h0v0l0-.07.11-.16.06-.17c1.09-3.21,1.21-4.11,3.08-5,.35-.17.72-.35,1.1-.55a.46.46,0,0,1-.16.18l-.48.34h0A3.78,3.78,0,0,0,79,112.78l-.38,1.74,1.77,0a16.36,16.36,0,0,1,3.87.34h0a8.73,8.73,0,0,1,2.75,1l.88.58.79-.7c2-1.77,3.72-2.28,5.17-1.81a7.88,7.88,0,0,1,3.64,3.2A1.52,1.52,0,0,1,97,116.9Z"/><path class="cls-9" d="M87.77,114.68c-1.76-1.15-4.72-1.68-7.41-1.61.38-1.76,4.45-1.78,1.85-5.1-3.3,2.12-5.85,1.92-7.57,7a1.76,1.76,0,0,0-.28.73l-.86,7.69c-.31,2.75,6.69,5,11.22,4.4h0c3.33,1.85,4.56.79,3.46,4.33-.56,1.68.26,3,1.45,3.11,2.43-4.17,2.62-7.52-1.32-9.52a2.27,2.27,0,0,0,.15-.61l.11-1c3.85-.43,4.76-1.73,5.89,2.2.53,2,2.21,2.79,3.41,2.11-.32-6.15-2.64-9.61-8.86-8.19l.24-2.14c3.16-2.15,3.44-3.6,6.26-.67,1.41,1.51,3.26,1.43,4,.26C96.33,112.37,92.63,110.4,87.77,114.68Z"/><path class="cls-10" d="M78.19,113.11l2.17,0c.38-1.76,4.45-1.78,1.85-5.1C83.21,110.89,79.53,111.39,78.19,113.11Z"/><path class="cls-10" d="M93.37,114.22c-2-.85-3.39,1.23-5.08,1.85l1,2c3.16-2.15,3.44-3.6,6.26-.67,1.41,1.51,3.26,1.43,4,.26C96.6,118.25,95.55,115.11,93.37,114.22Z"/><path class="cls-10" d="M89.37,128.36a5.87,5.87,0,0,0-1.69-1.42,8.52,8.52,0,0,1-.8-.4,6.73,6.73,0,0,1-.71-.36,3.77,3.77,0,0,1-1.25-1,11.89,11.89,0,0,1-8.58-1.37l-.06,0c-.46-.25-.93-.52-1.39-.81s-.76-.5-1.14-.77l-.1-.08,0,.24-.12,1v.39a1,1,0,0,0,0,.24,2.78,2.78,0,0,0,.86,1.23c2,1.8,6.87,3,10.3,2.54,3.33,1.85,4.56.79,3.46,4.33-.56,1.68.26,3,1.45,3.11C88.47,132.78,90.75,130.18,89.37,128.36Z"/><path class="cls-10" d="M96.33,126.78c-.9-1.78-1.23-4.26-2.76-4.55a8.72,8.72,0,0,0-3.17.18c-.66.12-1.32.25-2,.32l.15,1.38c3.85-.43,4.76-1.73,5.89,2.2.53,2,2.21,2.79,3.41,2.11A3.14,3.14,0,0,1,96.33,126.78Z"/><path class="cls-14" d="M80.86,122.71a1.08,1.08,0,1,0,1.37.67A1.08,1.08,0,0,0,80.86,122.71Z"/><path class="cls-14" d="M81.69,115.42a.68.68,0,1,0,.87.42A.67.67,0,0,0,81.69,115.42Z"/><path class="cls-14" d="M86.26,117.84a.75.75,0,1,0,.49,1.41.75.75,0,0,0-.49-1.41Z"/><path class="cls-14" d="M76,116.47a.29.29,0,0,0-.18.37.29.29,0,1,0,.55-.19A.29.29,0,0,0,76,116.47Z"/><path class="cls-14" d="M76.14,120.66a.46.46,0,1,0,.3.86.46.46,0,0,0-.3-.86Z"/></g></svg>