<svg width="29" height="29" viewBox="0 0 29 29" fill="none" xmlns="http://www.w3.org/2000/svg">
<path fill-rule="evenodd" clip-rule="evenodd" d="M5.10896 4.89107e-05H23.9206C24.5887 -0.00288307 25.2509 0.126032 25.8691 0.379408C26.4873 0.632784 27.0495 1.00564 27.5234 1.47663V1.47663C28.4701 2.4428 29.0002 3.7416 29 5.09424V18.7969C28.9879 20.0965 28.481 21.3426 27.5825 22.2816C27.062 22.8351 26.4271 23.2684 25.722 23.5515V24.5112C25.7181 25.6079 25.2818 26.6588 24.5077 27.4357C23.7336 28.2126 22.6842 28.6527 21.5876 28.6604H7.41242C6.86323 28.6641 6.31888 28.5575 5.81161 28.347C5.30435 28.1365 4.84449 27.8263 4.45927 27.4349V27.4349C4.07116 27.0479 3.76416 26.5874 3.55625 26.0803C3.34835 25.5732 3.24371 25.0298 3.24847 24.4817V23.5219C2.5516 23.2453 1.9222 22.8223 1.40275 22.2816C0.502615 21.3329 0.000563787 20.0751 5.49882e-08 18.7674V5.12378C-0.000197129 3.77114 0.529927 2.47233 1.47658 1.50616V1.50616C1.95049 1.03517 2.51266 0.662315 3.1309 0.408939C3.74914 0.155563 4.41129 0.0266485 5.07943 0.0295805L5.10896 4.89107e-05ZM23.9206 3.32235H5.10896C4.63922 3.32439 4.18885 3.50983 3.85387 3.83915V3.83915C3.6877 4.00588 3.55641 4.20404 3.46767 4.42207C3.37894 4.6401 3.33454 4.87363 3.33707 5.10901V18.8117C3.34077 19.2711 3.51434 19.7129 3.82434 20.052C4.14254 20.3768 4.56717 20.576 5.02037 20.6131L6.60031 20.6869V23.5662H22.444V20.7017L23.9206 20.6278C24.3771 20.6035 24.8061 20.4022 25.1166 20.0667V20.0667C25.4329 19.7316 25.6075 19.2872 25.6039 18.8264V5.12378C25.6064 4.88839 25.562 4.65487 25.4733 4.43684C25.3845 4.21881 25.2532 4.02064 25.0871 3.85392V3.85392C24.7735 3.54414 24.3601 3.35576 23.9206 3.32235V3.32235Z" fill="#242127"/>
<path fill-rule="evenodd" clip-rule="evenodd" d="M5.10904 3.08618H23.9206C24.8384 3.09009 25.7172 3.45739 26.3647 4.10772C27.0123 4.75804 27.3759 5.6384 27.3758 6.55614V18.7674C27.3882 19.6703 27.0481 20.5425 26.4277 21.1987C25.8074 21.8548 24.9557 22.2434 24.0535 22.2817V24.5556C24.0497 25.2123 23.7871 25.8411 23.3227 26.3054C22.8583 26.7698 22.2296 27.0324 21.5729 27.0363H20.9675V25.2349H18.2063V27.0363H16.1243V25.2349H13.3926V27.0363H10.9858V25.2349H8.23939V27.0363H7.4125C6.75323 27.0363 6.12074 26.7754 5.65318 26.3106C5.18562 25.8458 4.92099 25.2149 4.91709 24.5556V22.2817C4.03687 22.2257 3.21066 21.8379 2.60506 21.1967C1.99946 20.5555 1.65954 19.7085 1.65385 18.8265V6.6152C1.648 6.15634 1.73284 5.70085 1.90349 5.27486C2.07415 4.84888 2.32727 4.4608 2.64831 4.13289C2.96935 3.80499 3.35199 3.54373 3.77428 3.36411C4.19656 3.18448 4.65016 3.09003 5.10904 3.08618V3.08618Z" fill="#D39700"/>
<path fill-rule="evenodd" clip-rule="evenodd" d="M5.10888 1.60962H23.9205C24.8356 1.62902 25.7061 2.00924 26.3422 2.66746C26.9783 3.32569 27.3285 4.20859 27.3166 5.12388V17.3352C27.3182 18.2207 26.9811 19.0734 26.3744 19.7185C25.7678 20.3636 24.9374 20.7524 24.0534 20.8051V23.0791C24.0495 23.7358 23.7869 24.3645 23.3225 24.8289C22.8582 25.2932 22.2294 25.5558 21.5727 25.5597H20.9673V23.7583H18.2061V25.5597H16.1242V23.7583H13.3925V25.5597H10.9857V23.7583H8.23923V25.5597H7.41235C6.75307 25.5597 6.12058 25.2989 5.65302 24.8341C5.18546 24.3693 4.92083 23.7383 4.91693 23.0791V20.8051C4.03672 20.7491 3.2105 20.3614 2.6049 19.7201C1.9993 19.0789 1.65938 18.2319 1.65369 17.3499V5.12388C1.6498 4.66625 1.73608 4.21234 1.90761 3.78806C2.07915 3.36378 2.33258 2.97745 2.65342 2.65112C2.97427 2.32479 3.35626 2.06485 3.77757 1.88615C4.19888 1.70744 4.65126 1.61348 5.10888 1.60962V1.60962Z" fill="#FFF1CA"/>
<path fill-rule="evenodd" clip-rule="evenodd" d="M16.8476 17.4681C14.4288 18.6254 11.874 19.4738 9.24326 19.993C8.82197 20.1465 8.37745 20.2264 7.9291 20.2293H7.85527C6.51504 20.4222 5.16344 20.5258 3.80945 20.5393C4.1649 20.6748 4.53774 20.7594 4.91688 20.7904V23.0643C4.92078 23.7236 5.18541 24.3545 5.65297 24.8193C6.12053 25.2841 6.75302 25.5449 7.4123 25.5449H8.23918V23.7583H10.9856V25.5597H13.3924V23.7583H16.1241V25.5597H18.2061V23.7583H20.9673V25.5597H21.6022C22.2589 25.5558 22.8876 25.2932 23.352 24.8289C23.8164 24.3645 24.079 23.7358 24.0829 23.0791V20.8051C24.9643 20.7525 25.7926 20.3658 26.3989 19.7239C27.0052 19.0819 27.3439 18.2329 27.3461 17.3499V10.3362C25.9581 11.5617 24.5554 12.6987 23.1231 13.7471C23.5382 14.1495 23.8551 14.6421 24.0492 15.1867C24.2432 15.7312 24.3093 16.3132 24.2422 16.8875C24.1751 17.4617 23.9767 18.0128 23.6624 18.498C23.348 18.9832 22.9261 19.3895 22.4295 19.6854C21.9328 19.9813 21.3746 20.1588 20.7983 20.2042C20.2219 20.2497 19.6428 20.1618 19.1059 19.9474C18.569 19.733 18.0887 19.3978 17.7022 18.9678C17.3157 18.5379 17.0334 18.0247 16.8772 17.4681H16.8476ZM14.7066 22.134C14.4905 22.134 14.2792 22.07 14.0995 21.9499C13.9199 21.8298 13.7798 21.6592 13.6971 21.4595C13.6144 21.2599 13.5928 21.0402 13.6349 20.8282C13.6771 20.6162 13.7811 20.4216 13.934 20.2687C14.0868 20.1159 14.2815 20.0119 14.4934 19.9697C14.7054 19.9275 14.9251 19.9492 15.1247 20.0319C15.3244 20.1146 15.4951 20.2546 15.6151 20.4343C15.7352 20.614 15.7993 20.8253 15.7993 21.0414C15.7993 21.3312 15.6841 21.6091 15.4792 21.814C15.2743 22.0189 14.9964 22.134 14.7066 22.134V22.134Z" fill="#FFE596"/>
<path fill-rule="evenodd" clip-rule="evenodd" d="M7.92917 12.182C8.63349 12.1817 9.32701 12.3552 9.94828 12.687C10.5695 13.0188 11.0994 13.4987 11.4908 14.0842C11.8823 14.6698 12.1232 15.3428 12.1924 16.0437C12.2615 16.7446 12.1567 17.4518 11.8872 18.1025C11.6177 18.7532 11.1919 19.3275 10.6474 19.7743C10.1029 20.2211 9.45667 20.5267 8.76587 20.664C8.07506 20.8013 7.36105 20.7661 6.6871 20.5615C6.01315 20.3569 5.40007 19.9893 4.90219 19.4911C4.10445 18.6848 3.65396 17.5983 3.64709 16.4641C3.64709 15.3284 4.09824 14.2392 4.90129 13.4362C5.70433 12.6332 6.79349 12.182 7.92917 12.182V12.182ZM10.2326 14.1459C9.7727 13.7099 9.1958 13.4174 8.57237 13.3039C7.94893 13.1904 7.30594 13.2608 6.72189 13.5067C6.13783 13.7525 5.63799 14.1631 5.28338 14.6882C4.92878 15.2134 4.73475 15.8305 4.725 16.4641C4.725 17.3295 5.0688 18.1596 5.68078 18.7715C6.29275 19.3835 7.12277 19.7273 7.98823 19.7273C8.8537 19.7273 9.68371 19.3835 10.2957 18.7715C10.9077 18.1596 11.2515 17.3295 11.2515 16.4641C11.2439 16.0294 11.1499 15.6006 10.9749 15.2026C10.8 14.8046 10.5477 14.4454 10.2326 14.1459Z" fill="#FFD73F"/>
<path fill-rule="evenodd" clip-rule="evenodd" d="M7.92934 12.684C8.67758 12.6811 9.40986 12.9003 10.0334 13.3138C10.657 13.7274 11.1438 14.3168 11.4321 15.0072C11.7205 15.6977 11.7975 16.4582 11.6533 17.1924C11.5091 17.9266 11.1503 18.6015 10.6222 19.1317C10.0942 19.6618 9.42066 20.0233 8.687 20.1703C7.95334 20.3174 7.19255 20.2434 6.50097 19.9577C5.8094 19.6721 5.21817 19.1876 4.80215 18.5656C4.38614 17.9437 4.16407 17.2123 4.16406 16.464C4.16405 15.4641 4.56028 14.5048 5.26598 13.7963C5.97169 13.0879 6.92937 12.6879 7.92934 12.684Z" fill="black"/>
<path fill-rule="evenodd" clip-rule="evenodd" d="M20.4801 12.182C21.6158 12.182 22.7049 12.6332 23.508 13.4362C24.311 14.2392 24.7622 15.3284 24.7622 16.4641C24.7549 17.3076 24.4995 18.1304 24.0278 18.8297C23.5561 19.5291 22.889 20.0741 22.1096 20.3969C21.3302 20.7197 20.4731 20.8059 19.645 20.6448C18.817 20.4837 18.0547 20.0825 17.4531 19.4911C16.8546 18.8922 16.4471 18.1294 16.282 17.299C16.1169 16.4686 16.2017 15.6079 16.5257 14.8256C16.8496 14.0434 17.3982 13.3748 18.1021 12.9042C18.8059 12.4337 19.6335 12.1824 20.4801 12.182V12.182ZM22.7836 14.1459C22.3263 13.6902 21.7442 13.3804 21.1109 13.2556C20.4776 13.1308 19.8215 13.1967 19.2256 13.4448C18.6297 13.693 18.1208 14.1123 17.7632 14.6497C17.4057 15.1872 17.2155 15.8186 17.2169 16.4641C17.218 17.0007 17.3514 17.5287 17.6053 18.0014C17.8592 18.4742 18.2258 18.877 18.6726 19.1742C19.1193 19.4714 19.6325 19.6539 20.1666 19.7054C20.7007 19.757 21.2393 19.676 21.7346 19.4698C22.23 19.2635 22.6668 18.9382 23.0065 18.5228C23.3461 18.1074 23.5781 17.6146 23.6818 17.0881C23.7855 16.5616 23.7578 16.0177 23.6011 15.5045C23.4445 14.9913 23.1637 14.5246 22.7836 14.1459V14.1459Z" fill="#FFD73F"/>
<path fill-rule="evenodd" clip-rule="evenodd" d="M20.4802 12.684C21.2279 12.684 21.9587 12.9057 22.5803 13.321C23.2019 13.7364 23.6864 14.3267 23.9725 15.0174C24.2586 15.7082 24.3335 16.4682 24.1876 17.2014C24.0418 17.9347 23.6818 18.6082 23.1531 19.1369C22.6245 19.6655 21.9509 20.0256 21.2177 20.1714C20.4844 20.3173 19.7244 20.2424 19.0337 19.9563C18.343 19.6702 17.7526 19.1857 17.3372 18.5641C16.9219 17.9425 16.7002 17.2116 16.7002 16.464C16.7002 15.4615 17.0984 14.5 17.8073 13.7911C18.5162 13.0822 19.4777 12.684 20.4802 12.684V12.684Z" fill="black"/>
<path fill-rule="evenodd" clip-rule="evenodd" d="M14.7066 19.5205C14.9069 19.5173 15.1058 19.555 15.2911 19.6311C15.4764 19.7073 15.6443 19.8204 15.7845 19.9635C15.9303 20.1024 16.0461 20.2697 16.1248 20.4551C16.2035 20.6405 16.2435 20.84 16.2423 21.0414C16.221 21.4261 16.0587 21.7895 15.7862 22.0619C15.5138 22.3344 15.1504 22.4967 14.7657 22.518C14.5643 22.5192 14.3648 22.4792 14.1794 22.4005C13.994 22.3218 13.8267 22.206 13.6878 22.0602C13.5447 21.92 13.4316 21.7521 13.3555 21.5668C13.2793 21.3815 13.2417 21.1826 13.2448 20.9823C13.2448 20.5907 13.4004 20.2151 13.6773 19.9382C13.9542 19.6613 14.3298 19.5057 14.7214 19.5057L14.7066 19.5205ZM15.1791 20.5836C15.1198 20.5173 15.0469 20.4645 14.9654 20.4288C14.8839 20.3932 14.7956 20.3755 14.7066 20.3769C14.5338 20.3874 14.3709 20.4608 14.2484 20.5832C14.126 20.7056 14.0527 20.8686 14.0422 21.0414C14.0407 21.1304 14.0584 21.2186 14.0941 21.3001C14.1297 21.3817 14.1825 21.4546 14.2489 21.5139C14.37 21.6359 14.5347 21.705 14.7066 21.7058C14.7944 21.7079 14.8817 21.6921 14.9633 21.6594C15.0448 21.6267 15.1189 21.5778 15.181 21.5157C15.2431 21.4536 15.2919 21.3796 15.3246 21.298C15.3573 21.2165 15.3731 21.1292 15.3711 21.0414C15.3702 20.8694 15.3012 20.7048 15.1791 20.5836V20.5836Z" fill="#FFD73F"/>
<path fill-rule="evenodd" clip-rule="evenodd" d="M14.7067 19.9487C14.9228 19.9487 15.134 20.0128 15.3137 20.1329C15.4934 20.2529 15.6335 20.4236 15.7162 20.6233C15.7989 20.8229 15.8205 21.0426 15.7784 21.2546C15.7362 21.4665 15.6321 21.6612 15.4793 21.814C15.3265 21.9668 15.1318 22.0709 14.9199 22.1131C14.7079 22.1552 14.4882 22.1336 14.2885 22.0509C14.0889 21.9682 13.9182 21.8281 13.7982 21.6485C13.6781 21.4688 13.614 21.2575 13.614 21.0414C13.614 20.7516 13.7291 20.4737 13.934 20.2688C14.139 20.0639 14.4169 19.9487 14.7067 19.9487V19.9487Z" fill="black"/>
<path fill-rule="evenodd" clip-rule="evenodd" d="M7.92925 8.26904C9.2151 8.26904 10.4485 8.77883 11.3591 9.68668C12.2697 10.5945 12.7833 11.8264 12.7872 13.1122C12.7872 13.2894 12.7872 13.4518 12.7872 13.6143C12.6555 12.4257 12.0901 11.3275 11.1993 10.5299C10.3084 9.7322 9.15458 9.29115 7.95878 9.29115C6.76298 9.29115 5.60919 9.7322 4.7183 10.5299C3.82742 11.3275 3.26202 12.4257 3.13037 13.6143C3.13037 13.4518 3.13037 13.2894 3.13037 13.1122C3.13032 11.8354 3.63449 10.6102 4.53321 9.70314C5.43192 8.79613 6.65245 8.28072 7.92925 8.26904Z" fill="white"/>
<path fill-rule="evenodd" clip-rule="evenodd" d="M20.4506 8.26904C21.7365 8.26904 22.9699 8.77883 23.8805 9.68668C24.7911 10.5945 25.3046 11.8264 25.3086 13.1122C25.3086 13.2894 25.3086 13.4518 25.3086 13.6143C25.1769 12.4257 24.6115 11.3275 23.7206 10.5299C22.8297 9.7322 21.6759 9.29115 20.4801 9.29115C19.2843 9.29115 18.1306 9.7322 17.2397 10.5299C16.3488 11.3275 15.7834 12.4257 15.6517 13.6143C15.6517 13.4518 15.6517 13.2894 15.6517 13.1122C15.6517 11.8354 16.1559 10.6102 17.0546 9.70314C17.9533 8.79613 19.1738 8.28072 20.4506 8.26904V8.26904Z" fill="white"/>
<path fill-rule="evenodd" clip-rule="evenodd" d="M4.62171 2.24443C5.10127 2.24151 5.57091 2.38104 5.97107 2.64534C6.37124 2.90965 6.68392 3.28682 6.86947 3.72904C7.05502 4.17126 7.10509 4.65862 7.01332 5.12933C6.92156 5.60004 6.6921 6.03291 6.35403 6.37305C6.01596 6.7132 5.5845 6.9453 5.11436 7.03994C4.64422 7.13458 4.15657 7.0875 3.71322 6.90465C3.26987 6.72181 2.89079 6.41145 2.62405 6.0129C2.3573 5.61436 2.2149 5.14559 2.21489 4.66602C2.21294 4.34871 2.27376 4.03415 2.39384 3.74043C2.51392 3.44672 2.6909 3.17964 2.91459 2.95458C3.13828 2.72952 3.40426 2.55092 3.69724 2.42904C3.99021 2.30716 4.3044 2.24442 4.62171 2.24443Z" fill="white"/>
<path fill-rule="evenodd" clip-rule="evenodd" d="M8.34265 2.20032C8.57044 2.20032 8.79311 2.26786 8.98252 2.39442C9.17192 2.52097 9.31954 2.70085 9.40671 2.9113C9.49388 3.12175 9.51669 3.35333 9.47225 3.57674C9.42781 3.80015 9.31812 4.00537 9.15705 4.16645C8.99597 4.32752 8.79076 4.43721 8.56734 4.48165C8.34393 4.52609 8.11235 4.50328 7.9019 4.41611C7.69145 4.32894 7.51157 4.18132 7.38502 3.99192C7.25847 3.80252 7.19092 3.57984 7.19092 3.35205C7.19092 3.04659 7.31226 2.75364 7.52825 2.53765C7.74424 2.32166 8.03719 2.20032 8.34265 2.20032V2.20032Z" fill="white"/>
</svg>
