<svg width="350" height="231" viewBox="0 0 350 231" fill="none" xmlns="http://www.w3.org/2000/svg">
<g clip-path="url(#clip0)">
<path fill-rule="evenodd" clip-rule="evenodd" d="M11.6064 47.0301H72.9248C85.4548 32.2785 101.045 20.4281 118.614 12.3008C136.183 4.17355 155.311 -0.0360837 174.67 -0.0360837C194.029 -0.0360837 213.157 4.17355 230.726 12.3008C248.295 20.4281 263.885 32.2785 276.415 47.0301H338.088L350 54.3577C347.019 109.021 344.026 163.688 341.02 218.36L332.7 230.975H16.2734L9.19959 223.904C6.16157 169.078 3.09504 114.24 0 59.3892L10.6779 47.0301H11.6064ZM73.9144 51.1335H12.5349L4.1783 60.8059L13.2313 222.146L17.9838 226.896H330.501L337.001 217.126L345.748 56.5803L336.928 51.1335H274.522L273.899 50.4008C261.757 35.8912 246.578 24.2211 229.433 16.2135C212.288 8.20584 193.594 4.05569 174.67 4.05569C155.746 4.05569 137.052 8.20584 119.907 16.2135C102.762 24.2211 87.5837 35.8912 75.4416 50.4008L74.8307 51.1335H73.9144Z" fill="#242127"/>
<path fill-rule="evenodd" clip-rule="evenodd" d="M11.6064 49.0822H73.9144C86.2576 34.3592 101.679 22.5193 119.093 14.3956C136.507 6.27195 155.49 2.06197 174.707 2.06197C193.924 2.06197 212.907 6.27195 230.321 14.3956C247.735 22.5193 263.156 34.3592 275.499 49.0822H337.538L347.911 55.4815L339.029 217.725L331.625 228.948H17.1042L11.191 223.037L2.08917 60.0979L11.6064 49.0822Z" fill="#84758F"/>
<path fill-rule="evenodd" clip-rule="evenodd" d="M151.164 214.733H144.994L141.781 226.42L151.164 214.733Z" fill="#A398AC"/>
<path d="M324.869 211.484H24.1168V214.745H324.869V211.484Z" fill="#A398AC"/>
<path fill-rule="evenodd" clip-rule="evenodd" d="M15.4182 68.1948L21.5268 60.5986H80.0108C91.8111 47.0756 106.372 36.2357 122.713 28.8081C139.055 21.3804 156.798 17.5373 174.75 17.5373C192.701 17.5373 210.444 21.3804 226.786 28.8081C243.127 36.2357 257.688 47.0756 269.488 60.5986H327.423L334.521 66.9002L324.857 211.46H24.1169L15.4182 68.1948Z" fill="#615669"/>
<path fill-rule="evenodd" clip-rule="evenodd" d="M67.8424 68.3413H63.0654L72.1673 85.0847L67.8424 68.3413Z" fill="#84758F"/>
<path fill-rule="evenodd" clip-rule="evenodd" d="M82.4787 68.3413H77.8605L74.7329 76.9511L82.4787 68.3413Z" fill="#84758F"/>
<path fill-rule="evenodd" clip-rule="evenodd" d="M174.707 17.5494C156.751 17.4763 138.992 21.2856 122.646 28.7162C106.301 36.1467 91.7571 47.0228 80.0108 60.5986H21.5268L15.4182 68.207L24.1169 211.484H29.4558L20.6594 72.4325L25.0698 68.3902H82.491C93.7767 54.9149 107.881 44.0775 123.811 36.6414C139.74 29.2053 157.108 25.3515 174.688 25.3515C192.269 25.3515 209.637 29.2053 225.566 36.6414C241.496 44.0775 255.6 54.9149 266.886 68.3902H324.576L329.194 73.5194L319.506 211.521H324.845L334.496 66.9247L327.423 60.5986H269.329C257.592 47.0315 243.059 36.1606 226.728 28.7304C210.396 21.3001 192.65 17.4861 174.707 17.5494V17.5494Z" fill="#504757"/>
<path fill-rule="evenodd" clip-rule="evenodd" d="M329.389 225.358H19.3522L13.5001 219.557L4.43489 62.5526L13.8544 51.7567H74.9407C87.2265 37.3059 102.508 25.6979 119.728 17.7371C136.947 9.77637 155.692 5.65314 174.664 5.65314C193.636 5.65314 212.381 9.77637 229.6 17.7371C246.82 25.6979 262.102 37.3059 274.387 51.7567H335.266L345.529 58.0217L336.708 214.342L329.377 225.333L329.389 225.358ZM73.8778 49.0822H11.6064L2.08917 60.0734L11.2277 223.037L17.1042 228.948H331.601L339.004 217.725L347.886 55.4815L337.514 49.0822H275.475C263.132 34.3592 247.71 22.5193 230.296 14.3956C212.883 6.27195 193.899 2.06197 174.682 2.06197C155.465 2.06197 136.482 6.27195 119.068 14.3956C101.654 22.5193 86.2332 34.3592 73.89 49.0822H73.8778Z" fill="#A398AC"/>
<path fill-rule="evenodd" clip-rule="evenodd" d="M3.04212 99.3856L3.07877 101.132L5.37561 101.071L9.35844 97.7613L11.6797 91.2642L15.125 90.2262L11.6064 90.0674L9.51726 81.4087L4.81362 78.0503L2.52899 78.0991L2.57786 80.2852L4.86249 80.2241L8.23445 81.885L10.6779 91.1055L8.1978 97.0041L5.33896 99.3245L3.04212 99.3856Z" fill="#242127"/>
<path fill-rule="evenodd" clip-rule="evenodd" d="M4.92357 82.5323L4.86249 80.2241L8.23445 81.885L10.6779 91.1055L7.46476 83.2162L4.92357 82.5323Z" fill="#A398AC"/>
<path fill-rule="evenodd" clip-rule="evenodd" d="M5.37561 101.071L5.42448 102.988L10.2014 98.5795L11.9974 91.8749L15.125 90.2262L11.6797 91.2642L9.35844 97.7613L5.37561 101.071Z" fill="#A398AC"/>
<path fill-rule="evenodd" clip-rule="evenodd" d="M340.018 199.272L340.226 195.535L331.246 192.25L340.018 199.272Z" fill="#242127"/>
<path fill-rule="evenodd" clip-rule="evenodd" d="M73.2303 228.948H68.1723L65.4479 218.067L73.2303 228.948Z" fill="#242127"/>
<path fill-rule="evenodd" clip-rule="evenodd" d="M293.739 228.948H289.244L294.216 220.961L293.739 228.948Z" fill="#242127"/>
<path fill-rule="evenodd" clip-rule="evenodd" d="M151.36 211.484H148.159L143.101 224.198L151.36 211.484Z" fill="#242127"/>
<path fill-rule="evenodd" clip-rule="evenodd" d="M326.469 110.133L326.555 106.615L331.808 103.709L338.039 109.339L331.747 106.298L326.469 110.133Z" fill="#242127"/>
<path fill-rule="evenodd" clip-rule="evenodd" d="M6.79281 143.693L6.54846 139.687L9.88377 142.618L14.8928 144.132L9.92042 144.254L6.79281 143.693Z" fill="#242127"/>
<path fill-rule="evenodd" clip-rule="evenodd" d="M7.42812 155.343L7.25708 152.315L9.68831 152.302L13.8544 149.726L9.72497 154.061L7.42812 155.343Z" fill="#242127"/>
<path fill-rule="evenodd" clip-rule="evenodd" d="M65.961 68.3413H63.0655L61.7827 60.5986L67.4027 55.0663L69.6506 51.7567L68.5999 49.0822H71.9719V51.7567L69.1619 55.6281L77.5918 58.9133L80.0231 60.5986L82.4787 68.3413H79.7543L77.6651 60.5986L68.6855 56.9959L63.4687 60.5986L65.961 68.3413Z" fill="#242127"/>
<path fill-rule="evenodd" clip-rule="evenodd" d="M177.395 25.3288L174.67 25.3044L182.428 21.0056L192.703 21.7017L196.893 19.6011L204.248 14.9481L233.399 23.7289L241.804 24.1075L244.651 22.1902L245.946 23.0206L243.612 25.2189L233.521 24.6571L204.688 16.5968L199.483 19.9797L192.703 22.3001L182.672 21.5429L177.395 25.3288Z" fill="#242127"/>
<path fill-rule="evenodd" clip-rule="evenodd" d="M9.18732 146.843L9.15067 145.158L9.11401 144.108L9.92035 144.254L14.8928 144.132L9.18732 146.843Z" fill="#A398AC"/>
<path fill-rule="evenodd" clip-rule="evenodd" d="M68.6854 56.9959L63.4686 60.5986L68.8442 58.1194L77.6651 60.5986L68.6854 56.9959Z" fill="#A398AC"/>
<path fill-rule="evenodd" clip-rule="evenodd" d="M204.688 16.5968L199.483 19.9797L205.054 17.5983L233.447 25.5364L246.41 26.9897L243.612 25.2189L233.521 24.6571L204.688 16.5968Z" fill="#A398AC"/>
<path fill-rule="evenodd" clip-rule="evenodd" d="M331.698 108.508L331.747 106.298L338.039 109.339L331.698 108.508Z" fill="#A398AC"/>
<path fill-rule="evenodd" clip-rule="evenodd" d="M337.441 201.617L337.673 197.403L331.246 192.25L337.441 201.617Z" fill="#A398AC"/>
<path fill-rule="evenodd" clip-rule="evenodd" d="M298.565 68.3413H295.511L294.473 60.5986L302.084 54.8953L297.356 60.623L298.565 68.3413Z" fill="#242127"/>
<path fill-rule="evenodd" clip-rule="evenodd" d="M65.9609 68.3413H63.0654L69.5161 79.3448L65.9609 68.3413Z" fill="#242127"/>
<path fill-rule="evenodd" clip-rule="evenodd" d="M82.4788 68.3413H79.7543L77.2131 73.7393L82.4788 68.3413Z" fill="#242127"/>
<path fill-rule="evenodd" clip-rule="evenodd" d="M177.395 25.3288L174.67 25.3044L169.124 37.2604L177.395 25.3288Z" fill="#242127"/>
<path fill-rule="evenodd" clip-rule="evenodd" d="M298.565 68.3413H295.511L305.7 74.4598L298.565 68.3413Z" fill="#242127"/>
<path fill-rule="evenodd" clip-rule="evenodd" d="M326.47 110.133L326.555 106.615L313.373 102.036L326.47 110.133Z" fill="#242127"/>
<path fill-rule="evenodd" clip-rule="evenodd" d="M295.511 68.3413L305.7 74.4598L293.275 68.3413H295.511Z" fill="#84758F"/>
<path fill-rule="evenodd" clip-rule="evenodd" d="M326.47 110.133L313.373 102.036L326.396 113.174L326.47 110.133Z" fill="#84758F"/>
<path fill-rule="evenodd" clip-rule="evenodd" d="M30.8486 80.9324C31.2568 80.9324 31.6484 81.0946 31.9371 81.3831C32.2258 81.6717 32.3879 82.0631 32.3879 82.4712C32.3879 82.8793 32.2258 83.2707 31.9371 83.5593C31.6484 83.8479 31.2568 84.01 30.8486 84.01C30.4403 84.01 30.0488 83.8479 29.7601 83.5593C29.4714 83.2707 29.3092 82.8793 29.3092 82.4712C29.3092 82.0631 29.4714 81.6717 29.7601 81.3831C30.0488 81.0946 30.4403 80.9324 30.8486 80.9324V80.9324Z" fill="#2D2530"/>
<path fill-rule="evenodd" clip-rule="evenodd" d="M131.946 68.6222C132.219 68.6222 132.48 68.7303 132.672 68.9227C132.865 69.1151 132.973 69.376 132.973 69.6481C132.973 69.9201 132.865 70.1811 132.672 70.3735C132.48 70.5658 132.219 70.6739 131.946 70.6739C131.674 70.6739 131.413 70.5658 131.221 70.3735C131.028 70.1811 130.92 69.9201 130.92 69.6481C130.92 69.376 131.028 69.1151 131.221 68.9227C131.413 68.7303 131.674 68.6222 131.946 68.6222Z" fill="#2D2530"/>
<path fill-rule="evenodd" clip-rule="evenodd" d="M228.829 74.2644C229.438 74.2644 230.033 74.4449 230.54 74.7831C231.046 75.1212 231.441 75.6019 231.674 76.1642C231.907 76.7266 231.968 77.3454 231.849 77.9424C231.73 78.5393 231.437 79.0877 231.006 79.5181C230.576 79.9485 230.027 80.2416 229.43 80.3604C228.833 80.4791 228.214 80.4182 227.651 80.1852C227.088 79.9523 226.608 79.5579 226.269 79.0518C225.931 78.5457 225.75 77.9506 225.75 77.342C225.75 76.9378 225.83 76.5376 225.985 76.1642C226.14 75.7908 226.366 75.4516 226.652 75.1658C226.938 74.88 227.278 74.6533 227.651 74.4987C228.025 74.344 228.425 74.2644 228.829 74.2644V74.2644Z" fill="#2D2530"/>
<path fill-rule="evenodd" clip-rule="evenodd" d="M316.024 96.308C316.328 96.308 316.626 96.3983 316.879 96.5673C317.132 96.7364 317.329 96.9767 317.446 97.2579C317.562 97.5391 317.593 97.8485 317.534 98.147C317.474 98.4455 317.328 98.7197 317.112 98.9349C316.897 99.1501 316.623 99.2966 316.324 99.356C316.025 99.4154 315.716 99.3849 315.435 99.2684C315.153 99.152 314.913 98.9547 314.744 98.7017C314.575 98.4486 314.484 98.1511 314.484 97.8468C314.484 97.6447 314.524 97.4446 314.602 97.2579C314.679 97.0712 314.792 96.9016 314.935 96.7587C315.078 96.6158 315.248 96.5025 315.435 96.4251C315.621 96.3478 315.822 96.308 316.024 96.308V96.308Z" fill="#2D2530"/>
<path fill-rule="evenodd" clip-rule="evenodd" d="M118.3 44.5269C118.558 44.5148 118.814 44.5813 119.034 44.7174C119.254 44.8535 119.428 45.053 119.533 45.2897C119.637 45.5263 119.668 45.789 119.62 46.0433C119.573 46.2976 119.449 46.5316 119.266 46.7145C119.083 46.8975 118.849 47.0208 118.595 47.0683C118.341 47.1158 118.078 47.0853 117.841 46.9808C117.604 46.8762 117.405 46.7026 117.268 46.4826C117.132 46.2626 117.066 46.0066 117.078 45.7481C117.078 45.4242 117.207 45.1136 117.436 44.8846C117.665 44.6556 117.976 44.5269 118.3 44.5269Z" fill="#2D2530"/>
<path fill-rule="evenodd" clip-rule="evenodd" d="M194.254 121.441C194.363 121.428 194.473 121.437 194.577 121.469C194.682 121.501 194.778 121.555 194.86 121.627C194.942 121.7 195.008 121.788 195.053 121.888C195.098 121.988 195.121 122.095 195.121 122.205C195.121 122.314 195.098 122.422 195.053 122.521C195.008 122.621 194.942 122.71 194.86 122.782C194.778 122.854 194.682 122.908 194.577 122.94C194.473 122.972 194.363 122.982 194.254 122.968C194.146 122.982 194.036 122.972 193.932 122.94C193.827 122.908 193.731 122.854 193.649 122.782C193.567 122.71 193.501 122.621 193.456 122.521C193.411 122.422 193.388 122.314 193.388 122.205C193.388 122.095 193.411 121.988 193.456 121.888C193.501 121.788 193.567 121.7 193.649 121.627C193.731 121.555 193.827 121.501 193.932 121.469C194.036 121.437 194.146 121.428 194.254 121.441V121.441Z" fill="#2D2530"/>
<path d="M299.103 144.511C300.236 144.511 301.155 143.592 301.155 142.459C301.155 141.326 300.236 140.407 299.103 140.407C297.969 140.407 297.05 141.326 297.05 142.459C297.05 143.592 297.969 144.511 299.103 144.511Z" fill="#2D2530"/>
<path d="M221.401 195.779C222.11 195.779 222.684 195.205 222.684 194.497C222.684 193.789 222.11 193.214 221.401 193.214C220.693 193.214 220.118 193.789 220.118 194.497C220.118 195.205 220.693 195.779 221.401 195.779Z" fill="#2D2530"/>
<path fill-rule="evenodd" clip-rule="evenodd" d="M166.155 10.686C166.244 10.686 166.331 10.7125 166.406 10.7621C166.48 10.8118 166.538 10.8823 166.572 10.9649C166.607 11.0475 166.615 11.1383 166.598 11.226C166.581 11.3136 166.538 11.3941 166.474 11.4573C166.411 11.5205 166.331 11.5636 166.243 11.581C166.155 11.5984 166.064 11.5895 165.982 11.5553C165.899 11.5211 165.828 11.4632 165.779 11.3889C165.729 11.3146 165.703 11.2272 165.703 11.1378C165.706 11.019 165.754 10.9058 165.838 10.8217C165.923 10.7376 166.036 10.6891 166.155 10.686V10.686Z" fill="#514257"/>
<path fill-rule="evenodd" clip-rule="evenodd" d="M185.556 8.54877C185.872 8.54877 186.182 8.6426 186.445 8.81839C186.708 8.99419 186.913 9.24405 187.034 9.53638C187.155 9.82871 187.187 10.1504 187.125 10.4607C187.064 10.7711 186.911 11.0561 186.687 11.2799C186.464 11.5036 186.178 11.656 185.868 11.7177C185.557 11.7794 185.236 11.7478 184.943 11.6267C184.651 11.5056 184.401 11.3005 184.225 11.0374C184.049 10.7743 183.955 10.465 183.955 10.1486C183.955 9.72431 184.124 9.31738 184.424 9.01735C184.724 8.71732 185.131 8.54877 185.556 8.54877V8.54877Z" fill="#514257"/>
<path fill-rule="evenodd" clip-rule="evenodd" d="M146.766 11.5897C146.945 11.5897 147.121 11.643 147.27 11.7429C147.418 11.8427 147.534 11.9846 147.602 12.1505C147.67 12.3163 147.688 12.4986 147.652 12.6743C147.616 12.8499 147.528 13.0109 147.401 13.1368C147.273 13.2627 147.111 13.3478 146.935 13.3812C146.759 13.4147 146.576 13.3951 146.411 13.3248C146.246 13.2545 146.106 13.1368 146.008 12.9866C145.91 12.8364 145.859 12.6604 145.862 12.4812C145.862 12.3631 145.885 12.2462 145.931 12.1372C145.977 12.0282 146.043 11.9294 146.127 11.8465C146.212 11.7635 146.311 11.6981 146.421 11.654C146.531 11.6099 146.648 11.5881 146.766 11.5897V11.5897Z" fill="#514257"/>
<path fill-rule="evenodd" clip-rule="evenodd" d="M91.495 41.7058C91.698 41.7058 91.8964 41.766 92.0652 41.8787C92.2339 41.9914 92.3655 42.1516 92.4431 42.3391C92.5208 42.5265 92.5411 42.7328 92.5015 42.9318C92.4619 43.1308 92.3642 43.3136 92.2207 43.457C92.0771 43.6005 91.8943 43.6982 91.6952 43.7378C91.4961 43.7774 91.2898 43.757 91.1023 43.6794C90.9147 43.6018 90.7545 43.4703 90.6417 43.3016C90.5289 43.1329 90.4688 42.9345 90.4688 42.7316C90.4688 42.4596 90.5769 42.1986 90.7693 42.0063C90.9618 41.8139 91.2228 41.7058 91.495 41.7058V41.7058Z" fill="#514257"/>
<path fill-rule="evenodd" clip-rule="evenodd" d="M106.498 30.8122C106.566 30.8122 106.631 30.7852 106.679 30.7371C106.727 30.689 106.754 30.6238 106.754 30.5558C106.754 30.4877 106.727 30.4225 106.679 30.3744C106.631 30.3263 106.566 30.2993 106.498 30.2993C106.43 30.2993 106.364 30.3263 106.316 30.3744C106.268 30.4225 106.241 30.4877 106.241 30.5558C106.241 30.6238 106.268 30.689 106.316 30.7371C106.364 30.7852 106.43 30.8122 106.498 30.8122Z" fill="#514257"/>
<path fill-rule="evenodd" clip-rule="evenodd" d="M44.8251 54.3946C44.9773 54.3946 45.1261 54.4397 45.2527 54.5243C45.3793 54.6088 45.478 54.729 45.5362 54.8696C45.5945 55.0102 45.6097 55.1649 45.58 55.3141C45.5503 55.4633 45.477 55.6004 45.3694 55.708C45.2617 55.8156 45.1246 55.8889 44.9753 55.9186C44.826 55.9483 44.6712 55.9331 44.5306 55.8748C44.3899 55.8166 44.2697 55.718 44.1851 55.5914C44.1006 55.4649 44.0554 55.3162 44.0554 55.164C44.0554 55.063 44.0753 54.9629 44.114 54.8696C44.1527 54.7762 44.2094 54.6914 44.2809 54.62C44.3523 54.5485 44.4372 54.4918 44.5306 54.4532C44.6239 54.4145 44.724 54.3946 44.8251 54.3946V54.3946Z" fill="#514257"/>
<path fill-rule="evenodd" clip-rule="evenodd" d="M55.2709 56.8371C55.5367 56.8371 55.7965 56.9159 56.0175 57.0635C56.2385 57.2111 56.4108 57.4209 56.5125 57.6664C56.6142 57.9119 56.6408 58.182 56.589 58.4426C56.5371 58.7032 56.4091 58.9425 56.2212 59.1304C56.0332 59.3183 55.7938 59.4462 55.5331 59.4981C55.2724 59.5499 55.0022 59.5233 54.7566 59.4216C54.511 59.3199 54.3012 59.1478 54.1535 58.9268C54.0058 58.7059 53.927 58.4462 53.927 58.1805C53.9302 57.8252 54.0728 57.4853 54.3241 57.2341C54.5755 56.9829 54.9155 56.8403 55.2709 56.8371V56.8371Z" fill="#514257"/>
<path fill-rule="evenodd" clip-rule="evenodd" d="M124.616 22.8619C124.834 22.8594 125.049 22.9222 125.231 23.042C125.414 23.1618 125.557 23.3334 125.642 23.5347C125.726 23.736 125.749 23.958 125.707 24.1724C125.665 24.3867 125.56 24.5837 125.406 24.7381C125.251 24.8926 125.054 24.9975 124.84 25.0395C124.625 25.0815 124.403 25.0587 124.202 24.974C124 24.8893 123.829 24.7466 123.709 24.564C123.589 24.3814 123.526 24.1672 123.529 23.9488C123.529 23.6605 123.643 23.384 123.847 23.1802C124.051 22.9764 124.328 22.8619 124.616 22.8619V22.8619Z" fill="#514257"/>
<path fill-rule="evenodd" clip-rule="evenodd" d="M14.3675 58.3637C14.5855 58.3613 14.7992 58.4237 14.9817 58.543C15.1641 58.6622 15.3069 58.8331 15.392 59.0337C15.4771 59.2343 15.5006 59.4557 15.4596 59.6697C15.4186 59.8837 15.3148 60.0807 15.1615 60.2356C15.0083 60.3905 14.8124 60.4964 14.5988 60.5398C14.3851 60.5833 14.1634 60.5622 13.9618 60.4794C13.7602 60.3966 13.5877 60.2557 13.4663 60.0747C13.345 59.8937 13.2802 59.6807 13.2802 59.4628C13.2801 59.1734 13.3943 58.8957 13.5979 58.6899C13.8014 58.4841 14.078 58.3669 14.3675 58.3637V58.3637Z" fill="#514257"/>
<path fill-rule="evenodd" clip-rule="evenodd" d="M20.2073 54.5289C20.4114 54.5289 20.6072 54.61 20.7516 54.7543C20.8959 54.8986 20.977 55.0943 20.977 55.2983C20.977 55.5024 20.8959 55.6981 20.7516 55.8424C20.6072 55.9867 20.4114 56.0677 20.2073 56.0677C20.0032 56.0677 19.8074 55.9867 19.6631 55.8424C19.5187 55.6981 19.4376 55.5024 19.4376 55.2983C19.4376 55.0943 19.5187 54.8986 19.6631 54.7543C19.8074 54.61 20.0032 54.5289 20.2073 54.5289V54.5289Z" fill="#514257"/>
<path fill-rule="evenodd" clip-rule="evenodd" d="M10.4579 74.0079C10.6885 74.0055 10.9146 74.0718 11.1073 74.1984C11.3 74.3249 11.4507 74.506 11.54 74.7185C11.6294 74.931 11.6534 75.1652 11.609 75.3914C11.5646 75.6176 11.4538 75.8254 11.2908 75.9884C11.1277 76.1514 10.9198 76.2622 10.6935 76.3065C10.4673 76.3509 10.2329 76.3269 10.0203 76.2376C9.80775 76.1483 9.62662 75.9977 9.50002 75.805C9.37342 75.6124 9.3071 75.3864 9.30951 75.1559C9.31269 74.8524 9.43471 74.5623 9.64939 74.3477C9.86408 74.1331 10.1543 74.0111 10.4579 74.0079V74.0079Z" fill="#514257"/>
<path fill-rule="evenodd" clip-rule="evenodd" d="M12.4493 121.173C12.6678 121.17 12.8821 121.233 13.0648 121.353C13.2475 121.473 13.3903 121.644 13.475 121.846C13.5597 122.047 13.5825 122.269 13.5405 122.483C13.4985 122.698 13.3935 122.895 13.239 123.049C13.0845 123.203 12.8874 123.308 12.673 123.35C12.4586 123.392 12.2365 123.37 12.0351 123.285C11.8337 123.2 11.6621 123.057 11.5422 122.875C11.4223 122.692 11.3596 122.478 11.362 122.26C11.362 122.117 11.3901 121.976 11.4448 121.844C11.4994 121.712 11.5795 121.592 11.6805 121.491C11.7814 121.39 11.9013 121.31 12.0332 121.255C12.1652 121.201 12.3066 121.173 12.4493 121.173V121.173Z" fill="#514257"/>
<path fill-rule="evenodd" clip-rule="evenodd" d="M13.4389 113.992C13.575 113.992 13.7055 114.046 13.8018 114.142C13.898 114.238 13.9521 114.369 13.9521 114.505C13.9521 114.641 13.898 114.771 13.8018 114.867C13.7055 114.964 13.575 115.018 13.4389 115.018C13.3711 115.019 13.3036 115.007 13.2406 114.982C13.1776 114.957 13.1204 114.919 13.0724 114.871C13.0244 114.823 12.9867 114.766 12.9615 114.703C12.9363 114.64 12.9241 114.573 12.9258 114.505C12.9258 114.369 12.9799 114.238 13.0761 114.142C13.1723 114.046 13.3028 113.992 13.4389 113.992V113.992Z" fill="#514257"/>
<path fill-rule="evenodd" clip-rule="evenodd" d="M18.6068 192.958C18.8721 192.96 19.1307 193.041 19.3501 193.19C19.5695 193.339 19.7399 193.55 19.8397 193.796C19.9395 194.041 19.9644 194.311 19.9112 194.571C19.858 194.831 19.729 195.069 19.5406 195.256C19.3522 195.442 19.1127 195.569 18.8524 195.62C18.592 195.671 18.3224 195.643 18.0776 195.541C17.8327 195.439 17.6235 195.267 17.4764 195.046C17.3293 194.826 17.2507 194.567 17.2507 194.301C17.2507 194.124 17.2859 193.948 17.3542 193.784C17.4225 193.621 17.5226 193.472 17.6487 193.347C17.7748 193.222 17.9243 193.123 18.0888 193.057C18.2533 192.99 18.4293 192.956 18.6068 192.958V192.958Z" fill="#514257"/>
<path fill-rule="evenodd" clip-rule="evenodd" d="M18.6069 203.082C19.0254 203.085 19.4338 203.211 19.7803 203.446C20.1268 203.681 20.3957 204.013 20.5531 204.401C20.7104 204.788 20.7491 205.214 20.6642 205.624C20.5792 206.033 20.3745 206.409 20.076 206.702C19.7775 206.995 19.3986 207.193 18.9874 207.271C18.5761 207.349 18.151 207.303 17.766 207.139C17.3809 206.975 17.0533 206.7 16.8245 206.35C16.5958 205.999 16.4763 205.589 16.4811 205.171C16.4875 204.612 16.7147 204.079 17.1131 203.688C17.5114 203.297 18.0484 203.079 18.6069 203.082V203.082Z" fill="#514257"/>
<path fill-rule="evenodd" clip-rule="evenodd" d="M35.7233 218.971C35.9528 218.971 36.1772 219.039 36.3681 219.166C36.5589 219.294 36.7077 219.475 36.7956 219.687C36.8834 219.899 36.9064 220.132 36.8616 220.357C36.8168 220.582 36.7063 220.789 36.544 220.951C36.3816 221.113 36.1748 221.224 35.9497 221.269C35.7245 221.314 35.4912 221.291 35.2791 221.203C35.067 221.115 34.8858 220.966 34.7582 220.775C34.6307 220.585 34.5626 220.36 34.5626 220.131C34.5626 219.823 34.6849 219.528 34.9026 219.31C35.1202 219.093 35.4154 218.971 35.7233 218.971V218.971Z" fill="#514257"/>
<path fill-rule="evenodd" clip-rule="evenodd" d="M48.9301 219.361C49.2109 219.361 49.4854 219.445 49.7187 219.601C49.952 219.757 50.1336 219.979 50.2405 220.239C50.3474 220.498 50.3748 220.784 50.3191 221.059C50.2634 221.334 50.1272 221.587 49.9278 221.784C49.7284 221.982 49.4747 222.116 49.199 222.169C48.9233 222.222 48.6379 222.192 48.3792 222.083C48.1205 221.974 47.9 221.791 47.7458 221.556C47.5915 221.322 47.5104 221.047 47.5129 220.766C47.5129 220.58 47.5496 220.397 47.621 220.226C47.6923 220.054 47.7969 219.899 47.9287 219.768C48.0605 219.638 48.2168 219.535 48.3887 219.465C48.5605 219.395 48.7445 219.36 48.9301 219.361Z" fill="#514257"/>
<path fill-rule="evenodd" clip-rule="evenodd" d="M233.056 219.618C233.338 219.616 233.613 219.697 233.848 219.852C234.083 220.006 234.267 220.227 234.376 220.487C234.484 220.746 234.513 221.032 234.459 221.308C234.405 221.584 234.27 221.837 234.071 222.036C233.872 222.235 233.618 222.37 233.342 222.425C233.066 222.479 232.78 222.45 232.521 222.341C232.261 222.232 232.04 222.049 231.885 221.814C231.73 221.579 231.649 221.304 231.651 221.022C231.651 220.65 231.799 220.293 232.063 220.029C232.326 219.766 232.684 219.618 233.056 219.618Z" fill="#514257"/>
<path fill-rule="evenodd" clip-rule="evenodd" d="M254.669 218.079C254.993 218.079 255.304 218.208 255.533 218.437C255.762 218.666 255.89 218.977 255.89 219.3C255.89 219.624 255.762 219.935 255.533 220.164C255.304 220.393 254.993 220.522 254.669 220.522C254.345 220.522 254.034 220.393 253.805 220.164C253.576 219.935 253.447 219.624 253.447 219.3C253.447 218.977 253.576 218.666 253.805 218.437C254.034 218.208 254.345 218.079 254.669 218.079Z" fill="#514257"/>
<path fill-rule="evenodd" clip-rule="evenodd" d="M276.11 217.566C276.376 217.566 276.636 217.645 276.857 217.793C277.078 217.94 277.25 218.15 277.352 218.396C277.453 218.641 277.48 218.911 277.428 219.172C277.376 219.432 277.248 219.672 277.06 219.86C276.872 220.047 276.633 220.175 276.372 220.227C276.112 220.279 275.841 220.252 275.596 220.151C275.35 220.049 275.14 219.877 274.993 219.656C274.845 219.435 274.766 219.175 274.766 218.91C274.769 218.554 274.912 218.214 275.163 217.963C275.415 217.712 275.755 217.569 276.11 217.566V217.566Z" fill="#514257"/>
<path fill-rule="evenodd" clip-rule="evenodd" d="M196.771 219.105C197.126 219.105 197.474 219.21 197.769 219.408C198.064 219.605 198.294 219.885 198.43 220.213C198.566 220.541 198.602 220.902 198.533 221.25C198.463 221.599 198.292 221.919 198.041 222.17C197.79 222.421 197.47 222.592 197.122 222.661C196.773 222.73 196.412 222.695 196.084 222.559C195.756 222.423 195.475 222.193 195.278 221.898C195.081 221.602 194.975 221.255 194.975 220.9C194.975 220.424 195.164 219.967 195.501 219.631C195.838 219.294 196.295 219.105 196.771 219.105V219.105Z" fill="#514257"/>
<path fill-rule="evenodd" clip-rule="evenodd" d="M337.05 154.244C337.506 154.244 337.953 154.38 338.333 154.633C338.712 154.887 339.008 155.247 339.183 155.669C339.358 156.091 339.403 156.555 339.314 157.003C339.225 157.45 339.005 157.862 338.682 158.185C338.36 158.507 337.948 158.727 337.5 158.816C337.052 158.905 336.588 158.86 336.166 158.685C335.744 158.51 335.383 158.214 335.13 157.835C334.876 157.455 334.741 157.009 334.741 156.552C334.741 155.94 334.984 155.353 335.417 154.92C335.85 154.487 336.437 154.244 337.05 154.244V154.244Z" fill="#514257"/>
<path fill-rule="evenodd" clip-rule="evenodd" d="M335.975 167.067C336.482 167.067 336.978 167.218 337.4 167.5C337.822 167.781 338.151 168.182 338.345 168.651C338.539 169.119 338.59 169.635 338.491 170.132C338.392 170.63 338.148 171.087 337.789 171.446C337.43 171.804 336.973 172.048 336.475 172.147C335.977 172.246 335.462 172.196 334.993 172.001C334.524 171.807 334.123 171.479 333.841 171.057C333.559 170.635 333.409 170.139 333.409 169.632C333.409 168.952 333.679 168.3 334.16 167.819C334.642 167.338 335.294 167.067 335.975 167.067V167.067Z" fill="#514257"/>
<path fill-rule="evenodd" clip-rule="evenodd" d="M331.088 203.717C331.172 203.717 331.256 203.734 331.334 203.767C331.412 203.799 331.482 203.847 331.541 203.908C331.6 203.968 331.647 204.039 331.678 204.118C331.709 204.196 331.725 204.28 331.723 204.364C331.723 204.533 331.656 204.694 331.537 204.814C331.418 204.933 331.256 205 331.088 205C331.003 205.001 330.919 204.986 330.841 204.955C330.762 204.924 330.691 204.877 330.631 204.818C330.57 204.759 330.522 204.688 330.49 204.61C330.457 204.533 330.44 204.449 330.44 204.364C330.44 204.193 330.508 204.028 330.63 203.907C330.751 203.785 330.916 203.717 331.088 203.717V203.717Z" fill="#514257"/>
<path fill-rule="evenodd" clip-rule="evenodd" d="M337.306 123.481C337.459 123.481 337.607 123.526 337.734 123.611C337.86 123.695 337.959 123.815 338.017 123.956C338.076 124.096 338.091 124.251 338.061 124.4C338.031 124.55 337.958 124.687 337.851 124.794C337.743 124.902 337.606 124.975 337.456 125.005C337.307 125.035 337.152 125.019 337.012 124.961C336.871 124.903 336.751 124.804 336.666 124.678C336.582 124.551 336.537 124.402 336.537 124.25C336.537 124.046 336.618 123.851 336.762 123.706C336.906 123.562 337.102 123.481 337.306 123.481V123.481Z" fill="#514257"/>
</g>
<defs>
<clipPath id="clip0">
<rect width="350" height="231" fill="white"/>
</clipPath>
</defs>
</svg>
